M48
; DRILL file KiCad 10.0.3 date 2026-06-16T05:03:54
; FORMAT={-:-/ absolute / metric / decimal}
; #@! TF.CreationDate,2026-06-16T05:03:54+03:00
; #@! TF.GenerationSoftware,Kicad,Pcbnew,10.0.3
; #@! TF.FileFunction,Plated,1,2,PTH
FMAT,2
METRIC
; #@! TA.AperFunction,Plated,PTH,ViaDrill
T1C0.300
; #@! TA.AperFunction,Plated,PTH,ComponentDrill
T2C0.600
; #@! TA.AperFunction,Plated,PTH,ComponentDrill
T3C1.000
; #@! TA.AperFunction,Plated,PTH,ComponentDrill
T4C1.100
; #@! TA.AperFunction,Plated,PTH,ComponentDrill
T5C1.300
; #@! TA.AperFunction,Plated,PTH,ComponentDrill
T6C2.700
%
G90
G05
T1
X110.975Y-99.425
X115.275Y-100.575
X116.5Y-119.0
X116.772Y-99.052
X116.825Y-113.5
X126.5Y-91.8
X126.675Y-129.525
X126.95Y-118.425
X127.025Y-121.45
X130.65Y-124.85
X132.05Y-125.4
X132.525Y-129.45
X133.175Y-124.6
X134.4Y-113.2
X134.6Y-123.4
X135.8Y-118.9
X137.5Y-121.9
X138.9Y-129.8
X139.32Y-114.6
X140.8Y-143.0
X141.9Y-132.5
X146.031Y-137.589
X146.555Y-120.9
X147.1Y-132.9
X148.9Y-125.8
X151.825Y-72.25
X161.2Y-127.225
X162.4Y-88.8
X163.9Y-122.825
X165.6Y-101.6
X165.9Y-74.05
X166.0Y-115.0
X166.0Y-128.3
X168.445Y-125.002
X173.6Y-126.4
X173.672Y-86.509
X173.7Y-72.5
X173.7Y-100.0
X173.7Y-113.4
X174.6Y-126.4
X174.672Y-86.509
X174.7Y-72.5
X174.7Y-100.0
X174.7Y-113.4
X175.6Y-126.4
X175.672Y-86.509
X175.7Y-72.5
X175.7Y-100.0
X175.7Y-113.4
X176.6Y-126.4
X176.672Y-86.509
X176.7Y-72.5
X176.7Y-100.0
X176.7Y-113.4
X177.6Y-126.4
X177.672Y-86.509
X177.7Y-72.5
X177.7Y-100.0
X177.7Y-113.4
X178.6Y-126.4
X178.672Y-86.509
X178.7Y-72.5
X178.7Y-100.0
X178.7Y-113.4
X179.6Y-126.4
X179.672Y-86.509
X179.7Y-72.5
X179.7Y-100.0
X179.7Y-113.4
X180.6Y-126.4
X180.672Y-86.509
X180.7Y-72.5
X180.7Y-100.0
X180.7Y-113.4
T2
X116.1Y-82.772
X118.1Y-82.772
X119.925Y-92.575
X121.925Y-92.575
X130.025Y-81.95
X130.125Y-88.65
X132.025Y-81.95
X132.125Y-88.65
X139.8Y-100.9
X141.8Y-100.9
X145.05Y-75.725
X146.55Y-75.725
T3
X122.06Y-100.2
X124.6Y-100.2
X127.14Y-100.2
X129.68Y-100.2
X134.24Y-109.8
X136.78Y-109.8
X137.34Y-145.8
X139.32Y-109.8
X139.88Y-145.8
X141.86Y-109.8
X142.42Y-145.8
X144.4Y-109.8
X144.96Y-145.8
X147.5Y-145.8
X150.04Y-145.8
T4
X133.625Y-75.625
X136.165Y-75.625
X138.705Y-75.625
T5
X108.2Y-105.12
X108.2Y-110.2
X108.5Y-80.62
X108.5Y-85.7
X108.5Y-90.78
X108.5Y-95.86
X109.0Y-117.44
X109.0Y-122.52
X109.0Y-127.6
X109.1Y-133.74
X109.1Y-138.82
X109.1Y-143.9
X118.7Y-144.4
X123.78Y-144.4
X128.86Y-144.4
X141.12Y-67.1
X146.2Y-67.1
X188.0Y-93.245
X188.0Y-98.325
X188.0Y-103.405
X188.1Y-74.9
X188.1Y-79.98
X188.197Y-119.95
X188.197Y-125.03
X188.197Y-130.11
T6
X127.3Y-67.675
X127.3Y-135.8
X185.0Y-66.1
X185.0Y-144.7
M30
