%TF.GenerationSoftware,KiCad,Pcbnew,10.0.3*%
%TF.CreationDate,2026-06-16T05:03:52+03:00*%
%TF.ProjectId,Pehlivan VCU,5065686c-6976-4616-9e20-5643552e6b69,rev?*%
%TF.SameCoordinates,Original*%
%TF.FileFunction,Soldermask,Top*%
%TF.FilePolarity,Negative*%
%FSLAX46Y46*%
G04 Gerber Fmt 4.6, Leading zero omitted, Abs format (unit mm)*
G04 Created by KiCad (PCBNEW 10.0.3) date 2026-06-16 05:03:52*
%MOMM*%
%LPD*%
G01*
G04 APERTURE LIST*
G04 Aperture macros list*
%AMRoundRect*
0 Rectangle with rounded corners*
0 $1 Rounding radius*
0 $2 $3 $4 $5 $6 $7 $8 $9 X,Y pos of 4 corners*
0 Add a 4 corners polygon primitive as box body*
4,1,4,$2,$3,$4,$5,$6,$7,$8,$9,$2,$3,0*
0 Add four circle primitives for the rounded corners*
1,1,$1+$1,$2,$3*
1,1,$1+$1,$4,$5*
1,1,$1+$1,$6,$7*
1,1,$1+$1,$8,$9*
0 Add four rect primitives between the rounded corners*
20,1,$1+$1,$2,$3,$4,$5,0*
20,1,$1+$1,$4,$5,$6,$7,0*
20,1,$1+$1,$6,$7,$8,$9,0*
20,1,$1+$1,$8,$9,$2,$3,0*%
G04 Aperture macros list end*
%ADD10RoundRect,0.250000X0.475000X-0.337500X0.475000X0.337500X-0.475000X0.337500X-0.475000X-0.337500X0*%
%ADD11RoundRect,0.250000X0.097227X-0.574524X0.574524X-0.097227X-0.097227X0.574524X-0.574524X0.097227X0*%
%ADD12C,1.200000*%
%ADD13RoundRect,0.150000X0.150000X-0.825000X0.150000X0.825000X-0.150000X0.825000X-0.150000X-0.825000X0*%
%ADD14RoundRect,0.250000X0.337500X0.475000X-0.337500X0.475000X-0.337500X-0.475000X0.337500X-0.475000X0*%
%ADD15RoundRect,0.250000X1.100000X-0.412500X1.100000X0.412500X-1.100000X0.412500X-1.100000X-0.412500X0*%
%ADD16RoundRect,0.250000X-1.050000X-1.050000X1.050000X-1.050000X1.050000X1.050000X-1.050000X1.050000X0*%
%ADD17C,2.600000*%
%ADD18RoundRect,0.250000X-2.050000X-0.300000X2.050000X-0.300000X2.050000X0.300000X-2.050000X0.300000X0*%
%ADD19RoundRect,0.250002X-4.449998X-5.149998X4.449998X-5.149998X4.449998X5.149998X-4.449998X5.149998X0*%
%ADD20RoundRect,0.250000X-1.050000X1.050000X-1.050000X-1.050000X1.050000X-1.050000X1.050000X1.050000X0*%
%ADD21C,4.700000*%
%ADD22RoundRect,0.250000X0.450000X-0.262500X0.450000X0.262500X-0.450000X0.262500X-0.450000X-0.262500X0*%
%ADD23R,1.700000X1.700000*%
%ADD24C,1.700000*%
%ADD25RoundRect,0.375000X-0.375000X0.625000X-0.375000X-0.625000X0.375000X-0.625000X0.375000X0.625000X0*%
%ADD26RoundRect,0.500000X-1.400000X0.500000X-1.400000X-0.500000X1.400000X-0.500000X1.400000X0.500000X0*%
%ADD27RoundRect,0.250000X-0.475000X0.337500X-0.475000X-0.337500X0.475000X-0.337500X0.475000X0.337500X0*%
%ADD28RoundRect,0.250000X-0.262500X-0.450000X0.262500X-0.450000X0.262500X0.450000X-0.262500X0.450000X0*%
%ADD29RoundRect,0.250000X0.450000X-0.350000X0.450000X0.350000X-0.450000X0.350000X-0.450000X-0.350000X0*%
%ADD30RoundRect,0.250000X1.050000X-1.050000X1.050000X1.050000X-1.050000X1.050000X-1.050000X-1.050000X0*%
%ADD31RoundRect,0.250000X-0.097227X0.574524X-0.574524X0.097227X0.097227X-0.574524X0.574524X-0.097227X0*%
%ADD32RoundRect,0.250000X0.262500X0.450000X-0.262500X0.450000X-0.262500X-0.450000X0.262500X-0.450000X0*%
%ADD33RoundRect,0.250000X-0.337500X-0.475000X0.337500X-0.475000X0.337500X0.475000X-0.337500X0.475000X0*%
%ADD34RoundRect,0.250001X-0.462499X-0.624999X0.462499X-0.624999X0.462499X0.624999X-0.462499X0.624999X0*%
%ADD35RoundRect,0.250000X-0.563864X-0.146930X-0.046784X-0.580812X0.563864X0.146930X0.046784X0.580812X0*%
%ADD36RoundRect,0.250001X0.462499X0.624999X-0.462499X0.624999X-0.462499X-0.624999X0.462499X-0.624999X0*%
%ADD37RoundRect,0.075000X-0.662500X-0.075000X0.662500X-0.075000X0.662500X0.075000X-0.662500X0.075000X0*%
%ADD38RoundRect,0.075000X-0.075000X-0.662500X0.075000X-0.662500X0.075000X0.662500X-0.075000X0.662500X0*%
%ADD39RoundRect,0.237500X0.237500X-0.300000X0.237500X0.300000X-0.237500X0.300000X-0.237500X-0.300000X0*%
%ADD40RoundRect,0.250000X-1.100000X0.412500X-1.100000X-0.412500X1.100000X-0.412500X1.100000X0.412500X0*%
%ADD41RoundRect,0.250000X-0.450000X0.262500X-0.450000X-0.262500X0.450000X-0.262500X0.450000X0.262500X0*%
%ADD42R,1.905000X2.000000*%
%ADD43O,1.905000X2.000000*%
%ADD44RoundRect,0.250000X-0.650000X0.800000X-0.650000X-0.800000X0.650000X-0.800000X0.650000X0.800000X0*%
%ADD45RoundRect,0.250000X-0.650000X1.000000X-0.650000X-1.000000X0.650000X-1.000000X0.650000X1.000000X0*%
%ADD46RoundRect,0.250001X0.624999X-0.462499X0.624999X0.462499X-0.624999X0.462499X-0.624999X-0.462499X0*%
%ADD47RoundRect,0.150000X0.150000X-0.587500X0.150000X0.587500X-0.150000X0.587500X-0.150000X-0.587500X0*%
%ADD48RoundRect,0.237500X-0.300000X-0.237500X0.300000X-0.237500X0.300000X0.237500X-0.300000X0.237500X0*%
G04 APERTURE END LIST*
D10*
%TO.C,C17*%
X134600000Y-126637500D03*
X134600000Y-124562500D03*
%TD*%
D11*
%TO.C,C9*%
X137066377Y-124358623D03*
X138533623Y-122891377D03*
%TD*%
D12*
%TO.C,C6*%
X116100000Y-82772500D03*
X118100000Y-82772500D03*
%TD*%
D13*
%TO.C,U3*%
X118795000Y-118775000D03*
X120065000Y-118775000D03*
X121335000Y-118775000D03*
X122605000Y-118775000D03*
X122605000Y-113825000D03*
X121335000Y-113825000D03*
X120065000Y-113825000D03*
X118795000Y-113825000D03*
%TD*%
D14*
%TO.C,C5*%
X118100000Y-78872500D03*
X116025000Y-78872500D03*
%TD*%
D15*
%TO.C,C7*%
X116375000Y-115450000D03*
X116375000Y-112325000D03*
%TD*%
D16*
%TO.C,J9*%
X118700000Y-144400000D03*
D17*
X123780000Y-144400000D03*
X128860000Y-144400000D03*
%TD*%
D18*
%TO.C,U6*%
X168025000Y-128275000D03*
X168025000Y-129975000D03*
D19*
X177175000Y-131675000D03*
D18*
X168025000Y-133375000D03*
X168025000Y-135075000D03*
%TD*%
D20*
%TO.C,J3*%
X108500000Y-80620000D03*
D17*
X108500000Y-85700000D03*
X108500000Y-90780000D03*
X108500000Y-95860000D03*
%TD*%
D21*
%TO.C,H1*%
X127300000Y-67675000D03*
%TD*%
D22*
%TO.C,R13*%
X163600000Y-94015000D03*
X163600000Y-92190000D03*
%TD*%
D23*
%TO.C,J6*%
X129680000Y-100200000D03*
D24*
X127140000Y-100200000D03*
X124600000Y-100200000D03*
X122060000Y-100200000D03*
%TD*%
D25*
%TO.C,U2*%
X142100000Y-90150000D03*
X139800000Y-90150000D03*
D26*
X139800000Y-96450000D03*
D25*
X137500000Y-90150000D03*
%TD*%
D20*
%TO.C,J4*%
X108200000Y-105120000D03*
D17*
X108200000Y-110200000D03*
%TD*%
D27*
%TO.C,C14*%
X142800000Y-136000000D03*
X142800000Y-138075000D03*
%TD*%
D28*
%TO.C,R14*%
X162987500Y-103325000D03*
X164812500Y-103325000D03*
%TD*%
D18*
%TO.C,U8*%
X168125000Y-101600000D03*
X168125000Y-103300000D03*
D19*
X177275000Y-105000000D03*
D18*
X168125000Y-106700000D03*
X168125000Y-108400000D03*
%TD*%
D23*
%TO.C,J5*%
X150040000Y-145800000D03*
D24*
X147500000Y-145800000D03*
X144960000Y-145800000D03*
X142420000Y-145800000D03*
X139880000Y-145800000D03*
X137340000Y-145800000D03*
%TD*%
D29*
%TO.C,R20*%
X124480000Y-97500000D03*
X124480000Y-95500000D03*
%TD*%
D12*
%TO.C,C1*%
X145050000Y-75725000D03*
X146550000Y-75725000D03*
%TD*%
D30*
%TO.C,J10*%
X188197500Y-130110000D03*
D17*
X188197500Y-125030000D03*
X188197500Y-119950000D03*
%TD*%
D31*
%TO.C,C11*%
X146533623Y-134366377D03*
X145066377Y-135833623D03*
%TD*%
D12*
%TO.C,C3*%
X130125000Y-88650000D03*
X132125000Y-88650000D03*
%TD*%
D32*
%TO.C,R11*%
X164625000Y-116625000D03*
X162800000Y-116625000D03*
%TD*%
D18*
%TO.C,U5*%
X168025000Y-114925000D03*
X168025000Y-116625000D03*
D19*
X177175000Y-118325000D03*
D18*
X168025000Y-120025000D03*
X168025000Y-121725000D03*
%TD*%
D33*
%TO.C,C19*%
X134225000Y-112700000D03*
X136300000Y-112700000D03*
%TD*%
D34*
%TO.C,D10*%
X126692500Y-95800000D03*
X129667500Y-95800000D03*
%TD*%
D32*
%TO.C,R1*%
X131300000Y-72500000D03*
X129475000Y-72500000D03*
%TD*%
D28*
%TO.C,R10*%
X162800000Y-130025000D03*
X164625000Y-130025000D03*
%TD*%
D12*
%TO.C,C2*%
X130025000Y-81950000D03*
X132025000Y-81950000D03*
%TD*%
D22*
%TO.C,R4*%
X115400000Y-108625000D03*
X115400000Y-106800000D03*
%TD*%
D35*
%TO.C,C10*%
X146555229Y-124708108D03*
X148144771Y-126041892D03*
%TD*%
D29*
%TO.C,R5*%
X140800000Y-138200000D03*
X140800000Y-136200000D03*
%TD*%
D32*
%TO.C,R6*%
X168025000Y-124925000D03*
X166200000Y-124925000D03*
%TD*%
%TO.C,R3*%
X137700000Y-106900000D03*
X135875000Y-106900000D03*
%TD*%
D36*
%TO.C,D9*%
X113950000Y-100575000D03*
X110975000Y-100575000D03*
%TD*%
D23*
%TO.C,J2*%
X144400000Y-109800000D03*
D24*
X141860000Y-109800000D03*
X139320000Y-109800000D03*
X136780000Y-109800000D03*
X134240000Y-109800000D03*
%TD*%
D28*
%TO.C,R17*%
X127950000Y-93625000D03*
X129775000Y-93625000D03*
%TD*%
D18*
%TO.C,U7*%
X168125000Y-88050000D03*
X168125000Y-89750000D03*
D19*
X177275000Y-91450000D03*
D18*
X168125000Y-93150000D03*
X168125000Y-94850000D03*
%TD*%
D22*
%TO.C,R2*%
X145025000Y-96100000D03*
X145025000Y-94275000D03*
%TD*%
D14*
%TO.C,C8*%
X146037500Y-140100000D03*
X143962500Y-140100000D03*
%TD*%
D36*
%TO.C,D1*%
X136100000Y-72575000D03*
X133125000Y-72575000D03*
%TD*%
D28*
%TO.C,R15*%
X162885000Y-75800000D03*
X164710000Y-75800000D03*
%TD*%
D37*
%TO.C,U10*%
X137512500Y-126775000D03*
X137512500Y-127275000D03*
X137512500Y-127775000D03*
X137512500Y-128275000D03*
X137512500Y-128775000D03*
X137512500Y-129275000D03*
X137512500Y-129775000D03*
X137512500Y-130275000D03*
X137512500Y-130775000D03*
X137512500Y-131275000D03*
X137512500Y-131775000D03*
X137512500Y-132275000D03*
D38*
X138925000Y-133687500D03*
X139425000Y-133687500D03*
X139925000Y-133687500D03*
X140425000Y-133687500D03*
X140925000Y-133687500D03*
X141425000Y-133687500D03*
X141925000Y-133687500D03*
X142425000Y-133687500D03*
X142925000Y-133687500D03*
X143425000Y-133687500D03*
X143925000Y-133687500D03*
X144425000Y-133687500D03*
D37*
X145837500Y-132275000D03*
X145837500Y-131775000D03*
X145837500Y-131275000D03*
X145837500Y-130775000D03*
X145837500Y-130275000D03*
X145837500Y-129775000D03*
X145837500Y-129275000D03*
X145837500Y-128775000D03*
X145837500Y-128275000D03*
X145837500Y-127775000D03*
X145837500Y-127275000D03*
X145837500Y-126775000D03*
D38*
X144425000Y-125362500D03*
X143925000Y-125362500D03*
X143425000Y-125362500D03*
X142925000Y-125362500D03*
X142425000Y-125362500D03*
X141925000Y-125362500D03*
X141425000Y-125362500D03*
X140925000Y-125362500D03*
X140425000Y-125362500D03*
X139925000Y-125362500D03*
X139425000Y-125362500D03*
X138925000Y-125362500D03*
%TD*%
D39*
%TO.C,C20*%
X132150000Y-127612500D03*
X132150000Y-125887500D03*
%TD*%
D18*
%TO.C,U9*%
X168125000Y-74050000D03*
X168125000Y-75750000D03*
D19*
X177275000Y-77450000D03*
D18*
X168125000Y-79150000D03*
X168125000Y-80850000D03*
%TD*%
D21*
%TO.C,H3*%
X185000000Y-144700000D03*
%TD*%
D40*
%TO.C,C12*%
X134000000Y-118900000D03*
X134000000Y-122025000D03*
%TD*%
D32*
%TO.C,R9*%
X164700000Y-73800000D03*
X162875000Y-73800000D03*
%TD*%
D20*
%TO.C,J7*%
X109000000Y-117440000D03*
D17*
X109000000Y-122520000D03*
X109000000Y-127600000D03*
%TD*%
D15*
%TO.C,C13*%
X125125000Y-121450000D03*
X125125000Y-118325000D03*
%TD*%
D30*
%TO.C,J12*%
X188100000Y-79980000D03*
D17*
X188100000Y-74900000D03*
%TD*%
D41*
%TO.C,R7*%
X161700000Y-92200000D03*
X161700000Y-94025000D03*
%TD*%
D42*
%TO.C,U1*%
X138705000Y-75625000D03*
D43*
X136165000Y-75625000D03*
X133625000Y-75625000D03*
%TD*%
D21*
%TO.C,H2*%
X185000000Y-66100000D03*
%TD*%
D44*
%TO.C,Y2*%
X127500000Y-125750000D03*
X127500000Y-128650000D03*
X129800000Y-128650000D03*
X129800000Y-125750000D03*
%TD*%
D45*
%TO.C,D3*%
X151825000Y-67350000D03*
X151825000Y-71350000D03*
%TD*%
D46*
%TO.C,D2*%
X145075000Y-100850000D03*
X145075000Y-97875000D03*
%TD*%
D16*
%TO.C,J1*%
X141120000Y-67100000D03*
D17*
X146200000Y-67100000D03*
%TD*%
D20*
%TO.C,J8*%
X109100000Y-133740000D03*
D17*
X109100000Y-138820000D03*
X109100000Y-143900000D03*
%TD*%
D33*
%TO.C,C15*%
X120050000Y-97125000D03*
X122125000Y-97125000D03*
%TD*%
D47*
%TO.C,Q5*%
X124430000Y-93637500D03*
X126330000Y-93637500D03*
X125380000Y-91762500D03*
%TD*%
D27*
%TO.C,C18*%
X133450000Y-145525000D03*
X133450000Y-147600000D03*
%TD*%
D32*
%TO.C,R8*%
X164800000Y-101425000D03*
X162975000Y-101425000D03*
%TD*%
D30*
%TO.C,J11*%
X188000000Y-103405000D03*
D17*
X188000000Y-98325000D03*
X188000000Y-93245000D03*
%TD*%
D21*
%TO.C,H4*%
X127300000Y-135800000D03*
%TD*%
D12*
%TO.C,C16*%
X121925000Y-92575000D03*
X119925000Y-92575000D03*
%TD*%
D48*
%TO.C,C22*%
X133037500Y-129450000D03*
X134762500Y-129450000D03*
%TD*%
D12*
%TO.C,C4*%
X139800000Y-100900000D03*
X141800000Y-100900000D03*
%TD*%
M02*
