%TF.GenerationSoftware,KiCad,Pcbnew,10.0.3*%
%TF.CreationDate,2026-06-17T20:57:50+03:00*%
%TF.ProjectId,Pehlivan VCU,5065686c-6976-4616-9e20-5643552e6b69,0.3*%
%TF.SameCoordinates,Original*%
%TF.FileFunction,Paste,Top*%
%TF.FilePolarity,Positive*%
%FSLAX46Y46*%
G04 Gerber Fmt 4.6, Leading zero omitted, Abs format (unit mm)*
G04 Created by KiCad (PCBNEW 10.0.3) date 2026-06-17 20:57:50*
%MOMM*%
%LPD*%
G01*
G04 APERTURE LIST*
G04 Aperture macros list*
%AMRoundRect*
0 Rectangle with rounded corners*
0 $1 Rounding radius*
0 $2 $3 $4 $5 $6 $7 $8 $9 X,Y pos of 4 corners*
0 Add a 4 corners polygon primitive as box body*
4,1,4,$2,$3,$4,$5,$6,$7,$8,$9,$2,$3,0*
0 Add four circle primitives for the rounded corners*
1,1,$1+$1,$2,$3*
1,1,$1+$1,$4,$5*
1,1,$1+$1,$6,$7*
1,1,$1+$1,$8,$9*
0 Add four rect primitives between the rounded corners*
20,1,$1+$1,$2,$3,$4,$5,0*
20,1,$1+$1,$4,$5,$6,$7,0*
20,1,$1+$1,$6,$7,$8,$9,0*
20,1,$1+$1,$8,$9,$2,$3,0*%
G04 Aperture macros list end*
%ADD10RoundRect,0.250000X-0.262500X-0.450000X0.262500X-0.450000X0.262500X0.450000X-0.262500X0.450000X0*%
%ADD11RoundRect,0.250000X0.337500X0.475000X-0.337500X0.475000X-0.337500X-0.475000X0.337500X-0.475000X0*%
%ADD12RoundRect,0.250001X0.462499X0.624999X-0.462499X0.624999X-0.462499X-0.624999X0.462499X-0.624999X0*%
%ADD13RoundRect,0.250001X-0.462499X-0.624999X0.462499X-0.624999X0.462499X0.624999X-0.462499X0.624999X0*%
%ADD14RoundRect,0.250000X0.262500X0.450000X-0.262500X0.450000X-0.262500X-0.450000X0.262500X-0.450000X0*%
%ADD15RoundRect,0.250000X-0.337500X-0.475000X0.337500X-0.475000X0.337500X0.475000X-0.337500X0.475000X0*%
%ADD16RoundRect,0.250000X1.100000X-0.412500X1.100000X0.412500X-1.100000X0.412500X-1.100000X-0.412500X0*%
%ADD17RoundRect,0.150000X0.150000X-0.587500X0.150000X0.587500X-0.150000X0.587500X-0.150000X-0.587500X0*%
%ADD18RoundRect,0.225000X-0.250000X0.225000X-0.250000X-0.225000X0.250000X-0.225000X0.250000X0.225000X0*%
%ADD19RoundRect,0.250001X0.624999X-0.462499X0.624999X0.462499X-0.624999X0.462499X-0.624999X-0.462499X0*%
%ADD20RoundRect,0.250000X2.025000X2.375000X-2.025000X2.375000X-2.025000X-2.375000X2.025000X-2.375000X0*%
%ADD21RoundRect,0.250000X2.050000X0.300000X-2.050000X0.300000X-2.050000X-0.300000X2.050000X-0.300000X0*%
%ADD22RoundRect,0.237500X-0.237500X0.250000X-0.237500X-0.250000X0.237500X-0.250000X0.237500X0.250000X0*%
%ADD23RoundRect,0.250000X-0.450000X0.262500X-0.450000X-0.262500X0.450000X-0.262500X0.450000X0.262500X0*%
%ADD24RoundRect,0.225000X0.250000X-0.225000X0.250000X0.225000X-0.250000X0.225000X-0.250000X-0.225000X0*%
%ADD25RoundRect,0.375000X-0.375000X0.625000X-0.375000X-0.625000X0.375000X-0.625000X0.375000X0.625000X0*%
%ADD26RoundRect,0.500000X-1.400000X0.500000X-1.400000X-0.500000X1.400000X-0.500000X1.400000X0.500000X0*%
%ADD27RoundRect,0.150000X-0.150000X0.825000X-0.150000X-0.825000X0.150000X-0.825000X0.150000X0.825000X0*%
%ADD28RoundRect,0.250000X-1.100000X0.412500X-1.100000X-0.412500X1.100000X-0.412500X1.100000X0.412500X0*%
%ADD29RoundRect,0.250000X-0.350000X-0.450000X0.350000X-0.450000X0.350000X0.450000X-0.350000X0.450000X0*%
%ADD30RoundRect,0.225000X0.225000X0.250000X-0.225000X0.250000X-0.225000X-0.250000X0.225000X-0.250000X0*%
%ADD31RoundRect,0.075000X0.662500X0.075000X-0.662500X0.075000X-0.662500X-0.075000X0.662500X-0.075000X0*%
%ADD32RoundRect,0.075000X0.075000X0.662500X-0.075000X0.662500X-0.075000X-0.662500X0.075000X-0.662500X0*%
%ADD33RoundRect,0.225000X-0.225000X-0.250000X0.225000X-0.250000X0.225000X0.250000X-0.225000X0.250000X0*%
G04 APERTURE END LIST*
D10*
%TO.C,R6*%
X136387500Y-76200000D03*
X138212500Y-76200000D03*
%TD*%
D11*
%TO.C,C18*%
X178816000Y-96520000D03*
X176741000Y-96520000D03*
%TD*%
D12*
%TO.C,D9*%
X162287500Y-135636000D03*
X159312500Y-135636000D03*
%TD*%
D13*
%TO.C,D10*%
X127231250Y-133800000D03*
X130206250Y-133800000D03*
%TD*%
D14*
%TO.C,R10*%
X138100000Y-71700000D03*
X136275000Y-71700000D03*
%TD*%
D10*
%TO.C,R2*%
X152607000Y-100584000D03*
X154432000Y-100584000D03*
%TD*%
D12*
%TO.C,D1*%
X181319500Y-70612000D03*
X178344500Y-70612000D03*
%TD*%
D15*
%TO.C,C8*%
X164316500Y-108458000D03*
X166391500Y-108458000D03*
%TD*%
D16*
%TO.C,C7*%
X163500000Y-131862500D03*
X163500000Y-128737500D03*
%TD*%
D17*
%TO.C,Q4*%
X155350000Y-132137500D03*
X157250000Y-132137500D03*
X156300000Y-130262500D03*
%TD*%
D18*
%TO.C,C9*%
X169100000Y-124075000D03*
X169100000Y-125625000D03*
%TD*%
D10*
%TO.C,R8*%
X136000000Y-99100000D03*
X137825000Y-99100000D03*
%TD*%
D19*
%TO.C,D2*%
X150368000Y-101527000D03*
X150368000Y-98552000D03*
%TD*%
D20*
%TO.C,U8*%
X125775000Y-97325000D03*
X125775000Y-91775000D03*
X120925000Y-97325000D03*
X120925000Y-91775000D03*
D21*
X132500000Y-97950000D03*
X132500000Y-96250000D03*
X132500000Y-92850000D03*
X132500000Y-91150000D03*
%TD*%
D22*
%TO.C,R5*%
X166675000Y-110387500D03*
X166675000Y-112212500D03*
%TD*%
D20*
%TO.C,U7*%
X125775000Y-109675000D03*
X125775000Y-104125000D03*
X120925000Y-109675000D03*
X120925000Y-104125000D03*
D21*
X132500000Y-110300000D03*
X132500000Y-108600000D03*
X132500000Y-105200000D03*
X132500000Y-103500000D03*
%TD*%
D16*
%TO.C,C12*%
X172675000Y-126762500D03*
X172675000Y-123637500D03*
%TD*%
D14*
%TO.C,R15*%
X137712500Y-120800000D03*
X135887500Y-120800000D03*
%TD*%
D10*
%TO.C,R11*%
X136387500Y-83900000D03*
X138212500Y-83900000D03*
%TD*%
D23*
%TO.C,R1*%
X178308000Y-72747500D03*
X178308000Y-74572500D03*
%TD*%
D10*
%TO.C,R7*%
X136247500Y-110490000D03*
X138072500Y-110490000D03*
%TD*%
D24*
%TO.C,C11*%
X163550000Y-112250000D03*
X163550000Y-110700000D03*
%TD*%
D25*
%TO.C,U2*%
X161304000Y-99364000D03*
X159004000Y-99364000D03*
D26*
X159004000Y-105664000D03*
D25*
X156704000Y-99364000D03*
%TD*%
D27*
%TO.C,U3*%
X169730000Y-129369000D03*
X168460000Y-129369000D03*
X167190000Y-129369000D03*
X165920000Y-129369000D03*
X165920000Y-134319000D03*
X167190000Y-134319000D03*
X168460000Y-134319000D03*
X169730000Y-134319000D03*
%TD*%
D20*
%TO.C,U5*%
X125775000Y-84975000D03*
X125775000Y-79425000D03*
X120925000Y-84975000D03*
X120925000Y-79425000D03*
D21*
X132500000Y-85600000D03*
X132500000Y-83900000D03*
X132500000Y-80500000D03*
X132500000Y-78800000D03*
%TD*%
D24*
%TO.C,C14*%
X165125000Y-112275000D03*
X165125000Y-110725000D03*
%TD*%
D10*
%TO.C,R9*%
X135887500Y-122700000D03*
X137712500Y-122700000D03*
%TD*%
D23*
%TO.C,R17*%
X132306250Y-131687500D03*
X132306250Y-133512500D03*
%TD*%
%TO.C,R16*%
X157300000Y-134129000D03*
X157300000Y-135954000D03*
%TD*%
D11*
%TO.C,C19*%
X145900000Y-120600000D03*
X143825000Y-120600000D03*
%TD*%
D20*
%TO.C,U9*%
X125775000Y-122025000D03*
X125775000Y-116475000D03*
X120925000Y-122025000D03*
X120925000Y-116475000D03*
D21*
X132500000Y-122650000D03*
X132500000Y-120950000D03*
X132500000Y-117550000D03*
X132500000Y-115850000D03*
%TD*%
D23*
%TO.C,R3*%
X147800000Y-118987500D03*
X147800000Y-120812500D03*
%TD*%
D14*
%TO.C,R14*%
X137700000Y-96600000D03*
X135875000Y-96600000D03*
%TD*%
%TO.C,R4*%
X168806500Y-136525000D03*
X166981500Y-136525000D03*
%TD*%
D20*
%TO.C,U6*%
X125775000Y-72625000D03*
X125775000Y-67075000D03*
X120925000Y-72625000D03*
X120925000Y-67075000D03*
D21*
X132500000Y-73250000D03*
X132500000Y-71550000D03*
X132500000Y-68150000D03*
X132500000Y-66450000D03*
%TD*%
D28*
%TO.C,C13*%
X172500000Y-129100000D03*
X172500000Y-132225000D03*
%TD*%
D15*
%TO.C,C5*%
X136262500Y-142400000D03*
X138337500Y-142400000D03*
%TD*%
D29*
%TO.C,R20*%
X124222000Y-131600000D03*
X126222000Y-131600000D03*
%TD*%
D30*
%TO.C,C10*%
X160450000Y-120900000D03*
X158900000Y-120900000D03*
%TD*%
D17*
%TO.C,Q5*%
X128656250Y-131437500D03*
X130556250Y-131437500D03*
X129606250Y-129562500D03*
%TD*%
D14*
%TO.C,R13*%
X137818500Y-108458000D03*
X135993500Y-108458000D03*
%TD*%
D31*
%TO.C,U10*%
X170500000Y-120900000D03*
X170500000Y-120400000D03*
X170500000Y-119900000D03*
X170500000Y-119400000D03*
X170500000Y-118900000D03*
X170500000Y-118400000D03*
X170500000Y-117900000D03*
X170500000Y-117400000D03*
X170500000Y-116900000D03*
X170500000Y-116400000D03*
X170500000Y-115900000D03*
X170500000Y-115400000D03*
D32*
X169087500Y-113987500D03*
X168587500Y-113987500D03*
X168087500Y-113987500D03*
X167587500Y-113987500D03*
X167087500Y-113987500D03*
X166587500Y-113987500D03*
X166087500Y-113987500D03*
X165587500Y-113987500D03*
X165087500Y-113987500D03*
X164587500Y-113987500D03*
X164087500Y-113987500D03*
X163587500Y-113987500D03*
D31*
X162175000Y-115400000D03*
X162175000Y-115900000D03*
X162175000Y-116400000D03*
X162175000Y-116900000D03*
X162175000Y-117400000D03*
X162175000Y-117900000D03*
X162175000Y-118400000D03*
X162175000Y-118900000D03*
X162175000Y-119400000D03*
X162175000Y-119900000D03*
X162175000Y-120400000D03*
X162175000Y-120900000D03*
D32*
X163587500Y-122312500D03*
X164087500Y-122312500D03*
X164587500Y-122312500D03*
X165087500Y-122312500D03*
X165587500Y-122312500D03*
X166087500Y-122312500D03*
X166587500Y-122312500D03*
X167087500Y-122312500D03*
X167587500Y-122312500D03*
X168087500Y-122312500D03*
X168587500Y-122312500D03*
X169087500Y-122312500D03*
%TD*%
D33*
%TO.C,C17*%
X172250000Y-120900000D03*
X173800000Y-120900000D03*
%TD*%
D11*
%TO.C,C15*%
X132537500Y-142500000D03*
X130462500Y-142500000D03*
%TD*%
D29*
%TO.C,R19*%
X153337500Y-134366000D03*
X155337500Y-134366000D03*
%TD*%
M02*
