M48
; DRILL file KiCad 10.0.3 date 2026-06-17T20:57:52
; FORMAT={-:-/ absolute / metric / decimal}
; #@! TF.CreationDate,2026-06-17T20:57:52+03:00
; #@! TF.GenerationSoftware,Kicad,Pcbnew,10.0.3
; #@! TF.FileFunction,Plated,1,4,PTH
FMAT,2
METRIC
; #@! TA.AperFunction,Plated,PTH,ViaDrill
T1C0.300
; #@! TA.AperFunction,Plated,PTH,ViaDrill
T2C0.500
; #@! TA.AperFunction,Plated,PTH,ComponentDrill
T3C0.600
; #@! TA.AperFunction,Plated,PTH,ViaDrill
T4C0.750
; #@! TA.AperFunction,Plated,PTH,ComponentDrill
T5C1.000
; #@! TA.AperFunction,Plated,PTH,ComponentDrill
T6C1.100
; #@! TA.AperFunction,Plated,PTH,ComponentDrill
T7C1.300
; #@! TA.AperFunction,Plated,PTH,ComponentDrill
T8C2.700
%
G90
G05
T1
X127.206Y-135.3
X133.6Y-74.8
X135.128Y-122.7
X135.2Y-98.3
X135.3Y-80.5
X135.382Y-110.3
X135.5Y-85.6
X136.4Y-77.9
X139.8Y-80.5
X141.478Y-110.49
X143.85Y-122.35
X144.018Y-110.49
X147.7Y-127.9
X156.3Y-128.8
X157.35Y-121.05
X158.164Y-120.935
X159.85Y-120.9
X161.362Y-131.862
X162.4Y-112.25
X163.5Y-130.1
X163.55Y-120.45
X163.75Y-109.65
X164.1Y-115.15
X164.1Y-135.3
X164.6Y-107.15
X165.25Y-109.7
X166.05Y-115.2
X166.725Y-106.8
X168.6Y-121.25
X168.656Y-131.064
X169.1Y-126.4
X169.672Y-106.68
X169.799Y-132.715
X172.5Y-127.9
X172.5Y-133.5
X174.575Y-120.9
X174.7Y-123.15
X175.26Y-96.52
X183.388Y-70.612
T2
X119.38Y-74.676
X119.38Y-77.216
X119.38Y-86.868
X119.38Y-89.916
X119.38Y-99.06
X119.38Y-102.108
X119.38Y-111.76
X119.38Y-114.3
X119.38Y-123.952
X120.396Y-74.676
X120.396Y-77.216
X120.396Y-86.868
X120.396Y-89.916
X120.396Y-99.06
X120.396Y-102.108
X120.396Y-111.76
X120.396Y-114.3
X120.396Y-123.952
X121.412Y-74.676
X121.412Y-77.216
X121.412Y-86.868
X121.412Y-89.916
X121.412Y-99.06
X121.412Y-102.108
X121.412Y-111.76
X121.412Y-114.3
X121.412Y-123.952
X122.428Y-74.676
X122.428Y-77.216
X122.428Y-86.868
X122.428Y-89.916
X122.428Y-99.06
X122.428Y-102.108
X122.428Y-111.76
X122.428Y-114.3
X122.428Y-123.952
X123.444Y-74.676
X123.444Y-77.216
X123.444Y-86.868
X123.444Y-89.916
X123.444Y-99.06
X123.444Y-102.108
X123.444Y-111.76
X123.444Y-114.3
X123.444Y-123.952
X124.46Y-74.676
X124.46Y-77.216
X124.46Y-86.868
X124.46Y-89.916
X124.46Y-99.06
X124.46Y-102.108
X124.46Y-111.76
X124.46Y-114.3
X124.46Y-123.952
X125.476Y-74.676
X125.476Y-77.216
X125.476Y-86.868
X125.476Y-89.916
X125.476Y-99.06
X125.476Y-102.108
X125.476Y-111.76
X125.476Y-114.3
X125.476Y-123.952
X126.492Y-74.676
X126.492Y-77.216
X126.492Y-86.868
X126.492Y-89.916
X126.492Y-99.06
X126.492Y-102.108
X126.492Y-111.76
X126.492Y-114.3
X126.492Y-123.952
X127.508Y-74.676
X127.508Y-77.216
X127.508Y-86.868
X127.508Y-89.916
X127.508Y-99.06
X127.508Y-102.108
X127.508Y-111.76
X127.508Y-114.3
X127.508Y-123.952
X129.3Y-103.5
X129.4Y-78.8
X129.5Y-91.1
X129.65Y-115.85
T3
X130.6Y-138.6
X132.6Y-138.6
X136.275Y-138.575
X138.275Y-138.575
X151.416Y-105.156
X153.416Y-105.156
X158.004Y-93.98
X160.004Y-93.98
X165.862Y-80.804
X165.862Y-82.304
X182.372Y-74.692
X182.372Y-76.692
T4
X129.35Y-66.45
T5
X118.872Y-138.684
X121.412Y-138.684
X123.952Y-138.684
X126.492Y-138.684
X145.94Y-123.4
X148.48Y-123.4
X151.02Y-123.4
X153.56Y-123.4
X156.1Y-123.4
X166.37Y-99.568
X168.91Y-99.568
X171.45Y-99.568
X173.99Y-99.568
X176.53Y-99.568
X179.07Y-99.568
T6
X175.26Y-75.692
X175.26Y-78.232
X175.26Y-80.772
T7
X112.027Y-116.455
X112.027Y-121.535
X112.227Y-95.715
X112.227Y-100.795
X112.227Y-105.875
X112.446Y-74.32
X112.446Y-79.4
X112.446Y-84.48
X143.26Y-143.2
X148.34Y-143.2
X153.42Y-143.2
X158.5Y-143.2
X161.72Y-69.3
X165.275Y-143.262
X166.8Y-69.3
X170.355Y-143.262
X187.85Y-81.82
X187.85Y-86.9
X187.85Y-91.98
X187.85Y-98.22
X187.85Y-103.3
X187.85Y-108.38
X187.85Y-114.52
X187.85Y-119.6
X187.85Y-124.68
T8
X113.284Y-68.508
X113.538Y-142.748
X186.182Y-142.748
X186.69Y-68.762
M30
