%TF.GenerationSoftware,KiCad,Pcbnew,10.0.3*%
%TF.CreationDate,2026-06-16T05:03:52+03:00*%
%TF.ProjectId,Pehlivan VCU,5065686c-6976-4616-9e20-5643552e6b69,rev?*%
%TF.SameCoordinates,Original*%
%TF.FileFunction,Legend,Bot*%
%TF.FilePolarity,Positive*%
%FSLAX46Y46*%
G04 Gerber Fmt 4.6, Leading zero omitted, Abs format (unit mm)*
G04 Created by KiCad (PCBNEW 10.0.3) date 2026-06-16 05:03:52*
%MOMM*%
%LPD*%
G01*
G04 APERTURE LIST*
%ADD10C,0.300000*%
%ADD11C,0.187500*%
%ADD12C,0.125000*%
%ADD13C,0.100000*%
%ADD14C,0.150000*%
%ADD15C,0.120000*%
G04 APERTURE END LIST*
D10*
X184459774Y-74072257D02*
X184602632Y-74000828D01*
X184602632Y-74000828D02*
X184816917Y-74000828D01*
X184816917Y-74000828D02*
X185031203Y-74072257D01*
X185031203Y-74072257D02*
X185174060Y-74215114D01*
X185174060Y-74215114D02*
X185245489Y-74357971D01*
X185245489Y-74357971D02*
X185316917Y-74643685D01*
X185316917Y-74643685D02*
X185316917Y-74857971D01*
X185316917Y-74857971D02*
X185245489Y-75143685D01*
X185245489Y-75143685D02*
X185174060Y-75286542D01*
X185174060Y-75286542D02*
X185031203Y-75429400D01*
X185031203Y-75429400D02*
X184816917Y-75500828D01*
X184816917Y-75500828D02*
X184674060Y-75500828D01*
X184674060Y-75500828D02*
X184459774Y-75429400D01*
X184459774Y-75429400D02*
X184388346Y-75357971D01*
X184388346Y-75357971D02*
X184388346Y-74857971D01*
X184388346Y-74857971D02*
X184674060Y-74857971D01*
X183745489Y-75500828D02*
X183745489Y-74000828D01*
X183745489Y-74000828D02*
X182888346Y-75500828D01*
X182888346Y-75500828D02*
X182888346Y-74000828D01*
X182174060Y-75500828D02*
X182174060Y-74000828D01*
X182174060Y-74000828D02*
X181816917Y-74000828D01*
X181816917Y-74000828D02*
X181602631Y-74072257D01*
X181602631Y-74072257D02*
X181459774Y-74215114D01*
X181459774Y-74215114D02*
X181388345Y-74357971D01*
X181388345Y-74357971D02*
X181316917Y-74643685D01*
X181316917Y-74643685D02*
X181316917Y-74857971D01*
X181316917Y-74857971D02*
X181388345Y-75143685D01*
X181388345Y-75143685D02*
X181459774Y-75286542D01*
X181459774Y-75286542D02*
X181602631Y-75429400D01*
X181602631Y-75429400D02*
X181816917Y-75500828D01*
X181816917Y-75500828D02*
X182174060Y-75500828D01*
X185116917Y-80729400D02*
X184902632Y-80800828D01*
X184902632Y-80800828D02*
X184545489Y-80800828D01*
X184545489Y-80800828D02*
X184402632Y-80729400D01*
X184402632Y-80729400D02*
X184331203Y-80657971D01*
X184331203Y-80657971D02*
X184259774Y-80515114D01*
X184259774Y-80515114D02*
X184259774Y-80372257D01*
X184259774Y-80372257D02*
X184331203Y-80229400D01*
X184331203Y-80229400D02*
X184402632Y-80157971D01*
X184402632Y-80157971D02*
X184545489Y-80086542D01*
X184545489Y-80086542D02*
X184831203Y-80015114D01*
X184831203Y-80015114D02*
X184974060Y-79943685D01*
X184974060Y-79943685D02*
X185045489Y-79872257D01*
X185045489Y-79872257D02*
X185116917Y-79729400D01*
X185116917Y-79729400D02*
X185116917Y-79586542D01*
X185116917Y-79586542D02*
X185045489Y-79443685D01*
X185045489Y-79443685D02*
X184974060Y-79372257D01*
X184974060Y-79372257D02*
X184831203Y-79300828D01*
X184831203Y-79300828D02*
X184474060Y-79300828D01*
X184474060Y-79300828D02*
X184259774Y-79372257D01*
X183831203Y-79800828D02*
X183259775Y-79800828D01*
X183616918Y-79300828D02*
X183616918Y-80586542D01*
X183616918Y-80586542D02*
X183545489Y-80729400D01*
X183545489Y-80729400D02*
X183402632Y-80800828D01*
X183402632Y-80800828D02*
X183259775Y-80800828D01*
X182545489Y-80800828D02*
X182688346Y-80729400D01*
X182688346Y-80729400D02*
X182759775Y-80657971D01*
X182759775Y-80657971D02*
X182831203Y-80515114D01*
X182831203Y-80515114D02*
X182831203Y-80086542D01*
X182831203Y-80086542D02*
X182759775Y-79943685D01*
X182759775Y-79943685D02*
X182688346Y-79872257D01*
X182688346Y-79872257D02*
X182545489Y-79800828D01*
X182545489Y-79800828D02*
X182331203Y-79800828D01*
X182331203Y-79800828D02*
X182188346Y-79872257D01*
X182188346Y-79872257D02*
X182116918Y-79943685D01*
X182116918Y-79943685D02*
X182045489Y-80086542D01*
X182045489Y-80086542D02*
X182045489Y-80515114D01*
X182045489Y-80515114D02*
X182116918Y-80657971D01*
X182116918Y-80657971D02*
X182188346Y-80729400D01*
X182188346Y-80729400D02*
X182331203Y-80800828D01*
X182331203Y-80800828D02*
X182545489Y-80800828D01*
X181402632Y-79800828D02*
X181402632Y-81300828D01*
X181402632Y-79872257D02*
X181259775Y-79800828D01*
X181259775Y-79800828D02*
X180974060Y-79800828D01*
X180974060Y-79800828D02*
X180831203Y-79872257D01*
X180831203Y-79872257D02*
X180759775Y-79943685D01*
X180759775Y-79943685D02*
X180688346Y-80086542D01*
X180688346Y-80086542D02*
X180688346Y-80515114D01*
X180688346Y-80515114D02*
X180759775Y-80657971D01*
X180759775Y-80657971D02*
X180831203Y-80729400D01*
X180831203Y-80729400D02*
X180974060Y-80800828D01*
X180974060Y-80800828D02*
X181259775Y-80800828D01*
X181259775Y-80800828D02*
X181402632Y-80729400D01*
X190488346Y-108600828D02*
X190988346Y-107886542D01*
X191345489Y-108600828D02*
X191345489Y-107100828D01*
X191345489Y-107100828D02*
X190774060Y-107100828D01*
X190774060Y-107100828D02*
X190631203Y-107172257D01*
X190631203Y-107172257D02*
X190559774Y-107243685D01*
X190559774Y-107243685D02*
X190488346Y-107386542D01*
X190488346Y-107386542D02*
X190488346Y-107600828D01*
X190488346Y-107600828D02*
X190559774Y-107743685D01*
X190559774Y-107743685D02*
X190631203Y-107815114D01*
X190631203Y-107815114D02*
X190774060Y-107886542D01*
X190774060Y-107886542D02*
X191345489Y-107886542D01*
X189845489Y-108600828D02*
X189845489Y-107600828D01*
X189845489Y-107100828D02*
X189916917Y-107172257D01*
X189916917Y-107172257D02*
X189845489Y-107243685D01*
X189845489Y-107243685D02*
X189774060Y-107172257D01*
X189774060Y-107172257D02*
X189845489Y-107100828D01*
X189845489Y-107100828D02*
X189845489Y-107243685D01*
X188488346Y-107600828D02*
X188488346Y-108815114D01*
X188488346Y-108815114D02*
X188559774Y-108957971D01*
X188559774Y-108957971D02*
X188631203Y-109029400D01*
X188631203Y-109029400D02*
X188774060Y-109100828D01*
X188774060Y-109100828D02*
X188988346Y-109100828D01*
X188988346Y-109100828D02*
X189131203Y-109029400D01*
X188488346Y-108529400D02*
X188631203Y-108600828D01*
X188631203Y-108600828D02*
X188916917Y-108600828D01*
X188916917Y-108600828D02*
X189059774Y-108529400D01*
X189059774Y-108529400D02*
X189131203Y-108457971D01*
X189131203Y-108457971D02*
X189202631Y-108315114D01*
X189202631Y-108315114D02*
X189202631Y-107886542D01*
X189202631Y-107886542D02*
X189131203Y-107743685D01*
X189131203Y-107743685D02*
X189059774Y-107672257D01*
X189059774Y-107672257D02*
X188916917Y-107600828D01*
X188916917Y-107600828D02*
X188631203Y-107600828D01*
X188631203Y-107600828D02*
X188488346Y-107672257D01*
X187774060Y-108600828D02*
X187774060Y-107100828D01*
X187131203Y-108600828D02*
X187131203Y-107815114D01*
X187131203Y-107815114D02*
X187202631Y-107672257D01*
X187202631Y-107672257D02*
X187345488Y-107600828D01*
X187345488Y-107600828D02*
X187559774Y-107600828D01*
X187559774Y-107600828D02*
X187702631Y-107672257D01*
X187702631Y-107672257D02*
X187774060Y-107743685D01*
X186631202Y-107600828D02*
X186059774Y-107600828D01*
X186416917Y-107100828D02*
X186416917Y-108386542D01*
X186416917Y-108386542D02*
X186345488Y-108529400D01*
X186345488Y-108529400D02*
X186202631Y-108600828D01*
X186202631Y-108600828D02*
X186059774Y-108600828D01*
X183916917Y-107815114D02*
X183702631Y-107886542D01*
X183702631Y-107886542D02*
X183631202Y-107957971D01*
X183631202Y-107957971D02*
X183559774Y-108100828D01*
X183559774Y-108100828D02*
X183559774Y-108315114D01*
X183559774Y-108315114D02*
X183631202Y-108457971D01*
X183631202Y-108457971D02*
X183702631Y-108529400D01*
X183702631Y-108529400D02*
X183845488Y-108600828D01*
X183845488Y-108600828D02*
X184416917Y-108600828D01*
X184416917Y-108600828D02*
X184416917Y-107100828D01*
X184416917Y-107100828D02*
X183916917Y-107100828D01*
X183916917Y-107100828D02*
X183774060Y-107172257D01*
X183774060Y-107172257D02*
X183702631Y-107243685D01*
X183702631Y-107243685D02*
X183631202Y-107386542D01*
X183631202Y-107386542D02*
X183631202Y-107529400D01*
X183631202Y-107529400D02*
X183702631Y-107672257D01*
X183702631Y-107672257D02*
X183774060Y-107743685D01*
X183774060Y-107743685D02*
X183916917Y-107815114D01*
X183916917Y-107815114D02*
X184416917Y-107815114D01*
X182702631Y-108600828D02*
X182845488Y-108529400D01*
X182845488Y-108529400D02*
X182916917Y-108386542D01*
X182916917Y-108386542D02*
X182916917Y-107100828D01*
X182131203Y-108600828D02*
X182131203Y-107600828D01*
X182131203Y-107100828D02*
X182202631Y-107172257D01*
X182202631Y-107172257D02*
X182131203Y-107243685D01*
X182131203Y-107243685D02*
X182059774Y-107172257D01*
X182059774Y-107172257D02*
X182131203Y-107100828D01*
X182131203Y-107100828D02*
X182131203Y-107243685D01*
X181416917Y-107600828D02*
X181416917Y-108600828D01*
X181416917Y-107743685D02*
X181345488Y-107672257D01*
X181345488Y-107672257D02*
X181202631Y-107600828D01*
X181202631Y-107600828D02*
X180988345Y-107600828D01*
X180988345Y-107600828D02*
X180845488Y-107672257D01*
X180845488Y-107672257D02*
X180774060Y-107815114D01*
X180774060Y-107815114D02*
X180774060Y-108600828D01*
X180059774Y-108600828D02*
X180059774Y-107100828D01*
X179916917Y-108029400D02*
X179488345Y-108600828D01*
X179488345Y-107600828D02*
X180059774Y-108172257D01*
X178274059Y-108529400D02*
X178416916Y-108600828D01*
X178416916Y-108600828D02*
X178702631Y-108600828D01*
X178702631Y-108600828D02*
X178845488Y-108529400D01*
X178845488Y-108529400D02*
X178916916Y-108386542D01*
X178916916Y-108386542D02*
X178916916Y-107815114D01*
X178916916Y-107815114D02*
X178845488Y-107672257D01*
X178845488Y-107672257D02*
X178702631Y-107600828D01*
X178702631Y-107600828D02*
X178416916Y-107600828D01*
X178416916Y-107600828D02*
X178274059Y-107672257D01*
X178274059Y-107672257D02*
X178202631Y-107815114D01*
X178202631Y-107815114D02*
X178202631Y-107957971D01*
X178202631Y-107957971D02*
X178916916Y-108100828D01*
X177559774Y-108600828D02*
X177559774Y-107600828D01*
X177559774Y-107886542D02*
X177488345Y-107743685D01*
X177488345Y-107743685D02*
X177416917Y-107672257D01*
X177416917Y-107672257D02*
X177274059Y-107600828D01*
X177274059Y-107600828D02*
X177131202Y-107600828D01*
X184059774Y-98072257D02*
X184202632Y-98000828D01*
X184202632Y-98000828D02*
X184416917Y-98000828D01*
X184416917Y-98000828D02*
X184631203Y-98072257D01*
X184631203Y-98072257D02*
X184774060Y-98215114D01*
X184774060Y-98215114D02*
X184845489Y-98357971D01*
X184845489Y-98357971D02*
X184916917Y-98643685D01*
X184916917Y-98643685D02*
X184916917Y-98857971D01*
X184916917Y-98857971D02*
X184845489Y-99143685D01*
X184845489Y-99143685D02*
X184774060Y-99286542D01*
X184774060Y-99286542D02*
X184631203Y-99429400D01*
X184631203Y-99429400D02*
X184416917Y-99500828D01*
X184416917Y-99500828D02*
X184274060Y-99500828D01*
X184274060Y-99500828D02*
X184059774Y-99429400D01*
X184059774Y-99429400D02*
X183988346Y-99357971D01*
X183988346Y-99357971D02*
X183988346Y-98857971D01*
X183988346Y-98857971D02*
X184274060Y-98857971D01*
X183345489Y-99500828D02*
X183345489Y-98000828D01*
X183345489Y-98000828D02*
X182488346Y-99500828D01*
X182488346Y-99500828D02*
X182488346Y-98000828D01*
X181774060Y-99500828D02*
X181774060Y-98000828D01*
X181774060Y-98000828D02*
X181416917Y-98000828D01*
X181416917Y-98000828D02*
X181202631Y-98072257D01*
X181202631Y-98072257D02*
X181059774Y-98215114D01*
X181059774Y-98215114D02*
X180988345Y-98357971D01*
X180988345Y-98357971D02*
X180916917Y-98643685D01*
X180916917Y-98643685D02*
X180916917Y-98857971D01*
X180916917Y-98857971D02*
X180988345Y-99143685D01*
X180988345Y-99143685D02*
X181059774Y-99286542D01*
X181059774Y-99286542D02*
X181202631Y-99429400D01*
X181202631Y-99429400D02*
X181416917Y-99500828D01*
X181416917Y-99500828D02*
X181774060Y-99500828D01*
X190331203Y-89800828D02*
X191045489Y-89800828D01*
X191045489Y-89800828D02*
X191045489Y-88300828D01*
X189259774Y-89729400D02*
X189402631Y-89800828D01*
X189402631Y-89800828D02*
X189688346Y-89800828D01*
X189688346Y-89800828D02*
X189831203Y-89729400D01*
X189831203Y-89729400D02*
X189902631Y-89586542D01*
X189902631Y-89586542D02*
X189902631Y-89015114D01*
X189902631Y-89015114D02*
X189831203Y-88872257D01*
X189831203Y-88872257D02*
X189688346Y-88800828D01*
X189688346Y-88800828D02*
X189402631Y-88800828D01*
X189402631Y-88800828D02*
X189259774Y-88872257D01*
X189259774Y-88872257D02*
X189188346Y-89015114D01*
X189188346Y-89015114D02*
X189188346Y-89157971D01*
X189188346Y-89157971D02*
X189902631Y-89300828D01*
X188759774Y-88800828D02*
X188188346Y-88800828D01*
X188545489Y-89800828D02*
X188545489Y-88515114D01*
X188545489Y-88515114D02*
X188474060Y-88372257D01*
X188474060Y-88372257D02*
X188331203Y-88300828D01*
X188331203Y-88300828D02*
X188188346Y-88300828D01*
X187902631Y-88800828D02*
X187331203Y-88800828D01*
X187688346Y-88300828D02*
X187688346Y-89586542D01*
X187688346Y-89586542D02*
X187616917Y-89729400D01*
X187616917Y-89729400D02*
X187474060Y-89800828D01*
X187474060Y-89800828D02*
X187331203Y-89800828D01*
X185188346Y-89015114D02*
X184974060Y-89086542D01*
X184974060Y-89086542D02*
X184902631Y-89157971D01*
X184902631Y-89157971D02*
X184831203Y-89300828D01*
X184831203Y-89300828D02*
X184831203Y-89515114D01*
X184831203Y-89515114D02*
X184902631Y-89657971D01*
X184902631Y-89657971D02*
X184974060Y-89729400D01*
X184974060Y-89729400D02*
X185116917Y-89800828D01*
X185116917Y-89800828D02*
X185688346Y-89800828D01*
X185688346Y-89800828D02*
X185688346Y-88300828D01*
X185688346Y-88300828D02*
X185188346Y-88300828D01*
X185188346Y-88300828D02*
X185045489Y-88372257D01*
X185045489Y-88372257D02*
X184974060Y-88443685D01*
X184974060Y-88443685D02*
X184902631Y-88586542D01*
X184902631Y-88586542D02*
X184902631Y-88729400D01*
X184902631Y-88729400D02*
X184974060Y-88872257D01*
X184974060Y-88872257D02*
X185045489Y-88943685D01*
X185045489Y-88943685D02*
X185188346Y-89015114D01*
X185188346Y-89015114D02*
X185688346Y-89015114D01*
X183974060Y-89800828D02*
X184116917Y-89729400D01*
X184116917Y-89729400D02*
X184188346Y-89586542D01*
X184188346Y-89586542D02*
X184188346Y-88300828D01*
X183402632Y-89800828D02*
X183402632Y-88800828D01*
X183402632Y-88300828D02*
X183474060Y-88372257D01*
X183474060Y-88372257D02*
X183402632Y-88443685D01*
X183402632Y-88443685D02*
X183331203Y-88372257D01*
X183331203Y-88372257D02*
X183402632Y-88300828D01*
X183402632Y-88300828D02*
X183402632Y-88443685D01*
X182688346Y-88800828D02*
X182688346Y-89800828D01*
X182688346Y-88943685D02*
X182616917Y-88872257D01*
X182616917Y-88872257D02*
X182474060Y-88800828D01*
X182474060Y-88800828D02*
X182259774Y-88800828D01*
X182259774Y-88800828D02*
X182116917Y-88872257D01*
X182116917Y-88872257D02*
X182045489Y-89015114D01*
X182045489Y-89015114D02*
X182045489Y-89800828D01*
X181331203Y-89800828D02*
X181331203Y-88300828D01*
X181188346Y-89229400D02*
X180759774Y-89800828D01*
X180759774Y-88800828D02*
X181331203Y-89372257D01*
X179545488Y-89729400D02*
X179688345Y-89800828D01*
X179688345Y-89800828D02*
X179974060Y-89800828D01*
X179974060Y-89800828D02*
X180116917Y-89729400D01*
X180116917Y-89729400D02*
X180188345Y-89586542D01*
X180188345Y-89586542D02*
X180188345Y-89015114D01*
X180188345Y-89015114D02*
X180116917Y-88872257D01*
X180116917Y-88872257D02*
X179974060Y-88800828D01*
X179974060Y-88800828D02*
X179688345Y-88800828D01*
X179688345Y-88800828D02*
X179545488Y-88872257D01*
X179545488Y-88872257D02*
X179474060Y-89015114D01*
X179474060Y-89015114D02*
X179474060Y-89157971D01*
X179474060Y-89157971D02*
X180188345Y-89300828D01*
X178831203Y-89800828D02*
X178831203Y-88800828D01*
X178831203Y-89086542D02*
X178759774Y-88943685D01*
X178759774Y-88943685D02*
X178688346Y-88872257D01*
X178688346Y-88872257D02*
X178545488Y-88800828D01*
X178545488Y-88800828D02*
X178402631Y-88800828D01*
X184759774Y-124472257D02*
X184902632Y-124400828D01*
X184902632Y-124400828D02*
X185116917Y-124400828D01*
X185116917Y-124400828D02*
X185331203Y-124472257D01*
X185331203Y-124472257D02*
X185474060Y-124615114D01*
X185474060Y-124615114D02*
X185545489Y-124757971D01*
X185545489Y-124757971D02*
X185616917Y-125043685D01*
X185616917Y-125043685D02*
X185616917Y-125257971D01*
X185616917Y-125257971D02*
X185545489Y-125543685D01*
X185545489Y-125543685D02*
X185474060Y-125686542D01*
X185474060Y-125686542D02*
X185331203Y-125829400D01*
X185331203Y-125829400D02*
X185116917Y-125900828D01*
X185116917Y-125900828D02*
X184974060Y-125900828D01*
X184974060Y-125900828D02*
X184759774Y-125829400D01*
X184759774Y-125829400D02*
X184688346Y-125757971D01*
X184688346Y-125757971D02*
X184688346Y-125257971D01*
X184688346Y-125257971D02*
X184974060Y-125257971D01*
X184045489Y-125900828D02*
X184045489Y-124400828D01*
X184045489Y-124400828D02*
X183188346Y-125900828D01*
X183188346Y-125900828D02*
X183188346Y-124400828D01*
X182474060Y-125900828D02*
X182474060Y-124400828D01*
X182474060Y-124400828D02*
X182116917Y-124400828D01*
X182116917Y-124400828D02*
X181902631Y-124472257D01*
X181902631Y-124472257D02*
X181759774Y-124615114D01*
X181759774Y-124615114D02*
X181688345Y-124757971D01*
X181688345Y-124757971D02*
X181616917Y-125043685D01*
X181616917Y-125043685D02*
X181616917Y-125257971D01*
X181616917Y-125257971D02*
X181688345Y-125543685D01*
X181688345Y-125543685D02*
X181759774Y-125686542D01*
X181759774Y-125686542D02*
X181902631Y-125829400D01*
X181902631Y-125829400D02*
X182116917Y-125900828D01*
X182116917Y-125900828D02*
X182474060Y-125900828D01*
X191331203Y-135000828D02*
X192045489Y-135000828D01*
X192045489Y-135000828D02*
X192045489Y-133500828D01*
X190259774Y-134929400D02*
X190402631Y-135000828D01*
X190402631Y-135000828D02*
X190688346Y-135000828D01*
X190688346Y-135000828D02*
X190831203Y-134929400D01*
X190831203Y-134929400D02*
X190902631Y-134786542D01*
X190902631Y-134786542D02*
X190902631Y-134215114D01*
X190902631Y-134215114D02*
X190831203Y-134072257D01*
X190831203Y-134072257D02*
X190688346Y-134000828D01*
X190688346Y-134000828D02*
X190402631Y-134000828D01*
X190402631Y-134000828D02*
X190259774Y-134072257D01*
X190259774Y-134072257D02*
X190188346Y-134215114D01*
X190188346Y-134215114D02*
X190188346Y-134357971D01*
X190188346Y-134357971D02*
X190902631Y-134500828D01*
X189759774Y-134000828D02*
X189188346Y-134000828D01*
X189545489Y-135000828D02*
X189545489Y-133715114D01*
X189545489Y-133715114D02*
X189474060Y-133572257D01*
X189474060Y-133572257D02*
X189331203Y-133500828D01*
X189331203Y-133500828D02*
X189188346Y-133500828D01*
X188902631Y-134000828D02*
X188331203Y-134000828D01*
X188688346Y-133500828D02*
X188688346Y-134786542D01*
X188688346Y-134786542D02*
X188616917Y-134929400D01*
X188616917Y-134929400D02*
X188474060Y-135000828D01*
X188474060Y-135000828D02*
X188331203Y-135000828D01*
X186688346Y-135000828D02*
X186688346Y-133500828D01*
X186688346Y-134215114D02*
X185831203Y-134215114D01*
X185831203Y-135000828D02*
X185831203Y-133500828D01*
X184545488Y-134929400D02*
X184688345Y-135000828D01*
X184688345Y-135000828D02*
X184974060Y-135000828D01*
X184974060Y-135000828D02*
X185116917Y-134929400D01*
X185116917Y-134929400D02*
X185188345Y-134786542D01*
X185188345Y-134786542D02*
X185188345Y-134215114D01*
X185188345Y-134215114D02*
X185116917Y-134072257D01*
X185116917Y-134072257D02*
X184974060Y-134000828D01*
X184974060Y-134000828D02*
X184688345Y-134000828D01*
X184688345Y-134000828D02*
X184545488Y-134072257D01*
X184545488Y-134072257D02*
X184474060Y-134215114D01*
X184474060Y-134215114D02*
X184474060Y-134357971D01*
X184474060Y-134357971D02*
X185188345Y-134500828D01*
X183188346Y-135000828D02*
X183188346Y-134215114D01*
X183188346Y-134215114D02*
X183259774Y-134072257D01*
X183259774Y-134072257D02*
X183402631Y-134000828D01*
X183402631Y-134000828D02*
X183688346Y-134000828D01*
X183688346Y-134000828D02*
X183831203Y-134072257D01*
X183188346Y-134929400D02*
X183331203Y-135000828D01*
X183331203Y-135000828D02*
X183688346Y-135000828D01*
X183688346Y-135000828D02*
X183831203Y-134929400D01*
X183831203Y-134929400D02*
X183902631Y-134786542D01*
X183902631Y-134786542D02*
X183902631Y-134643685D01*
X183902631Y-134643685D02*
X183831203Y-134500828D01*
X183831203Y-134500828D02*
X183688346Y-134429400D01*
X183688346Y-134429400D02*
X183331203Y-134429400D01*
X183331203Y-134429400D02*
X183188346Y-134357971D01*
X181831203Y-135000828D02*
X181831203Y-133500828D01*
X181831203Y-134929400D02*
X181974060Y-135000828D01*
X181974060Y-135000828D02*
X182259774Y-135000828D01*
X182259774Y-135000828D02*
X182402631Y-134929400D01*
X182402631Y-134929400D02*
X182474060Y-134857971D01*
X182474060Y-134857971D02*
X182545488Y-134715114D01*
X182545488Y-134715114D02*
X182545488Y-134286542D01*
X182545488Y-134286542D02*
X182474060Y-134143685D01*
X182474060Y-134143685D02*
X182402631Y-134072257D01*
X182402631Y-134072257D02*
X182259774Y-134000828D01*
X182259774Y-134000828D02*
X181974060Y-134000828D01*
X181974060Y-134000828D02*
X181831203Y-134072257D01*
X180902631Y-135000828D02*
X181045488Y-134929400D01*
X181045488Y-134929400D02*
X181116917Y-134786542D01*
X181116917Y-134786542D02*
X181116917Y-133500828D01*
X180331203Y-135000828D02*
X180331203Y-134000828D01*
X180331203Y-133500828D02*
X180402631Y-133572257D01*
X180402631Y-133572257D02*
X180331203Y-133643685D01*
X180331203Y-133643685D02*
X180259774Y-133572257D01*
X180259774Y-133572257D02*
X180331203Y-133500828D01*
X180331203Y-133500828D02*
X180331203Y-133643685D01*
X178974060Y-134000828D02*
X178974060Y-135215114D01*
X178974060Y-135215114D02*
X179045488Y-135357971D01*
X179045488Y-135357971D02*
X179116917Y-135429400D01*
X179116917Y-135429400D02*
X179259774Y-135500828D01*
X179259774Y-135500828D02*
X179474060Y-135500828D01*
X179474060Y-135500828D02*
X179616917Y-135429400D01*
X178974060Y-134929400D02*
X179116917Y-135000828D01*
X179116917Y-135000828D02*
X179402631Y-135000828D01*
X179402631Y-135000828D02*
X179545488Y-134929400D01*
X179545488Y-134929400D02*
X179616917Y-134857971D01*
X179616917Y-134857971D02*
X179688345Y-134715114D01*
X179688345Y-134715114D02*
X179688345Y-134286542D01*
X179688345Y-134286542D02*
X179616917Y-134143685D01*
X179616917Y-134143685D02*
X179545488Y-134072257D01*
X179545488Y-134072257D02*
X179402631Y-134000828D01*
X179402631Y-134000828D02*
X179116917Y-134000828D01*
X179116917Y-134000828D02*
X178974060Y-134072257D01*
X178259774Y-135000828D02*
X178259774Y-133500828D01*
X177616917Y-135000828D02*
X177616917Y-134215114D01*
X177616917Y-134215114D02*
X177688345Y-134072257D01*
X177688345Y-134072257D02*
X177831202Y-134000828D01*
X177831202Y-134000828D02*
X178045488Y-134000828D01*
X178045488Y-134000828D02*
X178188345Y-134072257D01*
X178188345Y-134072257D02*
X178259774Y-134143685D01*
X177116916Y-134000828D02*
X176545488Y-134000828D01*
X176902631Y-133500828D02*
X176902631Y-134786542D01*
X176902631Y-134786542D02*
X176831202Y-134929400D01*
X176831202Y-134929400D02*
X176688345Y-135000828D01*
X176688345Y-135000828D02*
X176545488Y-135000828D01*
X190888346Y-116200828D02*
X191388346Y-115486542D01*
X191745489Y-116200828D02*
X191745489Y-114700828D01*
X191745489Y-114700828D02*
X191174060Y-114700828D01*
X191174060Y-114700828D02*
X191031203Y-114772257D01*
X191031203Y-114772257D02*
X190959774Y-114843685D01*
X190959774Y-114843685D02*
X190888346Y-114986542D01*
X190888346Y-114986542D02*
X190888346Y-115200828D01*
X190888346Y-115200828D02*
X190959774Y-115343685D01*
X190959774Y-115343685D02*
X191031203Y-115415114D01*
X191031203Y-115415114D02*
X191174060Y-115486542D01*
X191174060Y-115486542D02*
X191745489Y-115486542D01*
X190245489Y-116200828D02*
X190245489Y-115200828D01*
X190245489Y-114700828D02*
X190316917Y-114772257D01*
X190316917Y-114772257D02*
X190245489Y-114843685D01*
X190245489Y-114843685D02*
X190174060Y-114772257D01*
X190174060Y-114772257D02*
X190245489Y-114700828D01*
X190245489Y-114700828D02*
X190245489Y-114843685D01*
X188888346Y-115200828D02*
X188888346Y-116415114D01*
X188888346Y-116415114D02*
X188959774Y-116557971D01*
X188959774Y-116557971D02*
X189031203Y-116629400D01*
X189031203Y-116629400D02*
X189174060Y-116700828D01*
X189174060Y-116700828D02*
X189388346Y-116700828D01*
X189388346Y-116700828D02*
X189531203Y-116629400D01*
X188888346Y-116129400D02*
X189031203Y-116200828D01*
X189031203Y-116200828D02*
X189316917Y-116200828D01*
X189316917Y-116200828D02*
X189459774Y-116129400D01*
X189459774Y-116129400D02*
X189531203Y-116057971D01*
X189531203Y-116057971D02*
X189602631Y-115915114D01*
X189602631Y-115915114D02*
X189602631Y-115486542D01*
X189602631Y-115486542D02*
X189531203Y-115343685D01*
X189531203Y-115343685D02*
X189459774Y-115272257D01*
X189459774Y-115272257D02*
X189316917Y-115200828D01*
X189316917Y-115200828D02*
X189031203Y-115200828D01*
X189031203Y-115200828D02*
X188888346Y-115272257D01*
X188174060Y-116200828D02*
X188174060Y-114700828D01*
X187531203Y-116200828D02*
X187531203Y-115415114D01*
X187531203Y-115415114D02*
X187602631Y-115272257D01*
X187602631Y-115272257D02*
X187745488Y-115200828D01*
X187745488Y-115200828D02*
X187959774Y-115200828D01*
X187959774Y-115200828D02*
X188102631Y-115272257D01*
X188102631Y-115272257D02*
X188174060Y-115343685D01*
X187031202Y-115200828D02*
X186459774Y-115200828D01*
X186816917Y-114700828D02*
X186816917Y-115986542D01*
X186816917Y-115986542D02*
X186745488Y-116129400D01*
X186745488Y-116129400D02*
X186602631Y-116200828D01*
X186602631Y-116200828D02*
X186459774Y-116200828D01*
X184816917Y-116200828D02*
X184816917Y-114700828D01*
X184816917Y-115415114D02*
X183959774Y-115415114D01*
X183959774Y-116200828D02*
X183959774Y-114700828D01*
X182674059Y-116129400D02*
X182816916Y-116200828D01*
X182816916Y-116200828D02*
X183102631Y-116200828D01*
X183102631Y-116200828D02*
X183245488Y-116129400D01*
X183245488Y-116129400D02*
X183316916Y-115986542D01*
X183316916Y-115986542D02*
X183316916Y-115415114D01*
X183316916Y-115415114D02*
X183245488Y-115272257D01*
X183245488Y-115272257D02*
X183102631Y-115200828D01*
X183102631Y-115200828D02*
X182816916Y-115200828D01*
X182816916Y-115200828D02*
X182674059Y-115272257D01*
X182674059Y-115272257D02*
X182602631Y-115415114D01*
X182602631Y-115415114D02*
X182602631Y-115557971D01*
X182602631Y-115557971D02*
X183316916Y-115700828D01*
X181316917Y-116200828D02*
X181316917Y-115415114D01*
X181316917Y-115415114D02*
X181388345Y-115272257D01*
X181388345Y-115272257D02*
X181531202Y-115200828D01*
X181531202Y-115200828D02*
X181816917Y-115200828D01*
X181816917Y-115200828D02*
X181959774Y-115272257D01*
X181316917Y-116129400D02*
X181459774Y-116200828D01*
X181459774Y-116200828D02*
X181816917Y-116200828D01*
X181816917Y-116200828D02*
X181959774Y-116129400D01*
X181959774Y-116129400D02*
X182031202Y-115986542D01*
X182031202Y-115986542D02*
X182031202Y-115843685D01*
X182031202Y-115843685D02*
X181959774Y-115700828D01*
X181959774Y-115700828D02*
X181816917Y-115629400D01*
X181816917Y-115629400D02*
X181459774Y-115629400D01*
X181459774Y-115629400D02*
X181316917Y-115557971D01*
X179959774Y-116200828D02*
X179959774Y-114700828D01*
X179959774Y-116129400D02*
X180102631Y-116200828D01*
X180102631Y-116200828D02*
X180388345Y-116200828D01*
X180388345Y-116200828D02*
X180531202Y-116129400D01*
X180531202Y-116129400D02*
X180602631Y-116057971D01*
X180602631Y-116057971D02*
X180674059Y-115915114D01*
X180674059Y-115915114D02*
X180674059Y-115486542D01*
X180674059Y-115486542D02*
X180602631Y-115343685D01*
X180602631Y-115343685D02*
X180531202Y-115272257D01*
X180531202Y-115272257D02*
X180388345Y-115200828D01*
X180388345Y-115200828D02*
X180102631Y-115200828D01*
X180102631Y-115200828D02*
X179959774Y-115272257D01*
X179031202Y-116200828D02*
X179174059Y-116129400D01*
X179174059Y-116129400D02*
X179245488Y-115986542D01*
X179245488Y-115986542D02*
X179245488Y-114700828D01*
X178459774Y-116200828D02*
X178459774Y-115200828D01*
X178459774Y-114700828D02*
X178531202Y-114772257D01*
X178531202Y-114772257D02*
X178459774Y-114843685D01*
X178459774Y-114843685D02*
X178388345Y-114772257D01*
X178388345Y-114772257D02*
X178459774Y-114700828D01*
X178459774Y-114700828D02*
X178459774Y-114843685D01*
X177102631Y-115200828D02*
X177102631Y-116415114D01*
X177102631Y-116415114D02*
X177174059Y-116557971D01*
X177174059Y-116557971D02*
X177245488Y-116629400D01*
X177245488Y-116629400D02*
X177388345Y-116700828D01*
X177388345Y-116700828D02*
X177602631Y-116700828D01*
X177602631Y-116700828D02*
X177745488Y-116629400D01*
X177102631Y-116129400D02*
X177245488Y-116200828D01*
X177245488Y-116200828D02*
X177531202Y-116200828D01*
X177531202Y-116200828D02*
X177674059Y-116129400D01*
X177674059Y-116129400D02*
X177745488Y-116057971D01*
X177745488Y-116057971D02*
X177816916Y-115915114D01*
X177816916Y-115915114D02*
X177816916Y-115486542D01*
X177816916Y-115486542D02*
X177745488Y-115343685D01*
X177745488Y-115343685D02*
X177674059Y-115272257D01*
X177674059Y-115272257D02*
X177531202Y-115200828D01*
X177531202Y-115200828D02*
X177245488Y-115200828D01*
X177245488Y-115200828D02*
X177102631Y-115272257D01*
X176388345Y-116200828D02*
X176388345Y-114700828D01*
X175745488Y-116200828D02*
X175745488Y-115415114D01*
X175745488Y-115415114D02*
X175816916Y-115272257D01*
X175816916Y-115272257D02*
X175959773Y-115200828D01*
X175959773Y-115200828D02*
X176174059Y-115200828D01*
X176174059Y-115200828D02*
X176316916Y-115272257D01*
X176316916Y-115272257D02*
X176388345Y-115343685D01*
X175245487Y-115200828D02*
X174674059Y-115200828D01*
X175031202Y-114700828D02*
X175031202Y-115986542D01*
X175031202Y-115986542D02*
X174959773Y-116129400D01*
X174959773Y-116129400D02*
X174816916Y-116200828D01*
X174816916Y-116200828D02*
X174674059Y-116200828D01*
D11*
X104505216Y-110906678D02*
X105219502Y-110906678D01*
X105219502Y-110906678D02*
X105219502Y-109406678D01*
X104880497Y-104693321D02*
X104880497Y-106193321D01*
X104880497Y-105479035D02*
X105737640Y-105479035D01*
X105737640Y-104693321D02*
X105737640Y-106193321D01*
D12*
X105755859Y-95418738D02*
X105851097Y-95371119D01*
X105851097Y-95371119D02*
X105993954Y-95371119D01*
X105993954Y-95371119D02*
X106136811Y-95418738D01*
X106136811Y-95418738D02*
X106232049Y-95513976D01*
X106232049Y-95513976D02*
X106279668Y-95609214D01*
X106279668Y-95609214D02*
X106327287Y-95799690D01*
X106327287Y-95799690D02*
X106327287Y-95942547D01*
X106327287Y-95942547D02*
X106279668Y-96133023D01*
X106279668Y-96133023D02*
X106232049Y-96228261D01*
X106232049Y-96228261D02*
X106136811Y-96323500D01*
X106136811Y-96323500D02*
X105993954Y-96371119D01*
X105993954Y-96371119D02*
X105898716Y-96371119D01*
X105898716Y-96371119D02*
X105755859Y-96323500D01*
X105755859Y-96323500D02*
X105708240Y-96275880D01*
X105708240Y-96275880D02*
X105708240Y-95942547D01*
X105708240Y-95942547D02*
X105898716Y-95942547D01*
X105279668Y-96371119D02*
X105279668Y-95371119D01*
X105279668Y-95371119D02*
X104708240Y-96371119D01*
X104708240Y-96371119D02*
X104708240Y-95371119D01*
X104232049Y-96371119D02*
X104232049Y-95371119D01*
X104232049Y-95371119D02*
X103993954Y-95371119D01*
X103993954Y-95371119D02*
X103851097Y-95418738D01*
X103851097Y-95418738D02*
X103755859Y-95513976D01*
X103755859Y-95513976D02*
X103708240Y-95609214D01*
X103708240Y-95609214D02*
X103660621Y-95799690D01*
X103660621Y-95799690D02*
X103660621Y-95942547D01*
X103660621Y-95942547D02*
X103708240Y-96133023D01*
X103708240Y-96133023D02*
X103755859Y-96228261D01*
X103755859Y-96228261D02*
X103851097Y-96323500D01*
X103851097Y-96323500D02*
X103993954Y-96371119D01*
X103993954Y-96371119D02*
X104232049Y-96371119D01*
X105722525Y-90071119D02*
X105151097Y-90071119D01*
X105436811Y-91071119D02*
X105436811Y-90071119D01*
X104913001Y-90071119D02*
X104246335Y-91071119D01*
X104246335Y-90071119D02*
X104913001Y-91071119D01*
X105208240Y-86271119D02*
X105541573Y-85794928D01*
X105779668Y-86271119D02*
X105779668Y-85271119D01*
X105779668Y-85271119D02*
X105398716Y-85271119D01*
X105398716Y-85271119D02*
X105303478Y-85318738D01*
X105303478Y-85318738D02*
X105255859Y-85366357D01*
X105255859Y-85366357D02*
X105208240Y-85461595D01*
X105208240Y-85461595D02*
X105208240Y-85604452D01*
X105208240Y-85604452D02*
X105255859Y-85699690D01*
X105255859Y-85699690D02*
X105303478Y-85747309D01*
X105303478Y-85747309D02*
X105398716Y-85794928D01*
X105398716Y-85794928D02*
X105779668Y-85794928D01*
X104874906Y-85271119D02*
X104208240Y-86271119D01*
X104208240Y-85271119D02*
X104874906Y-86271119D01*
D13*
X106500000Y-141500000D02*
X132000000Y-141500000D01*
X132000000Y-147500000D01*
X106500000Y-147500000D01*
X106500000Y-141500000D01*
G36*
X112546194Y-141480866D02*
G01*
X112546194Y-141519134D01*
X112535355Y-141535355D01*
X110915451Y-143155259D01*
X110899230Y-143166098D01*
X110883117Y-143166098D01*
X110883117Y-143182212D01*
X110872278Y-143198433D01*
X108053603Y-146017107D01*
X106535355Y-147535355D01*
X106519134Y-147546194D01*
X106480866Y-147546194D01*
X106453806Y-147519134D01*
X106453806Y-147480866D01*
X106464645Y-147464645D01*
X107982893Y-145946397D01*
X110801567Y-143127722D01*
X110817788Y-143116883D01*
X110833902Y-143116883D01*
X110833902Y-143100770D01*
X110844741Y-143084549D01*
X112464645Y-141464645D01*
X112480866Y-141453806D01*
X112519134Y-141453806D01*
X112546194Y-141480866D01*
G37*
G36*
X110883117Y-144143943D02*
G01*
X110883117Y-144182211D01*
X110872278Y-144198432D01*
X109053603Y-146017107D01*
X107535355Y-147535355D01*
X107519134Y-147546194D01*
X107480866Y-147546194D01*
X107453806Y-147519134D01*
X107453806Y-147480866D01*
X107464645Y-147464645D01*
X108982893Y-145946397D01*
X110801568Y-144127722D01*
X110817789Y-144116883D01*
X110856057Y-144116883D01*
X110883117Y-144143943D01*
G37*
G36*
X110883117Y-145143943D02*
G01*
X110883117Y-145182212D01*
X110872278Y-145198433D01*
X110053603Y-146017107D01*
X108535355Y-147535355D01*
X108519134Y-147546194D01*
X108480866Y-147546194D01*
X108453806Y-147519134D01*
X108453806Y-147480866D01*
X108464645Y-147464645D01*
X109982893Y-145946397D01*
X110801567Y-145127722D01*
X110817788Y-145116883D01*
X110856057Y-145116883D01*
X110883117Y-145143943D01*
G37*
G36*
X111064442Y-145962618D02*
G01*
X111064442Y-146000886D01*
X111053603Y-146017107D01*
X109535355Y-147535355D01*
X109519134Y-147546194D01*
X109480866Y-147546194D01*
X109453806Y-147519134D01*
X109453806Y-147480866D01*
X109464645Y-147464645D01*
X110982893Y-145946397D01*
X110999114Y-145935558D01*
X111037382Y-145935558D01*
X111064442Y-145962618D01*
G37*
G36*
X112064442Y-145962618D02*
G01*
X112064442Y-146000886D01*
X112053603Y-146017107D01*
X110535355Y-147535355D01*
X110519134Y-147546194D01*
X110480866Y-147546194D01*
X110453806Y-147519134D01*
X110453806Y-147480866D01*
X110464645Y-147464645D01*
X111982893Y-145946397D01*
X111999114Y-145935558D01*
X112037382Y-145935558D01*
X112064442Y-145962618D01*
G37*
G36*
X113064442Y-145962618D02*
G01*
X113064442Y-146000886D01*
X113053603Y-146017107D01*
X111535355Y-147535355D01*
X111519134Y-147546194D01*
X111480866Y-147546194D01*
X111453806Y-147519134D01*
X111453806Y-147480866D01*
X111464645Y-147464645D01*
X112982893Y-145946397D01*
X112999114Y-145935558D01*
X113037382Y-145935558D01*
X113064442Y-145962618D01*
G37*
G36*
X114064442Y-145962618D02*
G01*
X114064442Y-146000886D01*
X114053603Y-146017107D01*
X112535355Y-147535355D01*
X112519134Y-147546194D01*
X112480866Y-147546194D01*
X112453806Y-147519134D01*
X112453806Y-147480866D01*
X112464645Y-147464645D01*
X113982893Y-145946397D01*
X113999114Y-145935558D01*
X114037382Y-145935558D01*
X114064442Y-145962618D01*
G37*
G36*
X115064442Y-145962618D02*
G01*
X115064442Y-146000886D01*
X115053603Y-146017107D01*
X113535355Y-147535355D01*
X113519134Y-147546194D01*
X113480866Y-147546194D01*
X113453806Y-147519134D01*
X113453806Y-147480866D01*
X113464645Y-147464645D01*
X114982893Y-145946397D01*
X114999114Y-145935558D01*
X115037382Y-145935558D01*
X115064442Y-145962618D01*
G37*
G36*
X116064442Y-145962618D02*
G01*
X116064442Y-146000886D01*
X116053603Y-146017107D01*
X114535355Y-147535355D01*
X114519134Y-147546194D01*
X114480866Y-147546194D01*
X114453806Y-147519134D01*
X114453806Y-147480866D01*
X114464645Y-147464645D01*
X115982893Y-145946397D01*
X115999114Y-145935558D01*
X116037382Y-145935558D01*
X116064442Y-145962618D01*
G37*
G36*
X121546194Y-141480866D02*
G01*
X121546194Y-141519135D01*
X121535355Y-141535356D01*
X115535355Y-147535355D01*
X115519134Y-147546194D01*
X115480866Y-147546194D01*
X115453806Y-147519134D01*
X115453806Y-147480866D01*
X115464645Y-147464645D01*
X121464644Y-141464645D01*
X121480865Y-141453806D01*
X121519134Y-141453806D01*
X121546194Y-141480866D01*
G37*
G36*
X122546194Y-141480866D02*
G01*
X122546194Y-141519135D01*
X122535355Y-141535356D01*
X116535355Y-147535355D01*
X116519134Y-147546194D01*
X116480866Y-147546194D01*
X116453806Y-147519134D01*
X116453806Y-147480866D01*
X116464645Y-147464645D01*
X122464644Y-141464645D01*
X122480865Y-141453806D01*
X122519134Y-141453806D01*
X122546194Y-141480866D01*
G37*
G36*
X123546194Y-141480866D02*
G01*
X123546194Y-141519135D01*
X123535355Y-141535356D01*
X117535355Y-147535355D01*
X117519134Y-147546194D01*
X117480866Y-147546194D01*
X117453806Y-147519134D01*
X117453806Y-147480866D01*
X117464645Y-147464645D01*
X123464644Y-141464645D01*
X123480865Y-141453806D01*
X123519134Y-141453806D01*
X123546194Y-141480866D01*
G37*
G36*
X124546194Y-141480866D02*
G01*
X124546194Y-141519135D01*
X124535355Y-141535356D01*
X118535355Y-147535355D01*
X118519134Y-147546194D01*
X118480866Y-147546194D01*
X118453806Y-147519134D01*
X118453806Y-147480866D01*
X118464645Y-147464645D01*
X124464644Y-141464645D01*
X124480865Y-141453806D01*
X124519134Y-141453806D01*
X124546194Y-141480866D01*
G37*
G36*
X125546194Y-141480866D02*
G01*
X125546194Y-141519135D01*
X125535355Y-141535356D01*
X119535355Y-147535355D01*
X119519134Y-147546194D01*
X119480866Y-147546194D01*
X119453806Y-147519134D01*
X119453806Y-147480866D01*
X119464645Y-147464645D01*
X125464644Y-141464645D01*
X125480865Y-141453806D01*
X125519134Y-141453806D01*
X125546194Y-141480866D01*
G37*
G36*
X126546194Y-141480866D02*
G01*
X126546194Y-141519135D01*
X126535355Y-141535356D01*
X120535355Y-147535355D01*
X120519134Y-147546194D01*
X120480866Y-147546194D01*
X120453806Y-147519134D01*
X120453806Y-147480866D01*
X120464645Y-147464645D01*
X126464644Y-141464645D01*
X126480865Y-141453806D01*
X126519134Y-141453806D01*
X126546194Y-141480866D01*
G37*
G36*
X127546194Y-141480866D02*
G01*
X127546194Y-141519135D01*
X127535355Y-141535356D01*
X121535355Y-147535355D01*
X121519134Y-147546194D01*
X121480866Y-147546194D01*
X121453806Y-147519134D01*
X121453806Y-147480866D01*
X121464645Y-147464645D01*
X127464644Y-141464645D01*
X127480865Y-141453806D01*
X127519134Y-141453806D01*
X127546194Y-141480866D01*
G37*
G36*
X128546194Y-141480866D02*
G01*
X128546194Y-141519135D01*
X128535355Y-141535356D01*
X122535355Y-147535355D01*
X122519134Y-147546194D01*
X122480866Y-147546194D01*
X122453806Y-147519134D01*
X122453806Y-147480866D01*
X122464645Y-147464645D01*
X128464644Y-141464645D01*
X128480865Y-141453806D01*
X128519134Y-141453806D01*
X128546194Y-141480866D01*
G37*
G36*
X129546194Y-141480866D02*
G01*
X129546194Y-141519135D01*
X129535355Y-141535356D01*
X123535355Y-147535355D01*
X123519134Y-147546194D01*
X123480866Y-147546194D01*
X123453806Y-147519134D01*
X123453806Y-147480866D01*
X123464645Y-147464645D01*
X129464644Y-141464645D01*
X129480865Y-141453806D01*
X129519134Y-141453806D01*
X129546194Y-141480866D01*
G37*
G36*
X130546194Y-141480866D02*
G01*
X130546194Y-141519135D01*
X130535355Y-141535356D01*
X124535355Y-147535355D01*
X124519134Y-147546194D01*
X124480866Y-147546194D01*
X124453806Y-147519134D01*
X124453806Y-147480866D01*
X124464645Y-147464645D01*
X130464644Y-141464645D01*
X130480865Y-141453806D01*
X130519134Y-141453806D01*
X130546194Y-141480866D01*
G37*
G36*
X131546194Y-141480866D02*
G01*
X131546194Y-141519135D01*
X131535355Y-141535356D01*
X125535355Y-147535355D01*
X125519134Y-147546194D01*
X125480866Y-147546194D01*
X125453806Y-147519134D01*
X125453806Y-147480866D01*
X125464645Y-147464645D01*
X131464644Y-141464645D01*
X131480865Y-141453806D01*
X131519134Y-141453806D01*
X131546194Y-141480866D01*
G37*
G36*
X132046194Y-141980865D02*
G01*
X132046194Y-142019134D01*
X132035356Y-142035355D01*
X126535355Y-147535355D01*
X126519134Y-147546194D01*
X126480866Y-147546194D01*
X126453806Y-147519134D01*
X126453806Y-147480866D01*
X126464645Y-147464645D01*
X131964645Y-141964644D01*
X131980866Y-141953806D01*
X132019135Y-141953806D01*
X132046194Y-141980865D01*
G37*
G36*
X132046194Y-142980866D02*
G01*
X132046194Y-143019134D01*
X132035355Y-143035355D01*
X127535355Y-147535355D01*
X127519134Y-147546194D01*
X127480866Y-147546194D01*
X127453806Y-147519134D01*
X127453806Y-147480866D01*
X127464645Y-147464645D01*
X131964645Y-142964645D01*
X131980866Y-142953806D01*
X132019134Y-142953806D01*
X132046194Y-142980866D01*
G37*
G36*
X132046194Y-143980866D02*
G01*
X132046194Y-144019135D01*
X132035355Y-144035356D01*
X128535355Y-147535355D01*
X128519134Y-147546194D01*
X128480866Y-147546194D01*
X128453806Y-147519134D01*
X128453806Y-147480866D01*
X128464645Y-147464645D01*
X131964644Y-143964645D01*
X131980865Y-143953806D01*
X132019134Y-143953806D01*
X132046194Y-143980866D01*
G37*
G36*
X132046194Y-144980866D02*
G01*
X132046194Y-145019134D01*
X132035355Y-145035355D01*
X129535355Y-147535355D01*
X129519134Y-147546194D01*
X129480866Y-147546194D01*
X129453806Y-147519134D01*
X129453806Y-147480866D01*
X129464645Y-147464645D01*
X131964645Y-144964645D01*
X131980866Y-144953806D01*
X132019134Y-144953806D01*
X132046194Y-144980866D01*
G37*
G36*
X132046194Y-145980866D02*
G01*
X132046194Y-146019135D01*
X132035355Y-146035356D01*
X130535355Y-147535355D01*
X130519134Y-147546194D01*
X130480866Y-147546194D01*
X130453806Y-147519134D01*
X130453806Y-147480866D01*
X130464645Y-147464645D01*
X131964644Y-145964645D01*
X131980865Y-145953806D01*
X132019134Y-145953806D01*
X132046194Y-145980866D01*
G37*
G36*
X132046194Y-146980866D02*
G01*
X132046194Y-147019134D01*
X132035355Y-147035355D01*
X131535355Y-147535355D01*
X131519134Y-147546194D01*
X131480866Y-147546194D01*
X131453806Y-147519134D01*
X131453806Y-147480866D01*
X131464645Y-147464645D01*
X131964645Y-146964645D01*
X131980866Y-146953806D01*
X132019134Y-146953806D01*
X132046194Y-146980866D01*
G37*
G36*
X111546194Y-141480866D02*
G01*
X111546194Y-141519135D01*
X111535355Y-141535356D01*
X107053605Y-146017104D01*
X107053603Y-146017108D01*
X106535355Y-146535355D01*
X106519134Y-146546194D01*
X106480866Y-146546194D01*
X106453806Y-146519134D01*
X106453806Y-146480866D01*
X106464645Y-146464645D01*
X106982892Y-145946397D01*
X106982895Y-145946394D01*
X111464644Y-141464645D01*
X111480865Y-141453806D01*
X111519134Y-141453806D01*
X111546194Y-141480866D01*
G37*
G36*
X120546194Y-141480866D02*
G01*
X120546194Y-141519134D01*
X120535355Y-141535355D01*
X116232266Y-145838444D01*
X116216045Y-145849283D01*
X116177777Y-145849283D01*
X116150717Y-145822223D01*
X116150717Y-145783955D01*
X116161556Y-145767734D01*
X120464645Y-141464645D01*
X120480866Y-141453806D01*
X120519134Y-141453806D01*
X120546194Y-141480866D01*
G37*
G36*
X110546194Y-141480866D02*
G01*
X110546194Y-141519134D01*
X110535355Y-141535356D01*
X106535355Y-145535355D01*
X106519134Y-145546194D01*
X106480866Y-145546194D01*
X106453806Y-145519134D01*
X106453806Y-145480866D01*
X106464645Y-145464645D01*
X110464644Y-141464645D01*
X110480866Y-141453806D01*
X110519134Y-141453806D01*
X110546194Y-141480866D01*
G37*
G36*
X119546194Y-141480866D02*
G01*
X119546194Y-141519134D01*
X119535355Y-141535356D01*
X116232266Y-144838444D01*
X116216045Y-144849283D01*
X116177777Y-144849283D01*
X116150717Y-144822223D01*
X116150717Y-144783955D01*
X116161556Y-144767734D01*
X119464644Y-141464645D01*
X119480866Y-141453806D01*
X119519134Y-141453806D01*
X119546194Y-141480866D01*
G37*
G36*
X109546194Y-141480865D02*
G01*
X109546194Y-141519134D01*
X109535356Y-141535355D01*
X106535355Y-144535355D01*
X106519134Y-144546194D01*
X106480866Y-144546194D01*
X106453806Y-144519134D01*
X106453806Y-144480866D01*
X106464645Y-144464645D01*
X109464645Y-141464644D01*
X109480866Y-141453806D01*
X109519135Y-141453806D01*
X109546194Y-141480865D01*
G37*
G36*
X118546194Y-141480865D02*
G01*
X118546194Y-141519134D01*
X118535356Y-141535355D01*
X116232266Y-143838444D01*
X116216045Y-143849283D01*
X116177777Y-143849283D01*
X116150717Y-143822223D01*
X116150717Y-143783955D01*
X116161556Y-143767734D01*
X118464645Y-141464644D01*
X118480866Y-141453806D01*
X118519135Y-141453806D01*
X118546194Y-141480865D01*
G37*
G36*
X108546194Y-141480866D02*
G01*
X108546194Y-141519134D01*
X108535355Y-141535355D01*
X106535355Y-143535355D01*
X106519134Y-143546194D01*
X106480866Y-143546194D01*
X106453806Y-143519134D01*
X106453806Y-143480866D01*
X106464645Y-143464645D01*
X108464645Y-141464645D01*
X108480866Y-141453806D01*
X108519134Y-141453806D01*
X108546194Y-141480866D01*
G37*
G36*
X113546194Y-141480866D02*
G01*
X113546194Y-141519134D01*
X113535355Y-141535355D01*
X111915451Y-143155259D01*
X111899230Y-143166098D01*
X111860962Y-143166098D01*
X111833902Y-143139038D01*
X111833902Y-143100770D01*
X111844741Y-143084549D01*
X113464645Y-141464645D01*
X113480866Y-141453806D01*
X113519134Y-141453806D01*
X113546194Y-141480866D01*
G37*
G36*
X114546194Y-141480866D02*
G01*
X114546194Y-141519134D01*
X114535355Y-141535355D01*
X112915451Y-143155259D01*
X112899230Y-143166098D01*
X112860962Y-143166098D01*
X112833902Y-143139038D01*
X112833902Y-143100770D01*
X112844741Y-143084549D01*
X114464645Y-141464645D01*
X114480866Y-141453806D01*
X114519134Y-141453806D01*
X114546194Y-141480866D01*
G37*
G36*
X115546194Y-141480866D02*
G01*
X115546194Y-141519134D01*
X115535355Y-141535355D01*
X113915451Y-143155259D01*
X113899230Y-143166098D01*
X113860962Y-143166098D01*
X113833902Y-143139038D01*
X113833902Y-143100770D01*
X113844741Y-143084549D01*
X115464645Y-141464645D01*
X115480866Y-141453806D01*
X115519134Y-141453806D01*
X115546194Y-141480866D01*
G37*
G36*
X116546194Y-141480866D02*
G01*
X116546194Y-141519134D01*
X116535355Y-141535355D01*
X114915451Y-143155259D01*
X114899230Y-143166098D01*
X114860962Y-143166098D01*
X114833902Y-143139038D01*
X114833902Y-143100770D01*
X114844741Y-143084549D01*
X116464645Y-141464645D01*
X116480866Y-141453806D01*
X116519134Y-141453806D01*
X116546194Y-141480866D01*
G37*
G36*
X117546194Y-141480866D02*
G01*
X117546194Y-141519134D01*
X117535355Y-141535355D01*
X115915451Y-143155259D01*
X115899230Y-143166098D01*
X115860962Y-143166098D01*
X115833902Y-143139038D01*
X115833902Y-143100770D01*
X115844741Y-143084549D01*
X117464645Y-141464645D01*
X117480866Y-141453806D01*
X117519134Y-141453806D01*
X117546194Y-141480866D01*
G37*
G36*
X107546194Y-141480865D02*
G01*
X107546194Y-141519134D01*
X107535356Y-141535355D01*
X106535355Y-142535355D01*
X106519134Y-142546194D01*
X106480866Y-142546194D01*
X106453806Y-142519134D01*
X106453806Y-142480866D01*
X106464645Y-142464645D01*
X107464645Y-141464644D01*
X107480866Y-141453806D01*
X107519135Y-141453806D01*
X107546194Y-141480865D01*
G37*
D12*
X105103478Y-80671119D02*
X105579668Y-80671119D01*
X105579668Y-80671119D02*
X105627287Y-81147309D01*
X105627287Y-81147309D02*
X105579668Y-81099690D01*
X105579668Y-81099690D02*
X105484430Y-81052071D01*
X105484430Y-81052071D02*
X105246335Y-81052071D01*
X105246335Y-81052071D02*
X105151097Y-81099690D01*
X105151097Y-81099690D02*
X105103478Y-81147309D01*
X105103478Y-81147309D02*
X105055859Y-81242547D01*
X105055859Y-81242547D02*
X105055859Y-81480642D01*
X105055859Y-81480642D02*
X105103478Y-81575880D01*
X105103478Y-81575880D02*
X105151097Y-81623500D01*
X105151097Y-81623500D02*
X105246335Y-81671119D01*
X105246335Y-81671119D02*
X105484430Y-81671119D01*
X105484430Y-81671119D02*
X105579668Y-81623500D01*
X105579668Y-81623500D02*
X105627287Y-81575880D01*
X104770144Y-80671119D02*
X104436811Y-81671119D01*
X104436811Y-81671119D02*
X104103478Y-80671119D01*
D11*
X120519502Y-77306678D02*
X120519502Y-75806678D01*
X120519502Y-75806678D02*
X119662359Y-77306678D01*
X119662359Y-77306678D02*
X119662359Y-75806678D01*
X118376644Y-77235250D02*
X118519501Y-77306678D01*
X118519501Y-77306678D02*
X118805216Y-77306678D01*
X118805216Y-77306678D02*
X118948073Y-77235250D01*
X118948073Y-77235250D02*
X119019501Y-77092392D01*
X119019501Y-77092392D02*
X119019501Y-76520964D01*
X119019501Y-76520964D02*
X118948073Y-76378107D01*
X118948073Y-76378107D02*
X118805216Y-76306678D01*
X118805216Y-76306678D02*
X118519501Y-76306678D01*
X118519501Y-76306678D02*
X118376644Y-76378107D01*
X118376644Y-76378107D02*
X118305216Y-76520964D01*
X118305216Y-76520964D02*
X118305216Y-76663821D01*
X118305216Y-76663821D02*
X119019501Y-76806678D01*
X117805216Y-77306678D02*
X117019502Y-76306678D01*
X117805216Y-76306678D02*
X117019502Y-77306678D01*
X116662358Y-76306678D02*
X116090930Y-76306678D01*
X116448073Y-75806678D02*
X116448073Y-77092392D01*
X116448073Y-77092392D02*
X116376644Y-77235250D01*
X116376644Y-77235250D02*
X116233787Y-77306678D01*
X116233787Y-77306678D02*
X116090930Y-77306678D01*
X115590930Y-77306678D02*
X115590930Y-76306678D01*
X115590930Y-75806678D02*
X115662358Y-75878107D01*
X115662358Y-75878107D02*
X115590930Y-75949535D01*
X115590930Y-75949535D02*
X115519501Y-75878107D01*
X115519501Y-75878107D02*
X115590930Y-75806678D01*
X115590930Y-75806678D02*
X115590930Y-75949535D01*
X114662358Y-77306678D02*
X114805215Y-77235250D01*
X114805215Y-77235250D02*
X114876644Y-77163821D01*
X114876644Y-77163821D02*
X114948072Y-77020964D01*
X114948072Y-77020964D02*
X114948072Y-76592392D01*
X114948072Y-76592392D02*
X114876644Y-76449535D01*
X114876644Y-76449535D02*
X114805215Y-76378107D01*
X114805215Y-76378107D02*
X114662358Y-76306678D01*
X114662358Y-76306678D02*
X114448072Y-76306678D01*
X114448072Y-76306678D02*
X114305215Y-76378107D01*
X114305215Y-76378107D02*
X114233787Y-76449535D01*
X114233787Y-76449535D02*
X114162358Y-76592392D01*
X114162358Y-76592392D02*
X114162358Y-77020964D01*
X114162358Y-77020964D02*
X114233787Y-77163821D01*
X114233787Y-77163821D02*
X114305215Y-77235250D01*
X114305215Y-77235250D02*
X114448072Y-77306678D01*
X114448072Y-77306678D02*
X114662358Y-77306678D01*
X113519501Y-76306678D02*
X113519501Y-77306678D01*
X113519501Y-76449535D02*
X113448072Y-76378107D01*
X113448072Y-76378107D02*
X113305215Y-76306678D01*
X113305215Y-76306678D02*
X113090929Y-76306678D01*
X113090929Y-76306678D02*
X112948072Y-76378107D01*
X112948072Y-76378107D02*
X112876644Y-76520964D01*
X112876644Y-76520964D02*
X112876644Y-77306678D01*
X110733786Y-75806678D02*
X110448072Y-75806678D01*
X110448072Y-75806678D02*
X110305215Y-75878107D01*
X110305215Y-75878107D02*
X110162358Y-76020964D01*
X110162358Y-76020964D02*
X110090929Y-76306678D01*
X110090929Y-76306678D02*
X110090929Y-76806678D01*
X110090929Y-76806678D02*
X110162358Y-77092392D01*
X110162358Y-77092392D02*
X110305215Y-77235250D01*
X110305215Y-77235250D02*
X110448072Y-77306678D01*
X110448072Y-77306678D02*
X110733786Y-77306678D01*
X110733786Y-77306678D02*
X110876644Y-77235250D01*
X110876644Y-77235250D02*
X111019501Y-77092392D01*
X111019501Y-77092392D02*
X111090929Y-76806678D01*
X111090929Y-76806678D02*
X111090929Y-76306678D01*
X111090929Y-76306678D02*
X111019501Y-76020964D01*
X111019501Y-76020964D02*
X110876644Y-75878107D01*
X110876644Y-75878107D02*
X110733786Y-75806678D01*
X108805215Y-76306678D02*
X108805215Y-77306678D01*
X109448072Y-76306678D02*
X109448072Y-77092392D01*
X109448072Y-77092392D02*
X109376643Y-77235250D01*
X109376643Y-77235250D02*
X109233786Y-77306678D01*
X109233786Y-77306678D02*
X109019500Y-77306678D01*
X109019500Y-77306678D02*
X108876643Y-77235250D01*
X108876643Y-77235250D02*
X108805215Y-77163821D01*
X108305214Y-76306678D02*
X107733786Y-76306678D01*
X108090929Y-75806678D02*
X108090929Y-77092392D01*
X108090929Y-77092392D02*
X108019500Y-77235250D01*
X108019500Y-77235250D02*
X107876643Y-77306678D01*
X107876643Y-77306678D02*
X107733786Y-77306678D01*
X107233786Y-76306678D02*
X107233786Y-77806678D01*
X107233786Y-76378107D02*
X107090929Y-76306678D01*
X107090929Y-76306678D02*
X106805214Y-76306678D01*
X106805214Y-76306678D02*
X106662357Y-76378107D01*
X106662357Y-76378107D02*
X106590929Y-76449535D01*
X106590929Y-76449535D02*
X106519500Y-76592392D01*
X106519500Y-76592392D02*
X106519500Y-77020964D01*
X106519500Y-77020964D02*
X106590929Y-77163821D01*
X106590929Y-77163821D02*
X106662357Y-77235250D01*
X106662357Y-77235250D02*
X106805214Y-77306678D01*
X106805214Y-77306678D02*
X107090929Y-77306678D01*
X107090929Y-77306678D02*
X107233786Y-77235250D01*
X105233786Y-76306678D02*
X105233786Y-77306678D01*
X105876643Y-76306678D02*
X105876643Y-77092392D01*
X105876643Y-77092392D02*
X105805214Y-77235250D01*
X105805214Y-77235250D02*
X105662357Y-77306678D01*
X105662357Y-77306678D02*
X105448071Y-77306678D01*
X105448071Y-77306678D02*
X105305214Y-77235250D01*
X105305214Y-77235250D02*
X105233786Y-77163821D01*
X104733785Y-76306678D02*
X104162357Y-76306678D01*
X104519500Y-75806678D02*
X104519500Y-77092392D01*
X104519500Y-77092392D02*
X104448071Y-77235250D01*
X104448071Y-77235250D02*
X104305214Y-77306678D01*
X104305214Y-77306678D02*
X104162357Y-77306678D01*
D10*
X114659774Y-143872257D02*
X114802632Y-143800828D01*
X114802632Y-143800828D02*
X115016917Y-143800828D01*
X115016917Y-143800828D02*
X115231203Y-143872257D01*
X115231203Y-143872257D02*
X115374060Y-144015114D01*
X115374060Y-144015114D02*
X115445489Y-144157971D01*
X115445489Y-144157971D02*
X115516917Y-144443685D01*
X115516917Y-144443685D02*
X115516917Y-144657971D01*
X115516917Y-144657971D02*
X115445489Y-144943685D01*
X115445489Y-144943685D02*
X115374060Y-145086542D01*
X115374060Y-145086542D02*
X115231203Y-145229400D01*
X115231203Y-145229400D02*
X115016917Y-145300828D01*
X115016917Y-145300828D02*
X114874060Y-145300828D01*
X114874060Y-145300828D02*
X114659774Y-145229400D01*
X114659774Y-145229400D02*
X114588346Y-145157971D01*
X114588346Y-145157971D02*
X114588346Y-144657971D01*
X114588346Y-144657971D02*
X114874060Y-144657971D01*
X113945489Y-145300828D02*
X113945489Y-143800828D01*
X113945489Y-143800828D02*
X113088346Y-145300828D01*
X113088346Y-145300828D02*
X113088346Y-143800828D01*
X112374060Y-145300828D02*
X112374060Y-143800828D01*
X112374060Y-143800828D02*
X112016917Y-143800828D01*
X112016917Y-143800828D02*
X111802631Y-143872257D01*
X111802631Y-143872257D02*
X111659774Y-144015114D01*
X111659774Y-144015114D02*
X111588345Y-144157971D01*
X111588345Y-144157971D02*
X111516917Y-144443685D01*
X111516917Y-144443685D02*
X111516917Y-144657971D01*
X111516917Y-144657971D02*
X111588345Y-144943685D01*
X111588345Y-144943685D02*
X111659774Y-145086542D01*
X111659774Y-145086542D02*
X111802631Y-145229400D01*
X111802631Y-145229400D02*
X112016917Y-145300828D01*
X112016917Y-145300828D02*
X112374060Y-145300828D01*
X120345489Y-139015114D02*
X120131203Y-139086542D01*
X120131203Y-139086542D02*
X120059774Y-139157971D01*
X120059774Y-139157971D02*
X119988346Y-139300828D01*
X119988346Y-139300828D02*
X119988346Y-139515114D01*
X119988346Y-139515114D02*
X120059774Y-139657971D01*
X120059774Y-139657971D02*
X120131203Y-139729400D01*
X120131203Y-139729400D02*
X120274060Y-139800828D01*
X120274060Y-139800828D02*
X120845489Y-139800828D01*
X120845489Y-139800828D02*
X120845489Y-138300828D01*
X120845489Y-138300828D02*
X120345489Y-138300828D01*
X120345489Y-138300828D02*
X120202632Y-138372257D01*
X120202632Y-138372257D02*
X120131203Y-138443685D01*
X120131203Y-138443685D02*
X120059774Y-138586542D01*
X120059774Y-138586542D02*
X120059774Y-138729400D01*
X120059774Y-138729400D02*
X120131203Y-138872257D01*
X120131203Y-138872257D02*
X120202632Y-138943685D01*
X120202632Y-138943685D02*
X120345489Y-139015114D01*
X120345489Y-139015114D02*
X120845489Y-139015114D01*
X119345489Y-139800828D02*
X119345489Y-138800828D01*
X119345489Y-139086542D02*
X119274060Y-138943685D01*
X119274060Y-138943685D02*
X119202632Y-138872257D01*
X119202632Y-138872257D02*
X119059774Y-138800828D01*
X119059774Y-138800828D02*
X118916917Y-138800828D01*
X117774061Y-139800828D02*
X117774061Y-139015114D01*
X117774061Y-139015114D02*
X117845489Y-138872257D01*
X117845489Y-138872257D02*
X117988346Y-138800828D01*
X117988346Y-138800828D02*
X118274061Y-138800828D01*
X118274061Y-138800828D02*
X118416918Y-138872257D01*
X117774061Y-139729400D02*
X117916918Y-139800828D01*
X117916918Y-139800828D02*
X118274061Y-139800828D01*
X118274061Y-139800828D02*
X118416918Y-139729400D01*
X118416918Y-139729400D02*
X118488346Y-139586542D01*
X118488346Y-139586542D02*
X118488346Y-139443685D01*
X118488346Y-139443685D02*
X118416918Y-139300828D01*
X118416918Y-139300828D02*
X118274061Y-139229400D01*
X118274061Y-139229400D02*
X117916918Y-139229400D01*
X117916918Y-139229400D02*
X117774061Y-139157971D01*
X117059775Y-139800828D02*
X117059775Y-138300828D01*
X116916918Y-139229400D02*
X116488346Y-139800828D01*
X116488346Y-138800828D02*
X117059775Y-139372257D01*
X115274060Y-139729400D02*
X115416917Y-139800828D01*
X115416917Y-139800828D02*
X115702632Y-139800828D01*
X115702632Y-139800828D02*
X115845489Y-139729400D01*
X115845489Y-139729400D02*
X115916917Y-139586542D01*
X115916917Y-139586542D02*
X115916917Y-139015114D01*
X115916917Y-139015114D02*
X115845489Y-138872257D01*
X115845489Y-138872257D02*
X115702632Y-138800828D01*
X115702632Y-138800828D02*
X115416917Y-138800828D01*
X115416917Y-138800828D02*
X115274060Y-138872257D01*
X115274060Y-138872257D02*
X115202632Y-139015114D01*
X115202632Y-139015114D02*
X115202632Y-139157971D01*
X115202632Y-139157971D02*
X115916917Y-139300828D01*
X113416918Y-139800828D02*
X113416918Y-138300828D01*
X112702632Y-139800828D02*
X112702632Y-138300828D01*
X112702632Y-138300828D02*
X111845489Y-139800828D01*
X111845489Y-139800828D02*
X111845489Y-138300828D01*
X123045489Y-134300828D02*
X123045489Y-132800828D01*
X123045489Y-133515114D02*
X122188346Y-133515114D01*
X122188346Y-134300828D02*
X122188346Y-132800828D01*
X120902631Y-134229400D02*
X121045488Y-134300828D01*
X121045488Y-134300828D02*
X121331203Y-134300828D01*
X121331203Y-134300828D02*
X121474060Y-134229400D01*
X121474060Y-134229400D02*
X121545488Y-134086542D01*
X121545488Y-134086542D02*
X121545488Y-133515114D01*
X121545488Y-133515114D02*
X121474060Y-133372257D01*
X121474060Y-133372257D02*
X121331203Y-133300828D01*
X121331203Y-133300828D02*
X121045488Y-133300828D01*
X121045488Y-133300828D02*
X120902631Y-133372257D01*
X120902631Y-133372257D02*
X120831203Y-133515114D01*
X120831203Y-133515114D02*
X120831203Y-133657971D01*
X120831203Y-133657971D02*
X121545488Y-133800828D01*
X119545489Y-134300828D02*
X119545489Y-133515114D01*
X119545489Y-133515114D02*
X119616917Y-133372257D01*
X119616917Y-133372257D02*
X119759774Y-133300828D01*
X119759774Y-133300828D02*
X120045489Y-133300828D01*
X120045489Y-133300828D02*
X120188346Y-133372257D01*
X119545489Y-134229400D02*
X119688346Y-134300828D01*
X119688346Y-134300828D02*
X120045489Y-134300828D01*
X120045489Y-134300828D02*
X120188346Y-134229400D01*
X120188346Y-134229400D02*
X120259774Y-134086542D01*
X120259774Y-134086542D02*
X120259774Y-133943685D01*
X120259774Y-133943685D02*
X120188346Y-133800828D01*
X120188346Y-133800828D02*
X120045489Y-133729400D01*
X120045489Y-133729400D02*
X119688346Y-133729400D01*
X119688346Y-133729400D02*
X119545489Y-133657971D01*
X118188346Y-134300828D02*
X118188346Y-132800828D01*
X118188346Y-134229400D02*
X118331203Y-134300828D01*
X118331203Y-134300828D02*
X118616917Y-134300828D01*
X118616917Y-134300828D02*
X118759774Y-134229400D01*
X118759774Y-134229400D02*
X118831203Y-134157971D01*
X118831203Y-134157971D02*
X118902631Y-134015114D01*
X118902631Y-134015114D02*
X118902631Y-133586542D01*
X118902631Y-133586542D02*
X118831203Y-133443685D01*
X118831203Y-133443685D02*
X118759774Y-133372257D01*
X118759774Y-133372257D02*
X118616917Y-133300828D01*
X118616917Y-133300828D02*
X118331203Y-133300828D01*
X118331203Y-133300828D02*
X118188346Y-133372257D01*
X117259774Y-134300828D02*
X117402631Y-134229400D01*
X117402631Y-134229400D02*
X117474060Y-134086542D01*
X117474060Y-134086542D02*
X117474060Y-132800828D01*
X116688346Y-134300828D02*
X116688346Y-133300828D01*
X116688346Y-132800828D02*
X116759774Y-132872257D01*
X116759774Y-132872257D02*
X116688346Y-132943685D01*
X116688346Y-132943685D02*
X116616917Y-132872257D01*
X116616917Y-132872257D02*
X116688346Y-132800828D01*
X116688346Y-132800828D02*
X116688346Y-132943685D01*
X115331203Y-133300828D02*
X115331203Y-134515114D01*
X115331203Y-134515114D02*
X115402631Y-134657971D01*
X115402631Y-134657971D02*
X115474060Y-134729400D01*
X115474060Y-134729400D02*
X115616917Y-134800828D01*
X115616917Y-134800828D02*
X115831203Y-134800828D01*
X115831203Y-134800828D02*
X115974060Y-134729400D01*
X115331203Y-134229400D02*
X115474060Y-134300828D01*
X115474060Y-134300828D02*
X115759774Y-134300828D01*
X115759774Y-134300828D02*
X115902631Y-134229400D01*
X115902631Y-134229400D02*
X115974060Y-134157971D01*
X115974060Y-134157971D02*
X116045488Y-134015114D01*
X116045488Y-134015114D02*
X116045488Y-133586542D01*
X116045488Y-133586542D02*
X115974060Y-133443685D01*
X115974060Y-133443685D02*
X115902631Y-133372257D01*
X115902631Y-133372257D02*
X115759774Y-133300828D01*
X115759774Y-133300828D02*
X115474060Y-133300828D01*
X115474060Y-133300828D02*
X115331203Y-133372257D01*
X114616917Y-134300828D02*
X114616917Y-132800828D01*
X113974060Y-134300828D02*
X113974060Y-133515114D01*
X113974060Y-133515114D02*
X114045488Y-133372257D01*
X114045488Y-133372257D02*
X114188345Y-133300828D01*
X114188345Y-133300828D02*
X114402631Y-133300828D01*
X114402631Y-133300828D02*
X114545488Y-133372257D01*
X114545488Y-133372257D02*
X114616917Y-133443685D01*
X113474059Y-133300828D02*
X112902631Y-133300828D01*
X113259774Y-132800828D02*
X113259774Y-134086542D01*
X113259774Y-134086542D02*
X113188345Y-134229400D01*
X113188345Y-134229400D02*
X113045488Y-134300828D01*
X113045488Y-134300828D02*
X112902631Y-134300828D01*
X112474059Y-134229400D02*
X112331202Y-134300828D01*
X112331202Y-134300828D02*
X112045488Y-134300828D01*
X112045488Y-134300828D02*
X111902631Y-134229400D01*
X111902631Y-134229400D02*
X111831202Y-134086542D01*
X111831202Y-134086542D02*
X111831202Y-134015114D01*
X111831202Y-134015114D02*
X111902631Y-133872257D01*
X111902631Y-133872257D02*
X112045488Y-133800828D01*
X112045488Y-133800828D02*
X112259774Y-133800828D01*
X112259774Y-133800828D02*
X112402631Y-133729400D01*
X112402631Y-133729400D02*
X112474059Y-133586542D01*
X112474059Y-133586542D02*
X112474059Y-133515114D01*
X112474059Y-133515114D02*
X112402631Y-133372257D01*
X112402631Y-133372257D02*
X112259774Y-133300828D01*
X112259774Y-133300828D02*
X112045488Y-133300828D01*
X112045488Y-133300828D02*
X111902631Y-133372257D01*
X123290672Y-128300828D02*
X123290672Y-126800828D01*
X123290672Y-127515114D02*
X122433529Y-127515114D01*
X122433529Y-128300828D02*
X122433529Y-126800828D01*
X121076386Y-128300828D02*
X121076386Y-127515114D01*
X121076386Y-127515114D02*
X121147814Y-127372257D01*
X121147814Y-127372257D02*
X121290671Y-127300828D01*
X121290671Y-127300828D02*
X121576386Y-127300828D01*
X121576386Y-127300828D02*
X121719243Y-127372257D01*
X121076386Y-128229400D02*
X121219243Y-128300828D01*
X121219243Y-128300828D02*
X121576386Y-128300828D01*
X121576386Y-128300828D02*
X121719243Y-128229400D01*
X121719243Y-128229400D02*
X121790671Y-128086542D01*
X121790671Y-128086542D02*
X121790671Y-127943685D01*
X121790671Y-127943685D02*
X121719243Y-127800828D01*
X121719243Y-127800828D02*
X121576386Y-127729400D01*
X121576386Y-127729400D02*
X121219243Y-127729400D01*
X121219243Y-127729400D02*
X121076386Y-127657971D01*
X120504957Y-127300828D02*
X119719243Y-127300828D01*
X119719243Y-127300828D02*
X120504957Y-128300828D01*
X120504957Y-128300828D02*
X119719243Y-128300828D01*
X118504957Y-128300828D02*
X118504957Y-127515114D01*
X118504957Y-127515114D02*
X118576385Y-127372257D01*
X118576385Y-127372257D02*
X118719242Y-127300828D01*
X118719242Y-127300828D02*
X119004957Y-127300828D01*
X119004957Y-127300828D02*
X119147814Y-127372257D01*
X118504957Y-128229400D02*
X118647814Y-128300828D01*
X118647814Y-128300828D02*
X119004957Y-128300828D01*
X119004957Y-128300828D02*
X119147814Y-128229400D01*
X119147814Y-128229400D02*
X119219242Y-128086542D01*
X119219242Y-128086542D02*
X119219242Y-127943685D01*
X119219242Y-127943685D02*
X119147814Y-127800828D01*
X119147814Y-127800828D02*
X119004957Y-127729400D01*
X119004957Y-127729400D02*
X118647814Y-127729400D01*
X118647814Y-127729400D02*
X118504957Y-127657971D01*
X117790671Y-128300828D02*
X117790671Y-127300828D01*
X117790671Y-127586542D02*
X117719242Y-127443685D01*
X117719242Y-127443685D02*
X117647814Y-127372257D01*
X117647814Y-127372257D02*
X117504956Y-127300828D01*
X117504956Y-127300828D02*
X117362099Y-127300828D01*
X116219243Y-128300828D02*
X116219243Y-126800828D01*
X116219243Y-128229400D02*
X116362100Y-128300828D01*
X116362100Y-128300828D02*
X116647814Y-128300828D01*
X116647814Y-128300828D02*
X116790671Y-128229400D01*
X116790671Y-128229400D02*
X116862100Y-128157971D01*
X116862100Y-128157971D02*
X116933528Y-128015114D01*
X116933528Y-128015114D02*
X116933528Y-127586542D01*
X116933528Y-127586542D02*
X116862100Y-127443685D01*
X116862100Y-127443685D02*
X116790671Y-127372257D01*
X116790671Y-127372257D02*
X116647814Y-127300828D01*
X116647814Y-127300828D02*
X116362100Y-127300828D01*
X116362100Y-127300828D02*
X116219243Y-127372257D01*
X115576385Y-128229400D02*
X115433528Y-128300828D01*
X115433528Y-128300828D02*
X115147814Y-128300828D01*
X115147814Y-128300828D02*
X115004957Y-128229400D01*
X115004957Y-128229400D02*
X114933528Y-128086542D01*
X114933528Y-128086542D02*
X114933528Y-128015114D01*
X114933528Y-128015114D02*
X115004957Y-127872257D01*
X115004957Y-127872257D02*
X115147814Y-127800828D01*
X115147814Y-127800828D02*
X115362100Y-127800828D01*
X115362100Y-127800828D02*
X115504957Y-127729400D01*
X115504957Y-127729400D02*
X115576385Y-127586542D01*
X115576385Y-127586542D02*
X115576385Y-127515114D01*
X115576385Y-127515114D02*
X115504957Y-127372257D01*
X115504957Y-127372257D02*
X115362100Y-127300828D01*
X115362100Y-127300828D02*
X115147814Y-127300828D01*
X115147814Y-127300828D02*
X115004957Y-127372257D01*
X113147814Y-128300828D02*
X113147814Y-126800828D01*
X112433528Y-127300828D02*
X112433528Y-128300828D01*
X112433528Y-127443685D02*
X112362099Y-127372257D01*
X112362099Y-127372257D02*
X112219242Y-127300828D01*
X112219242Y-127300828D02*
X112004956Y-127300828D01*
X112004956Y-127300828D02*
X111862099Y-127372257D01*
X111862099Y-127372257D02*
X111790671Y-127515114D01*
X111790671Y-127515114D02*
X111790671Y-128300828D01*
X125731203Y-117800828D02*
X126445489Y-117800828D01*
X126445489Y-117800828D02*
X126445489Y-116300828D01*
X124659774Y-117729400D02*
X124802631Y-117800828D01*
X124802631Y-117800828D02*
X125088346Y-117800828D01*
X125088346Y-117800828D02*
X125231203Y-117729400D01*
X125231203Y-117729400D02*
X125302631Y-117586542D01*
X125302631Y-117586542D02*
X125302631Y-117015114D01*
X125302631Y-117015114D02*
X125231203Y-116872257D01*
X125231203Y-116872257D02*
X125088346Y-116800828D01*
X125088346Y-116800828D02*
X124802631Y-116800828D01*
X124802631Y-116800828D02*
X124659774Y-116872257D01*
X124659774Y-116872257D02*
X124588346Y-117015114D01*
X124588346Y-117015114D02*
X124588346Y-117157971D01*
X124588346Y-117157971D02*
X125302631Y-117300828D01*
X124159774Y-116800828D02*
X123588346Y-116800828D01*
X123945489Y-117800828D02*
X123945489Y-116515114D01*
X123945489Y-116515114D02*
X123874060Y-116372257D01*
X123874060Y-116372257D02*
X123731203Y-116300828D01*
X123731203Y-116300828D02*
X123588346Y-116300828D01*
X123302631Y-116800828D02*
X122731203Y-116800828D01*
X123088346Y-116300828D02*
X123088346Y-117586542D01*
X123088346Y-117586542D02*
X123016917Y-117729400D01*
X123016917Y-117729400D02*
X122874060Y-117800828D01*
X122874060Y-117800828D02*
X122731203Y-117800828D01*
X121159774Y-117729400D02*
X120945489Y-117800828D01*
X120945489Y-117800828D02*
X120588346Y-117800828D01*
X120588346Y-117800828D02*
X120445489Y-117729400D01*
X120445489Y-117729400D02*
X120374060Y-117657971D01*
X120374060Y-117657971D02*
X120302631Y-117515114D01*
X120302631Y-117515114D02*
X120302631Y-117372257D01*
X120302631Y-117372257D02*
X120374060Y-117229400D01*
X120374060Y-117229400D02*
X120445489Y-117157971D01*
X120445489Y-117157971D02*
X120588346Y-117086542D01*
X120588346Y-117086542D02*
X120874060Y-117015114D01*
X120874060Y-117015114D02*
X121016917Y-116943685D01*
X121016917Y-116943685D02*
X121088346Y-116872257D01*
X121088346Y-116872257D02*
X121159774Y-116729400D01*
X121159774Y-116729400D02*
X121159774Y-116586542D01*
X121159774Y-116586542D02*
X121088346Y-116443685D01*
X121088346Y-116443685D02*
X121016917Y-116372257D01*
X121016917Y-116372257D02*
X120874060Y-116300828D01*
X120874060Y-116300828D02*
X120516917Y-116300828D01*
X120516917Y-116300828D02*
X120302631Y-116372257D01*
X119659775Y-117800828D02*
X119659775Y-116800828D01*
X119659775Y-116300828D02*
X119731203Y-116372257D01*
X119731203Y-116372257D02*
X119659775Y-116443685D01*
X119659775Y-116443685D02*
X119588346Y-116372257D01*
X119588346Y-116372257D02*
X119659775Y-116300828D01*
X119659775Y-116300828D02*
X119659775Y-116443685D01*
X118302632Y-116800828D02*
X118302632Y-118015114D01*
X118302632Y-118015114D02*
X118374060Y-118157971D01*
X118374060Y-118157971D02*
X118445489Y-118229400D01*
X118445489Y-118229400D02*
X118588346Y-118300828D01*
X118588346Y-118300828D02*
X118802632Y-118300828D01*
X118802632Y-118300828D02*
X118945489Y-118229400D01*
X118302632Y-117729400D02*
X118445489Y-117800828D01*
X118445489Y-117800828D02*
X118731203Y-117800828D01*
X118731203Y-117800828D02*
X118874060Y-117729400D01*
X118874060Y-117729400D02*
X118945489Y-117657971D01*
X118945489Y-117657971D02*
X119016917Y-117515114D01*
X119016917Y-117515114D02*
X119016917Y-117086542D01*
X119016917Y-117086542D02*
X118945489Y-116943685D01*
X118945489Y-116943685D02*
X118874060Y-116872257D01*
X118874060Y-116872257D02*
X118731203Y-116800828D01*
X118731203Y-116800828D02*
X118445489Y-116800828D01*
X118445489Y-116800828D02*
X118302632Y-116872257D01*
X117588346Y-116800828D02*
X117588346Y-117800828D01*
X117588346Y-116943685D02*
X117516917Y-116872257D01*
X117516917Y-116872257D02*
X117374060Y-116800828D01*
X117374060Y-116800828D02*
X117159774Y-116800828D01*
X117159774Y-116800828D02*
X117016917Y-116872257D01*
X117016917Y-116872257D02*
X116945489Y-117015114D01*
X116945489Y-117015114D02*
X116945489Y-117800828D01*
X115588346Y-117800828D02*
X115588346Y-117015114D01*
X115588346Y-117015114D02*
X115659774Y-116872257D01*
X115659774Y-116872257D02*
X115802631Y-116800828D01*
X115802631Y-116800828D02*
X116088346Y-116800828D01*
X116088346Y-116800828D02*
X116231203Y-116872257D01*
X115588346Y-117729400D02*
X115731203Y-117800828D01*
X115731203Y-117800828D02*
X116088346Y-117800828D01*
X116088346Y-117800828D02*
X116231203Y-117729400D01*
X116231203Y-117729400D02*
X116302631Y-117586542D01*
X116302631Y-117586542D02*
X116302631Y-117443685D01*
X116302631Y-117443685D02*
X116231203Y-117300828D01*
X116231203Y-117300828D02*
X116088346Y-117229400D01*
X116088346Y-117229400D02*
X115731203Y-117229400D01*
X115731203Y-117229400D02*
X115588346Y-117157971D01*
X114659774Y-117800828D02*
X114802631Y-117729400D01*
X114802631Y-117729400D02*
X114874060Y-117586542D01*
X114874060Y-117586542D02*
X114874060Y-116300828D01*
X112945489Y-117800828D02*
X112945489Y-116300828D01*
X112231203Y-116800828D02*
X112231203Y-117800828D01*
X112231203Y-116943685D02*
X112159774Y-116872257D01*
X112159774Y-116872257D02*
X112016917Y-116800828D01*
X112016917Y-116800828D02*
X111802631Y-116800828D01*
X111802631Y-116800828D02*
X111659774Y-116872257D01*
X111659774Y-116872257D02*
X111588346Y-117015114D01*
X111588346Y-117015114D02*
X111588346Y-117800828D01*
X127088346Y-122800828D02*
X127588346Y-122086542D01*
X127945489Y-122800828D02*
X127945489Y-121300828D01*
X127945489Y-121300828D02*
X127374060Y-121300828D01*
X127374060Y-121300828D02*
X127231203Y-121372257D01*
X127231203Y-121372257D02*
X127159774Y-121443685D01*
X127159774Y-121443685D02*
X127088346Y-121586542D01*
X127088346Y-121586542D02*
X127088346Y-121800828D01*
X127088346Y-121800828D02*
X127159774Y-121943685D01*
X127159774Y-121943685D02*
X127231203Y-122015114D01*
X127231203Y-122015114D02*
X127374060Y-122086542D01*
X127374060Y-122086542D02*
X127945489Y-122086542D01*
X126445489Y-122800828D02*
X126445489Y-121800828D01*
X126445489Y-121300828D02*
X126516917Y-121372257D01*
X126516917Y-121372257D02*
X126445489Y-121443685D01*
X126445489Y-121443685D02*
X126374060Y-121372257D01*
X126374060Y-121372257D02*
X126445489Y-121300828D01*
X126445489Y-121300828D02*
X126445489Y-121443685D01*
X125088346Y-121800828D02*
X125088346Y-123015114D01*
X125088346Y-123015114D02*
X125159774Y-123157971D01*
X125159774Y-123157971D02*
X125231203Y-123229400D01*
X125231203Y-123229400D02*
X125374060Y-123300828D01*
X125374060Y-123300828D02*
X125588346Y-123300828D01*
X125588346Y-123300828D02*
X125731203Y-123229400D01*
X125088346Y-122729400D02*
X125231203Y-122800828D01*
X125231203Y-122800828D02*
X125516917Y-122800828D01*
X125516917Y-122800828D02*
X125659774Y-122729400D01*
X125659774Y-122729400D02*
X125731203Y-122657971D01*
X125731203Y-122657971D02*
X125802631Y-122515114D01*
X125802631Y-122515114D02*
X125802631Y-122086542D01*
X125802631Y-122086542D02*
X125731203Y-121943685D01*
X125731203Y-121943685D02*
X125659774Y-121872257D01*
X125659774Y-121872257D02*
X125516917Y-121800828D01*
X125516917Y-121800828D02*
X125231203Y-121800828D01*
X125231203Y-121800828D02*
X125088346Y-121872257D01*
X124374060Y-122800828D02*
X124374060Y-121300828D01*
X123731203Y-122800828D02*
X123731203Y-122015114D01*
X123731203Y-122015114D02*
X123802631Y-121872257D01*
X123802631Y-121872257D02*
X123945488Y-121800828D01*
X123945488Y-121800828D02*
X124159774Y-121800828D01*
X124159774Y-121800828D02*
X124302631Y-121872257D01*
X124302631Y-121872257D02*
X124374060Y-121943685D01*
X123231202Y-121800828D02*
X122659774Y-121800828D01*
X123016917Y-121300828D02*
X123016917Y-122586542D01*
X123016917Y-122586542D02*
X122945488Y-122729400D01*
X122945488Y-122729400D02*
X122802631Y-122800828D01*
X122802631Y-122800828D02*
X122659774Y-122800828D01*
X121088345Y-122729400D02*
X120874060Y-122800828D01*
X120874060Y-122800828D02*
X120516917Y-122800828D01*
X120516917Y-122800828D02*
X120374060Y-122729400D01*
X120374060Y-122729400D02*
X120302631Y-122657971D01*
X120302631Y-122657971D02*
X120231202Y-122515114D01*
X120231202Y-122515114D02*
X120231202Y-122372257D01*
X120231202Y-122372257D02*
X120302631Y-122229400D01*
X120302631Y-122229400D02*
X120374060Y-122157971D01*
X120374060Y-122157971D02*
X120516917Y-122086542D01*
X120516917Y-122086542D02*
X120802631Y-122015114D01*
X120802631Y-122015114D02*
X120945488Y-121943685D01*
X120945488Y-121943685D02*
X121016917Y-121872257D01*
X121016917Y-121872257D02*
X121088345Y-121729400D01*
X121088345Y-121729400D02*
X121088345Y-121586542D01*
X121088345Y-121586542D02*
X121016917Y-121443685D01*
X121016917Y-121443685D02*
X120945488Y-121372257D01*
X120945488Y-121372257D02*
X120802631Y-121300828D01*
X120802631Y-121300828D02*
X120445488Y-121300828D01*
X120445488Y-121300828D02*
X120231202Y-121372257D01*
X119588346Y-122800828D02*
X119588346Y-121800828D01*
X119588346Y-121300828D02*
X119659774Y-121372257D01*
X119659774Y-121372257D02*
X119588346Y-121443685D01*
X119588346Y-121443685D02*
X119516917Y-121372257D01*
X119516917Y-121372257D02*
X119588346Y-121300828D01*
X119588346Y-121300828D02*
X119588346Y-121443685D01*
X118231203Y-121800828D02*
X118231203Y-123015114D01*
X118231203Y-123015114D02*
X118302631Y-123157971D01*
X118302631Y-123157971D02*
X118374060Y-123229400D01*
X118374060Y-123229400D02*
X118516917Y-123300828D01*
X118516917Y-123300828D02*
X118731203Y-123300828D01*
X118731203Y-123300828D02*
X118874060Y-123229400D01*
X118231203Y-122729400D02*
X118374060Y-122800828D01*
X118374060Y-122800828D02*
X118659774Y-122800828D01*
X118659774Y-122800828D02*
X118802631Y-122729400D01*
X118802631Y-122729400D02*
X118874060Y-122657971D01*
X118874060Y-122657971D02*
X118945488Y-122515114D01*
X118945488Y-122515114D02*
X118945488Y-122086542D01*
X118945488Y-122086542D02*
X118874060Y-121943685D01*
X118874060Y-121943685D02*
X118802631Y-121872257D01*
X118802631Y-121872257D02*
X118659774Y-121800828D01*
X118659774Y-121800828D02*
X118374060Y-121800828D01*
X118374060Y-121800828D02*
X118231203Y-121872257D01*
X117516917Y-121800828D02*
X117516917Y-122800828D01*
X117516917Y-121943685D02*
X117445488Y-121872257D01*
X117445488Y-121872257D02*
X117302631Y-121800828D01*
X117302631Y-121800828D02*
X117088345Y-121800828D01*
X117088345Y-121800828D02*
X116945488Y-121872257D01*
X116945488Y-121872257D02*
X116874060Y-122015114D01*
X116874060Y-122015114D02*
X116874060Y-122800828D01*
X115516917Y-122800828D02*
X115516917Y-122015114D01*
X115516917Y-122015114D02*
X115588345Y-121872257D01*
X115588345Y-121872257D02*
X115731202Y-121800828D01*
X115731202Y-121800828D02*
X116016917Y-121800828D01*
X116016917Y-121800828D02*
X116159774Y-121872257D01*
X115516917Y-122729400D02*
X115659774Y-122800828D01*
X115659774Y-122800828D02*
X116016917Y-122800828D01*
X116016917Y-122800828D02*
X116159774Y-122729400D01*
X116159774Y-122729400D02*
X116231202Y-122586542D01*
X116231202Y-122586542D02*
X116231202Y-122443685D01*
X116231202Y-122443685D02*
X116159774Y-122300828D01*
X116159774Y-122300828D02*
X116016917Y-122229400D01*
X116016917Y-122229400D02*
X115659774Y-122229400D01*
X115659774Y-122229400D02*
X115516917Y-122157971D01*
X114588345Y-122800828D02*
X114731202Y-122729400D01*
X114731202Y-122729400D02*
X114802631Y-122586542D01*
X114802631Y-122586542D02*
X114802631Y-121300828D01*
X112874060Y-122800828D02*
X112874060Y-121300828D01*
X112159774Y-121800828D02*
X112159774Y-122800828D01*
X112159774Y-121943685D02*
X112088345Y-121872257D01*
X112088345Y-121872257D02*
X111945488Y-121800828D01*
X111945488Y-121800828D02*
X111731202Y-121800828D01*
X111731202Y-121800828D02*
X111588345Y-121872257D01*
X111588345Y-121872257D02*
X111516917Y-122015114D01*
X111516917Y-122015114D02*
X111516917Y-122800828D01*
D11*
X112563821Y-106737640D02*
X112635250Y-106666212D01*
X112635250Y-106666212D02*
X112706678Y-106451926D01*
X112706678Y-106451926D02*
X112706678Y-106309069D01*
X112706678Y-106309069D02*
X112635250Y-106094783D01*
X112635250Y-106094783D02*
X112492392Y-105951926D01*
X112492392Y-105951926D02*
X112349535Y-105880497D01*
X112349535Y-105880497D02*
X112063821Y-105809069D01*
X112063821Y-105809069D02*
X111849535Y-105809069D01*
X111849535Y-105809069D02*
X111563821Y-105880497D01*
X111563821Y-105880497D02*
X111420964Y-105951926D01*
X111420964Y-105951926D02*
X111278107Y-106094783D01*
X111278107Y-106094783D02*
X111206678Y-106309069D01*
X111206678Y-106309069D02*
X111206678Y-106451926D01*
X111206678Y-106451926D02*
X111278107Y-106666212D01*
X111278107Y-106666212D02*
X111349535Y-106737640D01*
X112278107Y-107309069D02*
X112278107Y-108023355D01*
X112706678Y-107166212D02*
X111206678Y-107666212D01*
X111206678Y-107666212D02*
X112706678Y-108166212D01*
X112706678Y-108666211D02*
X111206678Y-108666211D01*
X111206678Y-108666211D02*
X112706678Y-109523354D01*
X112706678Y-109523354D02*
X111206678Y-109523354D01*
D14*
X112542857Y-100854819D02*
X112876190Y-100378628D01*
X113114285Y-100854819D02*
X113114285Y-99854819D01*
X113114285Y-99854819D02*
X112733333Y-99854819D01*
X112733333Y-99854819D02*
X112638095Y-99902438D01*
X112638095Y-99902438D02*
X112590476Y-99950057D01*
X112590476Y-99950057D02*
X112542857Y-100045295D01*
X112542857Y-100045295D02*
X112542857Y-100188152D01*
X112542857Y-100188152D02*
X112590476Y-100283390D01*
X112590476Y-100283390D02*
X112638095Y-100331009D01*
X112638095Y-100331009D02*
X112733333Y-100378628D01*
X112733333Y-100378628D02*
X113114285Y-100378628D01*
X111590476Y-100854819D02*
X112161904Y-100854819D01*
X111876190Y-100854819D02*
X111876190Y-99854819D01*
X111876190Y-99854819D02*
X111971428Y-99997676D01*
X111971428Y-99997676D02*
X112066666Y-100092914D01*
X112066666Y-100092914D02*
X112161904Y-100140533D01*
X110733333Y-99854819D02*
X110923809Y-99854819D01*
X110923809Y-99854819D02*
X111019047Y-99902438D01*
X111019047Y-99902438D02*
X111066666Y-99950057D01*
X111066666Y-99950057D02*
X111161904Y-100092914D01*
X111161904Y-100092914D02*
X111209523Y-100283390D01*
X111209523Y-100283390D02*
X111209523Y-100664342D01*
X111209523Y-100664342D02*
X111161904Y-100759580D01*
X111161904Y-100759580D02*
X111114285Y-100807200D01*
X111114285Y-100807200D02*
X111019047Y-100854819D01*
X111019047Y-100854819D02*
X110828571Y-100854819D01*
X110828571Y-100854819D02*
X110733333Y-100807200D01*
X110733333Y-100807200D02*
X110685714Y-100759580D01*
X110685714Y-100759580D02*
X110638095Y-100664342D01*
X110638095Y-100664342D02*
X110638095Y-100426247D01*
X110638095Y-100426247D02*
X110685714Y-100331009D01*
X110685714Y-100331009D02*
X110733333Y-100283390D01*
X110733333Y-100283390D02*
X110828571Y-100235771D01*
X110828571Y-100235771D02*
X111019047Y-100235771D01*
X111019047Y-100235771D02*
X111114285Y-100283390D01*
X111114285Y-100283390D02*
X111161904Y-100331009D01*
X111161904Y-100331009D02*
X111209523Y-100426247D01*
X116595238Y-96000057D02*
X116690476Y-95952438D01*
X116690476Y-95952438D02*
X116785714Y-95857200D01*
X116785714Y-95857200D02*
X116928571Y-95714342D01*
X116928571Y-95714342D02*
X117023809Y-95666723D01*
X117023809Y-95666723D02*
X117119047Y-95666723D01*
X117071428Y-95904819D02*
X117166666Y-95857200D01*
X117166666Y-95857200D02*
X117261904Y-95761961D01*
X117261904Y-95761961D02*
X117309523Y-95571485D01*
X117309523Y-95571485D02*
X117309523Y-95238152D01*
X117309523Y-95238152D02*
X117261904Y-95047676D01*
X117261904Y-95047676D02*
X117166666Y-94952438D01*
X117166666Y-94952438D02*
X117071428Y-94904819D01*
X117071428Y-94904819D02*
X116880952Y-94904819D01*
X116880952Y-94904819D02*
X116785714Y-94952438D01*
X116785714Y-94952438D02*
X116690476Y-95047676D01*
X116690476Y-95047676D02*
X116642857Y-95238152D01*
X116642857Y-95238152D02*
X116642857Y-95571485D01*
X116642857Y-95571485D02*
X116690476Y-95761961D01*
X116690476Y-95761961D02*
X116785714Y-95857200D01*
X116785714Y-95857200D02*
X116880952Y-95904819D01*
X116880952Y-95904819D02*
X117071428Y-95904819D01*
X115785714Y-95238152D02*
X115785714Y-95904819D01*
X116023809Y-94857200D02*
X116261904Y-95571485D01*
X116261904Y-95571485D02*
X115642857Y-95571485D01*
X116142857Y-100754819D02*
X116476190Y-100278628D01*
X116714285Y-100754819D02*
X116714285Y-99754819D01*
X116714285Y-99754819D02*
X116333333Y-99754819D01*
X116333333Y-99754819D02*
X116238095Y-99802438D01*
X116238095Y-99802438D02*
X116190476Y-99850057D01*
X116190476Y-99850057D02*
X116142857Y-99945295D01*
X116142857Y-99945295D02*
X116142857Y-100088152D01*
X116142857Y-100088152D02*
X116190476Y-100183390D01*
X116190476Y-100183390D02*
X116238095Y-100231009D01*
X116238095Y-100231009D02*
X116333333Y-100278628D01*
X116333333Y-100278628D02*
X116714285Y-100278628D01*
X115190476Y-100754819D02*
X115761904Y-100754819D01*
X115476190Y-100754819D02*
X115476190Y-99754819D01*
X115476190Y-99754819D02*
X115571428Y-99897676D01*
X115571428Y-99897676D02*
X115666666Y-99992914D01*
X115666666Y-99992914D02*
X115761904Y-100040533D01*
X114714285Y-100754819D02*
X114523809Y-100754819D01*
X114523809Y-100754819D02*
X114428571Y-100707200D01*
X114428571Y-100707200D02*
X114380952Y-100659580D01*
X114380952Y-100659580D02*
X114285714Y-100516723D01*
X114285714Y-100516723D02*
X114238095Y-100326247D01*
X114238095Y-100326247D02*
X114238095Y-99945295D01*
X114238095Y-99945295D02*
X114285714Y-99850057D01*
X114285714Y-99850057D02*
X114333333Y-99802438D01*
X114333333Y-99802438D02*
X114428571Y-99754819D01*
X114428571Y-99754819D02*
X114619047Y-99754819D01*
X114619047Y-99754819D02*
X114714285Y-99802438D01*
X114714285Y-99802438D02*
X114761904Y-99850057D01*
X114761904Y-99850057D02*
X114809523Y-99945295D01*
X114809523Y-99945295D02*
X114809523Y-100183390D01*
X114809523Y-100183390D02*
X114761904Y-100278628D01*
X114761904Y-100278628D02*
X114714285Y-100326247D01*
X114714285Y-100326247D02*
X114619047Y-100373866D01*
X114619047Y-100373866D02*
X114428571Y-100373866D01*
X114428571Y-100373866D02*
X114333333Y-100326247D01*
X114333333Y-100326247D02*
X114285714Y-100278628D01*
X114285714Y-100278628D02*
X114238095Y-100183390D01*
%TO.C,R16*%
D15*
X112039564Y-97640000D02*
X111585436Y-97640000D01*
X112039564Y-99110000D02*
X111585436Y-99110000D01*
%TO.C,Q4*%
X112165000Y-94690000D02*
X112165000Y-96210000D01*
X112165000Y-96210000D02*
X112215000Y-96210000D01*
X113165000Y-94690000D02*
X112165000Y-94690000D01*
X113335000Y-96210000D02*
X114115000Y-96210000D01*
X115235000Y-96210000D02*
X115285000Y-96210000D01*
X115285000Y-94690000D02*
X114285000Y-94690000D01*
X115285000Y-96210000D02*
X115285000Y-94690000D01*
X114105000Y-96750000D02*
X113775000Y-96510000D01*
X113775000Y-96990000D01*
X114105000Y-96750000D01*
G36*
X114105000Y-96750000D02*
G01*
X113775000Y-96990000D01*
X113775000Y-96510000D01*
X114105000Y-96750000D01*
G37*
%TO.C,R19*%
X115727064Y-97646250D02*
X115272936Y-97646250D01*
X115727064Y-99116250D02*
X115272936Y-99116250D01*
%TD*%
M02*
