%TF.GenerationSoftware,KiCad,Pcbnew,10.0.3*%
%TF.CreationDate,2026-06-16T05:03:52+03:00*%
%TF.ProjectId,Pehlivan VCU,5065686c-6976-4616-9e20-5643552e6b69,rev?*%
%TF.SameCoordinates,Original*%
%TF.FileFunction,Copper,L1,Top*%
%TF.FilePolarity,Positive*%
%FSLAX46Y46*%
G04 Gerber Fmt 4.6, Leading zero omitted, Abs format (unit mm)*
G04 Created by KiCad (PCBNEW 10.0.3) date 2026-06-16 05:03:52*
%MOMM*%
%LPD*%
G01*
G04 APERTURE LIST*
G04 Aperture macros list*
%AMRoundRect*
0 Rectangle with rounded corners*
0 $1 Rounding radius*
0 $2 $3 $4 $5 $6 $7 $8 $9 X,Y pos of 4 corners*
0 Add a 4 corners polygon primitive as box body*
4,1,4,$2,$3,$4,$5,$6,$7,$8,$9,$2,$3,0*
0 Add four circle primitives for the rounded corners*
1,1,$1+$1,$2,$3*
1,1,$1+$1,$4,$5*
1,1,$1+$1,$6,$7*
1,1,$1+$1,$8,$9*
0 Add four rect primitives between the rounded corners*
20,1,$1+$1,$2,$3,$4,$5,0*
20,1,$1+$1,$4,$5,$6,$7,0*
20,1,$1+$1,$6,$7,$8,$9,0*
20,1,$1+$1,$8,$9,$2,$3,0*%
G04 Aperture macros list end*
%TA.AperFunction,SMDPad,CuDef*%
%ADD10RoundRect,0.250000X0.475000X-0.337500X0.475000X0.337500X-0.475000X0.337500X-0.475000X-0.337500X0*%
%TD*%
%TA.AperFunction,SMDPad,CuDef*%
%ADD11RoundRect,0.250000X0.097227X-0.574524X0.574524X-0.097227X-0.097227X0.574524X-0.574524X0.097227X0*%
%TD*%
%TA.AperFunction,ComponentPad*%
%ADD12C,1.200000*%
%TD*%
%TA.AperFunction,SMDPad,CuDef*%
%ADD13RoundRect,0.150000X0.150000X-0.825000X0.150000X0.825000X-0.150000X0.825000X-0.150000X-0.825000X0*%
%TD*%
%TA.AperFunction,SMDPad,CuDef*%
%ADD14RoundRect,0.250000X0.337500X0.475000X-0.337500X0.475000X-0.337500X-0.475000X0.337500X-0.475000X0*%
%TD*%
%TA.AperFunction,SMDPad,CuDef*%
%ADD15RoundRect,0.250000X1.100000X-0.412500X1.100000X0.412500X-1.100000X0.412500X-1.100000X-0.412500X0*%
%TD*%
%TA.AperFunction,ComponentPad*%
%ADD16RoundRect,0.250000X-1.050000X-1.050000X1.050000X-1.050000X1.050000X1.050000X-1.050000X1.050000X0*%
%TD*%
%TA.AperFunction,ComponentPad*%
%ADD17C,2.600000*%
%TD*%
%TA.AperFunction,SMDPad,CuDef*%
%ADD18RoundRect,0.250000X-2.050000X-0.300000X2.050000X-0.300000X2.050000X0.300000X-2.050000X0.300000X0*%
%TD*%
%TA.AperFunction,SMDPad,CuDef*%
%ADD19RoundRect,0.250002X-4.449998X-5.149998X4.449998X-5.149998X4.449998X5.149998X-4.449998X5.149998X0*%
%TD*%
%TA.AperFunction,ComponentPad*%
%ADD20RoundRect,0.250000X-1.050000X1.050000X-1.050000X-1.050000X1.050000X-1.050000X1.050000X1.050000X0*%
%TD*%
%TA.AperFunction,ComponentPad*%
%ADD21C,4.700000*%
%TD*%
%TA.AperFunction,SMDPad,CuDef*%
%ADD22RoundRect,0.250000X0.450000X-0.262500X0.450000X0.262500X-0.450000X0.262500X-0.450000X-0.262500X0*%
%TD*%
%TA.AperFunction,ComponentPad*%
%ADD23R,1.700000X1.700000*%
%TD*%
%TA.AperFunction,ComponentPad*%
%ADD24C,1.700000*%
%TD*%
%TA.AperFunction,SMDPad,CuDef*%
%ADD25RoundRect,0.375000X-0.375000X0.625000X-0.375000X-0.625000X0.375000X-0.625000X0.375000X0.625000X0*%
%TD*%
%TA.AperFunction,SMDPad,CuDef*%
%ADD26RoundRect,0.500000X-1.400000X0.500000X-1.400000X-0.500000X1.400000X-0.500000X1.400000X0.500000X0*%
%TD*%
%TA.AperFunction,SMDPad,CuDef*%
%ADD27RoundRect,0.250000X-0.475000X0.337500X-0.475000X-0.337500X0.475000X-0.337500X0.475000X0.337500X0*%
%TD*%
%TA.AperFunction,SMDPad,CuDef*%
%ADD28RoundRect,0.250000X-0.262500X-0.450000X0.262500X-0.450000X0.262500X0.450000X-0.262500X0.450000X0*%
%TD*%
%TA.AperFunction,SMDPad,CuDef*%
%ADD29RoundRect,0.250000X0.450000X-0.350000X0.450000X0.350000X-0.450000X0.350000X-0.450000X-0.350000X0*%
%TD*%
%TA.AperFunction,ComponentPad*%
%ADD30RoundRect,0.250000X1.050000X-1.050000X1.050000X1.050000X-1.050000X1.050000X-1.050000X-1.050000X0*%
%TD*%
%TA.AperFunction,SMDPad,CuDef*%
%ADD31RoundRect,0.250000X-0.097227X0.574524X-0.574524X0.097227X0.097227X-0.574524X0.574524X-0.097227X0*%
%TD*%
%TA.AperFunction,SMDPad,CuDef*%
%ADD32RoundRect,0.250000X0.262500X0.450000X-0.262500X0.450000X-0.262500X-0.450000X0.262500X-0.450000X0*%
%TD*%
%TA.AperFunction,SMDPad,CuDef*%
%ADD33RoundRect,0.250000X-0.337500X-0.475000X0.337500X-0.475000X0.337500X0.475000X-0.337500X0.475000X0*%
%TD*%
%TA.AperFunction,SMDPad,CuDef*%
%ADD34RoundRect,0.250001X-0.462499X-0.624999X0.462499X-0.624999X0.462499X0.624999X-0.462499X0.624999X0*%
%TD*%
%TA.AperFunction,SMDPad,CuDef*%
%ADD35RoundRect,0.250000X-0.563864X-0.146930X-0.046784X-0.580812X0.563864X0.146930X0.046784X0.580812X0*%
%TD*%
%TA.AperFunction,SMDPad,CuDef*%
%ADD36RoundRect,0.250001X0.462499X0.624999X-0.462499X0.624999X-0.462499X-0.624999X0.462499X-0.624999X0*%
%TD*%
%TA.AperFunction,SMDPad,CuDef*%
%ADD37RoundRect,0.075000X-0.662500X-0.075000X0.662500X-0.075000X0.662500X0.075000X-0.662500X0.075000X0*%
%TD*%
%TA.AperFunction,SMDPad,CuDef*%
%ADD38RoundRect,0.075000X-0.075000X-0.662500X0.075000X-0.662500X0.075000X0.662500X-0.075000X0.662500X0*%
%TD*%
%TA.AperFunction,SMDPad,CuDef*%
%ADD39RoundRect,0.237500X0.237500X-0.300000X0.237500X0.300000X-0.237500X0.300000X-0.237500X-0.300000X0*%
%TD*%
%TA.AperFunction,SMDPad,CuDef*%
%ADD40RoundRect,0.250000X-1.100000X0.412500X-1.100000X-0.412500X1.100000X-0.412500X1.100000X0.412500X0*%
%TD*%
%TA.AperFunction,SMDPad,CuDef*%
%ADD41RoundRect,0.250000X-0.450000X0.262500X-0.450000X-0.262500X0.450000X-0.262500X0.450000X0.262500X0*%
%TD*%
%TA.AperFunction,ComponentPad*%
%ADD42R,1.905000X2.000000*%
%TD*%
%TA.AperFunction,ComponentPad*%
%ADD43O,1.905000X2.000000*%
%TD*%
%TA.AperFunction,SMDPad,CuDef*%
%ADD44RoundRect,0.250000X-0.650000X0.800000X-0.650000X-0.800000X0.650000X-0.800000X0.650000X0.800000X0*%
%TD*%
%TA.AperFunction,SMDPad,CuDef*%
%ADD45RoundRect,0.250000X-0.650000X1.000000X-0.650000X-1.000000X0.650000X-1.000000X0.650000X1.000000X0*%
%TD*%
%TA.AperFunction,SMDPad,CuDef*%
%ADD46RoundRect,0.250001X0.624999X-0.462499X0.624999X0.462499X-0.624999X0.462499X-0.624999X-0.462499X0*%
%TD*%
%TA.AperFunction,SMDPad,CuDef*%
%ADD47RoundRect,0.150000X0.150000X-0.587500X0.150000X0.587500X-0.150000X0.587500X-0.150000X-0.587500X0*%
%TD*%
%TA.AperFunction,SMDPad,CuDef*%
%ADD48RoundRect,0.237500X-0.300000X-0.237500X0.300000X-0.237500X0.300000X0.237500X-0.300000X0.237500X0*%
%TD*%
%TA.AperFunction,ViaPad*%
%ADD49C,0.600000*%
%TD*%
%TA.AperFunction,Conductor*%
%ADD50C,0.800000*%
%TD*%
%TA.AperFunction,Conductor*%
%ADD51C,0.300000*%
%TD*%
%TA.AperFunction,Conductor*%
%ADD52C,0.400000*%
%TD*%
%TA.AperFunction,Conductor*%
%ADD53C,0.500000*%
%TD*%
%TA.AperFunction,Conductor*%
%ADD54C,0.250000*%
%TD*%
%TA.AperFunction,Conductor*%
%ADD55C,1.000000*%
%TD*%
%TA.AperFunction,Conductor*%
%ADD56C,2.000000*%
%TD*%
G04 APERTURE END LIST*
D10*
%TO.P,C17,1*%
%TO.N,+3V3*%
X134600000Y-126637500D03*
%TO.P,C17,2*%
%TO.N,GND*%
X134600000Y-124562500D03*
%TD*%
D11*
%TO.P,C9,1*%
%TO.N,+3V3*%
X137066377Y-124358623D03*
%TO.P,C9,2*%
%TO.N,GND*%
X138533623Y-122891377D03*
%TD*%
D12*
%TO.P,C6,1*%
%TO.N,+5V*%
X116100000Y-82772500D03*
%TO.P,C6,2*%
%TO.N,GND*%
X118100000Y-82772500D03*
%TD*%
D13*
%TO.P,U3,1,TXD_1*%
%TO.N,/FDCAN_RX*%
X118795000Y-118775000D03*
%TO.P,U3,2,GND_2*%
%TO.N,GND*%
X120065000Y-118775000D03*
%TO.P,U3,3,VCC_3*%
%TO.N,+5V*%
X121335000Y-118775000D03*
%TO.P,U3,4,RXD_4*%
%TO.N,/FDCAN_TX*%
X122605000Y-118775000D03*
%TO.P,U3,5,VIO_5*%
%TO.N,+3V3*%
X122605000Y-113825000D03*
%TO.P,U3,6,CANL_6*%
%TO.N,/CANN*%
X121335000Y-113825000D03*
%TO.P,U3,7,CANH_7*%
%TO.N,/CANP*%
X120065000Y-113825000D03*
%TO.P,U3,8,S_8*%
%TO.N,GND*%
X118795000Y-113825000D03*
%TD*%
D14*
%TO.P,C5,1*%
%TO.N,GND*%
X118100000Y-78872500D03*
%TO.P,C5,2*%
%TO.N,+5V*%
X116025000Y-78872500D03*
%TD*%
D15*
%TO.P,C7,1*%
%TO.N,+5V*%
X116375000Y-115450000D03*
%TO.P,C7,2*%
%TO.N,GND*%
X116375000Y-112325000D03*
%TD*%
D16*
%TO.P,J9,1,Pin_1_1*%
%TO.N,GND*%
X118700000Y-144400000D03*
D17*
%TO.P,J9,2,Pin_2_2*%
X123780000Y-144400000D03*
%TO.P,J9,3,Pin_3_3*%
X128860000Y-144400000D03*
%TD*%
D18*
%TO.P,U6,1,GND_1*%
%TO.N,GND*%
X168025000Y-128275000D03*
%TO.P,U6,2,IN_2*%
%TO.N,Net-(U6-IN)*%
X168025000Y-129975000D03*
D19*
%TO.P,U6,3,VBB_3*%
%TO.N,VCC*%
X177175000Y-131675000D03*
D18*
%TO.P,U6,4,ST_4*%
%TO.N,/L_HL_FAULT*%
X168025000Y-133375000D03*
%TO.P,U6,5,OUT_5*%
%TO.N,/L_HL_OUT*%
X168025000Y-135075000D03*
%TD*%
D20*
%TO.P,J3,1,Pin_1_1*%
%TO.N,+5V*%
X108500000Y-80620000D03*
D17*
%TO.P,J3,2,Pin_2_2*%
%TO.N,/UART1_RX*%
X108500000Y-85700000D03*
%TO.P,J3,3,Pin_3_3*%
%TO.N,/UART1_TX*%
X108500000Y-90780000D03*
%TO.P,J3,4,Pin_4_4*%
%TO.N,GND*%
X108500000Y-95860000D03*
%TD*%
D21*
%TO.P,H1,1*%
%TO.N,N/C*%
X127300000Y-67675000D03*
%TD*%
D22*
%TO.P,R13,1*%
%TO.N,/L_Blinker*%
X163600000Y-94015000D03*
%TO.P,R13,2*%
%TO.N,Net-(U7-IN)*%
X163600000Y-92190000D03*
%TD*%
D23*
%TO.P,J6,1,Pin_1_1*%
%TO.N,GND*%
X129680000Y-100200000D03*
D24*
%TO.P,J6,2,Pin_2_2*%
%TO.N,/UART2_RX*%
X127140000Y-100200000D03*
%TO.P,J6,3,Pin_3_3*%
%TO.N,/UART2_TX*%
X124600000Y-100200000D03*
%TO.P,J6,4,Pin_4_4*%
%TO.N,+5V*%
X122060000Y-100200000D03*
%TD*%
D25*
%TO.P,U2,1,GND_1*%
%TO.N,GND*%
X142100000Y-90150000D03*
%TO.P,U2,2,VO_2*%
%TO.N,+3V3*%
X139800000Y-90150000D03*
D26*
X139800000Y-96450000D03*
D25*
%TO.P,U2,3,VI_3*%
%TO.N,+5V*%
X137500000Y-90150000D03*
%TD*%
D20*
%TO.P,J4,1,Pin_1_1*%
%TO.N,/CANN*%
X108200000Y-105120000D03*
D17*
%TO.P,J4,2,Pin_2_2*%
%TO.N,/CANP*%
X108200000Y-110200000D03*
%TD*%
D27*
%TO.P,C14,1*%
%TO.N,+3V3*%
X142800000Y-136000000D03*
%TO.P,C14,2*%
%TO.N,GND*%
X142800000Y-138075000D03*
%TD*%
D28*
%TO.P,R14,1*%
%TO.N,/R_Blinker*%
X162987500Y-103325000D03*
%TO.P,R14,2*%
%TO.N,Net-(U8-IN)*%
X164812500Y-103325000D03*
%TD*%
D18*
%TO.P,U8,1,GND_1*%
%TO.N,GND*%
X168125000Y-101600000D03*
%TO.P,U8,2,IN_2*%
%TO.N,Net-(U8-IN)*%
X168125000Y-103300000D03*
D19*
%TO.P,U8,3,VBB_3*%
%TO.N,VCC*%
X177275000Y-105000000D03*
D18*
%TO.P,U8,4,ST_4*%
%TO.N,/R_BL_FAULT*%
X168125000Y-106700000D03*
%TO.P,U8,5,OUT_5*%
%TO.N,/R_BL_OUT*%
X168125000Y-108400000D03*
%TD*%
D23*
%TO.P,J5,1,Pin_1_1*%
%TO.N,/SPI_CS*%
X150040000Y-145800000D03*
D24*
%TO.P,J5,2,Pin_2_2*%
%TO.N,/SPICK*%
X147500000Y-145800000D03*
%TO.P,J5,3,Pin_3_3*%
%TO.N,/SPIMOSI*%
X144960000Y-145800000D03*
%TO.P,J5,4,Pin_4_4*%
%TO.N,/SPIMISO*%
X142420000Y-145800000D03*
%TO.P,J5,5,Pin_5_5*%
%TO.N,+5V*%
X139880000Y-145800000D03*
%TO.P,J5,6,Pin_6_6*%
%TO.N,GND*%
X137340000Y-145800000D03*
%TD*%
D29*
%TO.P,R20,1*%
%TO.N,/UART2_TX*%
X124480000Y-97500000D03*
%TO.P,R20,2*%
%TO.N,Net-(Q5-B)*%
X124480000Y-95500000D03*
%TD*%
D12*
%TO.P,C1,1*%
%TO.N,VCC*%
X145050000Y-75725000D03*
%TO.P,C1,2*%
%TO.N,GND*%
X146550000Y-75725000D03*
%TD*%
D30*
%TO.P,J10,1,Pin_1_1*%
%TO.N,/L_HL_OUT*%
X188197500Y-130110000D03*
D17*
%TO.P,J10,2,Pin_2_2*%
%TO.N,GND*%
X188197500Y-125030000D03*
%TO.P,J10,3,Pin_3_3*%
%TO.N,/R_HL_OUT*%
X188197500Y-119950000D03*
%TD*%
D31*
%TO.P,C11,1*%
%TO.N,+3V3*%
X146533623Y-134366377D03*
%TO.P,C11,2*%
%TO.N,GND*%
X145066377Y-135833623D03*
%TD*%
D12*
%TO.P,C3,1*%
%TO.N,+5V*%
X130125000Y-88650000D03*
%TO.P,C3,2*%
%TO.N,GND*%
X132125000Y-88650000D03*
%TD*%
D32*
%TO.P,R11,1*%
%TO.N,Net-(U5-IN)*%
X164625000Y-116625000D03*
%TO.P,R11,2*%
%TO.N,/F_Headlights*%
X162800000Y-116625000D03*
%TD*%
D18*
%TO.P,U5,1,GND_1*%
%TO.N,GND*%
X168025000Y-114925000D03*
%TO.P,U5,2,IN_2*%
%TO.N,Net-(U5-IN)*%
X168025000Y-116625000D03*
D19*
%TO.P,U5,3,VBB_3*%
%TO.N,VCC*%
X177175000Y-118325000D03*
D18*
%TO.P,U5,4,ST_4*%
%TO.N,/R_HL_FAULT*%
X168025000Y-120025000D03*
%TO.P,U5,5,OUT_5*%
%TO.N,/R_HL_OUT*%
X168025000Y-121725000D03*
%TD*%
D33*
%TO.P,C19,1*%
%TO.N,/NRST*%
X134225000Y-112700000D03*
%TO.P,C19,2*%
%TO.N,GND*%
X136300000Y-112700000D03*
%TD*%
D34*
%TO.P,D10,1,K_1*%
%TO.N,GND*%
X126692500Y-95800000D03*
%TO.P,D10,2,A_2*%
%TO.N,Net-(D10-A)*%
X129667500Y-95800000D03*
%TD*%
D32*
%TO.P,R1,1*%
%TO.N,Net-(D1-A)*%
X131300000Y-72500000D03*
%TO.P,R1,2*%
%TO.N,+5V*%
X129475000Y-72500000D03*
%TD*%
D28*
%TO.P,R10,1*%
%TO.N,/F_Headlights*%
X162800000Y-130025000D03*
%TO.P,R10,2*%
%TO.N,Net-(U6-IN)*%
X164625000Y-130025000D03*
%TD*%
D12*
%TO.P,C2,1*%
%TO.N,+5V*%
X130025000Y-81950000D03*
%TO.P,C2,2*%
%TO.N,GND*%
X132025000Y-81950000D03*
%TD*%
D22*
%TO.P,R4,1*%
%TO.N,/CANP*%
X115400000Y-108625000D03*
%TO.P,R4,2*%
%TO.N,/CANN*%
X115400000Y-106800000D03*
%TD*%
D35*
%TO.P,C10,1*%
%TO.N,+3V3*%
X146555229Y-124708108D03*
%TO.P,C10,2*%
%TO.N,GND*%
X148144771Y-126041892D03*
%TD*%
D29*
%TO.P,R5,1*%
%TO.N,+3V3*%
X140800000Y-138200000D03*
%TO.P,R5,2*%
%TO.N,/VREF*%
X140800000Y-136200000D03*
%TD*%
D32*
%TO.P,R6,1*%
%TO.N,GND*%
X168025000Y-124925000D03*
%TO.P,R6,2*%
%TO.N,/F_Headlights*%
X166200000Y-124925000D03*
%TD*%
%TO.P,R3,1*%
%TO.N,+3V3*%
X137700000Y-106900000D03*
%TO.P,R3,2*%
%TO.N,/NRST*%
X135875000Y-106900000D03*
%TD*%
D36*
%TO.P,D9,1,K_1*%
%TO.N,GND*%
X113950000Y-100575000D03*
%TO.P,D9,2,A_2*%
%TO.N,Net-(D9-A)*%
X110975000Y-100575000D03*
%TD*%
D23*
%TO.P,J2,1,Pin_1_1*%
%TO.N,/SWDIO*%
X144400000Y-109800000D03*
D24*
%TO.P,J2,2,Pin_2_2*%
%TO.N,/SWDCLK*%
X141860000Y-109800000D03*
%TO.P,J2,3,Pin_3_3*%
%TO.N,+3V3*%
X139320000Y-109800000D03*
%TO.P,J2,4,Pin_4_4*%
%TO.N,GND*%
X136780000Y-109800000D03*
%TO.P,J2,5,Pin_5_5*%
%TO.N,/NRST*%
X134240000Y-109800000D03*
%TD*%
D28*
%TO.P,R17,1*%
%TO.N,Net-(Q5-E)*%
X127950000Y-93625000D03*
%TO.P,R17,2*%
%TO.N,Net-(D10-A)*%
X129775000Y-93625000D03*
%TD*%
D18*
%TO.P,U7,1,GND_1*%
%TO.N,GND*%
X168125000Y-88050000D03*
%TO.P,U7,2,IN_2*%
%TO.N,Net-(U7-IN)*%
X168125000Y-89750000D03*
D19*
%TO.P,U7,3,VBB_3*%
%TO.N,VCC*%
X177275000Y-91450000D03*
D18*
%TO.P,U7,4,ST_4*%
%TO.N,/L_BL_FAULT*%
X168125000Y-93150000D03*
%TO.P,U7,5,OUT_5*%
%TO.N,/L_BL_OUT*%
X168125000Y-94850000D03*
%TD*%
D22*
%TO.P,R2,1*%
%TO.N,Net-(D2-A)*%
X145025000Y-96100000D03*
%TO.P,R2,2*%
%TO.N,+3V3*%
X145025000Y-94275000D03*
%TD*%
D14*
%TO.P,C8,1*%
%TO.N,GND*%
X146037500Y-140100000D03*
%TO.P,C8,2*%
%TO.N,+3V3*%
X143962500Y-140100000D03*
%TD*%
D36*
%TO.P,D1,1,K_1*%
%TO.N,GND*%
X136100000Y-72575000D03*
%TO.P,D1,2,A_2*%
%TO.N,Net-(D1-A)*%
X133125000Y-72575000D03*
%TD*%
D28*
%TO.P,R15,1*%
%TO.N,/F_BrakeLights*%
X162885000Y-75800000D03*
%TO.P,R15,2*%
%TO.N,Net-(U9-IN)*%
X164710000Y-75800000D03*
%TD*%
D37*
%TO.P,U10,1,VBAT_1*%
%TO.N,+3V3*%
X137512500Y-126775000D03*
%TO.P,U10,2,PC13_2*%
%TO.N,unconnected-(U10-PC13-Pad2)*%
X137512500Y-127275000D03*
%TO.P,U10,3,PC14_3*%
%TO.N,unconnected-(U10-PC14-Pad3)*%
X137512500Y-127775000D03*
%TO.P,U10,4,PC15_4*%
%TO.N,unconnected-(U10-PC15-Pad4)*%
X137512500Y-128275000D03*
%TO.P,U10,5,PF0_5*%
%TO.N,/HSE_IN*%
X137512500Y-128775000D03*
%TO.P,U10,6,PF1_6*%
%TO.N,/HSE_OUT*%
X137512500Y-129275000D03*
%TO.P,U10,7,PG10_7*%
%TO.N,/NRST*%
X137512500Y-129775000D03*
%TO.P,U10,8,PA0_8*%
%TO.N,/Left_Signal_IN*%
X137512500Y-130275000D03*
%TO.P,U10,9,PA1_9*%
%TO.N,/Right_Signal_IN*%
X137512500Y-130775000D03*
%TO.P,U10,10,PA2_10*%
%TO.N,/Hazards_IN*%
X137512500Y-131275000D03*
%TO.P,U10,11,PA3_11*%
%TO.N,/Headlights_IN*%
X137512500Y-131775000D03*
%TO.P,U10,12,PA4_12*%
%TO.N,/Brake_IN*%
X137512500Y-132275000D03*
D38*
%TO.P,U10,13,PA5_13*%
%TO.N,/SPICK*%
X138925000Y-133687500D03*
%TO.P,U10,14,PA6_14*%
%TO.N,/SPIMISO*%
X139425000Y-133687500D03*
%TO.P,U10,15,PA7_15*%
%TO.N,/SPIMOSI*%
X139925000Y-133687500D03*
%TO.P,U10,16,PB0_16*%
%TO.N,/SPI_CS*%
X140425000Y-133687500D03*
%TO.P,U10,17,PB1_17*%
%TO.N,unconnected-(U10-PB1-Pad17)*%
X140925000Y-133687500D03*
%TO.P,U10,18,PB2_18*%
%TO.N,unconnected-(U10-PB2-Pad18)*%
X141425000Y-133687500D03*
%TO.P,U10,19,VSSA_19*%
%TO.N,GND*%
X141925000Y-133687500D03*
%TO.P,U10,20,VREF+_20*%
%TO.N,/VREF*%
X142425000Y-133687500D03*
%TO.P,U10,21,VDDA_21*%
%TO.N,+3V3*%
X142925000Y-133687500D03*
%TO.P,U10,22,PB10_22*%
%TO.N,unconnected-(U10-PB10-Pad22)*%
X143425000Y-133687500D03*
%TO.P,U10,23,VSS_23*%
%TO.N,GND*%
X143925000Y-133687500D03*
%TO.P,U10,24,VDD_24*%
%TO.N,+3V3*%
X144425000Y-133687500D03*
D37*
%TO.P,U10,25,PB11_25*%
%TO.N,unconnected-(U10-PB11-Pad25)*%
X145837500Y-132275000D03*
%TO.P,U10,26,PB12_26*%
%TO.N,/L_HL_FAULT*%
X145837500Y-131775000D03*
%TO.P,U10,27,PB13_27*%
%TO.N,/R_HL_FAULT*%
X145837500Y-131275000D03*
%TO.P,U10,28,PB14_28*%
%TO.N,/F_Headlights*%
X145837500Y-130775000D03*
%TO.P,U10,29,PB15_29*%
%TO.N,/R_BL_FAULT*%
X145837500Y-130275000D03*
%TO.P,U10,30,PA8_30*%
%TO.N,/R_Blinker*%
X145837500Y-129775000D03*
%TO.P,U10,31,PA9_31*%
%TO.N,/L_Blinker*%
X145837500Y-129275000D03*
%TO.P,U10,32,PA10_32*%
%TO.N,/L_BL_FAULT*%
X145837500Y-128775000D03*
%TO.P,U10,33,PA11_33*%
%TO.N,/Brake_FAULT*%
X145837500Y-128275000D03*
%TO.P,U10,34,PA12_34*%
%TO.N,/F_BrakeLights*%
X145837500Y-127775000D03*
%TO.P,U10,35,VSS_35*%
%TO.N,GND*%
X145837500Y-127275000D03*
%TO.P,U10,36,VDD_36*%
%TO.N,+3V3*%
X145837500Y-126775000D03*
D38*
%TO.P,U10,37,PA13_37*%
%TO.N,/SWDIO*%
X144425000Y-125362500D03*
%TO.P,U10,38,PA14_38*%
%TO.N,/SWDCLK*%
X143925000Y-125362500D03*
%TO.P,U10,39,PA15_39*%
%TO.N,unconnected-(U10-PA15-Pad39)*%
X143425000Y-125362500D03*
%TO.P,U10,40,PB3_40*%
%TO.N,/UART2_RX*%
X142925000Y-125362500D03*
%TO.P,U10,41,PB4_41*%
%TO.N,/UART2_TX*%
X142425000Y-125362500D03*
%TO.P,U10,42,PB5_42*%
%TO.N,unconnected-(U10-PB5-Pad42)*%
X141925000Y-125362500D03*
%TO.P,U10,43,PB6_43*%
%TO.N,/UART1_RX*%
X141425000Y-125362500D03*
%TO.P,U10,44,PB7_44*%
%TO.N,/UART1_TX*%
X140925000Y-125362500D03*
%TO.P,U10,45,PB8_45*%
%TO.N,/FDCAN_TX*%
X140425000Y-125362500D03*
%TO.P,U10,46,PB9_46*%
%TO.N,/FDCAN_RX*%
X139925000Y-125362500D03*
%TO.P,U10,47,VSS_47*%
%TO.N,GND*%
X139425000Y-125362500D03*
%TO.P,U10,48,VDD_48*%
%TO.N,+3V3*%
X138925000Y-125362500D03*
%TD*%
D39*
%TO.P,C20,1*%
%TO.N,/HSE_IN*%
X132150000Y-127612500D03*
%TO.P,C20,2*%
%TO.N,GND*%
X132150000Y-125887500D03*
%TD*%
D18*
%TO.P,U9,1,GND_1*%
%TO.N,GND*%
X168125000Y-74050000D03*
%TO.P,U9,2,IN_2*%
%TO.N,Net-(U9-IN)*%
X168125000Y-75750000D03*
D19*
%TO.P,U9,3,VBB_3*%
%TO.N,VCC*%
X177275000Y-77450000D03*
D18*
%TO.P,U9,4,ST_4*%
%TO.N,/Brake_FAULT*%
X168125000Y-79150000D03*
%TO.P,U9,5,OUT_5*%
%TO.N,/STOP_OUT*%
X168125000Y-80850000D03*
%TD*%
D21*
%TO.P,H3,1*%
%TO.N,N/C*%
X185000000Y-144700000D03*
%TD*%
D40*
%TO.P,C12,1*%
%TO.N,GND*%
X134000000Y-118900000D03*
%TO.P,C12,2*%
%TO.N,+3V3*%
X134000000Y-122025000D03*
%TD*%
D32*
%TO.P,R9,1*%
%TO.N,GND*%
X164700000Y-73800000D03*
%TO.P,R9,2*%
%TO.N,/F_BrakeLights*%
X162875000Y-73800000D03*
%TD*%
D20*
%TO.P,J7,1,Pin_1_1*%
%TO.N,/Left_Signal_IN*%
X109000000Y-117440000D03*
D17*
%TO.P,J7,2,Pin_2_2*%
%TO.N,/Right_Signal_IN*%
X109000000Y-122520000D03*
%TO.P,J7,3,Pin_3_3*%
%TO.N,/Hazards_IN*%
X109000000Y-127600000D03*
%TD*%
D15*
%TO.P,C13,1*%
%TO.N,GND*%
X125125000Y-121450000D03*
%TO.P,C13,2*%
%TO.N,+3V3*%
X125125000Y-118325000D03*
%TD*%
D30*
%TO.P,J12,1,Pin_1_1*%
%TO.N,/STOP_OUT*%
X188100000Y-79980000D03*
D17*
%TO.P,J12,2,Pin_2_2*%
%TO.N,GND*%
X188100000Y-74900000D03*
%TD*%
D41*
%TO.P,R7,1*%
%TO.N,GND*%
X161700000Y-92200000D03*
%TO.P,R7,2*%
%TO.N,/L_Blinker*%
X161700000Y-94025000D03*
%TD*%
D42*
%TO.P,U1,1,IN_1*%
%TO.N,VCC*%
X138705000Y-75625000D03*
D43*
%TO.P,U1,2,GND_2*%
%TO.N,GND*%
X136165000Y-75625000D03*
%TO.P,U1,3,OUT_3*%
%TO.N,+5V*%
X133625000Y-75625000D03*
%TD*%
D21*
%TO.P,H2,1*%
%TO.N,N/C*%
X185000000Y-66100000D03*
%TD*%
D44*
%TO.P,Y2,1,1_1*%
%TO.N,/HSE_IN*%
X127500000Y-125750000D03*
%TO.P,Y2,2,G_2*%
%TO.N,GND*%
X127500000Y-128650000D03*
%TO.P,Y2,3,3_3*%
%TO.N,/HSE_OUT*%
X129800000Y-128650000D03*
%TO.P,Y2,4,G_4*%
%TO.N,GND*%
X129800000Y-125750000D03*
%TD*%
D45*
%TO.P,D3,1,A1_1*%
%TO.N,VCC*%
X151825000Y-67350000D03*
%TO.P,D3,2,A2_2*%
%TO.N,GND*%
X151825000Y-71350000D03*
%TD*%
D46*
%TO.P,D2,1,K_1*%
%TO.N,GND*%
X145075000Y-100850000D03*
%TO.P,D2,2,A_2*%
%TO.N,Net-(D2-A)*%
X145075000Y-97875000D03*
%TD*%
D16*
%TO.P,J1,1,Pin_1_1*%
%TO.N,GND*%
X141120000Y-67100000D03*
D17*
%TO.P,J1,2,Pin_2_2*%
%TO.N,VCC*%
X146200000Y-67100000D03*
%TD*%
D20*
%TO.P,J8,1,Pin_1_1*%
%TO.N,/Headlights_IN*%
X109100000Y-133740000D03*
D17*
%TO.P,J8,2,Pin_2_2*%
%TO.N,/Brake_IN*%
X109100000Y-138820000D03*
%TO.P,J8,3,Pin_3_3*%
%TO.N,GND*%
X109100000Y-143900000D03*
%TD*%
D33*
%TO.P,C15,1*%
%TO.N,GND*%
X120050000Y-97125000D03*
%TO.P,C15,2*%
%TO.N,+5V*%
X122125000Y-97125000D03*
%TD*%
D47*
%TO.P,Q5,1,B_1*%
%TO.N,Net-(Q5-B)*%
X124430000Y-93637500D03*
%TO.P,Q5,2,E_2*%
%TO.N,Net-(Q5-E)*%
X126330000Y-93637500D03*
%TO.P,Q5,3,C_3*%
%TO.N,+3V3*%
X125380000Y-91762500D03*
%TD*%
D27*
%TO.P,C18,1*%
%TO.N,GND*%
X133450000Y-145525000D03*
%TO.P,C18,2*%
%TO.N,+5V*%
X133450000Y-147600000D03*
%TD*%
D32*
%TO.P,R8,1*%
%TO.N,GND*%
X164800000Y-101425000D03*
%TO.P,R8,2*%
%TO.N,/R_Blinker*%
X162975000Y-101425000D03*
%TD*%
D30*
%TO.P,J11,1,Pin_1_1*%
%TO.N,/R_BL_OUT*%
X188000000Y-103405000D03*
D17*
%TO.P,J11,2,Pin_2_2*%
%TO.N,GND*%
X188000000Y-98325000D03*
%TO.P,J11,3,Pin_3_3*%
%TO.N,/L_BL_OUT*%
X188000000Y-93245000D03*
%TD*%
D21*
%TO.P,H4,1*%
%TO.N,N/C*%
X127300000Y-135800000D03*
%TD*%
D12*
%TO.P,C16,1*%
%TO.N,+5V*%
X121925000Y-92575000D03*
%TO.P,C16,2*%
%TO.N,GND*%
X119925000Y-92575000D03*
%TD*%
D48*
%TO.P,C22,1*%
%TO.N,GND*%
X133037500Y-129450000D03*
%TO.P,C22,2*%
%TO.N,/HSE_OUT*%
X134762500Y-129450000D03*
%TD*%
D12*
%TO.P,C4,1*%
%TO.N,+3V3*%
X139800000Y-100900000D03*
%TO.P,C4,2*%
%TO.N,GND*%
X141800000Y-100900000D03*
%TD*%
D49*
%TO.N,+3V3*%
X126950000Y-118425000D03*
X146555229Y-120900000D03*
X147100000Y-132900000D03*
X139320000Y-114600000D03*
X133175000Y-124600000D03*
X126500000Y-91800000D03*
%TO.N,GND*%
X137500000Y-121900000D03*
X135800000Y-118900000D03*
X134600000Y-123400000D03*
X151825000Y-72250000D03*
X146030974Y-137589150D03*
X132525000Y-129450000D03*
X166000000Y-128300000D03*
X127025000Y-121450000D03*
X116825000Y-113500000D03*
X165600000Y-101600000D03*
X148900000Y-125800000D03*
X165900000Y-74050000D03*
X166000000Y-115000000D03*
X116500000Y-119000000D03*
X141900000Y-132500000D03*
X126675000Y-129525000D03*
X130650000Y-124850000D03*
X132050000Y-125400000D03*
X115275000Y-100575000D03*
X162400000Y-88800000D03*
X168445305Y-125001982D03*
%TO.N,VCC*%
X175600000Y-126400000D03*
X180700000Y-113400000D03*
X176600000Y-126400000D03*
X180700000Y-100000000D03*
X180671986Y-86509235D03*
X179671986Y-86509235D03*
X174600000Y-126400000D03*
X179700000Y-100000000D03*
X177700000Y-113400000D03*
X173700000Y-113400000D03*
X174700000Y-72500000D03*
X177671986Y-86509235D03*
X179700000Y-72500000D03*
X175671986Y-86509235D03*
X177600000Y-126400000D03*
X176700000Y-113400000D03*
X177700000Y-100000000D03*
X179700000Y-113400000D03*
X175700000Y-72500000D03*
X173671986Y-86509235D03*
X173700000Y-100000000D03*
X175700000Y-100000000D03*
X173600000Y-126400000D03*
X178600000Y-126400000D03*
X176671986Y-86509235D03*
X178700000Y-72500000D03*
X178700000Y-113400000D03*
X174671986Y-86509235D03*
X176700000Y-100000000D03*
X180600000Y-126400000D03*
X174700000Y-113400000D03*
X178671986Y-86509235D03*
X175700000Y-113400000D03*
X179600000Y-126400000D03*
X173700000Y-72500000D03*
X180700000Y-72500000D03*
X177700000Y-72500000D03*
X174700000Y-100000000D03*
X178700000Y-100000000D03*
X176700000Y-72500000D03*
%TO.N,/UART1_TX*%
X116772500Y-99052500D03*
%TO.N,/SPICK*%
X140800000Y-143000000D03*
%TO.N,/R_HL_FAULT*%
X161200000Y-127225000D03*
X163900000Y-122825000D03*
%TO.N,/NRST*%
X138900000Y-129800000D03*
X134400000Y-113200000D03*
%TO.N,Net-(D9-A)*%
X110975000Y-99425000D03*
%TD*%
%TO.N,+3V3*%
D50*
X139800000Y-91150000D02*
X139800000Y-90150000D01*
D51*
X139320000Y-107820000D02*
X138400000Y-106900000D01*
D50*
X125380000Y-91762500D02*
X139187500Y-91762500D01*
X139800000Y-96450000D02*
X139800000Y-104200000D01*
D52*
X125225000Y-118425000D02*
X125125000Y-118325000D01*
D51*
X138400000Y-106900000D02*
X137700000Y-106900000D01*
D53*
X146671878Y-141275000D02*
X147100000Y-140846878D01*
X135525000Y-122025000D02*
X137066377Y-123566377D01*
D52*
X139850000Y-94275000D02*
X139800000Y-94225000D01*
X145025000Y-94275000D02*
X139850000Y-94275000D01*
D51*
X139320000Y-109800000D02*
X139320000Y-107820000D01*
D53*
X140800000Y-138200000D02*
X142700000Y-140100000D01*
D50*
X146555229Y-124708108D02*
X146555229Y-109055229D01*
D53*
X134000000Y-122025000D02*
X135525000Y-122025000D01*
X133175000Y-122850000D02*
X134000000Y-122025000D01*
D50*
X139800000Y-109320000D02*
X139320000Y-109800000D01*
D53*
X143962500Y-140100000D02*
X145137500Y-141275000D01*
X140800000Y-138200000D02*
X140800000Y-138000000D01*
D52*
X122605000Y-115805000D02*
X122605000Y-113825000D01*
D51*
X138208623Y-124533623D02*
X138925000Y-125250000D01*
D52*
X126950000Y-118425000D02*
X125225000Y-118425000D01*
D53*
X147100000Y-140846878D02*
X147100000Y-132900000D01*
D50*
X141700000Y-104200000D02*
X139800000Y-104200000D01*
D53*
X142700000Y-140100000D02*
X143962500Y-140100000D01*
D51*
X134737500Y-126775000D02*
X134600000Y-126637500D01*
D50*
X147100000Y-133850000D02*
X146283623Y-134666377D01*
X139800000Y-96450000D02*
X139800000Y-94225000D01*
D53*
X133825000Y-126637500D02*
X133175000Y-125987500D01*
D50*
X139800000Y-104200000D02*
X139800000Y-109320000D01*
D53*
X133825000Y-126637500D02*
X134600000Y-126637500D01*
D50*
X139320000Y-114600000D02*
X139320000Y-109800000D01*
D51*
X146766377Y-126058623D02*
X146050000Y-126775000D01*
D53*
X140800000Y-138000000D02*
X142800000Y-136000000D01*
D50*
X139187500Y-91762500D02*
X139800000Y-91150000D01*
D52*
X125225000Y-118425000D02*
X122605000Y-115805000D01*
D50*
X146555229Y-109055229D02*
X141700000Y-104200000D01*
D53*
X137066377Y-123566377D02*
X137066377Y-124358623D01*
D51*
X146766377Y-124791377D02*
X146766377Y-126058623D01*
D53*
X133175000Y-124600000D02*
X133175000Y-122850000D01*
D51*
X137512500Y-126775000D02*
X134737500Y-126775000D01*
D50*
X147100000Y-132900000D02*
X147100000Y-133850000D01*
D51*
X142925000Y-133687500D02*
X142925000Y-135475000D01*
D53*
X145137500Y-141275000D02*
X146671878Y-141275000D01*
D50*
X139800000Y-94225000D02*
X139800000Y-90150000D01*
D51*
X145150000Y-134600000D02*
X144433623Y-133883623D01*
X146417246Y-134600000D02*
X145150000Y-134600000D01*
X136941377Y-124533623D02*
X138208623Y-124533623D01*
X142925000Y-135475000D02*
X142800000Y-135600000D01*
D53*
X133175000Y-125987500D02*
X133175000Y-124600000D01*
%TO.N,GND*%
D50*
X118300000Y-117200000D02*
X119259816Y-117200000D01*
D51*
X126692500Y-95800000D02*
X126692500Y-97212500D01*
D52*
X125125000Y-121450000D02*
X127025000Y-121450000D01*
D54*
X146037500Y-140100000D02*
X146037500Y-136804746D01*
D52*
X126675000Y-129525000D02*
X126675000Y-129100000D01*
D54*
X135800000Y-118900000D02*
X134000000Y-118900000D01*
D52*
X133450000Y-145525000D02*
X129985000Y-145525000D01*
X136100000Y-72575000D02*
X136100000Y-75560000D01*
D55*
X165900000Y-74050000D02*
X164950000Y-74050000D01*
D51*
X168000000Y-101725000D02*
X168125000Y-101600000D01*
X163175000Y-88050000D02*
X168125000Y-88050000D01*
D55*
X164950000Y-74050000D02*
X164700000Y-73800000D01*
D50*
X142100000Y-89150000D02*
X141000000Y-88050000D01*
D51*
X142800000Y-138075000D02*
X142825000Y-138075000D01*
X144950000Y-136067246D02*
X143925000Y-135042246D01*
X145837500Y-127275000D02*
X147217246Y-127275000D01*
X142825000Y-138075000D02*
X145066377Y-135833623D01*
D50*
X119925000Y-92575000D02*
X119925000Y-97000000D01*
X116825000Y-113500000D02*
X118470000Y-113500000D01*
X132725000Y-88050000D02*
X132125000Y-88650000D01*
D52*
X136100000Y-75560000D02*
X136165000Y-75625000D01*
D51*
X136300000Y-110280000D02*
X136780000Y-109800000D01*
X161700000Y-92200000D02*
X161700000Y-89525000D01*
X118100000Y-82772500D02*
X118100000Y-78872500D01*
D50*
X119259816Y-117200000D02*
X120065000Y-118005184D01*
X116825000Y-113500000D02*
X116350000Y-113025000D01*
X116500000Y-119000000D02*
X118300000Y-117200000D01*
D51*
X139425000Y-124082754D02*
X138408623Y-123066377D01*
X168125000Y-101600000D02*
X164975000Y-101600000D01*
D55*
X168125000Y-74050000D02*
X165900000Y-74050000D01*
D50*
X116350000Y-113025000D02*
X116350000Y-112350000D01*
D51*
X141900000Y-132500000D02*
X141925000Y-132525000D01*
X126692500Y-97212500D02*
X129680000Y-100200000D01*
D50*
X141000000Y-88050000D02*
X132725000Y-88050000D01*
D53*
X134600000Y-123400000D02*
X134600000Y-124562500D01*
D50*
X120065000Y-118005184D02*
X120065000Y-118775000D01*
D51*
X143925000Y-135042246D02*
X143925000Y-133687500D01*
X139425000Y-125462500D02*
X139425000Y-124082754D01*
D52*
X113950000Y-100575000D02*
X115275000Y-100575000D01*
D50*
X116350000Y-112350000D02*
X116375000Y-112325000D01*
D53*
X137500000Y-121900000D02*
X138491377Y-122891377D01*
X138491377Y-122891377D02*
X138533623Y-122891377D01*
D51*
X126330000Y-95437500D02*
X126692500Y-95800000D01*
X136300000Y-112700000D02*
X136300000Y-110280000D01*
D54*
X146037500Y-136804746D02*
X145066377Y-135833623D01*
D52*
X145075000Y-100850000D02*
X141850000Y-100850000D01*
D50*
X142100000Y-90150000D02*
X142100000Y-89150000D01*
D51*
X161700000Y-89525000D02*
X163175000Y-88050000D01*
D52*
X129985000Y-145525000D02*
X128860000Y-144400000D01*
D51*
X141925000Y-133687500D02*
X141925000Y-132525000D01*
D52*
X141850000Y-100850000D02*
X141800000Y-100900000D01*
D50*
X119925000Y-97000000D02*
X120050000Y-97125000D01*
D51*
X147217246Y-127275000D02*
X148233623Y-126258623D01*
X164975000Y-101600000D02*
X164800000Y-101425000D01*
D50*
X118470000Y-113500000D02*
X118795000Y-113825000D01*
%TO.N,+5V*%
X111380000Y-80620000D02*
X108500000Y-80620000D01*
X116025000Y-78872500D02*
X113127500Y-78872500D01*
X108500000Y-80620000D02*
X105100000Y-84020000D01*
X121335000Y-117435000D02*
X121335000Y-118775000D01*
X116100000Y-82772500D02*
X116100000Y-84200000D01*
X130025000Y-76525000D02*
X130025000Y-90150000D01*
X105300000Y-113000000D02*
X105300000Y-144700000D01*
X122060000Y-90160000D02*
X122070000Y-90150000D01*
X116375000Y-115450000D02*
X119350000Y-115450000D01*
X130025000Y-90150000D02*
X137500000Y-90150000D01*
X105300000Y-144700000D02*
X108200000Y-147600000D01*
X116100000Y-82772500D02*
X116100000Y-78947500D01*
X116100000Y-78947500D02*
X116025000Y-78872500D01*
X138080000Y-147600000D02*
X139880000Y-145800000D01*
X106100000Y-113800000D02*
X113325000Y-113800000D01*
X133625000Y-75625000D02*
X130925000Y-75625000D01*
X122070000Y-90150000D02*
X130025000Y-90150000D01*
D52*
X129475000Y-72500000D02*
X129475000Y-74175000D01*
D50*
X105100000Y-84020000D02*
X105100000Y-112800000D01*
X119350000Y-115450000D02*
X121335000Y-117435000D01*
X114975000Y-115450000D02*
X116375000Y-115450000D01*
X108200000Y-147600000D02*
X138080000Y-147600000D01*
X113127500Y-78872500D02*
X111380000Y-80620000D01*
X105300000Y-113000000D02*
X106100000Y-113800000D01*
X130925000Y-75625000D02*
X130025000Y-76525000D01*
X113325000Y-113800000D02*
X114975000Y-115450000D01*
X122060000Y-90160000D02*
X122060000Y-100200000D01*
X116100000Y-84200000D02*
X122060000Y-90160000D01*
D52*
X129475000Y-74175000D02*
X130925000Y-75625000D01*
D50*
X105100000Y-112800000D02*
X105300000Y-113000000D01*
%TO.N,/FDCAN_RX*%
D51*
X119255001Y-120210000D02*
X118795000Y-119749999D01*
X139925000Y-125362500D02*
X139925000Y-121600000D01*
X139925000Y-121600000D02*
X138535000Y-120210000D01*
X138535000Y-120210000D02*
X119255001Y-120210000D01*
X118795000Y-119749999D02*
X118795000Y-118775000D01*
%TO.N,/FDCAN_TX*%
X122630000Y-119495000D02*
X122630000Y-118800000D01*
X140425000Y-120525000D02*
X137500000Y-117600000D01*
X122600000Y-119525000D02*
X122630000Y-119495000D01*
X132000000Y-117600000D02*
X130075000Y-119525000D01*
X122630000Y-118800000D02*
X122605000Y-118775000D01*
X130075000Y-119525000D02*
X122600000Y-119525000D01*
X137500000Y-117600000D02*
X132000000Y-117600000D01*
X140425000Y-125362500D02*
X140425000Y-120525000D01*
%TO.N,/CANN*%
X115200000Y-106800000D02*
X113520000Y-105120000D01*
D54*
X121335000Y-112362499D02*
X120950000Y-111977499D01*
X117112501Y-107462500D02*
X116450001Y-106800000D01*
X118116054Y-107462500D02*
X117112501Y-107462500D01*
D51*
X115400000Y-106800000D02*
X115200000Y-106800000D01*
D54*
X120950000Y-111977499D02*
X120950000Y-110296446D01*
X116450001Y-106800000D02*
X115400000Y-106800000D01*
D51*
X113520000Y-105120000D02*
X108200000Y-105120000D01*
D54*
X121335000Y-113825000D02*
X121335000Y-112362499D01*
X120950000Y-110296446D02*
X118116054Y-107462500D01*
%TO.N,/CANP*%
X117908946Y-107962500D02*
X117112501Y-107962500D01*
D51*
X113625000Y-110400000D02*
X108400000Y-110400000D01*
D54*
X120450000Y-110503554D02*
X117908946Y-107962500D01*
D51*
X108400000Y-110400000D02*
X108200000Y-110200000D01*
D54*
X120450000Y-111977499D02*
X120450000Y-110503554D01*
X120065000Y-113825000D02*
X120065000Y-112362499D01*
X116450001Y-108625000D02*
X115400000Y-108625000D01*
D51*
X115400000Y-108625000D02*
X113625000Y-110400000D01*
D54*
X117112501Y-107962500D02*
X116450001Y-108625000D01*
X120065000Y-112362499D02*
X120450000Y-111977499D01*
%TO.N,Net-(U6-IN)*%
D55*
X164625000Y-130025000D02*
X167975000Y-130025000D01*
X167975000Y-130025000D02*
X168025000Y-129975000D01*
%TO.N,VCC*%
D56*
X176200000Y-67100000D02*
X177275000Y-68175000D01*
D50*
X145050000Y-68250000D02*
X146200000Y-67100000D01*
D56*
X146200000Y-67100000D02*
X176200000Y-67100000D01*
X177275000Y-68175000D02*
X177275000Y-77450000D01*
D50*
X144950000Y-75625000D02*
X145050000Y-75725000D01*
X145050000Y-75725000D02*
X145050000Y-68250000D01*
X138705000Y-75625000D02*
X144950000Y-75625000D01*
%TO.N,/L_HL_FAULT*%
D51*
X145837500Y-131775000D02*
X158250000Y-131775000D01*
X159850000Y-133375000D02*
X168025000Y-133375000D01*
X158250000Y-131775000D02*
X159850000Y-133375000D01*
%TO.N,/L_HL_OUT*%
D55*
X170725000Y-137775000D02*
X183850000Y-137775000D01*
X188197500Y-133427500D02*
X188197500Y-130110000D01*
X183850000Y-137775000D02*
X188197500Y-133427500D01*
X168025000Y-135075000D02*
X170725000Y-137775000D01*
%TO.N,/UART1_RX*%
D51*
X110700000Y-85700000D02*
X119000000Y-94000000D01*
X141425000Y-119825000D02*
X141425000Y-125362500D01*
X136900000Y-115300000D02*
X141425000Y-119825000D01*
X129600000Y-115300000D02*
X136900000Y-115300000D01*
X108500000Y-85700000D02*
X110700000Y-85700000D01*
X108500000Y-85700000D02*
X109000000Y-85700000D01*
X119000000Y-104700000D02*
X129600000Y-115300000D01*
X119000000Y-94000000D02*
X119000000Y-104700000D01*
%TO.N,/UART1_TX*%
X108500000Y-90780000D02*
X116772500Y-99052500D01*
X127700000Y-115800000D02*
X136600000Y-115800000D01*
X140925000Y-120125000D02*
X140925000Y-125362500D01*
X117400000Y-105500000D02*
X127700000Y-115800000D01*
X116772500Y-99052500D02*
X117400000Y-99680000D01*
X136600000Y-115800000D02*
X140925000Y-120125000D01*
X117400000Y-99680000D02*
X117400000Y-105500000D01*
%TO.N,/L_Blinker*%
X156600000Y-126000000D02*
X156600000Y-128100000D01*
X156600000Y-96725000D02*
X159300000Y-94025000D01*
X159300000Y-94025000D02*
X161700000Y-94025000D01*
X156600000Y-128100000D02*
X155425000Y-129275000D01*
X156600000Y-126000000D02*
X156600000Y-96725000D01*
X161700000Y-94025000D02*
X163590000Y-94025000D01*
X163590000Y-94025000D02*
X163600000Y-94015000D01*
X145837500Y-129275000D02*
X155425000Y-129275000D01*
X155425000Y-129275000D02*
X154300000Y-129275000D01*
%TO.N,Net-(U7-IN)*%
X168125000Y-89750000D02*
X164375000Y-89750000D01*
X164375000Y-89750000D02*
X163600000Y-90525000D01*
X163600000Y-92190000D02*
X163600000Y-90525000D01*
%TO.N,/UART2_RX*%
X142925000Y-119632106D02*
X137592894Y-114300000D01*
X127140000Y-107440000D02*
X127140000Y-100200000D01*
X142925000Y-125362500D02*
X142925000Y-119632106D01*
X134000000Y-114300000D02*
X127140000Y-107440000D01*
X137592894Y-114300000D02*
X134000000Y-114300000D01*
%TO.N,/UART2_TX*%
X142425000Y-120025000D02*
X142425000Y-125362500D01*
X124600000Y-100200000D02*
X124600000Y-107200000D01*
X137200000Y-114800000D02*
X142425000Y-120025000D01*
X132200000Y-114800000D02*
X137200000Y-114800000D01*
X124600000Y-97620000D02*
X124480000Y-97500000D01*
X124600000Y-100200000D02*
X124600000Y-97620000D01*
X124600000Y-107200000D02*
X132200000Y-114800000D01*
%TO.N,/R_Blinker*%
X157900000Y-128825000D02*
X157900000Y-106837500D01*
X145837500Y-129775000D02*
X156950000Y-129775000D01*
X162987500Y-101437500D02*
X162975000Y-101425000D01*
X162987500Y-103325000D02*
X162987500Y-101437500D01*
X161412500Y-103325000D02*
X162987500Y-103325000D01*
X157900000Y-106837500D02*
X161412500Y-103325000D01*
X156950000Y-129775000D02*
X157900000Y-128825000D01*
%TO.N,Net-(U8-IN)*%
X164837500Y-103300000D02*
X164812500Y-103325000D01*
X168125000Y-103300000D02*
X164837500Y-103300000D01*
%TO.N,/R_BL_FAULT*%
X159300000Y-108925000D02*
X161525000Y-106700000D01*
X161525000Y-106700000D02*
X168125000Y-106700000D01*
X159300000Y-128325000D02*
X159300000Y-108925000D01*
X157350000Y-130275000D02*
X159300000Y-128325000D01*
X145837500Y-130275000D02*
X157350000Y-130275000D01*
%TO.N,/R_BL_OUT*%
D55*
X188000000Y-103405000D02*
X188000000Y-106625000D01*
X183525000Y-111100000D02*
X170825000Y-111100000D01*
X170825000Y-111100000D02*
X168125000Y-108400000D01*
X188000000Y-106625000D02*
X183525000Y-111100000D01*
%TO.N,/SPI_CS*%
D51*
X137300000Y-134605394D02*
X138425000Y-133480394D01*
X141920000Y-144227106D02*
X141206066Y-143513172D01*
X138425000Y-132846880D02*
X138671880Y-132600000D01*
X147997057Y-144600000D02*
X147002943Y-144600000D01*
X147002943Y-144600000D02*
X146160000Y-145442942D01*
X141220000Y-146297057D02*
X141220000Y-145302943D01*
X141920000Y-144602943D02*
X141920000Y-144227106D01*
X148700000Y-145302943D02*
X147997057Y-144600000D01*
X139178120Y-132600000D02*
X140178120Y-132600000D01*
X140425000Y-132846880D02*
X140425000Y-133687500D01*
X146160000Y-145442942D02*
X146160000Y-146297057D01*
X140178120Y-132600000D02*
X140425000Y-132846880D01*
X142917057Y-147000000D02*
X141922943Y-147000000D01*
X138425000Y-133480394D02*
X138425000Y-132846880D01*
X143620000Y-145327106D02*
X143620000Y-146297057D01*
X143760000Y-146297057D02*
X143760000Y-145467106D01*
X143620000Y-146297057D02*
X142917057Y-147000000D01*
X141220000Y-145302943D02*
X141920000Y-144602943D01*
X148700000Y-145800000D02*
X148700000Y-145302943D01*
X150040000Y-145800000D02*
X148700000Y-145800000D01*
X145457057Y-147000000D02*
X144462943Y-147000000D01*
X140150000Y-143269239D02*
X140150000Y-143057106D01*
X138671880Y-132600000D02*
X139171880Y-132600000D01*
X139171880Y-132600000D02*
X139178120Y-132600000D01*
X140530761Y-143650000D02*
X140150000Y-143269239D01*
X144462943Y-147000000D02*
X143760000Y-146297057D01*
X137300000Y-140207106D02*
X137300000Y-134605394D01*
X146160000Y-146297057D02*
X145457057Y-147000000D01*
X140150000Y-143057106D02*
X137300000Y-140207106D01*
X141069239Y-143650000D02*
X140530761Y-143650000D01*
X143760000Y-145467106D02*
X143620000Y-145327106D01*
X141206066Y-143513172D02*
X141069239Y-143650000D01*
X141922943Y-147000000D02*
X141220000Y-146297057D01*
%TO.N,/SPICK*%
X138925000Y-133687500D02*
X137800000Y-134812500D01*
X137800000Y-140000000D02*
X140800000Y-143000000D01*
X137800000Y-134812500D02*
X137800000Y-140000000D01*
%TO.N,/SPIMOSI*%
X139925000Y-134735226D02*
X139925000Y-133687500D01*
X138800000Y-139585788D02*
X138800000Y-135600000D01*
X142920000Y-143812893D02*
X141950000Y-142842894D01*
X138800000Y-135600000D02*
X139125000Y-135275000D01*
X139125000Y-135275000D02*
X139385226Y-135275000D01*
X144960000Y-145800000D02*
X144800000Y-145800000D01*
X142920000Y-143920000D02*
X142920000Y-143812893D01*
X144800000Y-145800000D02*
X142920000Y-143920000D01*
X141276345Y-141850000D02*
X141064212Y-141850000D01*
X141950000Y-142842894D02*
X141950000Y-142523654D01*
X139385226Y-135275000D02*
X139925000Y-134735226D01*
X141064212Y-141850000D02*
X138800000Y-139585788D01*
X141950000Y-142523654D02*
X141276345Y-141850000D01*
%TO.N,/SPIMISO*%
X139178120Y-134775000D02*
X139425000Y-134528120D01*
X138300000Y-135300000D02*
X138825000Y-134775000D01*
X139425000Y-134528120D02*
X139425000Y-133687500D01*
X138300000Y-139792894D02*
X138300000Y-135300000D01*
X142420000Y-144020000D02*
X141450000Y-143050000D01*
X140857106Y-142350000D02*
X138300000Y-139792894D01*
X142420000Y-145800000D02*
X142420000Y-144020000D01*
X141450000Y-142730761D02*
X141069239Y-142350000D01*
X141450000Y-143050000D02*
X141450000Y-142730761D01*
X141069239Y-142350000D02*
X140857106Y-142350000D01*
X138825000Y-134775000D02*
X139178120Y-134775000D01*
%TO.N,Net-(Q5-B)*%
X124480000Y-95500000D02*
X124480000Y-93687500D01*
X124480000Y-93687500D02*
X124430000Y-93637500D01*
%TO.N,/R_HL_OUT*%
D55*
X168025000Y-121725000D02*
X170725000Y-124425000D01*
X170725000Y-124425000D02*
X183722500Y-124425000D01*
X183722500Y-124425000D02*
X188197500Y-119950000D01*
%TO.N,Net-(U5-IN)*%
X164625000Y-116625000D02*
X168025000Y-116625000D01*
%TO.N,/F_Headlights*%
D51*
X161100000Y-124925000D02*
X162100000Y-124925000D01*
D50*
X162800000Y-124925000D02*
X163500000Y-124925000D01*
X162800000Y-124925000D02*
X162100000Y-124925000D01*
D51*
X166200000Y-124925000D02*
X162100000Y-124925000D01*
D50*
X162800000Y-124925000D02*
X162800000Y-125425000D01*
D51*
X145837500Y-130775000D02*
X158450000Y-130775000D01*
X162800000Y-116625000D02*
X162800000Y-124425000D01*
X158450000Y-130775000D02*
X160200000Y-129025000D01*
X162800000Y-125425000D02*
X162800000Y-130025000D01*
D50*
X162800000Y-124425000D02*
X162800000Y-124925000D01*
D51*
X160200000Y-129025000D02*
X160200000Y-125825000D01*
X160200000Y-125825000D02*
X161100000Y-124925000D01*
%TO.N,/R_HL_FAULT*%
X163900000Y-122825000D02*
X163900000Y-121125000D01*
X165000000Y-120025000D02*
X168025000Y-120025000D01*
X163900000Y-121125000D02*
X165000000Y-120025000D01*
X161200000Y-130425000D02*
X161200000Y-127225000D01*
X160350000Y-131275000D02*
X161200000Y-130425000D01*
X145837500Y-131275000D02*
X160350000Y-131275000D01*
%TO.N,/NRST*%
D54*
X137512500Y-129775000D02*
X138875000Y-129775000D01*
D51*
X134225000Y-109815000D02*
X134240000Y-109800000D01*
X134900000Y-106900000D02*
X134240000Y-107560000D01*
X135875000Y-106900000D02*
X134900000Y-106900000D01*
X134225000Y-112700000D02*
X134225000Y-109815000D01*
X134240000Y-107560000D02*
X134240000Y-109800000D01*
D54*
X138875000Y-129775000D02*
X138900000Y-129800000D01*
%TO.N,Net-(D10-A)*%
D52*
X129775000Y-93625000D02*
X129775000Y-95692500D01*
X129775000Y-95692500D02*
X129667500Y-95800000D01*
D51*
X129680000Y-95812500D02*
X129667500Y-95800000D01*
%TO.N,Net-(D1-A)*%
D52*
X131300000Y-72500000D02*
X133050000Y-72500000D01*
X133050000Y-72500000D02*
X133125000Y-72575000D01*
%TO.N,/VREF*%
D51*
X141648440Y-134751560D02*
X140800000Y-135600000D01*
X142425000Y-133975000D02*
X142425000Y-134528120D01*
X140800000Y-135600000D02*
X140800000Y-136200000D01*
X142178120Y-134775000D02*
X141671880Y-134775000D01*
X142425000Y-133687500D02*
X142425000Y-133975000D01*
X142425000Y-134528120D02*
X142178120Y-134775000D01*
X141671880Y-134775000D02*
X141648440Y-134751560D01*
%TO.N,Net-(D9-A)*%
D52*
X110975000Y-99425000D02*
X110975000Y-100575000D01*
%TO.N,/SWDIO*%
D51*
X144425000Y-109825000D02*
X144400000Y-109800000D01*
X144425000Y-125362500D02*
X144425000Y-109825000D01*
%TO.N,/SWDCLK*%
X143925000Y-124521880D02*
X143925000Y-117925000D01*
X143925000Y-117925000D02*
X141900000Y-115900000D01*
X141900000Y-109840000D02*
X141860000Y-109800000D01*
X141900000Y-115900000D02*
X141900000Y-109840000D01*
X143925000Y-125362500D02*
X143925000Y-124521880D01*
%TO.N,Net-(Q5-E)*%
D52*
X127937500Y-93637500D02*
X127950000Y-93625000D01*
X126330000Y-93637500D02*
X127937500Y-93637500D01*
%TO.N,/L_BL_FAULT*%
D51*
X153400000Y-128775000D02*
X145837500Y-128775000D01*
X155200000Y-126975000D02*
X153400000Y-128775000D01*
X158375000Y-93150000D02*
X155200000Y-96325000D01*
X155200000Y-96325000D02*
X155200000Y-126975000D01*
X168125000Y-93150000D02*
X158375000Y-93150000D01*
%TO.N,/L_BL_OUT*%
D55*
X168125000Y-94850000D02*
X170825000Y-97550000D01*
X183695000Y-97550000D02*
X188000000Y-93245000D01*
X170825000Y-97550000D02*
X183695000Y-97550000D01*
%TO.N,Net-(D2-A)*%
D52*
X145025000Y-96100000D02*
X145025000Y-97825000D01*
X145025000Y-97825000D02*
X145075000Y-97875000D01*
%TO.N,/F_BrakeLights*%
D51*
X152300000Y-87400000D02*
X152300000Y-124200000D01*
X162885000Y-75800000D02*
X162885000Y-76815000D01*
X152300000Y-124200000D02*
X152300000Y-126100000D01*
X152300000Y-126100000D02*
X150625000Y-127775000D01*
D55*
X162885000Y-75800000D02*
X162885000Y-73810000D01*
D51*
X162885000Y-76815000D02*
X152300000Y-87400000D01*
D55*
X162885000Y-73810000D02*
X162875000Y-73800000D01*
D51*
X150625000Y-127775000D02*
X145837500Y-127775000D01*
X150625000Y-127775000D02*
X149600000Y-127775000D01*
%TO.N,Net-(U9-IN)*%
D55*
X168075000Y-75800000D02*
X168125000Y-75750000D01*
X164710000Y-75800000D02*
X168075000Y-75800000D01*
%TO.N,/HSE_IN*%
D51*
X127500000Y-125755456D02*
X127500000Y-125750000D01*
X134299932Y-127612500D02*
X132150000Y-127612500D01*
X137512500Y-128775000D02*
X135462432Y-128775000D01*
X131687500Y-127150000D02*
X128894544Y-127150000D01*
X132150000Y-127612500D02*
X131687500Y-127150000D01*
X128894544Y-127150000D02*
X127500000Y-125755456D01*
X135462432Y-128775000D02*
X134299932Y-127612500D01*
%TO.N,/HSE_OUT*%
X134937500Y-129275000D02*
X134762500Y-129450000D01*
X129825000Y-128625000D02*
X129800000Y-128650000D01*
X134762500Y-129450000D02*
X133937500Y-128625000D01*
X137512500Y-129275000D02*
X134937500Y-129275000D01*
X133937500Y-128625000D02*
X129825000Y-128625000D01*
%TO.N,/Left_Signal_IN*%
X121935000Y-130275000D02*
X109100000Y-117440000D01*
X137512500Y-130275000D02*
X121935000Y-130275000D01*
%TO.N,/Right_Signal_IN*%
X109100000Y-122520000D02*
X111620000Y-122520000D01*
X111620000Y-122520000D02*
X119875000Y-130775000D01*
X119875000Y-130775000D02*
X137512500Y-130775000D01*
%TO.N,/Hazards_IN*%
X137512500Y-131275000D02*
X115975000Y-131275000D01*
X112300000Y-127600000D02*
X109100000Y-127600000D01*
X115975000Y-131275000D02*
X112300000Y-127600000D01*
%TO.N,/Headlights_IN*%
X109100000Y-133740000D02*
X111065000Y-131775000D01*
X111065000Y-131775000D02*
X137512500Y-131775000D01*
%TO.N,/Brake_IN*%
X115645000Y-132275000D02*
X137512500Y-132275000D01*
X109100000Y-138820000D02*
X115645000Y-132275000D01*
%TO.N,/Brake_FAULT*%
X151925000Y-128275000D02*
X145837500Y-128275000D01*
X168125000Y-79150000D02*
X164150000Y-79150000D01*
X153800000Y-126400000D02*
X151925000Y-128275000D01*
X164150000Y-79150000D02*
X153800000Y-89500000D01*
X151925000Y-128275000D02*
X151100000Y-128275000D01*
X153800000Y-89500000D02*
X153800000Y-126400000D01*
%TO.N,/STOP_OUT*%
D55*
X170825000Y-83550000D02*
X168125000Y-80850000D01*
X184530000Y-83550000D02*
X170825000Y-83550000D01*
X188100000Y-79980000D02*
X184530000Y-83550000D01*
%TD*%
M02*
