%TF.GenerationSoftware,KiCad,Pcbnew,10.0.3*%
%TF.CreationDate,2026-06-17T20:57:50+03:00*%
%TF.ProjectId,Pehlivan VCU,5065686c-6976-4616-9e20-5643552e6b69,0.3*%
%TF.SameCoordinates,Original*%
%TF.FileFunction,Soldermask,Bot*%
%TF.FilePolarity,Negative*%
%FSLAX46Y46*%
G04 Gerber Fmt 4.6, Leading zero omitted, Abs format (unit mm)*
G04 Created by KiCad (PCBNEW 10.0.3) date 2026-06-17 20:57:50*
%MOMM*%
%LPD*%
G01*
G04 APERTURE LIST*
G04 Aperture macros list*
%AMRoundRect*
0 Rectangle with rounded corners*
0 $1 Rounding radius*
0 $2 $3 $4 $5 $6 $7 $8 $9 X,Y pos of 4 corners*
0 Add a 4 corners polygon primitive as box body*
4,1,4,$2,$3,$4,$5,$6,$7,$8,$9,$2,$3,0*
0 Add four circle primitives for the rounded corners*
1,1,$1+$1,$2,$3*
1,1,$1+$1,$4,$5*
1,1,$1+$1,$6,$7*
1,1,$1+$1,$8,$9*
0 Add four rect primitives between the rounded corners*
20,1,$1+$1,$2,$3,$4,$5,0*
20,1,$1+$1,$4,$5,$6,$7,0*
20,1,$1+$1,$6,$7,$8,$9,0*
20,1,$1+$1,$8,$9,$2,$3,0*%
G04 Aperture macros list end*
%ADD10C,1.200000*%
%ADD11R,1.700000X1.700000*%
%ADD12C,1.700000*%
%ADD13RoundRect,0.250000X1.050000X-1.050000X1.050000X1.050000X-1.050000X1.050000X-1.050000X-1.050000X0*%
%ADD14C,2.600000*%
%ADD15RoundRect,0.250000X-1.050000X1.050000X-1.050000X-1.050000X1.050000X-1.050000X1.050000X1.050000X0*%
%ADD16C,4.700000*%
%ADD17RoundRect,0.250000X1.050000X1.050000X-1.050000X1.050000X-1.050000X-1.050000X1.050000X-1.050000X0*%
%ADD18R,2.000000X1.905000*%
%ADD19O,2.000000X1.905000*%
%ADD20RoundRect,0.250000X-1.050000X-1.050000X1.050000X-1.050000X1.050000X1.050000X-1.050000X1.050000X0*%
G04 APERTURE END LIST*
D10*
%TO.C,C6*%
X138275000Y-138575000D03*
X136275000Y-138575000D03*
%TD*%
D11*
%TO.C,J6*%
X118872000Y-138684000D03*
D12*
X121412000Y-138684000D03*
X123952000Y-138684000D03*
X126492000Y-138684000D03*
%TD*%
D13*
%TO.C,J8*%
X187850000Y-108380000D03*
D14*
X187850000Y-103300000D03*
X187850000Y-98220000D03*
%TD*%
D15*
%TO.C,J10*%
X112446000Y-74320000D03*
D14*
X112446000Y-79400000D03*
X112446000Y-84480000D03*
%TD*%
D16*
%TO.C,H2*%
X113284000Y-68508000D03*
%TD*%
%TO.C,H4*%
X186182000Y-142748000D03*
%TD*%
D17*
%TO.C,J1*%
X166800000Y-69300000D03*
D14*
X161720000Y-69300000D03*
%TD*%
D10*
%TO.C,C2*%
X182372000Y-74692000D03*
X182372000Y-76692000D03*
%TD*%
%TO.C,C4*%
X153416000Y-105156000D03*
X151416000Y-105156000D03*
%TD*%
%TO.C,C3*%
X158004000Y-93980000D03*
X160004000Y-93980000D03*
%TD*%
D18*
%TO.C,U1*%
X175260000Y-80772000D03*
D19*
X175260000Y-78232000D03*
X175260000Y-75692000D03*
%TD*%
D16*
%TO.C,H1*%
X186690000Y-68762000D03*
%TD*%
D20*
%TO.C,J3*%
X143260000Y-143200000D03*
D14*
X148340000Y-143200000D03*
X153420000Y-143200000D03*
X158500000Y-143200000D03*
%TD*%
D13*
%TO.C,J9*%
X187850000Y-91980000D03*
D14*
X187850000Y-86900000D03*
X187850000Y-81820000D03*
%TD*%
D16*
%TO.C,H3*%
X113538000Y-142748000D03*
%TD*%
D15*
%TO.C,J12*%
X112027500Y-116455000D03*
D14*
X112027500Y-121535000D03*
%TD*%
D15*
%TO.C,J11*%
X112227500Y-95715000D03*
D14*
X112227500Y-100795000D03*
X112227500Y-105875000D03*
%TD*%
D20*
%TO.C,J4*%
X165275000Y-143262500D03*
D14*
X170355000Y-143262500D03*
%TD*%
D10*
%TO.C,C1*%
X165862000Y-80804000D03*
X165862000Y-82304000D03*
%TD*%
D13*
%TO.C,J7*%
X187850000Y-124680000D03*
D14*
X187850000Y-119600000D03*
X187850000Y-114520000D03*
%TD*%
D11*
%TO.C,J2*%
X156100000Y-123400000D03*
D12*
X153560000Y-123400000D03*
X151020000Y-123400000D03*
X148480000Y-123400000D03*
X145940000Y-123400000D03*
%TD*%
D10*
%TO.C,C16*%
X130600000Y-138600000D03*
X132600000Y-138600000D03*
%TD*%
D11*
%TO.C,J5*%
X166370000Y-99568000D03*
D12*
X168910000Y-99568000D03*
X171450000Y-99568000D03*
X173990000Y-99568000D03*
X176530000Y-99568000D03*
X179070000Y-99568000D03*
%TD*%
M02*
