%TF.GenerationSoftware,KiCad,Pcbnew,10.0.3*%
%TF.CreationDate,2026-06-16T05:03:52+03:00*%
%TF.ProjectId,Pehlivan VCU,5065686c-6976-4616-9e20-5643552e6b69,rev?*%
%TF.SameCoordinates,Original*%
%TF.FileFunction,Legend,Top*%
%TF.FilePolarity,Positive*%
%FSLAX46Y46*%
G04 Gerber Fmt 4.6, Leading zero omitted, Abs format (unit mm)*
G04 Created by KiCad (PCBNEW 10.0.3) date 2026-06-16 05:03:52*
%MOMM*%
%LPD*%
G01*
G04 APERTURE LIST*
%ADD10C,0.125000*%
%ADD11C,0.093750*%
%ADD12C,0.200000*%
%ADD13C,0.300000*%
%ADD14C,0.150000*%
%ADD15C,0.120000*%
G04 APERTURE END LIST*
D10*
X136615569Y-147741166D02*
X136548902Y-147707833D01*
X136548902Y-147707833D02*
X136448902Y-147707833D01*
X136448902Y-147707833D02*
X136348902Y-147741166D01*
X136348902Y-147741166D02*
X136282236Y-147807833D01*
X136282236Y-147807833D02*
X136248902Y-147874500D01*
X136248902Y-147874500D02*
X136215569Y-148007833D01*
X136215569Y-148007833D02*
X136215569Y-148107833D01*
X136215569Y-148107833D02*
X136248902Y-148241166D01*
X136248902Y-148241166D02*
X136282236Y-148307833D01*
X136282236Y-148307833D02*
X136348902Y-148374500D01*
X136348902Y-148374500D02*
X136448902Y-148407833D01*
X136448902Y-148407833D02*
X136515569Y-148407833D01*
X136515569Y-148407833D02*
X136615569Y-148374500D01*
X136615569Y-148374500D02*
X136648902Y-148341166D01*
X136648902Y-148341166D02*
X136648902Y-148107833D01*
X136648902Y-148107833D02*
X136515569Y-148107833D01*
X136948902Y-148407833D02*
X136948902Y-147707833D01*
X136948902Y-147707833D02*
X137348902Y-148407833D01*
X137348902Y-148407833D02*
X137348902Y-147707833D01*
X137682235Y-148407833D02*
X137682235Y-147707833D01*
X137682235Y-147707833D02*
X137848902Y-147707833D01*
X137848902Y-147707833D02*
X137948902Y-147741166D01*
X137948902Y-147741166D02*
X138015569Y-147807833D01*
X138015569Y-147807833D02*
X138048902Y-147874500D01*
X138048902Y-147874500D02*
X138082235Y-148007833D01*
X138082235Y-148007833D02*
X138082235Y-148107833D01*
X138082235Y-148107833D02*
X138048902Y-148241166D01*
X138048902Y-148241166D02*
X138015569Y-148307833D01*
X138015569Y-148307833D02*
X137948902Y-148374500D01*
X137948902Y-148374500D02*
X137848902Y-148407833D01*
X137848902Y-148407833D02*
X137682235Y-148407833D01*
X138915568Y-148141166D02*
X139448902Y-148141166D01*
X139182235Y-148407833D02*
X139182235Y-147874500D01*
X140115569Y-147707833D02*
X139782235Y-147707833D01*
X139782235Y-147707833D02*
X139748902Y-148041166D01*
X139748902Y-148041166D02*
X139782235Y-148007833D01*
X139782235Y-148007833D02*
X139848902Y-147974500D01*
X139848902Y-147974500D02*
X140015569Y-147974500D01*
X140015569Y-147974500D02*
X140082235Y-148007833D01*
X140082235Y-148007833D02*
X140115569Y-148041166D01*
X140115569Y-148041166D02*
X140148902Y-148107833D01*
X140148902Y-148107833D02*
X140148902Y-148274500D01*
X140148902Y-148274500D02*
X140115569Y-148341166D01*
X140115569Y-148341166D02*
X140082235Y-148374500D01*
X140082235Y-148374500D02*
X140015569Y-148407833D01*
X140015569Y-148407833D02*
X139848902Y-148407833D01*
X139848902Y-148407833D02*
X139782235Y-148374500D01*
X139782235Y-148374500D02*
X139748902Y-148341166D01*
X140348902Y-147707833D02*
X140582236Y-148407833D01*
X140582236Y-148407833D02*
X140815569Y-147707833D01*
X141582235Y-148407833D02*
X141582235Y-147707833D01*
X141582235Y-147707833D02*
X141815569Y-148207833D01*
X141815569Y-148207833D02*
X142048902Y-147707833D01*
X142048902Y-147707833D02*
X142048902Y-148407833D01*
X142382235Y-148407833D02*
X142382235Y-147707833D01*
X142682235Y-148374500D02*
X142782235Y-148407833D01*
X142782235Y-148407833D02*
X142948902Y-148407833D01*
X142948902Y-148407833D02*
X143015568Y-148374500D01*
X143015568Y-148374500D02*
X143048902Y-148341166D01*
X143048902Y-148341166D02*
X143082235Y-148274500D01*
X143082235Y-148274500D02*
X143082235Y-148207833D01*
X143082235Y-148207833D02*
X143048902Y-148141166D01*
X143048902Y-148141166D02*
X143015568Y-148107833D01*
X143015568Y-148107833D02*
X142948902Y-148074500D01*
X142948902Y-148074500D02*
X142815568Y-148041166D01*
X142815568Y-148041166D02*
X142748902Y-148007833D01*
X142748902Y-148007833D02*
X142715568Y-147974500D01*
X142715568Y-147974500D02*
X142682235Y-147907833D01*
X142682235Y-147907833D02*
X142682235Y-147841166D01*
X142682235Y-147841166D02*
X142715568Y-147774500D01*
X142715568Y-147774500D02*
X142748902Y-147741166D01*
X142748902Y-147741166D02*
X142815568Y-147707833D01*
X142815568Y-147707833D02*
X142982235Y-147707833D01*
X142982235Y-147707833D02*
X143082235Y-147741166D01*
X143515569Y-147707833D02*
X143648902Y-147707833D01*
X143648902Y-147707833D02*
X143715569Y-147741166D01*
X143715569Y-147741166D02*
X143782235Y-147807833D01*
X143782235Y-147807833D02*
X143815569Y-147941166D01*
X143815569Y-147941166D02*
X143815569Y-148174500D01*
X143815569Y-148174500D02*
X143782235Y-148307833D01*
X143782235Y-148307833D02*
X143715569Y-148374500D01*
X143715569Y-148374500D02*
X143648902Y-148407833D01*
X143648902Y-148407833D02*
X143515569Y-148407833D01*
X143515569Y-148407833D02*
X143448902Y-148374500D01*
X143448902Y-148374500D02*
X143382235Y-148307833D01*
X143382235Y-148307833D02*
X143348902Y-148174500D01*
X143348902Y-148174500D02*
X143348902Y-147941166D01*
X143348902Y-147941166D02*
X143382235Y-147807833D01*
X143382235Y-147807833D02*
X143448902Y-147741166D01*
X143448902Y-147741166D02*
X143515569Y-147707833D01*
X144648901Y-148407833D02*
X144648901Y-147707833D01*
X144648901Y-147707833D02*
X144882235Y-148207833D01*
X144882235Y-148207833D02*
X145115568Y-147707833D01*
X145115568Y-147707833D02*
X145115568Y-148407833D01*
X145582235Y-147707833D02*
X145715568Y-147707833D01*
X145715568Y-147707833D02*
X145782235Y-147741166D01*
X145782235Y-147741166D02*
X145848901Y-147807833D01*
X145848901Y-147807833D02*
X145882235Y-147941166D01*
X145882235Y-147941166D02*
X145882235Y-148174500D01*
X145882235Y-148174500D02*
X145848901Y-148307833D01*
X145848901Y-148307833D02*
X145782235Y-148374500D01*
X145782235Y-148374500D02*
X145715568Y-148407833D01*
X145715568Y-148407833D02*
X145582235Y-148407833D01*
X145582235Y-148407833D02*
X145515568Y-148374500D01*
X145515568Y-148374500D02*
X145448901Y-148307833D01*
X145448901Y-148307833D02*
X145415568Y-148174500D01*
X145415568Y-148174500D02*
X145415568Y-147941166D01*
X145415568Y-147941166D02*
X145448901Y-147807833D01*
X145448901Y-147807833D02*
X145515568Y-147741166D01*
X145515568Y-147741166D02*
X145582235Y-147707833D01*
X146148901Y-148374500D02*
X146248901Y-148407833D01*
X146248901Y-148407833D02*
X146415568Y-148407833D01*
X146415568Y-148407833D02*
X146482234Y-148374500D01*
X146482234Y-148374500D02*
X146515568Y-148341166D01*
X146515568Y-148341166D02*
X146548901Y-148274500D01*
X146548901Y-148274500D02*
X146548901Y-148207833D01*
X146548901Y-148207833D02*
X146515568Y-148141166D01*
X146515568Y-148141166D02*
X146482234Y-148107833D01*
X146482234Y-148107833D02*
X146415568Y-148074500D01*
X146415568Y-148074500D02*
X146282234Y-148041166D01*
X146282234Y-148041166D02*
X146215568Y-148007833D01*
X146215568Y-148007833D02*
X146182234Y-147974500D01*
X146182234Y-147974500D02*
X146148901Y-147907833D01*
X146148901Y-147907833D02*
X146148901Y-147841166D01*
X146148901Y-147841166D02*
X146182234Y-147774500D01*
X146182234Y-147774500D02*
X146215568Y-147741166D01*
X146215568Y-147741166D02*
X146282234Y-147707833D01*
X146282234Y-147707833D02*
X146448901Y-147707833D01*
X146448901Y-147707833D02*
X146548901Y-147741166D01*
X146848901Y-148407833D02*
X146848901Y-147707833D01*
X148115567Y-148341166D02*
X148082234Y-148374500D01*
X148082234Y-148374500D02*
X147982234Y-148407833D01*
X147982234Y-148407833D02*
X147915567Y-148407833D01*
X147915567Y-148407833D02*
X147815567Y-148374500D01*
X147815567Y-148374500D02*
X147748901Y-148307833D01*
X147748901Y-148307833D02*
X147715567Y-148241166D01*
X147715567Y-148241166D02*
X147682234Y-148107833D01*
X147682234Y-148107833D02*
X147682234Y-148007833D01*
X147682234Y-148007833D02*
X147715567Y-147874500D01*
X147715567Y-147874500D02*
X147748901Y-147807833D01*
X147748901Y-147807833D02*
X147815567Y-147741166D01*
X147815567Y-147741166D02*
X147915567Y-147707833D01*
X147915567Y-147707833D02*
X147982234Y-147707833D01*
X147982234Y-147707833D02*
X148082234Y-147741166D01*
X148082234Y-147741166D02*
X148115567Y-147774500D01*
X148748901Y-148407833D02*
X148415567Y-148407833D01*
X148415567Y-148407833D02*
X148415567Y-147707833D01*
X148982234Y-148407833D02*
X148982234Y-147707833D01*
X149382234Y-148407833D02*
X149082234Y-148007833D01*
X149382234Y-147707833D02*
X148982234Y-148107833D01*
X150615567Y-148341166D02*
X150582234Y-148374500D01*
X150582234Y-148374500D02*
X150482234Y-148407833D01*
X150482234Y-148407833D02*
X150415567Y-148407833D01*
X150415567Y-148407833D02*
X150315567Y-148374500D01*
X150315567Y-148374500D02*
X150248901Y-148307833D01*
X150248901Y-148307833D02*
X150215567Y-148241166D01*
X150215567Y-148241166D02*
X150182234Y-148107833D01*
X150182234Y-148107833D02*
X150182234Y-148007833D01*
X150182234Y-148007833D02*
X150215567Y-147874500D01*
X150215567Y-147874500D02*
X150248901Y-147807833D01*
X150248901Y-147807833D02*
X150315567Y-147741166D01*
X150315567Y-147741166D02*
X150415567Y-147707833D01*
X150415567Y-147707833D02*
X150482234Y-147707833D01*
X150482234Y-147707833D02*
X150582234Y-147741166D01*
X150582234Y-147741166D02*
X150615567Y-147774500D01*
X150882234Y-148374500D02*
X150982234Y-148407833D01*
X150982234Y-148407833D02*
X151148901Y-148407833D01*
X151148901Y-148407833D02*
X151215567Y-148374500D01*
X151215567Y-148374500D02*
X151248901Y-148341166D01*
X151248901Y-148341166D02*
X151282234Y-148274500D01*
X151282234Y-148274500D02*
X151282234Y-148207833D01*
X151282234Y-148207833D02*
X151248901Y-148141166D01*
X151248901Y-148141166D02*
X151215567Y-148107833D01*
X151215567Y-148107833D02*
X151148901Y-148074500D01*
X151148901Y-148074500D02*
X151015567Y-148041166D01*
X151015567Y-148041166D02*
X150948901Y-148007833D01*
X150948901Y-148007833D02*
X150915567Y-147974500D01*
X150915567Y-147974500D02*
X150882234Y-147907833D01*
X150882234Y-147907833D02*
X150882234Y-147841166D01*
X150882234Y-147841166D02*
X150915567Y-147774500D01*
X150915567Y-147774500D02*
X150948901Y-147741166D01*
X150948901Y-147741166D02*
X151015567Y-147707833D01*
X151015567Y-147707833D02*
X151182234Y-147707833D01*
X151182234Y-147707833D02*
X151282234Y-147741166D01*
X138050000Y-104747539D02*
X138150000Y-104780872D01*
X138150000Y-104780872D02*
X138316667Y-104780872D01*
X138316667Y-104780872D02*
X138383333Y-104747539D01*
X138383333Y-104747539D02*
X138416667Y-104714205D01*
X138416667Y-104714205D02*
X138450000Y-104647539D01*
X138450000Y-104647539D02*
X138450000Y-104580872D01*
X138450000Y-104580872D02*
X138416667Y-104514205D01*
X138416667Y-104514205D02*
X138383333Y-104480872D01*
X138383333Y-104480872D02*
X138316667Y-104447539D01*
X138316667Y-104447539D02*
X138183333Y-104414205D01*
X138183333Y-104414205D02*
X138116667Y-104380872D01*
X138116667Y-104380872D02*
X138083333Y-104347539D01*
X138083333Y-104347539D02*
X138050000Y-104280872D01*
X138050000Y-104280872D02*
X138050000Y-104214205D01*
X138050000Y-104214205D02*
X138083333Y-104147539D01*
X138083333Y-104147539D02*
X138116667Y-104114205D01*
X138116667Y-104114205D02*
X138183333Y-104080872D01*
X138183333Y-104080872D02*
X138350000Y-104080872D01*
X138350000Y-104080872D02*
X138450000Y-104114205D01*
X138683334Y-104080872D02*
X138850000Y-104780872D01*
X138850000Y-104780872D02*
X138983334Y-104280872D01*
X138983334Y-104280872D02*
X139116667Y-104780872D01*
X139116667Y-104780872D02*
X139283334Y-104080872D01*
X139550000Y-104780872D02*
X139550000Y-104080872D01*
X139550000Y-104080872D02*
X139716667Y-104080872D01*
X139716667Y-104080872D02*
X139816667Y-104114205D01*
X139816667Y-104114205D02*
X139883334Y-104180872D01*
X139883334Y-104180872D02*
X139916667Y-104247539D01*
X139916667Y-104247539D02*
X139950000Y-104380872D01*
X139950000Y-104380872D02*
X139950000Y-104480872D01*
X139950000Y-104480872D02*
X139916667Y-104614205D01*
X139916667Y-104614205D02*
X139883334Y-104680872D01*
X139883334Y-104680872D02*
X139816667Y-104747539D01*
X139816667Y-104747539D02*
X139716667Y-104780872D01*
X139716667Y-104780872D02*
X139550000Y-104780872D01*
X133233334Y-105907833D02*
X133233334Y-105207833D01*
X133233334Y-105207833D02*
X133633334Y-105907833D01*
X133633334Y-105907833D02*
X133633334Y-105207833D01*
X134366667Y-105907833D02*
X134133334Y-105574500D01*
X133966667Y-105907833D02*
X133966667Y-105207833D01*
X133966667Y-105207833D02*
X134233334Y-105207833D01*
X134233334Y-105207833D02*
X134300001Y-105241166D01*
X134300001Y-105241166D02*
X134333334Y-105274500D01*
X134333334Y-105274500D02*
X134366667Y-105341166D01*
X134366667Y-105341166D02*
X134366667Y-105441166D01*
X134366667Y-105441166D02*
X134333334Y-105507833D01*
X134333334Y-105507833D02*
X134300001Y-105541166D01*
X134300001Y-105541166D02*
X134233334Y-105574500D01*
X134233334Y-105574500D02*
X133966667Y-105574500D01*
X134633334Y-105874500D02*
X134733334Y-105907833D01*
X134733334Y-105907833D02*
X134900001Y-105907833D01*
X134900001Y-105907833D02*
X134966667Y-105874500D01*
X134966667Y-105874500D02*
X135000001Y-105841166D01*
X135000001Y-105841166D02*
X135033334Y-105774500D01*
X135033334Y-105774500D02*
X135033334Y-105707833D01*
X135033334Y-105707833D02*
X135000001Y-105641166D01*
X135000001Y-105641166D02*
X134966667Y-105607833D01*
X134966667Y-105607833D02*
X134900001Y-105574500D01*
X134900001Y-105574500D02*
X134766667Y-105541166D01*
X134766667Y-105541166D02*
X134700001Y-105507833D01*
X134700001Y-105507833D02*
X134666667Y-105474500D01*
X134666667Y-105474500D02*
X134633334Y-105407833D01*
X134633334Y-105407833D02*
X134633334Y-105341166D01*
X134633334Y-105341166D02*
X134666667Y-105274500D01*
X134666667Y-105274500D02*
X134700001Y-105241166D01*
X134700001Y-105241166D02*
X134766667Y-105207833D01*
X134766667Y-105207833D02*
X134933334Y-105207833D01*
X134933334Y-105207833D02*
X135033334Y-105241166D01*
X135233334Y-105207833D02*
X135633334Y-105207833D01*
X135433334Y-105907833D02*
X135433334Y-105207833D01*
X136766667Y-105241166D02*
X136700000Y-105207833D01*
X136700000Y-105207833D02*
X136600000Y-105207833D01*
X136600000Y-105207833D02*
X136500000Y-105241166D01*
X136500000Y-105241166D02*
X136433334Y-105307833D01*
X136433334Y-105307833D02*
X136400000Y-105374500D01*
X136400000Y-105374500D02*
X136366667Y-105507833D01*
X136366667Y-105507833D02*
X136366667Y-105607833D01*
X136366667Y-105607833D02*
X136400000Y-105741166D01*
X136400000Y-105741166D02*
X136433334Y-105807833D01*
X136433334Y-105807833D02*
X136500000Y-105874500D01*
X136500000Y-105874500D02*
X136600000Y-105907833D01*
X136600000Y-105907833D02*
X136666667Y-105907833D01*
X136666667Y-105907833D02*
X136766667Y-105874500D01*
X136766667Y-105874500D02*
X136800000Y-105841166D01*
X136800000Y-105841166D02*
X136800000Y-105607833D01*
X136800000Y-105607833D02*
X136666667Y-105607833D01*
X137100000Y-105907833D02*
X137100000Y-105207833D01*
X137100000Y-105207833D02*
X137500000Y-105907833D01*
X137500000Y-105907833D02*
X137500000Y-105207833D01*
X137833333Y-105907833D02*
X137833333Y-105207833D01*
X137833333Y-105207833D02*
X138000000Y-105207833D01*
X138000000Y-105207833D02*
X138100000Y-105241166D01*
X138100000Y-105241166D02*
X138166667Y-105307833D01*
X138166667Y-105307833D02*
X138200000Y-105374500D01*
X138200000Y-105374500D02*
X138233333Y-105507833D01*
X138233333Y-105507833D02*
X138233333Y-105607833D01*
X138233333Y-105607833D02*
X138200000Y-105741166D01*
X138200000Y-105741166D02*
X138166667Y-105807833D01*
X138166667Y-105807833D02*
X138100000Y-105874500D01*
X138100000Y-105874500D02*
X138000000Y-105907833D01*
X138000000Y-105907833D02*
X137833333Y-105907833D01*
X139000000Y-105207833D02*
X139433333Y-105207833D01*
X139433333Y-105207833D02*
X139200000Y-105474500D01*
X139200000Y-105474500D02*
X139300000Y-105474500D01*
X139300000Y-105474500D02*
X139366666Y-105507833D01*
X139366666Y-105507833D02*
X139400000Y-105541166D01*
X139400000Y-105541166D02*
X139433333Y-105607833D01*
X139433333Y-105607833D02*
X139433333Y-105774500D01*
X139433333Y-105774500D02*
X139400000Y-105841166D01*
X139400000Y-105841166D02*
X139366666Y-105874500D01*
X139366666Y-105874500D02*
X139300000Y-105907833D01*
X139300000Y-105907833D02*
X139100000Y-105907833D01*
X139100000Y-105907833D02*
X139033333Y-105874500D01*
X139033333Y-105874500D02*
X139000000Y-105841166D01*
X139633333Y-105207833D02*
X139866667Y-105907833D01*
X139866667Y-105907833D02*
X140100000Y-105207833D01*
X140266667Y-105207833D02*
X140700000Y-105207833D01*
X140700000Y-105207833D02*
X140466667Y-105474500D01*
X140466667Y-105474500D02*
X140566667Y-105474500D01*
X140566667Y-105474500D02*
X140633333Y-105507833D01*
X140633333Y-105507833D02*
X140666667Y-105541166D01*
X140666667Y-105541166D02*
X140700000Y-105607833D01*
X140700000Y-105607833D02*
X140700000Y-105774500D01*
X140700000Y-105774500D02*
X140666667Y-105841166D01*
X140666667Y-105841166D02*
X140633333Y-105874500D01*
X140633333Y-105874500D02*
X140566667Y-105907833D01*
X140566667Y-105907833D02*
X140366667Y-105907833D01*
X140366667Y-105907833D02*
X140300000Y-105874500D01*
X140300000Y-105874500D02*
X140266667Y-105841166D01*
X141933333Y-105841166D02*
X141900000Y-105874500D01*
X141900000Y-105874500D02*
X141800000Y-105907833D01*
X141800000Y-105907833D02*
X141733333Y-105907833D01*
X141733333Y-105907833D02*
X141633333Y-105874500D01*
X141633333Y-105874500D02*
X141566667Y-105807833D01*
X141566667Y-105807833D02*
X141533333Y-105741166D01*
X141533333Y-105741166D02*
X141500000Y-105607833D01*
X141500000Y-105607833D02*
X141500000Y-105507833D01*
X141500000Y-105507833D02*
X141533333Y-105374500D01*
X141533333Y-105374500D02*
X141566667Y-105307833D01*
X141566667Y-105307833D02*
X141633333Y-105241166D01*
X141633333Y-105241166D02*
X141733333Y-105207833D01*
X141733333Y-105207833D02*
X141800000Y-105207833D01*
X141800000Y-105207833D02*
X141900000Y-105241166D01*
X141900000Y-105241166D02*
X141933333Y-105274500D01*
X142566667Y-105907833D02*
X142233333Y-105907833D01*
X142233333Y-105907833D02*
X142233333Y-105207833D01*
X142800000Y-105907833D02*
X142800000Y-105207833D01*
X143200000Y-105907833D02*
X142900000Y-105507833D01*
X143200000Y-105207833D02*
X142800000Y-105607833D01*
X144033333Y-105907833D02*
X144033333Y-105207833D01*
X144500000Y-105207833D02*
X144633333Y-105207833D01*
X144633333Y-105207833D02*
X144700000Y-105241166D01*
X144700000Y-105241166D02*
X144766666Y-105307833D01*
X144766666Y-105307833D02*
X144800000Y-105441166D01*
X144800000Y-105441166D02*
X144800000Y-105674500D01*
X144800000Y-105674500D02*
X144766666Y-105807833D01*
X144766666Y-105807833D02*
X144700000Y-105874500D01*
X144700000Y-105874500D02*
X144633333Y-105907833D01*
X144633333Y-105907833D02*
X144500000Y-105907833D01*
X144500000Y-105907833D02*
X144433333Y-105874500D01*
X144433333Y-105874500D02*
X144366666Y-105807833D01*
X144366666Y-105807833D02*
X144333333Y-105674500D01*
X144333333Y-105674500D02*
X144333333Y-105441166D01*
X144333333Y-105441166D02*
X144366666Y-105307833D01*
X144366666Y-105307833D02*
X144433333Y-105241166D01*
X144433333Y-105241166D02*
X144500000Y-105207833D01*
D11*
X131903339Y-96402608D02*
X131903339Y-96759751D01*
X131903339Y-96759751D02*
X131153339Y-96759751D01*
X131903339Y-96045465D02*
X131867625Y-96116894D01*
X131867625Y-96116894D02*
X131831910Y-96152608D01*
X131831910Y-96152608D02*
X131760482Y-96188322D01*
X131760482Y-96188322D02*
X131546196Y-96188322D01*
X131546196Y-96188322D02*
X131474767Y-96152608D01*
X131474767Y-96152608D02*
X131439053Y-96116894D01*
X131439053Y-96116894D02*
X131403339Y-96045465D01*
X131403339Y-96045465D02*
X131403339Y-95938322D01*
X131403339Y-95938322D02*
X131439053Y-95866894D01*
X131439053Y-95866894D02*
X131474767Y-95831180D01*
X131474767Y-95831180D02*
X131546196Y-95795465D01*
X131546196Y-95795465D02*
X131760482Y-95795465D01*
X131760482Y-95795465D02*
X131831910Y-95831180D01*
X131831910Y-95831180D02*
X131867625Y-95866894D01*
X131867625Y-95866894D02*
X131903339Y-95938322D01*
X131903339Y-95938322D02*
X131903339Y-96045465D01*
X131903339Y-95474037D02*
X131403339Y-95474037D01*
X131546196Y-95474037D02*
X131474767Y-95438323D01*
X131474767Y-95438323D02*
X131439053Y-95402609D01*
X131439053Y-95402609D02*
X131403339Y-95331180D01*
X131403339Y-95331180D02*
X131403339Y-95259751D01*
X131903339Y-94688323D02*
X131510482Y-94688323D01*
X131510482Y-94688323D02*
X131439053Y-94724037D01*
X131439053Y-94724037D02*
X131403339Y-94795465D01*
X131403339Y-94795465D02*
X131403339Y-94938323D01*
X131403339Y-94938323D02*
X131439053Y-95009751D01*
X131867625Y-94688323D02*
X131903339Y-94759751D01*
X131903339Y-94759751D02*
X131903339Y-94938323D01*
X131903339Y-94938323D02*
X131867625Y-95009751D01*
X131867625Y-95009751D02*
X131796196Y-95045465D01*
X131796196Y-95045465D02*
X131724767Y-95045465D01*
X131724767Y-95045465D02*
X131653339Y-95009751D01*
X131653339Y-95009751D02*
X131617625Y-94938323D01*
X131617625Y-94938323D02*
X131617625Y-94759751D01*
X131617625Y-94759751D02*
X131581910Y-94688323D01*
X131153339Y-93866894D02*
X131153339Y-93438323D01*
X131903339Y-93652608D02*
X131153339Y-93652608D01*
X131153339Y-93259751D02*
X131903339Y-92759751D01*
X131153339Y-92759751D02*
X131903339Y-93259751D01*
X103890248Y-101047744D02*
X103890248Y-100047744D01*
X103890248Y-100047744D02*
X104318819Y-101047744D01*
X104318819Y-101047744D02*
X104318819Y-100047744D01*
X104961676Y-101000125D02*
X104890248Y-101047744D01*
X104890248Y-101047744D02*
X104747391Y-101047744D01*
X104747391Y-101047744D02*
X104675962Y-101000125D01*
X104675962Y-101000125D02*
X104640248Y-100904886D01*
X104640248Y-100904886D02*
X104640248Y-100523934D01*
X104640248Y-100523934D02*
X104675962Y-100428696D01*
X104675962Y-100428696D02*
X104747391Y-100381077D01*
X104747391Y-100381077D02*
X104890248Y-100381077D01*
X104890248Y-100381077D02*
X104961676Y-100428696D01*
X104961676Y-100428696D02*
X104997391Y-100523934D01*
X104997391Y-100523934D02*
X104997391Y-100619172D01*
X104997391Y-100619172D02*
X104640248Y-100714410D01*
X105247390Y-101047744D02*
X105640248Y-100381077D01*
X105247390Y-100381077D02*
X105640248Y-101047744D01*
X105818819Y-100381077D02*
X106104533Y-100381077D01*
X105925962Y-100047744D02*
X105925962Y-100904886D01*
X105925962Y-100904886D02*
X105961676Y-101000125D01*
X105961676Y-101000125D02*
X106033105Y-101047744D01*
X106033105Y-101047744D02*
X106104533Y-101047744D01*
X106354533Y-101047744D02*
X106354533Y-100381077D01*
X106354533Y-100047744D02*
X106318819Y-100095363D01*
X106318819Y-100095363D02*
X106354533Y-100142982D01*
X106354533Y-100142982D02*
X106390247Y-100095363D01*
X106390247Y-100095363D02*
X106354533Y-100047744D01*
X106354533Y-100047744D02*
X106354533Y-100142982D01*
X106818819Y-101047744D02*
X106747390Y-101000125D01*
X106747390Y-101000125D02*
X106711676Y-100952505D01*
X106711676Y-100952505D02*
X106675962Y-100857267D01*
X106675962Y-100857267D02*
X106675962Y-100571553D01*
X106675962Y-100571553D02*
X106711676Y-100476315D01*
X106711676Y-100476315D02*
X106747390Y-100428696D01*
X106747390Y-100428696D02*
X106818819Y-100381077D01*
X106818819Y-100381077D02*
X106925962Y-100381077D01*
X106925962Y-100381077D02*
X106997390Y-100428696D01*
X106997390Y-100428696D02*
X107033105Y-100476315D01*
X107033105Y-100476315D02*
X107068819Y-100571553D01*
X107068819Y-100571553D02*
X107068819Y-100857267D01*
X107068819Y-100857267D02*
X107033105Y-100952505D01*
X107033105Y-100952505D02*
X106997390Y-101000125D01*
X106997390Y-101000125D02*
X106925962Y-101047744D01*
X106925962Y-101047744D02*
X106818819Y-101047744D01*
X107390247Y-100381077D02*
X107390247Y-101047744D01*
X107390247Y-100476315D02*
X107425961Y-100428696D01*
X107425961Y-100428696D02*
X107497390Y-100381077D01*
X107497390Y-100381077D02*
X107604533Y-100381077D01*
X107604533Y-100381077D02*
X107675961Y-100428696D01*
X107675961Y-100428696D02*
X107711676Y-100523934D01*
X107711676Y-100523934D02*
X107711676Y-101047744D01*
X108533104Y-100047744D02*
X108961676Y-100047744D01*
X108747390Y-101047744D02*
X108747390Y-100047744D01*
X109140247Y-100047744D02*
X109640247Y-101047744D01*
X109640247Y-100047744D02*
X109140247Y-101047744D01*
D12*
X147742219Y-101029136D02*
X147742219Y-101505326D01*
X147742219Y-101505326D02*
X146742219Y-101505326D01*
X147742219Y-100552945D02*
X147694600Y-100648183D01*
X147694600Y-100648183D02*
X147646980Y-100695802D01*
X147646980Y-100695802D02*
X147551742Y-100743421D01*
X147551742Y-100743421D02*
X147266028Y-100743421D01*
X147266028Y-100743421D02*
X147170790Y-100695802D01*
X147170790Y-100695802D02*
X147123171Y-100648183D01*
X147123171Y-100648183D02*
X147075552Y-100552945D01*
X147075552Y-100552945D02*
X147075552Y-100410088D01*
X147075552Y-100410088D02*
X147123171Y-100314850D01*
X147123171Y-100314850D02*
X147170790Y-100267231D01*
X147170790Y-100267231D02*
X147266028Y-100219612D01*
X147266028Y-100219612D02*
X147551742Y-100219612D01*
X147551742Y-100219612D02*
X147646980Y-100267231D01*
X147646980Y-100267231D02*
X147694600Y-100314850D01*
X147694600Y-100314850D02*
X147742219Y-100410088D01*
X147742219Y-100410088D02*
X147742219Y-100552945D01*
X147075552Y-99362469D02*
X147885076Y-99362469D01*
X147885076Y-99362469D02*
X147980314Y-99410088D01*
X147980314Y-99410088D02*
X148027933Y-99457707D01*
X148027933Y-99457707D02*
X148075552Y-99552945D01*
X148075552Y-99552945D02*
X148075552Y-99695802D01*
X148075552Y-99695802D02*
X148027933Y-99791040D01*
X147694600Y-99362469D02*
X147742219Y-99457707D01*
X147742219Y-99457707D02*
X147742219Y-99648183D01*
X147742219Y-99648183D02*
X147694600Y-99743421D01*
X147694600Y-99743421D02*
X147646980Y-99791040D01*
X147646980Y-99791040D02*
X147551742Y-99838659D01*
X147551742Y-99838659D02*
X147266028Y-99838659D01*
X147266028Y-99838659D02*
X147170790Y-99791040D01*
X147170790Y-99791040D02*
X147123171Y-99743421D01*
X147123171Y-99743421D02*
X147075552Y-99648183D01*
X147075552Y-99648183D02*
X147075552Y-99457707D01*
X147075552Y-99457707D02*
X147123171Y-99362469D01*
X147742219Y-98886278D02*
X147075552Y-98886278D01*
X146742219Y-98886278D02*
X146789838Y-98933897D01*
X146789838Y-98933897D02*
X146837457Y-98886278D01*
X146837457Y-98886278D02*
X146789838Y-98838659D01*
X146789838Y-98838659D02*
X146742219Y-98886278D01*
X146742219Y-98886278D02*
X146837457Y-98886278D01*
X147694600Y-97981517D02*
X147742219Y-98076755D01*
X147742219Y-98076755D02*
X147742219Y-98267231D01*
X147742219Y-98267231D02*
X147694600Y-98362469D01*
X147694600Y-98362469D02*
X147646980Y-98410088D01*
X147646980Y-98410088D02*
X147551742Y-98457707D01*
X147551742Y-98457707D02*
X147266028Y-98457707D01*
X147266028Y-98457707D02*
X147170790Y-98410088D01*
X147170790Y-98410088D02*
X147123171Y-98362469D01*
X147123171Y-98362469D02*
X147075552Y-98267231D01*
X147075552Y-98267231D02*
X147075552Y-98076755D01*
X147075552Y-98076755D02*
X147123171Y-97981517D01*
X147742219Y-96791040D02*
X146742219Y-96791040D01*
X146742219Y-96791040D02*
X146742219Y-96410088D01*
X146742219Y-96410088D02*
X146789838Y-96314850D01*
X146789838Y-96314850D02*
X146837457Y-96267231D01*
X146837457Y-96267231D02*
X146932695Y-96219612D01*
X146932695Y-96219612D02*
X147075552Y-96219612D01*
X147075552Y-96219612D02*
X147170790Y-96267231D01*
X147170790Y-96267231D02*
X147218409Y-96314850D01*
X147218409Y-96314850D02*
X147266028Y-96410088D01*
X147266028Y-96410088D02*
X147266028Y-96791040D01*
X146742219Y-95886278D02*
X147742219Y-95648183D01*
X147742219Y-95648183D02*
X147027933Y-95457707D01*
X147027933Y-95457707D02*
X147742219Y-95267231D01*
X147742219Y-95267231D02*
X146742219Y-95029136D01*
X147742219Y-94076755D02*
X147266028Y-94410088D01*
X147742219Y-94648183D02*
X146742219Y-94648183D01*
X146742219Y-94648183D02*
X146742219Y-94267231D01*
X146742219Y-94267231D02*
X146789838Y-94171993D01*
X146789838Y-94171993D02*
X146837457Y-94124374D01*
X146837457Y-94124374D02*
X146932695Y-94076755D01*
X146932695Y-94076755D02*
X147075552Y-94076755D01*
X147075552Y-94076755D02*
X147170790Y-94124374D01*
X147170790Y-94124374D02*
X147218409Y-94171993D01*
X147218409Y-94171993D02*
X147266028Y-94267231D01*
X147266028Y-94267231D02*
X147266028Y-94648183D01*
D13*
X132754510Y-70800828D02*
X132754510Y-69300828D01*
X132754510Y-69300828D02*
X133325939Y-69300828D01*
X133325939Y-69300828D02*
X133468796Y-69372257D01*
X133468796Y-69372257D02*
X133540225Y-69443685D01*
X133540225Y-69443685D02*
X133611653Y-69586542D01*
X133611653Y-69586542D02*
X133611653Y-69800828D01*
X133611653Y-69800828D02*
X133540225Y-69943685D01*
X133540225Y-69943685D02*
X133468796Y-70015114D01*
X133468796Y-70015114D02*
X133325939Y-70086542D01*
X133325939Y-70086542D02*
X132754510Y-70086542D01*
X134111653Y-69300828D02*
X134468796Y-70800828D01*
X134468796Y-70800828D02*
X134754510Y-69729400D01*
X134754510Y-69729400D02*
X135040225Y-70800828D01*
X135040225Y-70800828D02*
X135397368Y-69300828D01*
X136825939Y-70800828D02*
X136325939Y-70086542D01*
X135968796Y-70800828D02*
X135968796Y-69300828D01*
X135968796Y-69300828D02*
X136540225Y-69300828D01*
X136540225Y-69300828D02*
X136683082Y-69372257D01*
X136683082Y-69372257D02*
X136754511Y-69443685D01*
X136754511Y-69443685D02*
X136825939Y-69586542D01*
X136825939Y-69586542D02*
X136825939Y-69800828D01*
X136825939Y-69800828D02*
X136754511Y-69943685D01*
X136754511Y-69943685D02*
X136683082Y-70015114D01*
X136683082Y-70015114D02*
X136540225Y-70086542D01*
X136540225Y-70086542D02*
X135968796Y-70086542D01*
D14*
X132979580Y-126242857D02*
X133027200Y-126290476D01*
X133027200Y-126290476D02*
X133074819Y-126433333D01*
X133074819Y-126433333D02*
X133074819Y-126528571D01*
X133074819Y-126528571D02*
X133027200Y-126671428D01*
X133027200Y-126671428D02*
X132931961Y-126766666D01*
X132931961Y-126766666D02*
X132836723Y-126814285D01*
X132836723Y-126814285D02*
X132646247Y-126861904D01*
X132646247Y-126861904D02*
X132503390Y-126861904D01*
X132503390Y-126861904D02*
X132312914Y-126814285D01*
X132312914Y-126814285D02*
X132217676Y-126766666D01*
X132217676Y-126766666D02*
X132122438Y-126671428D01*
X132122438Y-126671428D02*
X132074819Y-126528571D01*
X132074819Y-126528571D02*
X132074819Y-126433333D01*
X132074819Y-126433333D02*
X132122438Y-126290476D01*
X132122438Y-126290476D02*
X132170057Y-126242857D01*
X133074819Y-125290476D02*
X133074819Y-125861904D01*
X133074819Y-125576190D02*
X132074819Y-125576190D01*
X132074819Y-125576190D02*
X132217676Y-125671428D01*
X132217676Y-125671428D02*
X132312914Y-125766666D01*
X132312914Y-125766666D02*
X132360533Y-125861904D01*
X132074819Y-124957142D02*
X132074819Y-124290476D01*
X132074819Y-124290476D02*
X133074819Y-124719047D01*
X136748472Y-122809173D02*
X136748472Y-122876517D01*
X136748472Y-122876517D02*
X136681128Y-123011204D01*
X136681128Y-123011204D02*
X136613785Y-123078547D01*
X136613785Y-123078547D02*
X136479098Y-123145891D01*
X136479098Y-123145891D02*
X136344411Y-123145891D01*
X136344411Y-123145891D02*
X136243396Y-123112219D01*
X136243396Y-123112219D02*
X136075037Y-123011204D01*
X136075037Y-123011204D02*
X135974022Y-122910189D01*
X135974022Y-122910189D02*
X135873006Y-122741830D01*
X135873006Y-122741830D02*
X135839335Y-122640815D01*
X135839335Y-122640815D02*
X135839335Y-122506128D01*
X135839335Y-122506128D02*
X135906678Y-122371441D01*
X135906678Y-122371441D02*
X135974022Y-122304097D01*
X135974022Y-122304097D02*
X136108709Y-122236754D01*
X136108709Y-122236754D02*
X136176052Y-122236754D01*
X137152533Y-122539799D02*
X137287220Y-122405112D01*
X137287220Y-122405112D02*
X137320892Y-122304097D01*
X137320892Y-122304097D02*
X137320892Y-122236754D01*
X137320892Y-122236754D02*
X137287220Y-122068395D01*
X137287220Y-122068395D02*
X137186205Y-121900036D01*
X137186205Y-121900036D02*
X136916831Y-121630662D01*
X136916831Y-121630662D02*
X136815815Y-121596990D01*
X136815815Y-121596990D02*
X136748472Y-121596990D01*
X136748472Y-121596990D02*
X136647457Y-121630662D01*
X136647457Y-121630662D02*
X136512770Y-121765349D01*
X136512770Y-121765349D02*
X136479098Y-121866364D01*
X136479098Y-121866364D02*
X136479098Y-121933708D01*
X136479098Y-121933708D02*
X136512770Y-122034723D01*
X136512770Y-122034723D02*
X136681128Y-122203082D01*
X136681128Y-122203082D02*
X136782144Y-122236754D01*
X136782144Y-122236754D02*
X136849487Y-122236754D01*
X136849487Y-122236754D02*
X136950502Y-122203082D01*
X136950502Y-122203082D02*
X137085189Y-122068395D01*
X137085189Y-122068395D02*
X137118861Y-121967380D01*
X137118861Y-121967380D02*
X137118861Y-121900036D01*
X137118861Y-121900036D02*
X137085189Y-121799021D01*
X120708333Y-83459580D02*
X120660714Y-83507200D01*
X120660714Y-83507200D02*
X120517857Y-83554819D01*
X120517857Y-83554819D02*
X120422619Y-83554819D01*
X120422619Y-83554819D02*
X120279762Y-83507200D01*
X120279762Y-83507200D02*
X120184524Y-83411961D01*
X120184524Y-83411961D02*
X120136905Y-83316723D01*
X120136905Y-83316723D02*
X120089286Y-83126247D01*
X120089286Y-83126247D02*
X120089286Y-82983390D01*
X120089286Y-82983390D02*
X120136905Y-82792914D01*
X120136905Y-82792914D02*
X120184524Y-82697676D01*
X120184524Y-82697676D02*
X120279762Y-82602438D01*
X120279762Y-82602438D02*
X120422619Y-82554819D01*
X120422619Y-82554819D02*
X120517857Y-82554819D01*
X120517857Y-82554819D02*
X120660714Y-82602438D01*
X120660714Y-82602438D02*
X120708333Y-82650057D01*
X121565476Y-82554819D02*
X121375000Y-82554819D01*
X121375000Y-82554819D02*
X121279762Y-82602438D01*
X121279762Y-82602438D02*
X121232143Y-82650057D01*
X121232143Y-82650057D02*
X121136905Y-82792914D01*
X121136905Y-82792914D02*
X121089286Y-82983390D01*
X121089286Y-82983390D02*
X121089286Y-83364342D01*
X121089286Y-83364342D02*
X121136905Y-83459580D01*
X121136905Y-83459580D02*
X121184524Y-83507200D01*
X121184524Y-83507200D02*
X121279762Y-83554819D01*
X121279762Y-83554819D02*
X121470238Y-83554819D01*
X121470238Y-83554819D02*
X121565476Y-83507200D01*
X121565476Y-83507200D02*
X121613095Y-83459580D01*
X121613095Y-83459580D02*
X121660714Y-83364342D01*
X121660714Y-83364342D02*
X121660714Y-83126247D01*
X121660714Y-83126247D02*
X121613095Y-83031009D01*
X121613095Y-83031009D02*
X121565476Y-82983390D01*
X121565476Y-82983390D02*
X121470238Y-82935771D01*
X121470238Y-82935771D02*
X121279762Y-82935771D01*
X121279762Y-82935771D02*
X121184524Y-82983390D01*
X121184524Y-82983390D02*
X121136905Y-83031009D01*
X121136905Y-83031009D02*
X121089286Y-83126247D01*
X116754819Y-117061904D02*
X117564342Y-117061904D01*
X117564342Y-117061904D02*
X117659580Y-117014285D01*
X117659580Y-117014285D02*
X117707200Y-116966666D01*
X117707200Y-116966666D02*
X117754819Y-116871428D01*
X117754819Y-116871428D02*
X117754819Y-116680952D01*
X117754819Y-116680952D02*
X117707200Y-116585714D01*
X117707200Y-116585714D02*
X117659580Y-116538095D01*
X117659580Y-116538095D02*
X117564342Y-116490476D01*
X117564342Y-116490476D02*
X116754819Y-116490476D01*
X116754819Y-116109523D02*
X116754819Y-115490476D01*
X116754819Y-115490476D02*
X117135771Y-115823809D01*
X117135771Y-115823809D02*
X117135771Y-115680952D01*
X117135771Y-115680952D02*
X117183390Y-115585714D01*
X117183390Y-115585714D02*
X117231009Y-115538095D01*
X117231009Y-115538095D02*
X117326247Y-115490476D01*
X117326247Y-115490476D02*
X117564342Y-115490476D01*
X117564342Y-115490476D02*
X117659580Y-115538095D01*
X117659580Y-115538095D02*
X117707200Y-115585714D01*
X117707200Y-115585714D02*
X117754819Y-115680952D01*
X117754819Y-115680952D02*
X117754819Y-115966666D01*
X117754819Y-115966666D02*
X117707200Y-116061904D01*
X117707200Y-116061904D02*
X117659580Y-116109523D01*
X119783333Y-79259580D02*
X119735714Y-79307200D01*
X119735714Y-79307200D02*
X119592857Y-79354819D01*
X119592857Y-79354819D02*
X119497619Y-79354819D01*
X119497619Y-79354819D02*
X119354762Y-79307200D01*
X119354762Y-79307200D02*
X119259524Y-79211961D01*
X119259524Y-79211961D02*
X119211905Y-79116723D01*
X119211905Y-79116723D02*
X119164286Y-78926247D01*
X119164286Y-78926247D02*
X119164286Y-78783390D01*
X119164286Y-78783390D02*
X119211905Y-78592914D01*
X119211905Y-78592914D02*
X119259524Y-78497676D01*
X119259524Y-78497676D02*
X119354762Y-78402438D01*
X119354762Y-78402438D02*
X119497619Y-78354819D01*
X119497619Y-78354819D02*
X119592857Y-78354819D01*
X119592857Y-78354819D02*
X119735714Y-78402438D01*
X119735714Y-78402438D02*
X119783333Y-78450057D01*
X120688095Y-78354819D02*
X120211905Y-78354819D01*
X120211905Y-78354819D02*
X120164286Y-78831009D01*
X120164286Y-78831009D02*
X120211905Y-78783390D01*
X120211905Y-78783390D02*
X120307143Y-78735771D01*
X120307143Y-78735771D02*
X120545238Y-78735771D01*
X120545238Y-78735771D02*
X120640476Y-78783390D01*
X120640476Y-78783390D02*
X120688095Y-78831009D01*
X120688095Y-78831009D02*
X120735714Y-78926247D01*
X120735714Y-78926247D02*
X120735714Y-79164342D01*
X120735714Y-79164342D02*
X120688095Y-79259580D01*
X120688095Y-79259580D02*
X120640476Y-79307200D01*
X120640476Y-79307200D02*
X120545238Y-79354819D01*
X120545238Y-79354819D02*
X120307143Y-79354819D01*
X120307143Y-79354819D02*
X120211905Y-79307200D01*
X120211905Y-79307200D02*
X120164286Y-79259580D01*
X114434580Y-114054166D02*
X114482200Y-114101785D01*
X114482200Y-114101785D02*
X114529819Y-114244642D01*
X114529819Y-114244642D02*
X114529819Y-114339880D01*
X114529819Y-114339880D02*
X114482200Y-114482737D01*
X114482200Y-114482737D02*
X114386961Y-114577975D01*
X114386961Y-114577975D02*
X114291723Y-114625594D01*
X114291723Y-114625594D02*
X114101247Y-114673213D01*
X114101247Y-114673213D02*
X113958390Y-114673213D01*
X113958390Y-114673213D02*
X113767914Y-114625594D01*
X113767914Y-114625594D02*
X113672676Y-114577975D01*
X113672676Y-114577975D02*
X113577438Y-114482737D01*
X113577438Y-114482737D02*
X113529819Y-114339880D01*
X113529819Y-114339880D02*
X113529819Y-114244642D01*
X113529819Y-114244642D02*
X113577438Y-114101785D01*
X113577438Y-114101785D02*
X113625057Y-114054166D01*
X113529819Y-113720832D02*
X113529819Y-113054166D01*
X113529819Y-113054166D02*
X114529819Y-113482737D01*
X123446666Y-137534819D02*
X123446666Y-138249104D01*
X123446666Y-138249104D02*
X123399047Y-138391961D01*
X123399047Y-138391961D02*
X123303809Y-138487200D01*
X123303809Y-138487200D02*
X123160952Y-138534819D01*
X123160952Y-138534819D02*
X123065714Y-138534819D01*
X123970476Y-138534819D02*
X124160952Y-138534819D01*
X124160952Y-138534819D02*
X124256190Y-138487200D01*
X124256190Y-138487200D02*
X124303809Y-138439580D01*
X124303809Y-138439580D02*
X124399047Y-138296723D01*
X124399047Y-138296723D02*
X124446666Y-138106247D01*
X124446666Y-138106247D02*
X124446666Y-137725295D01*
X124446666Y-137725295D02*
X124399047Y-137630057D01*
X124399047Y-137630057D02*
X124351428Y-137582438D01*
X124351428Y-137582438D02*
X124256190Y-137534819D01*
X124256190Y-137534819D02*
X124065714Y-137534819D01*
X124065714Y-137534819D02*
X123970476Y-137582438D01*
X123970476Y-137582438D02*
X123922857Y-137630057D01*
X123922857Y-137630057D02*
X123875238Y-137725295D01*
X123875238Y-137725295D02*
X123875238Y-137963390D01*
X123875238Y-137963390D02*
X123922857Y-138058628D01*
X123922857Y-138058628D02*
X123970476Y-138106247D01*
X123970476Y-138106247D02*
X124065714Y-138153866D01*
X124065714Y-138153866D02*
X124256190Y-138153866D01*
X124256190Y-138153866D02*
X124351428Y-138106247D01*
X124351428Y-138106247D02*
X124399047Y-138058628D01*
X124399047Y-138058628D02*
X124446666Y-137963390D01*
X175563095Y-124854819D02*
X175563095Y-125664342D01*
X175563095Y-125664342D02*
X175610714Y-125759580D01*
X175610714Y-125759580D02*
X175658333Y-125807200D01*
X175658333Y-125807200D02*
X175753571Y-125854819D01*
X175753571Y-125854819D02*
X175944047Y-125854819D01*
X175944047Y-125854819D02*
X176039285Y-125807200D01*
X176039285Y-125807200D02*
X176086904Y-125759580D01*
X176086904Y-125759580D02*
X176134523Y-125664342D01*
X176134523Y-125664342D02*
X176134523Y-124854819D01*
X177039285Y-124854819D02*
X176848809Y-124854819D01*
X176848809Y-124854819D02*
X176753571Y-124902438D01*
X176753571Y-124902438D02*
X176705952Y-124950057D01*
X176705952Y-124950057D02*
X176610714Y-125092914D01*
X176610714Y-125092914D02*
X176563095Y-125283390D01*
X176563095Y-125283390D02*
X176563095Y-125664342D01*
X176563095Y-125664342D02*
X176610714Y-125759580D01*
X176610714Y-125759580D02*
X176658333Y-125807200D01*
X176658333Y-125807200D02*
X176753571Y-125854819D01*
X176753571Y-125854819D02*
X176944047Y-125854819D01*
X176944047Y-125854819D02*
X177039285Y-125807200D01*
X177039285Y-125807200D02*
X177086904Y-125759580D01*
X177086904Y-125759580D02*
X177134523Y-125664342D01*
X177134523Y-125664342D02*
X177134523Y-125426247D01*
X177134523Y-125426247D02*
X177086904Y-125331009D01*
X177086904Y-125331009D02*
X177039285Y-125283390D01*
X177039285Y-125283390D02*
X176944047Y-125235771D01*
X176944047Y-125235771D02*
X176753571Y-125235771D01*
X176753571Y-125235771D02*
X176658333Y-125283390D01*
X176658333Y-125283390D02*
X176610714Y-125331009D01*
X176610714Y-125331009D02*
X176563095Y-125426247D01*
X114274819Y-88573333D02*
X114989104Y-88573333D01*
X114989104Y-88573333D02*
X115131961Y-88620952D01*
X115131961Y-88620952D02*
X115227200Y-88716190D01*
X115227200Y-88716190D02*
X115274819Y-88859047D01*
X115274819Y-88859047D02*
X115274819Y-88954285D01*
X114274819Y-88192380D02*
X114274819Y-87573333D01*
X114274819Y-87573333D02*
X114655771Y-87906666D01*
X114655771Y-87906666D02*
X114655771Y-87763809D01*
X114655771Y-87763809D02*
X114703390Y-87668571D01*
X114703390Y-87668571D02*
X114751009Y-87620952D01*
X114751009Y-87620952D02*
X114846247Y-87573333D01*
X114846247Y-87573333D02*
X115084342Y-87573333D01*
X115084342Y-87573333D02*
X115179580Y-87620952D01*
X115179580Y-87620952D02*
X115227200Y-87668571D01*
X115227200Y-87668571D02*
X115274819Y-87763809D01*
X115274819Y-87763809D02*
X115274819Y-88049523D01*
X115274819Y-88049523D02*
X115227200Y-88144761D01*
X115227200Y-88144761D02*
X115179580Y-88192380D01*
X126538095Y-64829819D02*
X126538095Y-63829819D01*
X126538095Y-64306009D02*
X127109523Y-64306009D01*
X127109523Y-64829819D02*
X127109523Y-63829819D01*
X128109523Y-64829819D02*
X127538095Y-64829819D01*
X127823809Y-64829819D02*
X127823809Y-63829819D01*
X127823809Y-63829819D02*
X127728571Y-63972676D01*
X127728571Y-63972676D02*
X127633333Y-64067914D01*
X127633333Y-64067914D02*
X127538095Y-64115533D01*
X164129819Y-96917857D02*
X163653628Y-97251190D01*
X164129819Y-97489285D02*
X163129819Y-97489285D01*
X163129819Y-97489285D02*
X163129819Y-97108333D01*
X163129819Y-97108333D02*
X163177438Y-97013095D01*
X163177438Y-97013095D02*
X163225057Y-96965476D01*
X163225057Y-96965476D02*
X163320295Y-96917857D01*
X163320295Y-96917857D02*
X163463152Y-96917857D01*
X163463152Y-96917857D02*
X163558390Y-96965476D01*
X163558390Y-96965476D02*
X163606009Y-97013095D01*
X163606009Y-97013095D02*
X163653628Y-97108333D01*
X163653628Y-97108333D02*
X163653628Y-97489285D01*
X164129819Y-95965476D02*
X164129819Y-96536904D01*
X164129819Y-96251190D02*
X163129819Y-96251190D01*
X163129819Y-96251190D02*
X163272676Y-96346428D01*
X163272676Y-96346428D02*
X163367914Y-96441666D01*
X163367914Y-96441666D02*
X163415533Y-96536904D01*
X163129819Y-95632142D02*
X163129819Y-95013095D01*
X163129819Y-95013095D02*
X163510771Y-95346428D01*
X163510771Y-95346428D02*
X163510771Y-95203571D01*
X163510771Y-95203571D02*
X163558390Y-95108333D01*
X163558390Y-95108333D02*
X163606009Y-95060714D01*
X163606009Y-95060714D02*
X163701247Y-95013095D01*
X163701247Y-95013095D02*
X163939342Y-95013095D01*
X163939342Y-95013095D02*
X164034580Y-95060714D01*
X164034580Y-95060714D02*
X164082200Y-95108333D01*
X164082200Y-95108333D02*
X164129819Y-95203571D01*
X164129819Y-95203571D02*
X164129819Y-95489285D01*
X164129819Y-95489285D02*
X164082200Y-95584523D01*
X164082200Y-95584523D02*
X164034580Y-95632142D01*
X131904819Y-100533333D02*
X132619104Y-100533333D01*
X132619104Y-100533333D02*
X132761961Y-100580952D01*
X132761961Y-100580952D02*
X132857200Y-100676190D01*
X132857200Y-100676190D02*
X132904819Y-100819047D01*
X132904819Y-100819047D02*
X132904819Y-100914285D01*
X131904819Y-99628571D02*
X131904819Y-99819047D01*
X131904819Y-99819047D02*
X131952438Y-99914285D01*
X131952438Y-99914285D02*
X132000057Y-99961904D01*
X132000057Y-99961904D02*
X132142914Y-100057142D01*
X132142914Y-100057142D02*
X132333390Y-100104761D01*
X132333390Y-100104761D02*
X132714342Y-100104761D01*
X132714342Y-100104761D02*
X132809580Y-100057142D01*
X132809580Y-100057142D02*
X132857200Y-100009523D01*
X132857200Y-100009523D02*
X132904819Y-99914285D01*
X132904819Y-99914285D02*
X132904819Y-99723809D01*
X132904819Y-99723809D02*
X132857200Y-99628571D01*
X132857200Y-99628571D02*
X132809580Y-99580952D01*
X132809580Y-99580952D02*
X132714342Y-99533333D01*
X132714342Y-99533333D02*
X132476247Y-99533333D01*
X132476247Y-99533333D02*
X132381009Y-99580952D01*
X132381009Y-99580952D02*
X132333390Y-99628571D01*
X132333390Y-99628571D02*
X132285771Y-99723809D01*
X132285771Y-99723809D02*
X132285771Y-99914285D01*
X132285771Y-99914285D02*
X132333390Y-100009523D01*
X132333390Y-100009523D02*
X132381009Y-100057142D01*
X132381009Y-100057142D02*
X132476247Y-100104761D01*
X139038095Y-92754819D02*
X139038095Y-93564342D01*
X139038095Y-93564342D02*
X139085714Y-93659580D01*
X139085714Y-93659580D02*
X139133333Y-93707200D01*
X139133333Y-93707200D02*
X139228571Y-93754819D01*
X139228571Y-93754819D02*
X139419047Y-93754819D01*
X139419047Y-93754819D02*
X139514285Y-93707200D01*
X139514285Y-93707200D02*
X139561904Y-93659580D01*
X139561904Y-93659580D02*
X139609523Y-93564342D01*
X139609523Y-93564342D02*
X139609523Y-92754819D01*
X140038095Y-92850057D02*
X140085714Y-92802438D01*
X140085714Y-92802438D02*
X140180952Y-92754819D01*
X140180952Y-92754819D02*
X140419047Y-92754819D01*
X140419047Y-92754819D02*
X140514285Y-92802438D01*
X140514285Y-92802438D02*
X140561904Y-92850057D01*
X140561904Y-92850057D02*
X140609523Y-92945295D01*
X140609523Y-92945295D02*
X140609523Y-93040533D01*
X140609523Y-93040533D02*
X140561904Y-93183390D01*
X140561904Y-93183390D02*
X139990476Y-93754819D01*
X139990476Y-93754819D02*
X140609523Y-93754819D01*
X113974819Y-107993333D02*
X114689104Y-107993333D01*
X114689104Y-107993333D02*
X114831961Y-108040952D01*
X114831961Y-108040952D02*
X114927200Y-108136190D01*
X114927200Y-108136190D02*
X114974819Y-108279047D01*
X114974819Y-108279047D02*
X114974819Y-108374285D01*
X114308152Y-107088571D02*
X114974819Y-107088571D01*
X113927200Y-107326666D02*
X114641485Y-107564761D01*
X114641485Y-107564761D02*
X114641485Y-106945714D01*
X144839579Y-137680357D02*
X144887199Y-137727976D01*
X144887199Y-137727976D02*
X144934818Y-137870833D01*
X144934818Y-137870833D02*
X144934818Y-137966071D01*
X144934818Y-137966071D02*
X144887199Y-138108928D01*
X144887199Y-138108928D02*
X144791960Y-138204166D01*
X144791960Y-138204166D02*
X144696722Y-138251785D01*
X144696722Y-138251785D02*
X144506246Y-138299404D01*
X144506246Y-138299404D02*
X144363389Y-138299404D01*
X144363389Y-138299404D02*
X144172913Y-138251785D01*
X144172913Y-138251785D02*
X144077675Y-138204166D01*
X144077675Y-138204166D02*
X143982437Y-138108928D01*
X143982437Y-138108928D02*
X143934818Y-137966071D01*
X143934818Y-137966071D02*
X143934818Y-137870833D01*
X143934818Y-137870833D02*
X143982437Y-137727976D01*
X143982437Y-137727976D02*
X144030056Y-137680357D01*
X144934818Y-136727976D02*
X144934818Y-137299404D01*
X144934818Y-137013690D02*
X143934818Y-137013690D01*
X143934818Y-137013690D02*
X144077675Y-137108928D01*
X144077675Y-137108928D02*
X144172913Y-137204166D01*
X144172913Y-137204166D02*
X144220532Y-137299404D01*
X144268151Y-135870833D02*
X144934818Y-135870833D01*
X143887199Y-136108928D02*
X144601484Y-136347023D01*
X144601484Y-136347023D02*
X144601484Y-135727976D01*
X163257142Y-105479819D02*
X162923809Y-105003628D01*
X162685714Y-105479819D02*
X162685714Y-104479819D01*
X162685714Y-104479819D02*
X163066666Y-104479819D01*
X163066666Y-104479819D02*
X163161904Y-104527438D01*
X163161904Y-104527438D02*
X163209523Y-104575057D01*
X163209523Y-104575057D02*
X163257142Y-104670295D01*
X163257142Y-104670295D02*
X163257142Y-104813152D01*
X163257142Y-104813152D02*
X163209523Y-104908390D01*
X163209523Y-104908390D02*
X163161904Y-104956009D01*
X163161904Y-104956009D02*
X163066666Y-105003628D01*
X163066666Y-105003628D02*
X162685714Y-105003628D01*
X164209523Y-105479819D02*
X163638095Y-105479819D01*
X163923809Y-105479819D02*
X163923809Y-104479819D01*
X163923809Y-104479819D02*
X163828571Y-104622676D01*
X163828571Y-104622676D02*
X163733333Y-104717914D01*
X163733333Y-104717914D02*
X163638095Y-104765533D01*
X165066666Y-104813152D02*
X165066666Y-105479819D01*
X164828571Y-104432200D02*
X164590476Y-105146485D01*
X164590476Y-105146485D02*
X165209523Y-105146485D01*
X175013095Y-98179819D02*
X175013095Y-98989342D01*
X175013095Y-98989342D02*
X175060714Y-99084580D01*
X175060714Y-99084580D02*
X175108333Y-99132200D01*
X175108333Y-99132200D02*
X175203571Y-99179819D01*
X175203571Y-99179819D02*
X175394047Y-99179819D01*
X175394047Y-99179819D02*
X175489285Y-99132200D01*
X175489285Y-99132200D02*
X175536904Y-99084580D01*
X175536904Y-99084580D02*
X175584523Y-98989342D01*
X175584523Y-98989342D02*
X175584523Y-98179819D01*
X176203571Y-98608390D02*
X176108333Y-98560771D01*
X176108333Y-98560771D02*
X176060714Y-98513152D01*
X176060714Y-98513152D02*
X176013095Y-98417914D01*
X176013095Y-98417914D02*
X176013095Y-98370295D01*
X176013095Y-98370295D02*
X176060714Y-98275057D01*
X176060714Y-98275057D02*
X176108333Y-98227438D01*
X176108333Y-98227438D02*
X176203571Y-98179819D01*
X176203571Y-98179819D02*
X176394047Y-98179819D01*
X176394047Y-98179819D02*
X176489285Y-98227438D01*
X176489285Y-98227438D02*
X176536904Y-98275057D01*
X176536904Y-98275057D02*
X176584523Y-98370295D01*
X176584523Y-98370295D02*
X176584523Y-98417914D01*
X176584523Y-98417914D02*
X176536904Y-98513152D01*
X176536904Y-98513152D02*
X176489285Y-98560771D01*
X176489285Y-98560771D02*
X176394047Y-98608390D01*
X176394047Y-98608390D02*
X176203571Y-98608390D01*
X176203571Y-98608390D02*
X176108333Y-98656009D01*
X176108333Y-98656009D02*
X176060714Y-98703628D01*
X176060714Y-98703628D02*
X176013095Y-98798866D01*
X176013095Y-98798866D02*
X176013095Y-98989342D01*
X176013095Y-98989342D02*
X176060714Y-99084580D01*
X176060714Y-99084580D02*
X176108333Y-99132200D01*
X176108333Y-99132200D02*
X176203571Y-99179819D01*
X176203571Y-99179819D02*
X176394047Y-99179819D01*
X176394047Y-99179819D02*
X176489285Y-99132200D01*
X176489285Y-99132200D02*
X176536904Y-99084580D01*
X176536904Y-99084580D02*
X176584523Y-98989342D01*
X176584523Y-98989342D02*
X176584523Y-98798866D01*
X176584523Y-98798866D02*
X176536904Y-98703628D01*
X176536904Y-98703628D02*
X176489285Y-98656009D01*
X176489285Y-98656009D02*
X176394047Y-98608390D01*
X152264819Y-146133333D02*
X152979104Y-146133333D01*
X152979104Y-146133333D02*
X153121961Y-146180952D01*
X153121961Y-146180952D02*
X153217200Y-146276190D01*
X153217200Y-146276190D02*
X153264819Y-146419047D01*
X153264819Y-146419047D02*
X153264819Y-146514285D01*
X152264819Y-145180952D02*
X152264819Y-145657142D01*
X152264819Y-145657142D02*
X152741009Y-145704761D01*
X152741009Y-145704761D02*
X152693390Y-145657142D01*
X152693390Y-145657142D02*
X152645771Y-145561904D01*
X152645771Y-145561904D02*
X152645771Y-145323809D01*
X152645771Y-145323809D02*
X152693390Y-145228571D01*
X152693390Y-145228571D02*
X152741009Y-145180952D01*
X152741009Y-145180952D02*
X152836247Y-145133333D01*
X152836247Y-145133333D02*
X153074342Y-145133333D01*
X153074342Y-145133333D02*
X153169580Y-145180952D01*
X153169580Y-145180952D02*
X153217200Y-145228571D01*
X153217200Y-145228571D02*
X153264819Y-145323809D01*
X153264819Y-145323809D02*
X153264819Y-145561904D01*
X153264819Y-145561904D02*
X153217200Y-145657142D01*
X153217200Y-145657142D02*
X153169580Y-145704761D01*
X126207142Y-98254819D02*
X125873809Y-97778628D01*
X125635714Y-98254819D02*
X125635714Y-97254819D01*
X125635714Y-97254819D02*
X126016666Y-97254819D01*
X126016666Y-97254819D02*
X126111904Y-97302438D01*
X126111904Y-97302438D02*
X126159523Y-97350057D01*
X126159523Y-97350057D02*
X126207142Y-97445295D01*
X126207142Y-97445295D02*
X126207142Y-97588152D01*
X126207142Y-97588152D02*
X126159523Y-97683390D01*
X126159523Y-97683390D02*
X126111904Y-97731009D01*
X126111904Y-97731009D02*
X126016666Y-97778628D01*
X126016666Y-97778628D02*
X125635714Y-97778628D01*
X126588095Y-97350057D02*
X126635714Y-97302438D01*
X126635714Y-97302438D02*
X126730952Y-97254819D01*
X126730952Y-97254819D02*
X126969047Y-97254819D01*
X126969047Y-97254819D02*
X127064285Y-97302438D01*
X127064285Y-97302438D02*
X127111904Y-97350057D01*
X127111904Y-97350057D02*
X127159523Y-97445295D01*
X127159523Y-97445295D02*
X127159523Y-97540533D01*
X127159523Y-97540533D02*
X127111904Y-97683390D01*
X127111904Y-97683390D02*
X126540476Y-98254819D01*
X126540476Y-98254819D02*
X127159523Y-98254819D01*
X127778571Y-97254819D02*
X127873809Y-97254819D01*
X127873809Y-97254819D02*
X127969047Y-97302438D01*
X127969047Y-97302438D02*
X128016666Y-97350057D01*
X128016666Y-97350057D02*
X128064285Y-97445295D01*
X128064285Y-97445295D02*
X128111904Y-97635771D01*
X128111904Y-97635771D02*
X128111904Y-97873866D01*
X128111904Y-97873866D02*
X128064285Y-98064342D01*
X128064285Y-98064342D02*
X128016666Y-98159580D01*
X128016666Y-98159580D02*
X127969047Y-98207200D01*
X127969047Y-98207200D02*
X127873809Y-98254819D01*
X127873809Y-98254819D02*
X127778571Y-98254819D01*
X127778571Y-98254819D02*
X127683333Y-98207200D01*
X127683333Y-98207200D02*
X127635714Y-98159580D01*
X127635714Y-98159580D02*
X127588095Y-98064342D01*
X127588095Y-98064342D02*
X127540476Y-97873866D01*
X127540476Y-97873866D02*
X127540476Y-97635771D01*
X127540476Y-97635771D02*
X127588095Y-97445295D01*
X127588095Y-97445295D02*
X127635714Y-97350057D01*
X127635714Y-97350057D02*
X127683333Y-97302438D01*
X127683333Y-97302438D02*
X127778571Y-97254819D01*
X145633333Y-72834580D02*
X145585714Y-72882200D01*
X145585714Y-72882200D02*
X145442857Y-72929819D01*
X145442857Y-72929819D02*
X145347619Y-72929819D01*
X145347619Y-72929819D02*
X145204762Y-72882200D01*
X145204762Y-72882200D02*
X145109524Y-72786961D01*
X145109524Y-72786961D02*
X145061905Y-72691723D01*
X145061905Y-72691723D02*
X145014286Y-72501247D01*
X145014286Y-72501247D02*
X145014286Y-72358390D01*
X145014286Y-72358390D02*
X145061905Y-72167914D01*
X145061905Y-72167914D02*
X145109524Y-72072676D01*
X145109524Y-72072676D02*
X145204762Y-71977438D01*
X145204762Y-71977438D02*
X145347619Y-71929819D01*
X145347619Y-71929819D02*
X145442857Y-71929819D01*
X145442857Y-71929819D02*
X145585714Y-71977438D01*
X145585714Y-71977438D02*
X145633333Y-72025057D01*
X146585714Y-72929819D02*
X146014286Y-72929819D01*
X146300000Y-72929819D02*
X146300000Y-71929819D01*
X146300000Y-71929819D02*
X146204762Y-72072676D01*
X146204762Y-72072676D02*
X146109524Y-72167914D01*
X146109524Y-72167914D02*
X146014286Y-72215533D01*
X183154819Y-125839523D02*
X183869104Y-125839523D01*
X183869104Y-125839523D02*
X184011961Y-125887142D01*
X184011961Y-125887142D02*
X184107200Y-125982380D01*
X184107200Y-125982380D02*
X184154819Y-126125237D01*
X184154819Y-126125237D02*
X184154819Y-126220475D01*
X184154819Y-124839523D02*
X184154819Y-125410951D01*
X184154819Y-125125237D02*
X183154819Y-125125237D01*
X183154819Y-125125237D02*
X183297676Y-125220475D01*
X183297676Y-125220475D02*
X183392914Y-125315713D01*
X183392914Y-125315713D02*
X183440533Y-125410951D01*
X183154819Y-124220475D02*
X183154819Y-124125237D01*
X183154819Y-124125237D02*
X183202438Y-124029999D01*
X183202438Y-124029999D02*
X183250057Y-123982380D01*
X183250057Y-123982380D02*
X183345295Y-123934761D01*
X183345295Y-123934761D02*
X183535771Y-123887142D01*
X183535771Y-123887142D02*
X183773866Y-123887142D01*
X183773866Y-123887142D02*
X183964342Y-123934761D01*
X183964342Y-123934761D02*
X184059580Y-123982380D01*
X184059580Y-123982380D02*
X184107200Y-124029999D01*
X184107200Y-124029999D02*
X184154819Y-124125237D01*
X184154819Y-124125237D02*
X184154819Y-124220475D01*
X184154819Y-124220475D02*
X184107200Y-124315713D01*
X184107200Y-124315713D02*
X184059580Y-124363332D01*
X184059580Y-124363332D02*
X183964342Y-124410951D01*
X183964342Y-124410951D02*
X183773866Y-124458570D01*
X183773866Y-124458570D02*
X183535771Y-124458570D01*
X183535771Y-124458570D02*
X183345295Y-124410951D01*
X183345295Y-124410951D02*
X183250057Y-124363332D01*
X183250057Y-124363332D02*
X183202438Y-124315713D01*
X183202438Y-124315713D02*
X183154819Y-124220475D01*
X146787632Y-136996769D02*
X146787632Y-137064113D01*
X146787632Y-137064113D02*
X146720288Y-137198800D01*
X146720288Y-137198800D02*
X146652945Y-137266143D01*
X146652945Y-137266143D02*
X146518258Y-137333487D01*
X146518258Y-137333487D02*
X146383571Y-137333487D01*
X146383571Y-137333487D02*
X146282556Y-137299815D01*
X146282556Y-137299815D02*
X146114197Y-137198800D01*
X146114197Y-137198800D02*
X146013182Y-137097785D01*
X146013182Y-137097785D02*
X145912166Y-136929426D01*
X145912166Y-136929426D02*
X145878495Y-136828411D01*
X145878495Y-136828411D02*
X145878495Y-136693724D01*
X145878495Y-136693724D02*
X145945838Y-136559037D01*
X145945838Y-136559037D02*
X146013182Y-136491693D01*
X146013182Y-136491693D02*
X146147869Y-136424350D01*
X146147869Y-136424350D02*
X146215212Y-136424350D01*
X147528410Y-136390678D02*
X147124349Y-136794739D01*
X147326380Y-136592708D02*
X146619273Y-135885602D01*
X146619273Y-135885602D02*
X146652945Y-136053960D01*
X146652945Y-136053960D02*
X146652945Y-136188647D01*
X146652945Y-136188647D02*
X146619273Y-136289663D01*
X148201846Y-135717243D02*
X147797785Y-136121304D01*
X147999815Y-135919273D02*
X147292708Y-135212166D01*
X147292708Y-135212166D02*
X147326380Y-135380525D01*
X147326380Y-135380525D02*
X147326380Y-135515212D01*
X147326380Y-135515212D02*
X147292708Y-135616227D01*
X134533333Y-88584580D02*
X134485714Y-88632200D01*
X134485714Y-88632200D02*
X134342857Y-88679819D01*
X134342857Y-88679819D02*
X134247619Y-88679819D01*
X134247619Y-88679819D02*
X134104762Y-88632200D01*
X134104762Y-88632200D02*
X134009524Y-88536961D01*
X134009524Y-88536961D02*
X133961905Y-88441723D01*
X133961905Y-88441723D02*
X133914286Y-88251247D01*
X133914286Y-88251247D02*
X133914286Y-88108390D01*
X133914286Y-88108390D02*
X133961905Y-87917914D01*
X133961905Y-87917914D02*
X134009524Y-87822676D01*
X134009524Y-87822676D02*
X134104762Y-87727438D01*
X134104762Y-87727438D02*
X134247619Y-87679819D01*
X134247619Y-87679819D02*
X134342857Y-87679819D01*
X134342857Y-87679819D02*
X134485714Y-87727438D01*
X134485714Y-87727438D02*
X134533333Y-87775057D01*
X134866667Y-87679819D02*
X135485714Y-87679819D01*
X135485714Y-87679819D02*
X135152381Y-88060771D01*
X135152381Y-88060771D02*
X135295238Y-88060771D01*
X135295238Y-88060771D02*
X135390476Y-88108390D01*
X135390476Y-88108390D02*
X135438095Y-88156009D01*
X135438095Y-88156009D02*
X135485714Y-88251247D01*
X135485714Y-88251247D02*
X135485714Y-88489342D01*
X135485714Y-88489342D02*
X135438095Y-88584580D01*
X135438095Y-88584580D02*
X135390476Y-88632200D01*
X135390476Y-88632200D02*
X135295238Y-88679819D01*
X135295238Y-88679819D02*
X135009524Y-88679819D01*
X135009524Y-88679819D02*
X134914286Y-88632200D01*
X134914286Y-88632200D02*
X134866667Y-88584580D01*
X163069642Y-118729819D02*
X162736309Y-118253628D01*
X162498214Y-118729819D02*
X162498214Y-117729819D01*
X162498214Y-117729819D02*
X162879166Y-117729819D01*
X162879166Y-117729819D02*
X162974404Y-117777438D01*
X162974404Y-117777438D02*
X163022023Y-117825057D01*
X163022023Y-117825057D02*
X163069642Y-117920295D01*
X163069642Y-117920295D02*
X163069642Y-118063152D01*
X163069642Y-118063152D02*
X163022023Y-118158390D01*
X163022023Y-118158390D02*
X162974404Y-118206009D01*
X162974404Y-118206009D02*
X162879166Y-118253628D01*
X162879166Y-118253628D02*
X162498214Y-118253628D01*
X164022023Y-118729819D02*
X163450595Y-118729819D01*
X163736309Y-118729819D02*
X163736309Y-117729819D01*
X163736309Y-117729819D02*
X163641071Y-117872676D01*
X163641071Y-117872676D02*
X163545833Y-117967914D01*
X163545833Y-117967914D02*
X163450595Y-118015533D01*
X164974404Y-118729819D02*
X164402976Y-118729819D01*
X164688690Y-118729819D02*
X164688690Y-117729819D01*
X164688690Y-117729819D02*
X164593452Y-117872676D01*
X164593452Y-117872676D02*
X164498214Y-117967914D01*
X164498214Y-117967914D02*
X164402976Y-118015533D01*
X174963095Y-111754819D02*
X174963095Y-112564342D01*
X174963095Y-112564342D02*
X175010714Y-112659580D01*
X175010714Y-112659580D02*
X175058333Y-112707200D01*
X175058333Y-112707200D02*
X175153571Y-112754819D01*
X175153571Y-112754819D02*
X175344047Y-112754819D01*
X175344047Y-112754819D02*
X175439285Y-112707200D01*
X175439285Y-112707200D02*
X175486904Y-112659580D01*
X175486904Y-112659580D02*
X175534523Y-112564342D01*
X175534523Y-112564342D02*
X175534523Y-111754819D01*
X176486904Y-111754819D02*
X176010714Y-111754819D01*
X176010714Y-111754819D02*
X175963095Y-112231009D01*
X175963095Y-112231009D02*
X176010714Y-112183390D01*
X176010714Y-112183390D02*
X176105952Y-112135771D01*
X176105952Y-112135771D02*
X176344047Y-112135771D01*
X176344047Y-112135771D02*
X176439285Y-112183390D01*
X176439285Y-112183390D02*
X176486904Y-112231009D01*
X176486904Y-112231009D02*
X176534523Y-112326247D01*
X176534523Y-112326247D02*
X176534523Y-112564342D01*
X176534523Y-112564342D02*
X176486904Y-112659580D01*
X176486904Y-112659580D02*
X176439285Y-112707200D01*
X176439285Y-112707200D02*
X176344047Y-112754819D01*
X176344047Y-112754819D02*
X176105952Y-112754819D01*
X176105952Y-112754819D02*
X176010714Y-112707200D01*
X176010714Y-112707200D02*
X175963095Y-112659580D01*
X130857142Y-112859580D02*
X130809523Y-112907200D01*
X130809523Y-112907200D02*
X130666666Y-112954819D01*
X130666666Y-112954819D02*
X130571428Y-112954819D01*
X130571428Y-112954819D02*
X130428571Y-112907200D01*
X130428571Y-112907200D02*
X130333333Y-112811961D01*
X130333333Y-112811961D02*
X130285714Y-112716723D01*
X130285714Y-112716723D02*
X130238095Y-112526247D01*
X130238095Y-112526247D02*
X130238095Y-112383390D01*
X130238095Y-112383390D02*
X130285714Y-112192914D01*
X130285714Y-112192914D02*
X130333333Y-112097676D01*
X130333333Y-112097676D02*
X130428571Y-112002438D01*
X130428571Y-112002438D02*
X130571428Y-111954819D01*
X130571428Y-111954819D02*
X130666666Y-111954819D01*
X130666666Y-111954819D02*
X130809523Y-112002438D01*
X130809523Y-112002438D02*
X130857142Y-112050057D01*
X131809523Y-112954819D02*
X131238095Y-112954819D01*
X131523809Y-112954819D02*
X131523809Y-111954819D01*
X131523809Y-111954819D02*
X131428571Y-112097676D01*
X131428571Y-112097676D02*
X131333333Y-112192914D01*
X131333333Y-112192914D02*
X131238095Y-112240533D01*
X132285714Y-112954819D02*
X132476190Y-112954819D01*
X132476190Y-112954819D02*
X132571428Y-112907200D01*
X132571428Y-112907200D02*
X132619047Y-112859580D01*
X132619047Y-112859580D02*
X132714285Y-112716723D01*
X132714285Y-112716723D02*
X132761904Y-112526247D01*
X132761904Y-112526247D02*
X132761904Y-112145295D01*
X132761904Y-112145295D02*
X132714285Y-112050057D01*
X132714285Y-112050057D02*
X132666666Y-112002438D01*
X132666666Y-112002438D02*
X132571428Y-111954819D01*
X132571428Y-111954819D02*
X132380952Y-111954819D01*
X132380952Y-111954819D02*
X132285714Y-112002438D01*
X132285714Y-112002438D02*
X132238095Y-112050057D01*
X132238095Y-112050057D02*
X132190476Y-112145295D01*
X132190476Y-112145295D02*
X132190476Y-112383390D01*
X132190476Y-112383390D02*
X132238095Y-112478628D01*
X132238095Y-112478628D02*
X132285714Y-112526247D01*
X132285714Y-112526247D02*
X132380952Y-112573866D01*
X132380952Y-112573866D02*
X132571428Y-112573866D01*
X132571428Y-112573866D02*
X132666666Y-112526247D01*
X132666666Y-112526247D02*
X132714285Y-112478628D01*
X132714285Y-112478628D02*
X132761904Y-112383390D01*
X128660714Y-98304819D02*
X128660714Y-97304819D01*
X128660714Y-97304819D02*
X128898809Y-97304819D01*
X128898809Y-97304819D02*
X129041666Y-97352438D01*
X129041666Y-97352438D02*
X129136904Y-97447676D01*
X129136904Y-97447676D02*
X129184523Y-97542914D01*
X129184523Y-97542914D02*
X129232142Y-97733390D01*
X129232142Y-97733390D02*
X129232142Y-97876247D01*
X129232142Y-97876247D02*
X129184523Y-98066723D01*
X129184523Y-98066723D02*
X129136904Y-98161961D01*
X129136904Y-98161961D02*
X129041666Y-98257200D01*
X129041666Y-98257200D02*
X128898809Y-98304819D01*
X128898809Y-98304819D02*
X128660714Y-98304819D01*
X130184523Y-98304819D02*
X129613095Y-98304819D01*
X129898809Y-98304819D02*
X129898809Y-97304819D01*
X129898809Y-97304819D02*
X129803571Y-97447676D01*
X129803571Y-97447676D02*
X129708333Y-97542914D01*
X129708333Y-97542914D02*
X129613095Y-97590533D01*
X130803571Y-97304819D02*
X130898809Y-97304819D01*
X130898809Y-97304819D02*
X130994047Y-97352438D01*
X130994047Y-97352438D02*
X131041666Y-97400057D01*
X131041666Y-97400057D02*
X131089285Y-97495295D01*
X131089285Y-97495295D02*
X131136904Y-97685771D01*
X131136904Y-97685771D02*
X131136904Y-97923866D01*
X131136904Y-97923866D02*
X131089285Y-98114342D01*
X131089285Y-98114342D02*
X131041666Y-98209580D01*
X131041666Y-98209580D02*
X130994047Y-98257200D01*
X130994047Y-98257200D02*
X130898809Y-98304819D01*
X130898809Y-98304819D02*
X130803571Y-98304819D01*
X130803571Y-98304819D02*
X130708333Y-98257200D01*
X130708333Y-98257200D02*
X130660714Y-98209580D01*
X130660714Y-98209580D02*
X130613095Y-98114342D01*
X130613095Y-98114342D02*
X130565476Y-97923866D01*
X130565476Y-97923866D02*
X130565476Y-97685771D01*
X130565476Y-97685771D02*
X130613095Y-97495295D01*
X130613095Y-97495295D02*
X130660714Y-97400057D01*
X130660714Y-97400057D02*
X130708333Y-97352438D01*
X130708333Y-97352438D02*
X130803571Y-97304819D01*
X130220833Y-74604819D02*
X129887500Y-74128628D01*
X129649405Y-74604819D02*
X129649405Y-73604819D01*
X129649405Y-73604819D02*
X130030357Y-73604819D01*
X130030357Y-73604819D02*
X130125595Y-73652438D01*
X130125595Y-73652438D02*
X130173214Y-73700057D01*
X130173214Y-73700057D02*
X130220833Y-73795295D01*
X130220833Y-73795295D02*
X130220833Y-73938152D01*
X130220833Y-73938152D02*
X130173214Y-74033390D01*
X130173214Y-74033390D02*
X130125595Y-74081009D01*
X130125595Y-74081009D02*
X130030357Y-74128628D01*
X130030357Y-74128628D02*
X129649405Y-74128628D01*
X131173214Y-74604819D02*
X130601786Y-74604819D01*
X130887500Y-74604819D02*
X130887500Y-73604819D01*
X130887500Y-73604819D02*
X130792262Y-73747676D01*
X130792262Y-73747676D02*
X130697024Y-73842914D01*
X130697024Y-73842914D02*
X130601786Y-73890533D01*
X163069642Y-128829819D02*
X162736309Y-128353628D01*
X162498214Y-128829819D02*
X162498214Y-127829819D01*
X162498214Y-127829819D02*
X162879166Y-127829819D01*
X162879166Y-127829819D02*
X162974404Y-127877438D01*
X162974404Y-127877438D02*
X163022023Y-127925057D01*
X163022023Y-127925057D02*
X163069642Y-128020295D01*
X163069642Y-128020295D02*
X163069642Y-128163152D01*
X163069642Y-128163152D02*
X163022023Y-128258390D01*
X163022023Y-128258390D02*
X162974404Y-128306009D01*
X162974404Y-128306009D02*
X162879166Y-128353628D01*
X162879166Y-128353628D02*
X162498214Y-128353628D01*
X164022023Y-128829819D02*
X163450595Y-128829819D01*
X163736309Y-128829819D02*
X163736309Y-127829819D01*
X163736309Y-127829819D02*
X163641071Y-127972676D01*
X163641071Y-127972676D02*
X163545833Y-128067914D01*
X163545833Y-128067914D02*
X163450595Y-128115533D01*
X164641071Y-127829819D02*
X164736309Y-127829819D01*
X164736309Y-127829819D02*
X164831547Y-127877438D01*
X164831547Y-127877438D02*
X164879166Y-127925057D01*
X164879166Y-127925057D02*
X164926785Y-128020295D01*
X164926785Y-128020295D02*
X164974404Y-128210771D01*
X164974404Y-128210771D02*
X164974404Y-128448866D01*
X164974404Y-128448866D02*
X164926785Y-128639342D01*
X164926785Y-128639342D02*
X164879166Y-128734580D01*
X164879166Y-128734580D02*
X164831547Y-128782200D01*
X164831547Y-128782200D02*
X164736309Y-128829819D01*
X164736309Y-128829819D02*
X164641071Y-128829819D01*
X164641071Y-128829819D02*
X164545833Y-128782200D01*
X164545833Y-128782200D02*
X164498214Y-128734580D01*
X164498214Y-128734580D02*
X164450595Y-128639342D01*
X164450595Y-128639342D02*
X164402976Y-128448866D01*
X164402976Y-128448866D02*
X164402976Y-128210771D01*
X164402976Y-128210771D02*
X164450595Y-128020295D01*
X164450595Y-128020295D02*
X164498214Y-127925057D01*
X164498214Y-127925057D02*
X164545833Y-127877438D01*
X164545833Y-127877438D02*
X164641071Y-127829819D01*
X130608333Y-85759580D02*
X130560714Y-85807200D01*
X130560714Y-85807200D02*
X130417857Y-85854819D01*
X130417857Y-85854819D02*
X130322619Y-85854819D01*
X130322619Y-85854819D02*
X130179762Y-85807200D01*
X130179762Y-85807200D02*
X130084524Y-85711961D01*
X130084524Y-85711961D02*
X130036905Y-85616723D01*
X130036905Y-85616723D02*
X129989286Y-85426247D01*
X129989286Y-85426247D02*
X129989286Y-85283390D01*
X129989286Y-85283390D02*
X130036905Y-85092914D01*
X130036905Y-85092914D02*
X130084524Y-84997676D01*
X130084524Y-84997676D02*
X130179762Y-84902438D01*
X130179762Y-84902438D02*
X130322619Y-84854819D01*
X130322619Y-84854819D02*
X130417857Y-84854819D01*
X130417857Y-84854819D02*
X130560714Y-84902438D01*
X130560714Y-84902438D02*
X130608333Y-84950057D01*
X130989286Y-84950057D02*
X131036905Y-84902438D01*
X131036905Y-84902438D02*
X131132143Y-84854819D01*
X131132143Y-84854819D02*
X131370238Y-84854819D01*
X131370238Y-84854819D02*
X131465476Y-84902438D01*
X131465476Y-84902438D02*
X131513095Y-84950057D01*
X131513095Y-84950057D02*
X131560714Y-85045295D01*
X131560714Y-85045295D02*
X131560714Y-85140533D01*
X131560714Y-85140533D02*
X131513095Y-85283390D01*
X131513095Y-85283390D02*
X130941667Y-85854819D01*
X130941667Y-85854819D02*
X131560714Y-85854819D01*
X114204819Y-107879166D02*
X113728628Y-108212499D01*
X114204819Y-108450594D02*
X113204819Y-108450594D01*
X113204819Y-108450594D02*
X113204819Y-108069642D01*
X113204819Y-108069642D02*
X113252438Y-107974404D01*
X113252438Y-107974404D02*
X113300057Y-107926785D01*
X113300057Y-107926785D02*
X113395295Y-107879166D01*
X113395295Y-107879166D02*
X113538152Y-107879166D01*
X113538152Y-107879166D02*
X113633390Y-107926785D01*
X113633390Y-107926785D02*
X113681009Y-107974404D01*
X113681009Y-107974404D02*
X113728628Y-108069642D01*
X113728628Y-108069642D02*
X113728628Y-108450594D01*
X113538152Y-107022023D02*
X114204819Y-107022023D01*
X113157200Y-107260118D02*
X113871485Y-107498213D01*
X113871485Y-107498213D02*
X113871485Y-106879166D01*
X147706291Y-123950280D02*
X147639204Y-123956149D01*
X147639204Y-123956149D02*
X147499160Y-123900801D01*
X147499160Y-123900801D02*
X147426203Y-123839583D01*
X147426203Y-123839583D02*
X147347377Y-123711278D01*
X147347377Y-123711278D02*
X147335639Y-123577103D01*
X147335639Y-123577103D02*
X147360378Y-123473538D01*
X147360378Y-123473538D02*
X147446336Y-123297016D01*
X147446336Y-123297016D02*
X147538162Y-123187581D01*
X147538162Y-123187581D02*
X147697077Y-123072276D01*
X147697077Y-123072276D02*
X147794773Y-123029929D01*
X147794773Y-123029929D02*
X147928947Y-123018190D01*
X147928947Y-123018190D02*
X148068991Y-123073538D01*
X148068991Y-123073538D02*
X148141948Y-123134756D01*
X148141948Y-123134756D02*
X148220774Y-123263061D01*
X148220774Y-123263061D02*
X148226643Y-123330149D01*
X148374639Y-124635415D02*
X147936900Y-124268108D01*
X148155770Y-124451762D02*
X148798557Y-123685717D01*
X148798557Y-123685717D02*
X148633774Y-123733934D01*
X148633774Y-123733934D02*
X148499599Y-123745673D01*
X148499599Y-123745673D02*
X148396034Y-123720933D01*
X149491645Y-124267287D02*
X149564602Y-124328505D01*
X149564602Y-124328505D02*
X149606949Y-124426201D01*
X149606949Y-124426201D02*
X149612819Y-124493288D01*
X149612819Y-124493288D02*
X149588079Y-124596854D01*
X149588079Y-124596854D02*
X149502122Y-124773376D01*
X149502122Y-124773376D02*
X149349077Y-124955767D01*
X149349077Y-124955767D02*
X149190163Y-125071072D01*
X149190163Y-125071072D02*
X149092467Y-125113419D01*
X149092467Y-125113419D02*
X149025380Y-125119289D01*
X149025380Y-125119289D02*
X148921814Y-125094549D01*
X148921814Y-125094549D02*
X148848857Y-125033331D01*
X148848857Y-125033331D02*
X148806510Y-124935635D01*
X148806510Y-124935635D02*
X148800640Y-124868548D01*
X148800640Y-124868548D02*
X148825380Y-124764982D01*
X148825380Y-124764982D02*
X148911337Y-124588460D01*
X148911337Y-124588460D02*
X149064382Y-124406069D01*
X149064382Y-124406069D02*
X149223296Y-124290764D01*
X149223296Y-124290764D02*
X149320992Y-124248417D01*
X149320992Y-124248417D02*
X149388079Y-124242547D01*
X149388079Y-124242547D02*
X149491645Y-124267287D01*
X139604819Y-137366666D02*
X139128628Y-137699999D01*
X139604819Y-137938094D02*
X138604819Y-137938094D01*
X138604819Y-137938094D02*
X138604819Y-137557142D01*
X138604819Y-137557142D02*
X138652438Y-137461904D01*
X138652438Y-137461904D02*
X138700057Y-137414285D01*
X138700057Y-137414285D02*
X138795295Y-137366666D01*
X138795295Y-137366666D02*
X138938152Y-137366666D01*
X138938152Y-137366666D02*
X139033390Y-137414285D01*
X139033390Y-137414285D02*
X139081009Y-137461904D01*
X139081009Y-137461904D02*
X139128628Y-137557142D01*
X139128628Y-137557142D02*
X139128628Y-137938094D01*
X138604819Y-136461904D02*
X138604819Y-136938094D01*
X138604819Y-136938094D02*
X139081009Y-136985713D01*
X139081009Y-136985713D02*
X139033390Y-136938094D01*
X139033390Y-136938094D02*
X138985771Y-136842856D01*
X138985771Y-136842856D02*
X138985771Y-136604761D01*
X138985771Y-136604761D02*
X139033390Y-136509523D01*
X139033390Y-136509523D02*
X139081009Y-136461904D01*
X139081009Y-136461904D02*
X139176247Y-136414285D01*
X139176247Y-136414285D02*
X139414342Y-136414285D01*
X139414342Y-136414285D02*
X139509580Y-136461904D01*
X139509580Y-136461904D02*
X139557200Y-136509523D01*
X139557200Y-136509523D02*
X139604819Y-136604761D01*
X139604819Y-136604761D02*
X139604819Y-136842856D01*
X139604819Y-136842856D02*
X139557200Y-136938094D01*
X139557200Y-136938094D02*
X139509580Y-136985713D01*
X169558333Y-125529819D02*
X169225000Y-125053628D01*
X168986905Y-125529819D02*
X168986905Y-124529819D01*
X168986905Y-124529819D02*
X169367857Y-124529819D01*
X169367857Y-124529819D02*
X169463095Y-124577438D01*
X169463095Y-124577438D02*
X169510714Y-124625057D01*
X169510714Y-124625057D02*
X169558333Y-124720295D01*
X169558333Y-124720295D02*
X169558333Y-124863152D01*
X169558333Y-124863152D02*
X169510714Y-124958390D01*
X169510714Y-124958390D02*
X169463095Y-125006009D01*
X169463095Y-125006009D02*
X169367857Y-125053628D01*
X169367857Y-125053628D02*
X168986905Y-125053628D01*
X170415476Y-124529819D02*
X170225000Y-124529819D01*
X170225000Y-124529819D02*
X170129762Y-124577438D01*
X170129762Y-124577438D02*
X170082143Y-124625057D01*
X170082143Y-124625057D02*
X169986905Y-124767914D01*
X169986905Y-124767914D02*
X169939286Y-124958390D01*
X169939286Y-124958390D02*
X169939286Y-125339342D01*
X169939286Y-125339342D02*
X169986905Y-125434580D01*
X169986905Y-125434580D02*
X170034524Y-125482200D01*
X170034524Y-125482200D02*
X170129762Y-125529819D01*
X170129762Y-125529819D02*
X170320238Y-125529819D01*
X170320238Y-125529819D02*
X170415476Y-125482200D01*
X170415476Y-125482200D02*
X170463095Y-125434580D01*
X170463095Y-125434580D02*
X170510714Y-125339342D01*
X170510714Y-125339342D02*
X170510714Y-125101247D01*
X170510714Y-125101247D02*
X170463095Y-125006009D01*
X170463095Y-125006009D02*
X170415476Y-124958390D01*
X170415476Y-124958390D02*
X170320238Y-124910771D01*
X170320238Y-124910771D02*
X170129762Y-124910771D01*
X170129762Y-124910771D02*
X170034524Y-124958390D01*
X170034524Y-124958390D02*
X169986905Y-125006009D01*
X169986905Y-125006009D02*
X169939286Y-125101247D01*
X133833333Y-107454819D02*
X133500000Y-106978628D01*
X133261905Y-107454819D02*
X133261905Y-106454819D01*
X133261905Y-106454819D02*
X133642857Y-106454819D01*
X133642857Y-106454819D02*
X133738095Y-106502438D01*
X133738095Y-106502438D02*
X133785714Y-106550057D01*
X133785714Y-106550057D02*
X133833333Y-106645295D01*
X133833333Y-106645295D02*
X133833333Y-106788152D01*
X133833333Y-106788152D02*
X133785714Y-106883390D01*
X133785714Y-106883390D02*
X133738095Y-106931009D01*
X133738095Y-106931009D02*
X133642857Y-106978628D01*
X133642857Y-106978628D02*
X133261905Y-106978628D01*
X134166667Y-106454819D02*
X134785714Y-106454819D01*
X134785714Y-106454819D02*
X134452381Y-106835771D01*
X134452381Y-106835771D02*
X134595238Y-106835771D01*
X134595238Y-106835771D02*
X134690476Y-106883390D01*
X134690476Y-106883390D02*
X134738095Y-106931009D01*
X134738095Y-106931009D02*
X134785714Y-107026247D01*
X134785714Y-107026247D02*
X134785714Y-107264342D01*
X134785714Y-107264342D02*
X134738095Y-107359580D01*
X134738095Y-107359580D02*
X134690476Y-107407200D01*
X134690476Y-107407200D02*
X134595238Y-107454819D01*
X134595238Y-107454819D02*
X134309524Y-107454819D01*
X134309524Y-107454819D02*
X134214286Y-107407200D01*
X134214286Y-107407200D02*
X134166667Y-107359580D01*
X111724405Y-102859819D02*
X111724405Y-101859819D01*
X111724405Y-101859819D02*
X111962500Y-101859819D01*
X111962500Y-101859819D02*
X112105357Y-101907438D01*
X112105357Y-101907438D02*
X112200595Y-102002676D01*
X112200595Y-102002676D02*
X112248214Y-102097914D01*
X112248214Y-102097914D02*
X112295833Y-102288390D01*
X112295833Y-102288390D02*
X112295833Y-102431247D01*
X112295833Y-102431247D02*
X112248214Y-102621723D01*
X112248214Y-102621723D02*
X112200595Y-102716961D01*
X112200595Y-102716961D02*
X112105357Y-102812200D01*
X112105357Y-102812200D02*
X111962500Y-102859819D01*
X111962500Y-102859819D02*
X111724405Y-102859819D01*
X112772024Y-102859819D02*
X112962500Y-102859819D01*
X112962500Y-102859819D02*
X113057738Y-102812200D01*
X113057738Y-102812200D02*
X113105357Y-102764580D01*
X113105357Y-102764580D02*
X113200595Y-102621723D01*
X113200595Y-102621723D02*
X113248214Y-102431247D01*
X113248214Y-102431247D02*
X113248214Y-102050295D01*
X113248214Y-102050295D02*
X113200595Y-101955057D01*
X113200595Y-101955057D02*
X113152976Y-101907438D01*
X113152976Y-101907438D02*
X113057738Y-101859819D01*
X113057738Y-101859819D02*
X112867262Y-101859819D01*
X112867262Y-101859819D02*
X112772024Y-101907438D01*
X112772024Y-101907438D02*
X112724405Y-101955057D01*
X112724405Y-101955057D02*
X112676786Y-102050295D01*
X112676786Y-102050295D02*
X112676786Y-102288390D01*
X112676786Y-102288390D02*
X112724405Y-102383628D01*
X112724405Y-102383628D02*
X112772024Y-102431247D01*
X112772024Y-102431247D02*
X112867262Y-102478866D01*
X112867262Y-102478866D02*
X113057738Y-102478866D01*
X113057738Y-102478866D02*
X113152976Y-102431247D01*
X113152976Y-102431247D02*
X113200595Y-102383628D01*
X113200595Y-102383628D02*
X113248214Y-102288390D01*
X146234819Y-110133333D02*
X146949104Y-110133333D01*
X146949104Y-110133333D02*
X147091961Y-110180952D01*
X147091961Y-110180952D02*
X147187200Y-110276190D01*
X147187200Y-110276190D02*
X147234819Y-110419047D01*
X147234819Y-110419047D02*
X147234819Y-110514285D01*
X146330057Y-109704761D02*
X146282438Y-109657142D01*
X146282438Y-109657142D02*
X146234819Y-109561904D01*
X146234819Y-109561904D02*
X146234819Y-109323809D01*
X146234819Y-109323809D02*
X146282438Y-109228571D01*
X146282438Y-109228571D02*
X146330057Y-109180952D01*
X146330057Y-109180952D02*
X146425295Y-109133333D01*
X146425295Y-109133333D02*
X146520533Y-109133333D01*
X146520533Y-109133333D02*
X146663390Y-109180952D01*
X146663390Y-109180952D02*
X147234819Y-109752380D01*
X147234819Y-109752380D02*
X147234819Y-109133333D01*
X128219642Y-92429819D02*
X127886309Y-91953628D01*
X127648214Y-92429819D02*
X127648214Y-91429819D01*
X127648214Y-91429819D02*
X128029166Y-91429819D01*
X128029166Y-91429819D02*
X128124404Y-91477438D01*
X128124404Y-91477438D02*
X128172023Y-91525057D01*
X128172023Y-91525057D02*
X128219642Y-91620295D01*
X128219642Y-91620295D02*
X128219642Y-91763152D01*
X128219642Y-91763152D02*
X128172023Y-91858390D01*
X128172023Y-91858390D02*
X128124404Y-91906009D01*
X128124404Y-91906009D02*
X128029166Y-91953628D01*
X128029166Y-91953628D02*
X127648214Y-91953628D01*
X129172023Y-92429819D02*
X128600595Y-92429819D01*
X128886309Y-92429819D02*
X128886309Y-91429819D01*
X128886309Y-91429819D02*
X128791071Y-91572676D01*
X128791071Y-91572676D02*
X128695833Y-91667914D01*
X128695833Y-91667914D02*
X128600595Y-91715533D01*
X129505357Y-91429819D02*
X130172023Y-91429819D01*
X130172023Y-91429819D02*
X129743452Y-92429819D01*
X175013095Y-84254819D02*
X175013095Y-85064342D01*
X175013095Y-85064342D02*
X175060714Y-85159580D01*
X175060714Y-85159580D02*
X175108333Y-85207200D01*
X175108333Y-85207200D02*
X175203571Y-85254819D01*
X175203571Y-85254819D02*
X175394047Y-85254819D01*
X175394047Y-85254819D02*
X175489285Y-85207200D01*
X175489285Y-85207200D02*
X175536904Y-85159580D01*
X175536904Y-85159580D02*
X175584523Y-85064342D01*
X175584523Y-85064342D02*
X175584523Y-84254819D01*
X175965476Y-84254819D02*
X176632142Y-84254819D01*
X176632142Y-84254819D02*
X176203571Y-85254819D01*
X145454819Y-92666666D02*
X144978628Y-92999999D01*
X145454819Y-93238094D02*
X144454819Y-93238094D01*
X144454819Y-93238094D02*
X144454819Y-92857142D01*
X144454819Y-92857142D02*
X144502438Y-92761904D01*
X144502438Y-92761904D02*
X144550057Y-92714285D01*
X144550057Y-92714285D02*
X144645295Y-92666666D01*
X144645295Y-92666666D02*
X144788152Y-92666666D01*
X144788152Y-92666666D02*
X144883390Y-92714285D01*
X144883390Y-92714285D02*
X144931009Y-92761904D01*
X144931009Y-92761904D02*
X144978628Y-92857142D01*
X144978628Y-92857142D02*
X144978628Y-93238094D01*
X144550057Y-92285713D02*
X144502438Y-92238094D01*
X144502438Y-92238094D02*
X144454819Y-92142856D01*
X144454819Y-92142856D02*
X144454819Y-91904761D01*
X144454819Y-91904761D02*
X144502438Y-91809523D01*
X144502438Y-91809523D02*
X144550057Y-91761904D01*
X144550057Y-91761904D02*
X144645295Y-91714285D01*
X144645295Y-91714285D02*
X144740533Y-91714285D01*
X144740533Y-91714285D02*
X144883390Y-91761904D01*
X144883390Y-91761904D02*
X145454819Y-92333332D01*
X145454819Y-92333332D02*
X145454819Y-91714285D01*
X144833333Y-142139579D02*
X144785714Y-142187199D01*
X144785714Y-142187199D02*
X144642857Y-142234818D01*
X144642857Y-142234818D02*
X144547619Y-142234818D01*
X144547619Y-142234818D02*
X144404762Y-142187199D01*
X144404762Y-142187199D02*
X144309524Y-142091960D01*
X144309524Y-142091960D02*
X144261905Y-141996722D01*
X144261905Y-141996722D02*
X144214286Y-141806246D01*
X144214286Y-141806246D02*
X144214286Y-141663389D01*
X144214286Y-141663389D02*
X144261905Y-141472913D01*
X144261905Y-141472913D02*
X144309524Y-141377675D01*
X144309524Y-141377675D02*
X144404762Y-141282437D01*
X144404762Y-141282437D02*
X144547619Y-141234818D01*
X144547619Y-141234818D02*
X144642857Y-141234818D01*
X144642857Y-141234818D02*
X144785714Y-141282437D01*
X144785714Y-141282437D02*
X144833333Y-141330056D01*
X145404762Y-141663389D02*
X145309524Y-141615770D01*
X145309524Y-141615770D02*
X145261905Y-141568151D01*
X145261905Y-141568151D02*
X145214286Y-141472913D01*
X145214286Y-141472913D02*
X145214286Y-141425294D01*
X145214286Y-141425294D02*
X145261905Y-141330056D01*
X145261905Y-141330056D02*
X145309524Y-141282437D01*
X145309524Y-141282437D02*
X145404762Y-141234818D01*
X145404762Y-141234818D02*
X145595238Y-141234818D01*
X145595238Y-141234818D02*
X145690476Y-141282437D01*
X145690476Y-141282437D02*
X145738095Y-141330056D01*
X145738095Y-141330056D02*
X145785714Y-141425294D01*
X145785714Y-141425294D02*
X145785714Y-141472913D01*
X145785714Y-141472913D02*
X145738095Y-141568151D01*
X145738095Y-141568151D02*
X145690476Y-141615770D01*
X145690476Y-141615770D02*
X145595238Y-141663389D01*
X145595238Y-141663389D02*
X145404762Y-141663389D01*
X145404762Y-141663389D02*
X145309524Y-141711008D01*
X145309524Y-141711008D02*
X145261905Y-141758627D01*
X145261905Y-141758627D02*
X145214286Y-141853865D01*
X145214286Y-141853865D02*
X145214286Y-142044341D01*
X145214286Y-142044341D02*
X145261905Y-142139579D01*
X145261905Y-142139579D02*
X145309524Y-142187199D01*
X145309524Y-142187199D02*
X145404762Y-142234818D01*
X145404762Y-142234818D02*
X145595238Y-142234818D01*
X145595238Y-142234818D02*
X145690476Y-142187199D01*
X145690476Y-142187199D02*
X145738095Y-142139579D01*
X145738095Y-142139579D02*
X145785714Y-142044341D01*
X145785714Y-142044341D02*
X145785714Y-141853865D01*
X145785714Y-141853865D02*
X145738095Y-141758627D01*
X145738095Y-141758627D02*
X145690476Y-141711008D01*
X145690476Y-141711008D02*
X145595238Y-141663389D01*
X133874405Y-74859819D02*
X133874405Y-73859819D01*
X133874405Y-73859819D02*
X134112500Y-73859819D01*
X134112500Y-73859819D02*
X134255357Y-73907438D01*
X134255357Y-73907438D02*
X134350595Y-74002676D01*
X134350595Y-74002676D02*
X134398214Y-74097914D01*
X134398214Y-74097914D02*
X134445833Y-74288390D01*
X134445833Y-74288390D02*
X134445833Y-74431247D01*
X134445833Y-74431247D02*
X134398214Y-74621723D01*
X134398214Y-74621723D02*
X134350595Y-74716961D01*
X134350595Y-74716961D02*
X134255357Y-74812200D01*
X134255357Y-74812200D02*
X134112500Y-74859819D01*
X134112500Y-74859819D02*
X133874405Y-74859819D01*
X135398214Y-74859819D02*
X134826786Y-74859819D01*
X135112500Y-74859819D02*
X135112500Y-73859819D01*
X135112500Y-73859819D02*
X135017262Y-74002676D01*
X135017262Y-74002676D02*
X134922024Y-74097914D01*
X134922024Y-74097914D02*
X134826786Y-74145533D01*
X163154642Y-74604819D02*
X162821309Y-74128628D01*
X162583214Y-74604819D02*
X162583214Y-73604819D01*
X162583214Y-73604819D02*
X162964166Y-73604819D01*
X162964166Y-73604819D02*
X163059404Y-73652438D01*
X163059404Y-73652438D02*
X163107023Y-73700057D01*
X163107023Y-73700057D02*
X163154642Y-73795295D01*
X163154642Y-73795295D02*
X163154642Y-73938152D01*
X163154642Y-73938152D02*
X163107023Y-74033390D01*
X163107023Y-74033390D02*
X163059404Y-74081009D01*
X163059404Y-74081009D02*
X162964166Y-74128628D01*
X162964166Y-74128628D02*
X162583214Y-74128628D01*
X164107023Y-74604819D02*
X163535595Y-74604819D01*
X163821309Y-74604819D02*
X163821309Y-73604819D01*
X163821309Y-73604819D02*
X163726071Y-73747676D01*
X163726071Y-73747676D02*
X163630833Y-73842914D01*
X163630833Y-73842914D02*
X163535595Y-73890533D01*
X165011785Y-73604819D02*
X164535595Y-73604819D01*
X164535595Y-73604819D02*
X164487976Y-74081009D01*
X164487976Y-74081009D02*
X164535595Y-74033390D01*
X164535595Y-74033390D02*
X164630833Y-73985771D01*
X164630833Y-73985771D02*
X164868928Y-73985771D01*
X164868928Y-73985771D02*
X164964166Y-74033390D01*
X164964166Y-74033390D02*
X165011785Y-74081009D01*
X165011785Y-74081009D02*
X165059404Y-74176247D01*
X165059404Y-74176247D02*
X165059404Y-74414342D01*
X165059404Y-74414342D02*
X165011785Y-74509580D01*
X165011785Y-74509580D02*
X164964166Y-74557200D01*
X164964166Y-74557200D02*
X164868928Y-74604819D01*
X164868928Y-74604819D02*
X164630833Y-74604819D01*
X164630833Y-74604819D02*
X164535595Y-74557200D01*
X164535595Y-74557200D02*
X164487976Y-74509580D01*
X140436905Y-128979819D02*
X140436905Y-129789342D01*
X140436905Y-129789342D02*
X140484524Y-129884580D01*
X140484524Y-129884580D02*
X140532143Y-129932200D01*
X140532143Y-129932200D02*
X140627381Y-129979819D01*
X140627381Y-129979819D02*
X140817857Y-129979819D01*
X140817857Y-129979819D02*
X140913095Y-129932200D01*
X140913095Y-129932200D02*
X140960714Y-129884580D01*
X140960714Y-129884580D02*
X141008333Y-129789342D01*
X141008333Y-129789342D02*
X141008333Y-128979819D01*
X142008333Y-129979819D02*
X141436905Y-129979819D01*
X141722619Y-129979819D02*
X141722619Y-128979819D01*
X141722619Y-128979819D02*
X141627381Y-129122676D01*
X141627381Y-129122676D02*
X141532143Y-129217914D01*
X141532143Y-129217914D02*
X141436905Y-129265533D01*
X142627381Y-128979819D02*
X142722619Y-128979819D01*
X142722619Y-128979819D02*
X142817857Y-129027438D01*
X142817857Y-129027438D02*
X142865476Y-129075057D01*
X142865476Y-129075057D02*
X142913095Y-129170295D01*
X142913095Y-129170295D02*
X142960714Y-129360771D01*
X142960714Y-129360771D02*
X142960714Y-129598866D01*
X142960714Y-129598866D02*
X142913095Y-129789342D01*
X142913095Y-129789342D02*
X142865476Y-129884580D01*
X142865476Y-129884580D02*
X142817857Y-129932200D01*
X142817857Y-129932200D02*
X142722619Y-129979819D01*
X142722619Y-129979819D02*
X142627381Y-129979819D01*
X142627381Y-129979819D02*
X142532143Y-129932200D01*
X142532143Y-129932200D02*
X142484524Y-129884580D01*
X142484524Y-129884580D02*
X142436905Y-129789342D01*
X142436905Y-129789342D02*
X142389286Y-129598866D01*
X142389286Y-129598866D02*
X142389286Y-129360771D01*
X142389286Y-129360771D02*
X142436905Y-129170295D01*
X142436905Y-129170295D02*
X142484524Y-129075057D01*
X142484524Y-129075057D02*
X142532143Y-129027438D01*
X142532143Y-129027438D02*
X142627381Y-128979819D01*
X131079580Y-127392857D02*
X131127200Y-127440476D01*
X131127200Y-127440476D02*
X131174819Y-127583333D01*
X131174819Y-127583333D02*
X131174819Y-127678571D01*
X131174819Y-127678571D02*
X131127200Y-127821428D01*
X131127200Y-127821428D02*
X131031961Y-127916666D01*
X131031961Y-127916666D02*
X130936723Y-127964285D01*
X130936723Y-127964285D02*
X130746247Y-128011904D01*
X130746247Y-128011904D02*
X130603390Y-128011904D01*
X130603390Y-128011904D02*
X130412914Y-127964285D01*
X130412914Y-127964285D02*
X130317676Y-127916666D01*
X130317676Y-127916666D02*
X130222438Y-127821428D01*
X130222438Y-127821428D02*
X130174819Y-127678571D01*
X130174819Y-127678571D02*
X130174819Y-127583333D01*
X130174819Y-127583333D02*
X130222438Y-127440476D01*
X130222438Y-127440476D02*
X130270057Y-127392857D01*
X130270057Y-127011904D02*
X130222438Y-126964285D01*
X130222438Y-126964285D02*
X130174819Y-126869047D01*
X130174819Y-126869047D02*
X130174819Y-126630952D01*
X130174819Y-126630952D02*
X130222438Y-126535714D01*
X130222438Y-126535714D02*
X130270057Y-126488095D01*
X130270057Y-126488095D02*
X130365295Y-126440476D01*
X130365295Y-126440476D02*
X130460533Y-126440476D01*
X130460533Y-126440476D02*
X130603390Y-126488095D01*
X130603390Y-126488095D02*
X131174819Y-127059523D01*
X131174819Y-127059523D02*
X131174819Y-126440476D01*
X130174819Y-125821428D02*
X130174819Y-125726190D01*
X130174819Y-125726190D02*
X130222438Y-125630952D01*
X130222438Y-125630952D02*
X130270057Y-125583333D01*
X130270057Y-125583333D02*
X130365295Y-125535714D01*
X130365295Y-125535714D02*
X130555771Y-125488095D01*
X130555771Y-125488095D02*
X130793866Y-125488095D01*
X130793866Y-125488095D02*
X130984342Y-125535714D01*
X130984342Y-125535714D02*
X131079580Y-125583333D01*
X131079580Y-125583333D02*
X131127200Y-125630952D01*
X131127200Y-125630952D02*
X131174819Y-125726190D01*
X131174819Y-125726190D02*
X131174819Y-125821428D01*
X131174819Y-125821428D02*
X131127200Y-125916666D01*
X131127200Y-125916666D02*
X131079580Y-125964285D01*
X131079580Y-125964285D02*
X130984342Y-126011904D01*
X130984342Y-126011904D02*
X130793866Y-126059523D01*
X130793866Y-126059523D02*
X130555771Y-126059523D01*
X130555771Y-126059523D02*
X130365295Y-126011904D01*
X130365295Y-126011904D02*
X130270057Y-125964285D01*
X130270057Y-125964285D02*
X130222438Y-125916666D01*
X130222438Y-125916666D02*
X130174819Y-125821428D01*
X175013095Y-70254819D02*
X175013095Y-71064342D01*
X175013095Y-71064342D02*
X175060714Y-71159580D01*
X175060714Y-71159580D02*
X175108333Y-71207200D01*
X175108333Y-71207200D02*
X175203571Y-71254819D01*
X175203571Y-71254819D02*
X175394047Y-71254819D01*
X175394047Y-71254819D02*
X175489285Y-71207200D01*
X175489285Y-71207200D02*
X175536904Y-71159580D01*
X175536904Y-71159580D02*
X175584523Y-71064342D01*
X175584523Y-71064342D02*
X175584523Y-70254819D01*
X176108333Y-71254819D02*
X176298809Y-71254819D01*
X176298809Y-71254819D02*
X176394047Y-71207200D01*
X176394047Y-71207200D02*
X176441666Y-71159580D01*
X176441666Y-71159580D02*
X176536904Y-71016723D01*
X176536904Y-71016723D02*
X176584523Y-70826247D01*
X176584523Y-70826247D02*
X176584523Y-70445295D01*
X176584523Y-70445295D02*
X176536904Y-70350057D01*
X176536904Y-70350057D02*
X176489285Y-70302438D01*
X176489285Y-70302438D02*
X176394047Y-70254819D01*
X176394047Y-70254819D02*
X176203571Y-70254819D01*
X176203571Y-70254819D02*
X176108333Y-70302438D01*
X176108333Y-70302438D02*
X176060714Y-70350057D01*
X176060714Y-70350057D02*
X176013095Y-70445295D01*
X176013095Y-70445295D02*
X176013095Y-70683390D01*
X176013095Y-70683390D02*
X176060714Y-70778628D01*
X176060714Y-70778628D02*
X176108333Y-70826247D01*
X176108333Y-70826247D02*
X176203571Y-70873866D01*
X176203571Y-70873866D02*
X176394047Y-70873866D01*
X176394047Y-70873866D02*
X176489285Y-70826247D01*
X176489285Y-70826247D02*
X176536904Y-70778628D01*
X176536904Y-70778628D02*
X176584523Y-70683390D01*
X184238095Y-141854819D02*
X184238095Y-140854819D01*
X184238095Y-141331009D02*
X184809523Y-141331009D01*
X184809523Y-141854819D02*
X184809523Y-140854819D01*
X185190476Y-140854819D02*
X185809523Y-140854819D01*
X185809523Y-140854819D02*
X185476190Y-141235771D01*
X185476190Y-141235771D02*
X185619047Y-141235771D01*
X185619047Y-141235771D02*
X185714285Y-141283390D01*
X185714285Y-141283390D02*
X185761904Y-141331009D01*
X185761904Y-141331009D02*
X185809523Y-141426247D01*
X185809523Y-141426247D02*
X185809523Y-141664342D01*
X185809523Y-141664342D02*
X185761904Y-141759580D01*
X185761904Y-141759580D02*
X185714285Y-141807200D01*
X185714285Y-141807200D02*
X185619047Y-141854819D01*
X185619047Y-141854819D02*
X185333333Y-141854819D01*
X185333333Y-141854819D02*
X185238095Y-141807200D01*
X185238095Y-141807200D02*
X185190476Y-141759580D01*
X133382142Y-120809580D02*
X133334523Y-120857200D01*
X133334523Y-120857200D02*
X133191666Y-120904819D01*
X133191666Y-120904819D02*
X133096428Y-120904819D01*
X133096428Y-120904819D02*
X132953571Y-120857200D01*
X132953571Y-120857200D02*
X132858333Y-120761961D01*
X132858333Y-120761961D02*
X132810714Y-120666723D01*
X132810714Y-120666723D02*
X132763095Y-120476247D01*
X132763095Y-120476247D02*
X132763095Y-120333390D01*
X132763095Y-120333390D02*
X132810714Y-120142914D01*
X132810714Y-120142914D02*
X132858333Y-120047676D01*
X132858333Y-120047676D02*
X132953571Y-119952438D01*
X132953571Y-119952438D02*
X133096428Y-119904819D01*
X133096428Y-119904819D02*
X133191666Y-119904819D01*
X133191666Y-119904819D02*
X133334523Y-119952438D01*
X133334523Y-119952438D02*
X133382142Y-120000057D01*
X134334523Y-120904819D02*
X133763095Y-120904819D01*
X134048809Y-120904819D02*
X134048809Y-119904819D01*
X134048809Y-119904819D02*
X133953571Y-120047676D01*
X133953571Y-120047676D02*
X133858333Y-120142914D01*
X133858333Y-120142914D02*
X133763095Y-120190533D01*
X134715476Y-120000057D02*
X134763095Y-119952438D01*
X134763095Y-119952438D02*
X134858333Y-119904819D01*
X134858333Y-119904819D02*
X135096428Y-119904819D01*
X135096428Y-119904819D02*
X135191666Y-119952438D01*
X135191666Y-119952438D02*
X135239285Y-120000057D01*
X135239285Y-120000057D02*
X135286904Y-120095295D01*
X135286904Y-120095295D02*
X135286904Y-120190533D01*
X135286904Y-120190533D02*
X135239285Y-120333390D01*
X135239285Y-120333390D02*
X134667857Y-120904819D01*
X134667857Y-120904819D02*
X135286904Y-120904819D01*
X163620833Y-75904819D02*
X163287500Y-75428628D01*
X163049405Y-75904819D02*
X163049405Y-74904819D01*
X163049405Y-74904819D02*
X163430357Y-74904819D01*
X163430357Y-74904819D02*
X163525595Y-74952438D01*
X163525595Y-74952438D02*
X163573214Y-75000057D01*
X163573214Y-75000057D02*
X163620833Y-75095295D01*
X163620833Y-75095295D02*
X163620833Y-75238152D01*
X163620833Y-75238152D02*
X163573214Y-75333390D01*
X163573214Y-75333390D02*
X163525595Y-75381009D01*
X163525595Y-75381009D02*
X163430357Y-75428628D01*
X163430357Y-75428628D02*
X163049405Y-75428628D01*
X164097024Y-75904819D02*
X164287500Y-75904819D01*
X164287500Y-75904819D02*
X164382738Y-75857200D01*
X164382738Y-75857200D02*
X164430357Y-75809580D01*
X164430357Y-75809580D02*
X164525595Y-75666723D01*
X164525595Y-75666723D02*
X164573214Y-75476247D01*
X164573214Y-75476247D02*
X164573214Y-75095295D01*
X164573214Y-75095295D02*
X164525595Y-75000057D01*
X164525595Y-75000057D02*
X164477976Y-74952438D01*
X164477976Y-74952438D02*
X164382738Y-74904819D01*
X164382738Y-74904819D02*
X164192262Y-74904819D01*
X164192262Y-74904819D02*
X164097024Y-74952438D01*
X164097024Y-74952438D02*
X164049405Y-75000057D01*
X164049405Y-75000057D02*
X164001786Y-75095295D01*
X164001786Y-75095295D02*
X164001786Y-75333390D01*
X164001786Y-75333390D02*
X164049405Y-75428628D01*
X164049405Y-75428628D02*
X164097024Y-75476247D01*
X164097024Y-75476247D02*
X164192262Y-75523866D01*
X164192262Y-75523866D02*
X164382738Y-75523866D01*
X164382738Y-75523866D02*
X164477976Y-75476247D01*
X164477976Y-75476247D02*
X164525595Y-75428628D01*
X164525595Y-75428628D02*
X164573214Y-75333390D01*
X114774819Y-122853333D02*
X115489104Y-122853333D01*
X115489104Y-122853333D02*
X115631961Y-122900952D01*
X115631961Y-122900952D02*
X115727200Y-122996190D01*
X115727200Y-122996190D02*
X115774819Y-123139047D01*
X115774819Y-123139047D02*
X115774819Y-123234285D01*
X114774819Y-122472380D02*
X114774819Y-121805714D01*
X114774819Y-121805714D02*
X115774819Y-122234285D01*
X123184580Y-120530357D02*
X123232200Y-120577976D01*
X123232200Y-120577976D02*
X123279819Y-120720833D01*
X123279819Y-120720833D02*
X123279819Y-120816071D01*
X123279819Y-120816071D02*
X123232200Y-120958928D01*
X123232200Y-120958928D02*
X123136961Y-121054166D01*
X123136961Y-121054166D02*
X123041723Y-121101785D01*
X123041723Y-121101785D02*
X122851247Y-121149404D01*
X122851247Y-121149404D02*
X122708390Y-121149404D01*
X122708390Y-121149404D02*
X122517914Y-121101785D01*
X122517914Y-121101785D02*
X122422676Y-121054166D01*
X122422676Y-121054166D02*
X122327438Y-120958928D01*
X122327438Y-120958928D02*
X122279819Y-120816071D01*
X122279819Y-120816071D02*
X122279819Y-120720833D01*
X122279819Y-120720833D02*
X122327438Y-120577976D01*
X122327438Y-120577976D02*
X122375057Y-120530357D01*
X123279819Y-119577976D02*
X123279819Y-120149404D01*
X123279819Y-119863690D02*
X122279819Y-119863690D01*
X122279819Y-119863690D02*
X122422676Y-119958928D01*
X122422676Y-119958928D02*
X122517914Y-120054166D01*
X122517914Y-120054166D02*
X122565533Y-120149404D01*
X122279819Y-119244642D02*
X122279819Y-118625595D01*
X122279819Y-118625595D02*
X122660771Y-118958928D01*
X122660771Y-118958928D02*
X122660771Y-118816071D01*
X122660771Y-118816071D02*
X122708390Y-118720833D01*
X122708390Y-118720833D02*
X122756009Y-118673214D01*
X122756009Y-118673214D02*
X122851247Y-118625595D01*
X122851247Y-118625595D02*
X123089342Y-118625595D01*
X123089342Y-118625595D02*
X123184580Y-118673214D01*
X123184580Y-118673214D02*
X123232200Y-118720833D01*
X123232200Y-118720833D02*
X123279819Y-118816071D01*
X123279819Y-118816071D02*
X123279819Y-119101785D01*
X123279819Y-119101785D02*
X123232200Y-119197023D01*
X123232200Y-119197023D02*
X123184580Y-119244642D01*
X181234819Y-78249523D02*
X181949104Y-78249523D01*
X181949104Y-78249523D02*
X182091961Y-78297142D01*
X182091961Y-78297142D02*
X182187200Y-78392380D01*
X182187200Y-78392380D02*
X182234819Y-78535237D01*
X182234819Y-78535237D02*
X182234819Y-78630475D01*
X182234819Y-77249523D02*
X182234819Y-77820951D01*
X182234819Y-77535237D02*
X181234819Y-77535237D01*
X181234819Y-77535237D02*
X181377676Y-77630475D01*
X181377676Y-77630475D02*
X181472914Y-77725713D01*
X181472914Y-77725713D02*
X181520533Y-77820951D01*
X181330057Y-76868570D02*
X181282438Y-76820951D01*
X181282438Y-76820951D02*
X181234819Y-76725713D01*
X181234819Y-76725713D02*
X181234819Y-76487618D01*
X181234819Y-76487618D02*
X181282438Y-76392380D01*
X181282438Y-76392380D02*
X181330057Y-76344761D01*
X181330057Y-76344761D02*
X181425295Y-76297142D01*
X181425295Y-76297142D02*
X181520533Y-76297142D01*
X181520533Y-76297142D02*
X181663390Y-76344761D01*
X181663390Y-76344761D02*
X182234819Y-76916189D01*
X182234819Y-76916189D02*
X182234819Y-76297142D01*
X162204819Y-95991666D02*
X161728628Y-96324999D01*
X162204819Y-96563094D02*
X161204819Y-96563094D01*
X161204819Y-96563094D02*
X161204819Y-96182142D01*
X161204819Y-96182142D02*
X161252438Y-96086904D01*
X161252438Y-96086904D02*
X161300057Y-96039285D01*
X161300057Y-96039285D02*
X161395295Y-95991666D01*
X161395295Y-95991666D02*
X161538152Y-95991666D01*
X161538152Y-95991666D02*
X161633390Y-96039285D01*
X161633390Y-96039285D02*
X161681009Y-96086904D01*
X161681009Y-96086904D02*
X161728628Y-96182142D01*
X161728628Y-96182142D02*
X161728628Y-96563094D01*
X161204819Y-95658332D02*
X161204819Y-94991666D01*
X161204819Y-94991666D02*
X162204819Y-95420237D01*
X135403095Y-79179819D02*
X135403095Y-79989342D01*
X135403095Y-79989342D02*
X135450714Y-80084580D01*
X135450714Y-80084580D02*
X135498333Y-80132200D01*
X135498333Y-80132200D02*
X135593571Y-80179819D01*
X135593571Y-80179819D02*
X135784047Y-80179819D01*
X135784047Y-80179819D02*
X135879285Y-80132200D01*
X135879285Y-80132200D02*
X135926904Y-80084580D01*
X135926904Y-80084580D02*
X135974523Y-79989342D01*
X135974523Y-79989342D02*
X135974523Y-79179819D01*
X136974523Y-80179819D02*
X136403095Y-80179819D01*
X136688809Y-80179819D02*
X136688809Y-79179819D01*
X136688809Y-79179819D02*
X136593571Y-79322676D01*
X136593571Y-79322676D02*
X136498333Y-79417914D01*
X136498333Y-79417914D02*
X136403095Y-79465533D01*
X184238095Y-63254819D02*
X184238095Y-62254819D01*
X184238095Y-62731009D02*
X184809523Y-62731009D01*
X184809523Y-63254819D02*
X184809523Y-62254819D01*
X185238095Y-62350057D02*
X185285714Y-62302438D01*
X185285714Y-62302438D02*
X185380952Y-62254819D01*
X185380952Y-62254819D02*
X185619047Y-62254819D01*
X185619047Y-62254819D02*
X185714285Y-62302438D01*
X185714285Y-62302438D02*
X185761904Y-62350057D01*
X185761904Y-62350057D02*
X185809523Y-62445295D01*
X185809523Y-62445295D02*
X185809523Y-62540533D01*
X185809523Y-62540533D02*
X185761904Y-62683390D01*
X185761904Y-62683390D02*
X185190476Y-63254819D01*
X185190476Y-63254819D02*
X185809523Y-63254819D01*
X131628628Y-127676190D02*
X132104819Y-127676190D01*
X131104819Y-128009523D02*
X131628628Y-127676190D01*
X131628628Y-127676190D02*
X131104819Y-127342857D01*
X131200057Y-127057142D02*
X131152438Y-127009523D01*
X131152438Y-127009523D02*
X131104819Y-126914285D01*
X131104819Y-126914285D02*
X131104819Y-126676190D01*
X131104819Y-126676190D02*
X131152438Y-126580952D01*
X131152438Y-126580952D02*
X131200057Y-126533333D01*
X131200057Y-126533333D02*
X131295295Y-126485714D01*
X131295295Y-126485714D02*
X131390533Y-126485714D01*
X131390533Y-126485714D02*
X131533390Y-126533333D01*
X131533390Y-126533333D02*
X132104819Y-127104761D01*
X132104819Y-127104761D02*
X132104819Y-126485714D01*
X154779819Y-70088094D02*
X153779819Y-70088094D01*
X153779819Y-70088094D02*
X153779819Y-69849999D01*
X153779819Y-69849999D02*
X153827438Y-69707142D01*
X153827438Y-69707142D02*
X153922676Y-69611904D01*
X153922676Y-69611904D02*
X154017914Y-69564285D01*
X154017914Y-69564285D02*
X154208390Y-69516666D01*
X154208390Y-69516666D02*
X154351247Y-69516666D01*
X154351247Y-69516666D02*
X154541723Y-69564285D01*
X154541723Y-69564285D02*
X154636961Y-69611904D01*
X154636961Y-69611904D02*
X154732200Y-69707142D01*
X154732200Y-69707142D02*
X154779819Y-69849999D01*
X154779819Y-69849999D02*
X154779819Y-70088094D01*
X153779819Y-69183332D02*
X153779819Y-68564285D01*
X153779819Y-68564285D02*
X154160771Y-68897618D01*
X154160771Y-68897618D02*
X154160771Y-68754761D01*
X154160771Y-68754761D02*
X154208390Y-68659523D01*
X154208390Y-68659523D02*
X154256009Y-68611904D01*
X154256009Y-68611904D02*
X154351247Y-68564285D01*
X154351247Y-68564285D02*
X154589342Y-68564285D01*
X154589342Y-68564285D02*
X154684580Y-68611904D01*
X154684580Y-68611904D02*
X154732200Y-68659523D01*
X154732200Y-68659523D02*
X154779819Y-68754761D01*
X154779819Y-68754761D02*
X154779819Y-69040475D01*
X154779819Y-69040475D02*
X154732200Y-69135713D01*
X154732200Y-69135713D02*
X154684580Y-69183332D01*
X145454819Y-103738094D02*
X144454819Y-103738094D01*
X144454819Y-103738094D02*
X144454819Y-103499999D01*
X144454819Y-103499999D02*
X144502438Y-103357142D01*
X144502438Y-103357142D02*
X144597676Y-103261904D01*
X144597676Y-103261904D02*
X144692914Y-103214285D01*
X144692914Y-103214285D02*
X144883390Y-103166666D01*
X144883390Y-103166666D02*
X145026247Y-103166666D01*
X145026247Y-103166666D02*
X145216723Y-103214285D01*
X145216723Y-103214285D02*
X145311961Y-103261904D01*
X145311961Y-103261904D02*
X145407200Y-103357142D01*
X145407200Y-103357142D02*
X145454819Y-103499999D01*
X145454819Y-103499999D02*
X145454819Y-103738094D01*
X144550057Y-102785713D02*
X144502438Y-102738094D01*
X144502438Y-102738094D02*
X144454819Y-102642856D01*
X144454819Y-102642856D02*
X144454819Y-102404761D01*
X144454819Y-102404761D02*
X144502438Y-102309523D01*
X144502438Y-102309523D02*
X144550057Y-102261904D01*
X144550057Y-102261904D02*
X144645295Y-102214285D01*
X144645295Y-102214285D02*
X144740533Y-102214285D01*
X144740533Y-102214285D02*
X144883390Y-102261904D01*
X144883390Y-102261904D02*
X145454819Y-102833332D01*
X145454819Y-102833332D02*
X145454819Y-102214285D01*
X143326666Y-60234819D02*
X143326666Y-60949104D01*
X143326666Y-60949104D02*
X143279047Y-61091961D01*
X143279047Y-61091961D02*
X143183809Y-61187200D01*
X143183809Y-61187200D02*
X143040952Y-61234819D01*
X143040952Y-61234819D02*
X142945714Y-61234819D01*
X144326666Y-61234819D02*
X143755238Y-61234819D01*
X144040952Y-61234819D02*
X144040952Y-60234819D01*
X144040952Y-60234819D02*
X143945714Y-60377676D01*
X143945714Y-60377676D02*
X143850476Y-60472914D01*
X143850476Y-60472914D02*
X143755238Y-60520533D01*
X114874819Y-139153333D02*
X115589104Y-139153333D01*
X115589104Y-139153333D02*
X115731961Y-139200952D01*
X115731961Y-139200952D02*
X115827200Y-139296190D01*
X115827200Y-139296190D02*
X115874819Y-139439047D01*
X115874819Y-139439047D02*
X115874819Y-139534285D01*
X115303390Y-138534285D02*
X115255771Y-138629523D01*
X115255771Y-138629523D02*
X115208152Y-138677142D01*
X115208152Y-138677142D02*
X115112914Y-138724761D01*
X115112914Y-138724761D02*
X115065295Y-138724761D01*
X115065295Y-138724761D02*
X114970057Y-138677142D01*
X114970057Y-138677142D02*
X114922438Y-138629523D01*
X114922438Y-138629523D02*
X114874819Y-138534285D01*
X114874819Y-138534285D02*
X114874819Y-138343809D01*
X114874819Y-138343809D02*
X114922438Y-138248571D01*
X114922438Y-138248571D02*
X114970057Y-138200952D01*
X114970057Y-138200952D02*
X115065295Y-138153333D01*
X115065295Y-138153333D02*
X115112914Y-138153333D01*
X115112914Y-138153333D02*
X115208152Y-138200952D01*
X115208152Y-138200952D02*
X115255771Y-138248571D01*
X115255771Y-138248571D02*
X115303390Y-138343809D01*
X115303390Y-138343809D02*
X115303390Y-138534285D01*
X115303390Y-138534285D02*
X115351009Y-138629523D01*
X115351009Y-138629523D02*
X115398628Y-138677142D01*
X115398628Y-138677142D02*
X115493866Y-138724761D01*
X115493866Y-138724761D02*
X115684342Y-138724761D01*
X115684342Y-138724761D02*
X115779580Y-138677142D01*
X115779580Y-138677142D02*
X115827200Y-138629523D01*
X115827200Y-138629523D02*
X115874819Y-138534285D01*
X115874819Y-138534285D02*
X115874819Y-138343809D01*
X115874819Y-138343809D02*
X115827200Y-138248571D01*
X115827200Y-138248571D02*
X115779580Y-138200952D01*
X115779580Y-138200952D02*
X115684342Y-138153333D01*
X115684342Y-138153333D02*
X115493866Y-138153333D01*
X115493866Y-138153333D02*
X115398628Y-138200952D01*
X115398628Y-138200952D02*
X115351009Y-138248571D01*
X115351009Y-138248571D02*
X115303390Y-138343809D01*
X117182142Y-97434580D02*
X117134523Y-97482200D01*
X117134523Y-97482200D02*
X116991666Y-97529819D01*
X116991666Y-97529819D02*
X116896428Y-97529819D01*
X116896428Y-97529819D02*
X116753571Y-97482200D01*
X116753571Y-97482200D02*
X116658333Y-97386961D01*
X116658333Y-97386961D02*
X116610714Y-97291723D01*
X116610714Y-97291723D02*
X116563095Y-97101247D01*
X116563095Y-97101247D02*
X116563095Y-96958390D01*
X116563095Y-96958390D02*
X116610714Y-96767914D01*
X116610714Y-96767914D02*
X116658333Y-96672676D01*
X116658333Y-96672676D02*
X116753571Y-96577438D01*
X116753571Y-96577438D02*
X116896428Y-96529819D01*
X116896428Y-96529819D02*
X116991666Y-96529819D01*
X116991666Y-96529819D02*
X117134523Y-96577438D01*
X117134523Y-96577438D02*
X117182142Y-96625057D01*
X118134523Y-97529819D02*
X117563095Y-97529819D01*
X117848809Y-97529819D02*
X117848809Y-96529819D01*
X117848809Y-96529819D02*
X117753571Y-96672676D01*
X117753571Y-96672676D02*
X117658333Y-96767914D01*
X117658333Y-96767914D02*
X117563095Y-96815533D01*
X119039285Y-96529819D02*
X118563095Y-96529819D01*
X118563095Y-96529819D02*
X118515476Y-97006009D01*
X118515476Y-97006009D02*
X118563095Y-96958390D01*
X118563095Y-96958390D02*
X118658333Y-96910771D01*
X118658333Y-96910771D02*
X118896428Y-96910771D01*
X118896428Y-96910771D02*
X118991666Y-96958390D01*
X118991666Y-96958390D02*
X119039285Y-97006009D01*
X119039285Y-97006009D02*
X119086904Y-97101247D01*
X119086904Y-97101247D02*
X119086904Y-97339342D01*
X119086904Y-97339342D02*
X119039285Y-97434580D01*
X119039285Y-97434580D02*
X118991666Y-97482200D01*
X118991666Y-97482200D02*
X118896428Y-97529819D01*
X118896428Y-97529819D02*
X118658333Y-97529819D01*
X118658333Y-97529819D02*
X118563095Y-97482200D01*
X118563095Y-97482200D02*
X118515476Y-97434580D01*
X125454761Y-90650057D02*
X125359523Y-90602438D01*
X125359523Y-90602438D02*
X125264285Y-90507200D01*
X125264285Y-90507200D02*
X125121428Y-90364342D01*
X125121428Y-90364342D02*
X125026190Y-90316723D01*
X125026190Y-90316723D02*
X124930952Y-90316723D01*
X124978571Y-90554819D02*
X124883333Y-90507200D01*
X124883333Y-90507200D02*
X124788095Y-90411961D01*
X124788095Y-90411961D02*
X124740476Y-90221485D01*
X124740476Y-90221485D02*
X124740476Y-89888152D01*
X124740476Y-89888152D02*
X124788095Y-89697676D01*
X124788095Y-89697676D02*
X124883333Y-89602438D01*
X124883333Y-89602438D02*
X124978571Y-89554819D01*
X124978571Y-89554819D02*
X125169047Y-89554819D01*
X125169047Y-89554819D02*
X125264285Y-89602438D01*
X125264285Y-89602438D02*
X125359523Y-89697676D01*
X125359523Y-89697676D02*
X125407142Y-89888152D01*
X125407142Y-89888152D02*
X125407142Y-90221485D01*
X125407142Y-90221485D02*
X125359523Y-90411961D01*
X125359523Y-90411961D02*
X125264285Y-90507200D01*
X125264285Y-90507200D02*
X125169047Y-90554819D01*
X125169047Y-90554819D02*
X124978571Y-90554819D01*
X126311904Y-89554819D02*
X125835714Y-89554819D01*
X125835714Y-89554819D02*
X125788095Y-90031009D01*
X125788095Y-90031009D02*
X125835714Y-89983390D01*
X125835714Y-89983390D02*
X125930952Y-89935771D01*
X125930952Y-89935771D02*
X126169047Y-89935771D01*
X126169047Y-89935771D02*
X126264285Y-89983390D01*
X126264285Y-89983390D02*
X126311904Y-90031009D01*
X126311904Y-90031009D02*
X126359523Y-90126247D01*
X126359523Y-90126247D02*
X126359523Y-90364342D01*
X126359523Y-90364342D02*
X126311904Y-90459580D01*
X126311904Y-90459580D02*
X126264285Y-90507200D01*
X126264285Y-90507200D02*
X126169047Y-90554819D01*
X126169047Y-90554819D02*
X125930952Y-90554819D01*
X125930952Y-90554819D02*
X125835714Y-90507200D01*
X125835714Y-90507200D02*
X125788095Y-90459580D01*
X135489580Y-147205357D02*
X135537200Y-147252976D01*
X135537200Y-147252976D02*
X135584819Y-147395833D01*
X135584819Y-147395833D02*
X135584819Y-147491071D01*
X135584819Y-147491071D02*
X135537200Y-147633928D01*
X135537200Y-147633928D02*
X135441961Y-147729166D01*
X135441961Y-147729166D02*
X135346723Y-147776785D01*
X135346723Y-147776785D02*
X135156247Y-147824404D01*
X135156247Y-147824404D02*
X135013390Y-147824404D01*
X135013390Y-147824404D02*
X134822914Y-147776785D01*
X134822914Y-147776785D02*
X134727676Y-147729166D01*
X134727676Y-147729166D02*
X134632438Y-147633928D01*
X134632438Y-147633928D02*
X134584819Y-147491071D01*
X134584819Y-147491071D02*
X134584819Y-147395833D01*
X134584819Y-147395833D02*
X134632438Y-147252976D01*
X134632438Y-147252976D02*
X134680057Y-147205357D01*
X135584819Y-146252976D02*
X135584819Y-146824404D01*
X135584819Y-146538690D02*
X134584819Y-146538690D01*
X134584819Y-146538690D02*
X134727676Y-146633928D01*
X134727676Y-146633928D02*
X134822914Y-146729166D01*
X134822914Y-146729166D02*
X134870533Y-146824404D01*
X135013390Y-145681547D02*
X134965771Y-145776785D01*
X134965771Y-145776785D02*
X134918152Y-145824404D01*
X134918152Y-145824404D02*
X134822914Y-145872023D01*
X134822914Y-145872023D02*
X134775295Y-145872023D01*
X134775295Y-145872023D02*
X134680057Y-145824404D01*
X134680057Y-145824404D02*
X134632438Y-145776785D01*
X134632438Y-145776785D02*
X134584819Y-145681547D01*
X134584819Y-145681547D02*
X134584819Y-145491071D01*
X134584819Y-145491071D02*
X134632438Y-145395833D01*
X134632438Y-145395833D02*
X134680057Y-145348214D01*
X134680057Y-145348214D02*
X134775295Y-145300595D01*
X134775295Y-145300595D02*
X134822914Y-145300595D01*
X134822914Y-145300595D02*
X134918152Y-145348214D01*
X134918152Y-145348214D02*
X134965771Y-145395833D01*
X134965771Y-145395833D02*
X135013390Y-145491071D01*
X135013390Y-145491071D02*
X135013390Y-145681547D01*
X135013390Y-145681547D02*
X135061009Y-145776785D01*
X135061009Y-145776785D02*
X135108628Y-145824404D01*
X135108628Y-145824404D02*
X135203866Y-145872023D01*
X135203866Y-145872023D02*
X135394342Y-145872023D01*
X135394342Y-145872023D02*
X135489580Y-145824404D01*
X135489580Y-145824404D02*
X135537200Y-145776785D01*
X135537200Y-145776785D02*
X135584819Y-145681547D01*
X135584819Y-145681547D02*
X135584819Y-145491071D01*
X135584819Y-145491071D02*
X135537200Y-145395833D01*
X135537200Y-145395833D02*
X135489580Y-145348214D01*
X135489580Y-145348214D02*
X135394342Y-145300595D01*
X135394342Y-145300595D02*
X135203866Y-145300595D01*
X135203866Y-145300595D02*
X135108628Y-145348214D01*
X135108628Y-145348214D02*
X135061009Y-145395833D01*
X135061009Y-145395833D02*
X135013390Y-145491071D01*
X163658333Y-100304819D02*
X163325000Y-99828628D01*
X163086905Y-100304819D02*
X163086905Y-99304819D01*
X163086905Y-99304819D02*
X163467857Y-99304819D01*
X163467857Y-99304819D02*
X163563095Y-99352438D01*
X163563095Y-99352438D02*
X163610714Y-99400057D01*
X163610714Y-99400057D02*
X163658333Y-99495295D01*
X163658333Y-99495295D02*
X163658333Y-99638152D01*
X163658333Y-99638152D02*
X163610714Y-99733390D01*
X163610714Y-99733390D02*
X163563095Y-99781009D01*
X163563095Y-99781009D02*
X163467857Y-99828628D01*
X163467857Y-99828628D02*
X163086905Y-99828628D01*
X164229762Y-99733390D02*
X164134524Y-99685771D01*
X164134524Y-99685771D02*
X164086905Y-99638152D01*
X164086905Y-99638152D02*
X164039286Y-99542914D01*
X164039286Y-99542914D02*
X164039286Y-99495295D01*
X164039286Y-99495295D02*
X164086905Y-99400057D01*
X164086905Y-99400057D02*
X164134524Y-99352438D01*
X164134524Y-99352438D02*
X164229762Y-99304819D01*
X164229762Y-99304819D02*
X164420238Y-99304819D01*
X164420238Y-99304819D02*
X164515476Y-99352438D01*
X164515476Y-99352438D02*
X164563095Y-99400057D01*
X164563095Y-99400057D02*
X164610714Y-99495295D01*
X164610714Y-99495295D02*
X164610714Y-99542914D01*
X164610714Y-99542914D02*
X164563095Y-99638152D01*
X164563095Y-99638152D02*
X164515476Y-99685771D01*
X164515476Y-99685771D02*
X164420238Y-99733390D01*
X164420238Y-99733390D02*
X164229762Y-99733390D01*
X164229762Y-99733390D02*
X164134524Y-99781009D01*
X164134524Y-99781009D02*
X164086905Y-99828628D01*
X164086905Y-99828628D02*
X164039286Y-99923866D01*
X164039286Y-99923866D02*
X164039286Y-100114342D01*
X164039286Y-100114342D02*
X164086905Y-100209580D01*
X164086905Y-100209580D02*
X164134524Y-100257200D01*
X164134524Y-100257200D02*
X164229762Y-100304819D01*
X164229762Y-100304819D02*
X164420238Y-100304819D01*
X164420238Y-100304819D02*
X164515476Y-100257200D01*
X164515476Y-100257200D02*
X164563095Y-100209580D01*
X164563095Y-100209580D02*
X164610714Y-100114342D01*
X164610714Y-100114342D02*
X164610714Y-99923866D01*
X164610714Y-99923866D02*
X164563095Y-99828628D01*
X164563095Y-99828628D02*
X164515476Y-99781009D01*
X164515476Y-99781009D02*
X164420238Y-99733390D01*
X181134819Y-99134523D02*
X181849104Y-99134523D01*
X181849104Y-99134523D02*
X181991961Y-99182142D01*
X181991961Y-99182142D02*
X182087200Y-99277380D01*
X182087200Y-99277380D02*
X182134819Y-99420237D01*
X182134819Y-99420237D02*
X182134819Y-99515475D01*
X182134819Y-98134523D02*
X182134819Y-98705951D01*
X182134819Y-98420237D02*
X181134819Y-98420237D01*
X181134819Y-98420237D02*
X181277676Y-98515475D01*
X181277676Y-98515475D02*
X181372914Y-98610713D01*
X181372914Y-98610713D02*
X181420533Y-98705951D01*
X182134819Y-97182142D02*
X182134819Y-97753570D01*
X182134819Y-97467856D02*
X181134819Y-97467856D01*
X181134819Y-97467856D02*
X181277676Y-97563094D01*
X181277676Y-97563094D02*
X181372914Y-97658332D01*
X181372914Y-97658332D02*
X181420533Y-97753570D01*
X126538095Y-132954819D02*
X126538095Y-131954819D01*
X126538095Y-132431009D02*
X127109523Y-132431009D01*
X127109523Y-132954819D02*
X127109523Y-131954819D01*
X128014285Y-132288152D02*
X128014285Y-132954819D01*
X127776190Y-131907200D02*
X127538095Y-132621485D01*
X127538095Y-132621485D02*
X128157142Y-132621485D01*
X120282142Y-91559580D02*
X120234523Y-91607200D01*
X120234523Y-91607200D02*
X120091666Y-91654819D01*
X120091666Y-91654819D02*
X119996428Y-91654819D01*
X119996428Y-91654819D02*
X119853571Y-91607200D01*
X119853571Y-91607200D02*
X119758333Y-91511961D01*
X119758333Y-91511961D02*
X119710714Y-91416723D01*
X119710714Y-91416723D02*
X119663095Y-91226247D01*
X119663095Y-91226247D02*
X119663095Y-91083390D01*
X119663095Y-91083390D02*
X119710714Y-90892914D01*
X119710714Y-90892914D02*
X119758333Y-90797676D01*
X119758333Y-90797676D02*
X119853571Y-90702438D01*
X119853571Y-90702438D02*
X119996428Y-90654819D01*
X119996428Y-90654819D02*
X120091666Y-90654819D01*
X120091666Y-90654819D02*
X120234523Y-90702438D01*
X120234523Y-90702438D02*
X120282142Y-90750057D01*
X121234523Y-91654819D02*
X120663095Y-91654819D01*
X120948809Y-91654819D02*
X120948809Y-90654819D01*
X120948809Y-90654819D02*
X120853571Y-90797676D01*
X120853571Y-90797676D02*
X120758333Y-90892914D01*
X120758333Y-90892914D02*
X120663095Y-90940533D01*
X122091666Y-90654819D02*
X121901190Y-90654819D01*
X121901190Y-90654819D02*
X121805952Y-90702438D01*
X121805952Y-90702438D02*
X121758333Y-90750057D01*
X121758333Y-90750057D02*
X121663095Y-90892914D01*
X121663095Y-90892914D02*
X121615476Y-91083390D01*
X121615476Y-91083390D02*
X121615476Y-91464342D01*
X121615476Y-91464342D02*
X121663095Y-91559580D01*
X121663095Y-91559580D02*
X121710714Y-91607200D01*
X121710714Y-91607200D02*
X121805952Y-91654819D01*
X121805952Y-91654819D02*
X121996428Y-91654819D01*
X121996428Y-91654819D02*
X122091666Y-91607200D01*
X122091666Y-91607200D02*
X122139285Y-91559580D01*
X122139285Y-91559580D02*
X122186904Y-91464342D01*
X122186904Y-91464342D02*
X122186904Y-91226247D01*
X122186904Y-91226247D02*
X122139285Y-91131009D01*
X122139285Y-91131009D02*
X122091666Y-91083390D01*
X122091666Y-91083390D02*
X121996428Y-91035771D01*
X121996428Y-91035771D02*
X121805952Y-91035771D01*
X121805952Y-91035771D02*
X121710714Y-91083390D01*
X121710714Y-91083390D02*
X121663095Y-91131009D01*
X121663095Y-91131009D02*
X121615476Y-91226247D01*
X133257142Y-128379580D02*
X133209523Y-128427200D01*
X133209523Y-128427200D02*
X133066666Y-128474819D01*
X133066666Y-128474819D02*
X132971428Y-128474819D01*
X132971428Y-128474819D02*
X132828571Y-128427200D01*
X132828571Y-128427200D02*
X132733333Y-128331961D01*
X132733333Y-128331961D02*
X132685714Y-128236723D01*
X132685714Y-128236723D02*
X132638095Y-128046247D01*
X132638095Y-128046247D02*
X132638095Y-127903390D01*
X132638095Y-127903390D02*
X132685714Y-127712914D01*
X132685714Y-127712914D02*
X132733333Y-127617676D01*
X132733333Y-127617676D02*
X132828571Y-127522438D01*
X132828571Y-127522438D02*
X132971428Y-127474819D01*
X132971428Y-127474819D02*
X133066666Y-127474819D01*
X133066666Y-127474819D02*
X133209523Y-127522438D01*
X133209523Y-127522438D02*
X133257142Y-127570057D01*
X133638095Y-127570057D02*
X133685714Y-127522438D01*
X133685714Y-127522438D02*
X133780952Y-127474819D01*
X133780952Y-127474819D02*
X134019047Y-127474819D01*
X134019047Y-127474819D02*
X134114285Y-127522438D01*
X134114285Y-127522438D02*
X134161904Y-127570057D01*
X134161904Y-127570057D02*
X134209523Y-127665295D01*
X134209523Y-127665295D02*
X134209523Y-127760533D01*
X134209523Y-127760533D02*
X134161904Y-127903390D01*
X134161904Y-127903390D02*
X133590476Y-128474819D01*
X133590476Y-128474819D02*
X134209523Y-128474819D01*
X134590476Y-127570057D02*
X134638095Y-127522438D01*
X134638095Y-127522438D02*
X134733333Y-127474819D01*
X134733333Y-127474819D02*
X134971428Y-127474819D01*
X134971428Y-127474819D02*
X135066666Y-127522438D01*
X135066666Y-127522438D02*
X135114285Y-127570057D01*
X135114285Y-127570057D02*
X135161904Y-127665295D01*
X135161904Y-127665295D02*
X135161904Y-127760533D01*
X135161904Y-127760533D02*
X135114285Y-127903390D01*
X135114285Y-127903390D02*
X134542857Y-128474819D01*
X134542857Y-128474819D02*
X135161904Y-128474819D01*
X140633333Y-97509580D02*
X140585714Y-97557200D01*
X140585714Y-97557200D02*
X140442857Y-97604819D01*
X140442857Y-97604819D02*
X140347619Y-97604819D01*
X140347619Y-97604819D02*
X140204762Y-97557200D01*
X140204762Y-97557200D02*
X140109524Y-97461961D01*
X140109524Y-97461961D02*
X140061905Y-97366723D01*
X140061905Y-97366723D02*
X140014286Y-97176247D01*
X140014286Y-97176247D02*
X140014286Y-97033390D01*
X140014286Y-97033390D02*
X140061905Y-96842914D01*
X140061905Y-96842914D02*
X140109524Y-96747676D01*
X140109524Y-96747676D02*
X140204762Y-96652438D01*
X140204762Y-96652438D02*
X140347619Y-96604819D01*
X140347619Y-96604819D02*
X140442857Y-96604819D01*
X140442857Y-96604819D02*
X140585714Y-96652438D01*
X140585714Y-96652438D02*
X140633333Y-96700057D01*
X141490476Y-96938152D02*
X141490476Y-97604819D01*
X141252381Y-96557200D02*
X141014286Y-97271485D01*
X141014286Y-97271485D02*
X141633333Y-97271485D01*
%TO.C,C17*%
D15*
X133865000Y-125861252D02*
X133865000Y-125338748D01*
X135335000Y-125861252D02*
X135335000Y-125338748D01*
%TO.C,C9*%
X137095543Y-123290010D02*
X137465010Y-122920543D01*
X138134990Y-124329457D02*
X138504457Y-123959990D01*
%TO.C,C6*%
X119720000Y-82772500D02*
G75*
G02*
X114480000Y-82772500I-2620000J0D01*
G01*
X114480000Y-82772500D02*
G75*
G02*
X119720000Y-82772500I2620000J0D01*
G01*
%TO.C,U3*%
X118140000Y-114240000D02*
X118235000Y-114240000D01*
X118140000Y-118360000D02*
X118140000Y-114240000D01*
X118235000Y-118360000D02*
X118140000Y-118360000D01*
X123165000Y-114240000D02*
X123260000Y-114240000D01*
X123260000Y-114240000D02*
X123260000Y-118360000D01*
X123260000Y-118360000D02*
X123165000Y-118360000D01*
X118230000Y-118900000D02*
X117900000Y-119140000D01*
X117900000Y-118660000D01*
X118230000Y-118900000D01*
G36*
X118230000Y-118900000D02*
G01*
X117900000Y-119140000D01*
X117900000Y-118660000D01*
X118230000Y-118900000D01*
G37*
%TO.C,C5*%
X117323752Y-78137500D02*
X116801248Y-78137500D01*
X117323752Y-79607500D02*
X116801248Y-79607500D01*
%TO.C,C7*%
X115015000Y-114598752D02*
X115015000Y-113176248D01*
X117735000Y-114598752D02*
X117735000Y-113176248D01*
%TO.C,J9*%
X116040000Y-139080000D02*
X131520000Y-139080000D01*
X116040000Y-142100000D02*
X131520000Y-142100000D01*
X116040000Y-147000000D02*
X131520000Y-147000000D01*
X116040000Y-148500000D02*
X131520000Y-148500000D01*
X116040000Y-149120000D02*
X116040000Y-139080000D01*
X118400000Y-149120000D02*
X116040000Y-149120000D01*
X131520000Y-139080000D02*
X131520000Y-149120000D01*
X131520000Y-149120000D02*
X119000000Y-149120000D01*
X118700000Y-149120000D02*
X119140000Y-149730000D01*
X118260000Y-149730000D01*
X118700000Y-149120000D01*
G36*
X119140000Y-149730000D02*
G01*
X118260000Y-149730000D01*
X118700000Y-149120000D01*
X119140000Y-149730000D01*
G37*
%TO.C,U6*%
X170850000Y-126475000D02*
X170850000Y-127425000D01*
X170850000Y-136875000D02*
X170850000Y-135925000D01*
X172215000Y-126475000D02*
X170850000Y-126475000D01*
X172215000Y-136875000D02*
X170850000Y-136875000D01*
X168025000Y-127465000D02*
X167685000Y-126995000D01*
X168365000Y-126995000D01*
X168025000Y-127465000D01*
G36*
X168025000Y-127465000D02*
G01*
X167685000Y-126995000D01*
X168365000Y-126995000D01*
X168025000Y-127465000D01*
G37*
%TO.C,J3*%
X103780000Y-77960000D02*
X113820000Y-77960000D01*
X103780000Y-80320000D02*
X103780000Y-77960000D01*
X103780000Y-98520000D02*
X103780000Y-80920000D01*
X104400000Y-77960000D02*
X104400000Y-98520000D01*
X105900000Y-77960000D02*
X105900000Y-98520000D01*
X110800000Y-77960000D02*
X110800000Y-98520000D01*
X113820000Y-77960000D02*
X113820000Y-98520000D01*
X113820000Y-98520000D02*
X103780000Y-98520000D01*
X103780000Y-80620000D02*
X103170000Y-81060000D01*
X103170000Y-80180000D01*
X103780000Y-80620000D01*
G36*
X103780000Y-80620000D02*
G01*
X103170000Y-81060000D01*
X103170000Y-80180000D01*
X103780000Y-80620000D01*
G37*
%TO.C,R13*%
X162865000Y-93329564D02*
X162865000Y-92875436D01*
X164335000Y-93329564D02*
X164335000Y-92875436D01*
%TO.C,J6*%
X120730000Y-98870000D02*
X120730000Y-101530000D01*
X128410000Y-98870000D02*
X120730000Y-98870000D01*
X128410000Y-98870000D02*
X128410000Y-101530000D01*
X128410000Y-101530000D02*
X120730000Y-101530000D01*
X131010000Y-100200000D02*
X131010000Y-101530000D01*
X131010000Y-101530000D02*
X129680000Y-101530000D01*
%TO.C,U2*%
X136390000Y-91450000D02*
X136390000Y-95210000D01*
X136390000Y-95210000D02*
X137650000Y-95210000D01*
X143210000Y-91450000D02*
X143210000Y-95210000D01*
X143210000Y-95210000D02*
X141950000Y-95210000D01*
X143110000Y-90170000D02*
X143440000Y-89930000D01*
X143440000Y-90410000D01*
X143110000Y-90170000D01*
G36*
X143440000Y-90410000D02*
G01*
X143110000Y-90170000D01*
X143440000Y-89930000D01*
X143440000Y-90410000D01*
G37*
%TO.C,J4*%
X103480000Y-102460000D02*
X113520000Y-102460000D01*
X103480000Y-104820000D02*
X103480000Y-102460000D01*
X103480000Y-112860000D02*
X103480000Y-105420000D01*
X104100000Y-102460000D02*
X104100000Y-112860000D01*
X105600000Y-102460000D02*
X105600000Y-112860000D01*
X110500000Y-102460000D02*
X110500000Y-112860000D01*
X113520000Y-102460000D02*
X113520000Y-112860000D01*
X113520000Y-112860000D02*
X103480000Y-112860000D01*
X103480000Y-105120000D02*
X102870000Y-105560000D01*
X102870000Y-104680000D01*
X103480000Y-105120000D01*
G36*
X103480000Y-105120000D02*
G01*
X102870000Y-105560000D01*
X102870000Y-104680000D01*
X103480000Y-105120000D01*
G37*
%TO.C,C14*%
X142065000Y-136776247D02*
X142065000Y-137298753D01*
X143535000Y-136776247D02*
X143535000Y-137298753D01*
%TO.C,R14*%
X163672936Y-102590000D02*
X164127064Y-102590000D01*
X163672936Y-104060000D02*
X164127064Y-104060000D01*
%TO.C,U8*%
X170950000Y-99800000D02*
X170950000Y-100750000D01*
X170950000Y-110200000D02*
X170950000Y-109250000D01*
X172315000Y-99800000D02*
X170950000Y-99800000D01*
X172315000Y-110200000D02*
X170950000Y-110200000D01*
X168125000Y-100790000D02*
X167785000Y-100320000D01*
X168465000Y-100320000D01*
X168125000Y-100790000D01*
G36*
X168125000Y-100790000D02*
G01*
X167785000Y-100320000D01*
X168465000Y-100320000D01*
X168125000Y-100790000D01*
G37*
%TO.C,J5*%
X136010000Y-144470000D02*
X136010000Y-147130000D01*
X148770000Y-144470000D02*
X136010000Y-144470000D01*
X148770000Y-144470000D02*
X148770000Y-147130000D01*
X148770000Y-147130000D02*
X136010000Y-147130000D01*
X151370000Y-145800000D02*
X151370000Y-147130000D01*
X151370000Y-147130000D02*
X150040000Y-147130000D01*
%TO.C,R20*%
X123745000Y-96727064D02*
X123745000Y-96272936D01*
X125215000Y-96727064D02*
X125215000Y-96272936D01*
%TO.C,C1*%
X147920000Y-75725000D02*
G75*
G02*
X143680000Y-75725000I-2120000J0D01*
G01*
X143680000Y-75725000D02*
G75*
G02*
X147920000Y-75725000I2120000J0D01*
G01*
%TO.C,J10*%
X182877500Y-117290000D02*
X192917500Y-117290000D01*
X182877500Y-132770000D02*
X182877500Y-117290000D01*
X185897500Y-132770000D02*
X185897500Y-117290000D01*
X190797500Y-132770000D02*
X190797500Y-117290000D01*
X192297500Y-132770000D02*
X192297500Y-117290000D01*
X192917500Y-117290000D02*
X192917500Y-129810000D01*
X192917500Y-130410000D02*
X192917500Y-132770000D01*
X192917500Y-132770000D02*
X182877500Y-132770000D01*
X192917500Y-130110000D02*
X193527500Y-129670000D01*
X193527500Y-130550000D01*
X192917500Y-130110000D01*
G36*
X193527500Y-130550000D02*
G01*
X192917500Y-130110000D01*
X193527500Y-129670000D01*
X193527500Y-130550000D01*
G37*
%TO.C,C11*%
X145465010Y-134395543D02*
X145095543Y-134765010D01*
X146504457Y-135434990D02*
X146134990Y-135804457D01*
%TO.C,C3*%
X133745000Y-88650000D02*
G75*
G02*
X128505000Y-88650000I-2620000J0D01*
G01*
X128505000Y-88650000D02*
G75*
G02*
X133745000Y-88650000I2620000J0D01*
G01*
%TO.C,R11*%
X163939564Y-115890000D02*
X163485436Y-115890000D01*
X163939564Y-117360000D02*
X163485436Y-117360000D01*
%TO.C,U5*%
X170850000Y-113125000D02*
X170850000Y-114075000D01*
X170850000Y-123525000D02*
X170850000Y-122575000D01*
X172215000Y-113125000D02*
X170850000Y-113125000D01*
X172215000Y-123525000D02*
X170850000Y-123525000D01*
X168025000Y-114115000D02*
X167685000Y-113645000D01*
X168365000Y-113645000D01*
X168025000Y-114115000D01*
G36*
X168025000Y-114115000D02*
G01*
X167685000Y-113645000D01*
X168365000Y-113645000D01*
X168025000Y-114115000D01*
G37*
%TO.C,C19*%
X135001248Y-111965000D02*
X135523752Y-111965000D01*
X135001248Y-113435000D02*
X135523752Y-113435000D01*
%TO.C,D10*%
X125720000Y-94665000D02*
X125720000Y-96935000D01*
X125720000Y-96935000D02*
X129780000Y-96935000D01*
X129780000Y-94665000D02*
X125720000Y-94665000D01*
%TO.C,R1*%
X130614564Y-71765000D02*
X130160436Y-71765000D01*
X130614564Y-73235000D02*
X130160436Y-73235000D01*
%TO.C,R10*%
X163485436Y-129290000D02*
X163939564Y-129290000D01*
X163485436Y-130760000D02*
X163939564Y-130760000D01*
%TO.C,C2*%
X133645000Y-81950000D02*
G75*
G02*
X128405000Y-81950000I-2620000J0D01*
G01*
X128405000Y-81950000D02*
G75*
G02*
X133645000Y-81950000I2620000J0D01*
G01*
%TO.C,R4*%
X114665000Y-107939564D02*
X114665000Y-107485436D01*
X116135000Y-107939564D02*
X116135000Y-107485436D01*
%TO.C,C10*%
X146677420Y-125770113D02*
X147077683Y-126105973D01*
X147622317Y-124644027D02*
X148022580Y-124979887D01*
%TO.C,R5*%
X140065000Y-137427064D02*
X140065000Y-136972936D01*
X141535000Y-137427064D02*
X141535000Y-136972936D01*
%TO.C,R6*%
X167339564Y-124190000D02*
X166885436Y-124190000D01*
X167339564Y-125660000D02*
X166885436Y-125660000D01*
%TO.C,R3*%
X137014564Y-106165000D02*
X136560436Y-106165000D01*
X137014564Y-107635000D02*
X136560436Y-107635000D01*
%TO.C,D9*%
X110862500Y-101710000D02*
X114922500Y-101710000D01*
X114922500Y-99440000D02*
X110862500Y-99440000D01*
X114922500Y-101710000D02*
X114922500Y-99440000D01*
%TO.C,J2*%
X132860000Y-108420000D02*
X132860000Y-111180000D01*
X143130000Y-108420000D02*
X132860000Y-108420000D01*
X143130000Y-108420000D02*
X143130000Y-111180000D01*
X143130000Y-111180000D02*
X132860000Y-111180000D01*
X144400000Y-108420000D02*
X145780000Y-108420000D01*
X145780000Y-108420000D02*
X145780000Y-109800000D01*
%TO.C,R17*%
X128635436Y-92890000D02*
X129089564Y-92890000D01*
X128635436Y-94360000D02*
X129089564Y-94360000D01*
%TO.C,U7*%
X170950000Y-86250000D02*
X170950000Y-87200000D01*
X170950000Y-96650000D02*
X170950000Y-95700000D01*
X172315000Y-86250000D02*
X170950000Y-86250000D01*
X172315000Y-96650000D02*
X170950000Y-96650000D01*
X168125000Y-87240000D02*
X167785000Y-86770000D01*
X168465000Y-86770000D01*
X168125000Y-87240000D01*
G36*
X168125000Y-87240000D02*
G01*
X167785000Y-86770000D01*
X168465000Y-86770000D01*
X168125000Y-87240000D01*
G37*
%TO.C,R2*%
X144290000Y-95414564D02*
X144290000Y-94960436D01*
X145760000Y-95414564D02*
X145760000Y-94960436D01*
%TO.C,C8*%
X145261253Y-139365000D02*
X144738747Y-139365000D01*
X145261253Y-140835000D02*
X144738747Y-140835000D01*
%TO.C,D1*%
X133012500Y-73710000D02*
X137072500Y-73710000D01*
X137072500Y-71440000D02*
X133012500Y-71440000D01*
X137072500Y-73710000D02*
X137072500Y-71440000D01*
%TO.C,R15*%
X163570436Y-75065000D02*
X164024564Y-75065000D01*
X163570436Y-76535000D02*
X164024564Y-76535000D01*
%TO.C,U10*%
X138065000Y-125915000D02*
X138515000Y-125915000D01*
X138065000Y-126365000D02*
X138065000Y-125915000D01*
X138065000Y-133135000D02*
X138065000Y-132685000D01*
X138515000Y-133135000D02*
X138065000Y-133135000D01*
X144835000Y-125915000D02*
X145285000Y-125915000D01*
X145285000Y-125915000D02*
X145285000Y-126365000D01*
X145285000Y-132685000D02*
X145285000Y-133135000D01*
X145285000Y-133135000D02*
X144835000Y-133135000D01*
X137425000Y-126365000D02*
X137085000Y-125895000D01*
X137765000Y-125895000D01*
X137425000Y-126365000D01*
G36*
X137425000Y-126365000D02*
G01*
X137085000Y-125895000D01*
X137765000Y-125895000D01*
X137425000Y-126365000D01*
G37*
%TO.C,C20*%
X131640000Y-126896267D02*
X131640000Y-126603733D01*
X132660000Y-126896267D02*
X132660000Y-126603733D01*
%TO.C,U9*%
X170950000Y-72250000D02*
X170950000Y-73200000D01*
X170950000Y-82650000D02*
X170950000Y-81700000D01*
X172315000Y-72250000D02*
X170950000Y-72250000D01*
X172315000Y-82650000D02*
X170950000Y-82650000D01*
X168125000Y-73240000D02*
X167785000Y-72770000D01*
X168465000Y-72770000D01*
X168125000Y-73240000D01*
G36*
X168125000Y-73240000D02*
G01*
X167785000Y-72770000D01*
X168465000Y-72770000D01*
X168125000Y-73240000D01*
G37*
%TO.C,C12*%
X132640000Y-119751248D02*
X132640000Y-121173752D01*
X135360000Y-119751248D02*
X135360000Y-121173752D01*
%TO.C,R9*%
X164014564Y-73065000D02*
X163560436Y-73065000D01*
X164014564Y-74535000D02*
X163560436Y-74535000D01*
%TO.C,J7*%
X104280000Y-114780000D02*
X114320000Y-114780000D01*
X104280000Y-117140000D02*
X104280000Y-114780000D01*
X104280000Y-130260000D02*
X104280000Y-117740000D01*
X104900000Y-114780000D02*
X104900000Y-130260000D01*
X106400000Y-114780000D02*
X106400000Y-130260000D01*
X111300000Y-114780000D02*
X111300000Y-130260000D01*
X114320000Y-114780000D02*
X114320000Y-130260000D01*
X114320000Y-130260000D02*
X104280000Y-130260000D01*
X104280000Y-117440000D02*
X103670000Y-117880000D01*
X103670000Y-117000000D01*
X104280000Y-117440000D01*
G36*
X104280000Y-117440000D02*
G01*
X103670000Y-117880000D01*
X103670000Y-117000000D01*
X104280000Y-117440000D01*
G37*
%TO.C,C13*%
X123765000Y-120598752D02*
X123765000Y-119176248D01*
X126485000Y-120598752D02*
X126485000Y-119176248D01*
%TO.C,J12*%
X182780000Y-72240000D02*
X192820000Y-72240000D01*
X182780000Y-82640000D02*
X182780000Y-72240000D01*
X185800000Y-82640000D02*
X185800000Y-72240000D01*
X190700000Y-82640000D02*
X190700000Y-72240000D01*
X192200000Y-82640000D02*
X192200000Y-72240000D01*
X192820000Y-72240000D02*
X192820000Y-79680000D01*
X192820000Y-80280000D02*
X192820000Y-82640000D01*
X192820000Y-82640000D02*
X182780000Y-82640000D01*
X192820000Y-79980000D02*
X193430000Y-79540000D01*
X193430000Y-80420000D01*
X192820000Y-79980000D01*
G36*
X193430000Y-80420000D02*
G01*
X192820000Y-79980000D01*
X193430000Y-79540000D01*
X193430000Y-80420000D01*
G37*
%TO.C,R7*%
X160965000Y-92885436D02*
X160965000Y-93339564D01*
X162435000Y-92885436D02*
X162435000Y-93339564D01*
%TO.C,U1*%
X131055000Y-74265000D02*
X141275000Y-74265000D01*
X131055000Y-78885000D02*
X131055000Y-74265000D01*
X134315000Y-78885000D02*
X134315000Y-77505000D01*
X138015000Y-78885000D02*
X138015000Y-77505000D01*
X141275000Y-74265000D02*
X141275000Y-78885000D01*
X141275000Y-77505000D02*
X131055000Y-77505000D01*
X141275000Y-78885000D02*
X131055000Y-78885000D01*
%TO.C,Y2*%
X126340000Y-124440000D02*
X126340000Y-129960000D01*
X130960000Y-124440000D02*
X126340000Y-124440000D01*
%TO.C,D3*%
X150175000Y-65840000D02*
X150175000Y-71350000D01*
X153475000Y-65840000D02*
X150175000Y-65840000D01*
X153475000Y-65840000D02*
X153475000Y-71350000D01*
%TO.C,D2*%
X143940000Y-97762500D02*
X143940000Y-101822500D01*
X143940000Y-101822500D02*
X146210000Y-101822500D01*
X146210000Y-101822500D02*
X146210000Y-97762500D01*
%TO.C,J1*%
X138460000Y-61780000D02*
X148860000Y-61780000D01*
X138460000Y-64800000D02*
X148860000Y-64800000D01*
X138460000Y-69700000D02*
X148860000Y-69700000D01*
X138460000Y-71200000D02*
X148860000Y-71200000D01*
X138460000Y-71820000D02*
X138460000Y-61780000D01*
X140820000Y-71820000D02*
X138460000Y-71820000D01*
X148860000Y-61780000D02*
X148860000Y-71820000D01*
X148860000Y-71820000D02*
X141420000Y-71820000D01*
X141120000Y-71820000D02*
X141560000Y-72430000D01*
X140680000Y-72430000D01*
X141120000Y-71820000D01*
G36*
X141560000Y-72430000D02*
G01*
X140680000Y-72430000D01*
X141120000Y-71820000D01*
X141560000Y-72430000D01*
G37*
%TO.C,J8*%
X104380000Y-131080000D02*
X114420000Y-131080000D01*
X104380000Y-133440000D02*
X104380000Y-131080000D01*
X104380000Y-146560000D02*
X104380000Y-134040000D01*
X105000000Y-131080000D02*
X105000000Y-146560000D01*
X106500000Y-131080000D02*
X106500000Y-146560000D01*
X111400000Y-131080000D02*
X111400000Y-146560000D01*
X114420000Y-131080000D02*
X114420000Y-146560000D01*
X114420000Y-146560000D02*
X104380000Y-146560000D01*
X104380000Y-133740000D02*
X103770000Y-134180000D01*
X103770000Y-133300000D01*
X104380000Y-133740000D01*
G36*
X104380000Y-133740000D02*
G01*
X103770000Y-134180000D01*
X103770000Y-133300000D01*
X104380000Y-133740000D01*
G37*
%TO.C,C15*%
X120826248Y-96390000D02*
X121348752Y-96390000D01*
X120826248Y-97860000D02*
X121348752Y-97860000D01*
%TO.C,Q5*%
X123820000Y-91940000D02*
X124820000Y-91940000D01*
X123820000Y-93460000D02*
X123820000Y-91940000D01*
X123870000Y-93460000D02*
X123820000Y-93460000D01*
X125770000Y-93460000D02*
X124990000Y-93460000D01*
X125940000Y-91940000D02*
X126940000Y-91940000D01*
X126940000Y-91940000D02*
X126940000Y-93460000D01*
X126940000Y-93460000D02*
X126890000Y-93460000D01*
X125000000Y-94000000D02*
X125330000Y-93760000D01*
X125330000Y-94240000D01*
X125000000Y-94000000D01*
G36*
X125330000Y-94240000D02*
G01*
X125000000Y-94000000D01*
X125330000Y-93760000D01*
X125330000Y-94240000D01*
G37*
%TO.C,C18*%
X132715000Y-146301248D02*
X132715000Y-146823752D01*
X134185000Y-146301248D02*
X134185000Y-146823752D01*
%TO.C,R8*%
X164114564Y-100690000D02*
X163660436Y-100690000D01*
X164114564Y-102160000D02*
X163660436Y-102160000D01*
%TO.C,J11*%
X182680000Y-90585000D02*
X192720000Y-90585000D01*
X182680000Y-106065000D02*
X182680000Y-90585000D01*
X185700000Y-106065000D02*
X185700000Y-90585000D01*
X190600000Y-106065000D02*
X190600000Y-90585000D01*
X192100000Y-106065000D02*
X192100000Y-90585000D01*
X192720000Y-90585000D02*
X192720000Y-103105000D01*
X192720000Y-103705000D02*
X192720000Y-106065000D01*
X192720000Y-106065000D02*
X182680000Y-106065000D01*
X192720000Y-103405000D02*
X193330000Y-102965000D01*
X193330000Y-103845000D01*
X192720000Y-103405000D01*
G36*
X193330000Y-103845000D02*
G01*
X192720000Y-103405000D01*
X193330000Y-102965000D01*
X193330000Y-103845000D01*
G37*
%TO.C,C16*%
X123545000Y-92575000D02*
G75*
G02*
X118305000Y-92575000I-2620000J0D01*
G01*
X118305000Y-92575000D02*
G75*
G02*
X123545000Y-92575000I2620000J0D01*
G01*
%TO.C,C22*%
X133753733Y-128940000D02*
X134046267Y-128940000D01*
X133753733Y-129960000D02*
X134046267Y-129960000D01*
%TO.C,C4*%
X143420000Y-100900000D02*
G75*
G02*
X138180000Y-100900000I-2620000J0D01*
G01*
X138180000Y-100900000D02*
G75*
G02*
X143420000Y-100900000I2620000J0D01*
G01*
%TD*%
M02*
